G04 #@! TF.FileFunction,Legend,Top*
%FSLAX45Y45*%
G04 Gerber Fmt 4.5, Leading zero omitted, Abs format (unit mm)*
G04 Created by KiCad (PCBNEW 4.0.7-e2-6376~58~ubuntu16.04.1) date Wed Sep 20 12:08:19 2017*
%MOMM*%
%LPD*%
G01*
G04 APERTURE LIST*
%ADD10C,0.100000*%
%ADD11C,0.203200*%
%ADD12C,0.254000*%
%ADD13C,0.299720*%
%ADD14C,0.304800*%
%ADD15C,0.150000*%
%ADD16C,0.200000*%
%ADD17C,0.002540*%
%ADD18C,0.120000*%
%ADD19C,0.381000*%
G04 APERTURE END LIST*
D10*
D11*
X10894181Y-3284462D02*
X10957076Y-3284462D01*
X10923210Y-3323167D01*
X10937724Y-3323167D01*
X10947400Y-3328005D01*
X10952238Y-3332843D01*
X10957076Y-3342519D01*
X10957076Y-3366709D01*
X10952238Y-3376386D01*
X10947400Y-3381224D01*
X10937724Y-3386062D01*
X10908695Y-3386062D01*
X10899019Y-3381224D01*
X10894181Y-3376386D01*
X10990943Y-3318329D02*
X11015133Y-3386062D01*
X11039324Y-3318329D01*
X11068352Y-3284462D02*
X11131248Y-3284462D01*
X11097381Y-3323167D01*
X11111895Y-3323167D01*
X11121571Y-3328005D01*
X11126410Y-3332843D01*
X11131248Y-3342519D01*
X11131248Y-3366709D01*
X11126410Y-3376386D01*
X11121571Y-3381224D01*
X11111895Y-3386062D01*
X11082867Y-3386062D01*
X11073191Y-3381224D01*
X11068352Y-3376386D01*
X10763552Y-3132062D02*
X10763552Y-3030462D01*
X10787743Y-3030462D01*
X10802257Y-3035300D01*
X10811933Y-3044976D01*
X10816771Y-3054652D01*
X10821610Y-3074005D01*
X10821610Y-3088519D01*
X10816771Y-3107871D01*
X10811933Y-3117548D01*
X10802257Y-3127224D01*
X10787743Y-3132062D01*
X10763552Y-3132062D01*
X10918371Y-3035300D02*
X10908695Y-3030462D01*
X10894181Y-3030462D01*
X10879667Y-3035300D01*
X10869991Y-3044976D01*
X10865152Y-3054652D01*
X10860314Y-3074005D01*
X10860314Y-3088519D01*
X10865152Y-3107871D01*
X10869991Y-3117548D01*
X10879667Y-3127224D01*
X10894181Y-3132062D01*
X10903857Y-3132062D01*
X10918371Y-3127224D01*
X10923210Y-3122386D01*
X10923210Y-3088519D01*
X10903857Y-3088519D01*
X10966752Y-3132062D02*
X10966752Y-3030462D01*
X11024810Y-3132062D01*
X11024810Y-3030462D01*
X11073191Y-3132062D02*
X11073191Y-3030462D01*
X11097381Y-3030462D01*
X11111895Y-3035300D01*
X11121571Y-3044976D01*
X11126410Y-3054652D01*
X11131248Y-3074005D01*
X11131248Y-3088519D01*
X11126410Y-3107871D01*
X11121571Y-3117548D01*
X11111895Y-3127224D01*
X11097381Y-3132062D01*
X11073191Y-3132062D01*
D12*
X11785600Y-4102100D02*
X11531600Y-3848100D01*
X11849100Y-4102100D02*
X11785600Y-4102100D01*
X11849100Y-3594100D02*
X11531600Y-3594100D01*
X4419600Y-3784600D02*
X4419600Y-3657600D01*
D11*
X11846076Y-4363962D02*
X11797695Y-4363962D01*
X11792857Y-4412343D01*
X11797695Y-4407505D01*
X11807371Y-4402667D01*
X11831562Y-4402667D01*
X11841238Y-4407505D01*
X11846076Y-4412343D01*
X11850914Y-4422019D01*
X11850914Y-4446210D01*
X11846076Y-4455886D01*
X11841238Y-4460724D01*
X11831562Y-4465562D01*
X11807371Y-4465562D01*
X11797695Y-4460724D01*
X11792857Y-4455886D01*
X11879943Y-4363962D02*
X11913810Y-4465562D01*
X11947676Y-4363962D01*
X12054114Y-4460724D02*
X12068629Y-4465562D01*
X12092819Y-4465562D01*
X12102495Y-4460724D01*
X12107333Y-4455886D01*
X12112171Y-4446210D01*
X12112171Y-4436533D01*
X12107333Y-4426857D01*
X12102495Y-4422019D01*
X12092819Y-4417181D01*
X12073467Y-4412343D01*
X12063790Y-4407505D01*
X12058952Y-4402667D01*
X12054114Y-4392991D01*
X12054114Y-4383314D01*
X12058952Y-4373638D01*
X12063790Y-4368800D01*
X12073467Y-4363962D01*
X12097657Y-4363962D01*
X12112171Y-4368800D01*
X12155714Y-4412343D02*
X12189581Y-4412343D01*
X12204095Y-4465562D02*
X12155714Y-4465562D01*
X12155714Y-4363962D01*
X12204095Y-4363962D01*
X12296019Y-4465562D02*
X12247638Y-4465562D01*
X12247638Y-4363962D01*
D12*
X4737100Y-3784600D02*
X4737100Y-4038600D01*
D11*
X3916438Y-3421864D02*
X3930952Y-3426702D01*
X3955143Y-3426702D01*
X3964819Y-3421864D01*
X3969657Y-3417026D01*
X3974495Y-3407349D01*
X3974495Y-3397673D01*
X3969657Y-3387997D01*
X3964819Y-3383159D01*
X3955143Y-3378321D01*
X3935791Y-3373483D01*
X3926114Y-3368645D01*
X3921276Y-3363807D01*
X3916438Y-3354130D01*
X3916438Y-3344454D01*
X3921276Y-3334778D01*
X3926114Y-3329940D01*
X3935791Y-3325102D01*
X3959981Y-3325102D01*
X3974495Y-3329940D01*
X4018038Y-3373483D02*
X4051905Y-3373483D01*
X4066419Y-3426702D02*
X4018038Y-3426702D01*
X4018038Y-3325102D01*
X4066419Y-3325102D01*
X4095448Y-3325102D02*
X4153505Y-3325102D01*
X4124476Y-3426702D02*
X4124476Y-3325102D01*
X4298648Y-3373483D02*
X4313162Y-3378321D01*
X4318000Y-3383159D01*
X4322838Y-3392835D01*
X4322838Y-3407349D01*
X4318000Y-3417026D01*
X4313162Y-3421864D01*
X4303486Y-3426702D01*
X4264781Y-3426702D01*
X4264781Y-3325102D01*
X4298648Y-3325102D01*
X4308324Y-3329940D01*
X4313162Y-3334778D01*
X4318000Y-3344454D01*
X4318000Y-3354130D01*
X4313162Y-3363807D01*
X4308324Y-3368645D01*
X4298648Y-3373483D01*
X4264781Y-3373483D01*
X4385733Y-3325102D02*
X4405086Y-3325102D01*
X4414762Y-3329940D01*
X4424438Y-3339616D01*
X4429276Y-3358969D01*
X4429276Y-3392835D01*
X4424438Y-3412188D01*
X4414762Y-3421864D01*
X4405086Y-3426702D01*
X4385733Y-3426702D01*
X4376057Y-3421864D01*
X4366381Y-3412188D01*
X4361543Y-3392835D01*
X4361543Y-3358969D01*
X4366381Y-3339616D01*
X4376057Y-3329940D01*
X4385733Y-3325102D01*
X4458305Y-3325102D02*
X4516362Y-3325102D01*
X4487333Y-3426702D02*
X4487333Y-3325102D01*
X4550229Y-3426702D02*
X4550229Y-3325102D01*
X4550229Y-3373483D02*
X4608286Y-3373483D01*
X4608286Y-3426702D02*
X4608286Y-3325102D01*
X4734076Y-3426702D02*
X4734076Y-3325102D01*
X4782457Y-3426702D02*
X4782457Y-3325102D01*
X4840514Y-3426702D01*
X4840514Y-3325102D01*
X3819676Y-3594584D02*
X3834190Y-3599422D01*
X3858381Y-3599422D01*
X3868057Y-3594584D01*
X3872895Y-3589746D01*
X3877733Y-3580069D01*
X3877733Y-3570393D01*
X3872895Y-3560717D01*
X3868057Y-3555879D01*
X3858381Y-3551041D01*
X3839029Y-3546203D01*
X3829352Y-3541365D01*
X3824514Y-3536527D01*
X3819676Y-3526850D01*
X3819676Y-3517174D01*
X3824514Y-3507498D01*
X3829352Y-3502660D01*
X3839029Y-3497822D01*
X3863219Y-3497822D01*
X3877733Y-3502660D01*
X3916438Y-3570393D02*
X3964819Y-3570393D01*
X3906762Y-3599422D02*
X3940629Y-3497822D01*
X3974495Y-3599422D01*
X4008362Y-3599422D02*
X4008362Y-3497822D01*
X4042228Y-3570393D01*
X4076095Y-3497822D01*
X4076095Y-3599422D01*
X4124476Y-3546203D02*
X4158343Y-3546203D01*
X4172857Y-3599422D02*
X4124476Y-3599422D01*
X4124476Y-3497822D01*
X4172857Y-3497822D01*
X4293810Y-3599422D02*
X4293810Y-3497822D01*
X4332514Y-3497822D01*
X4342190Y-3502660D01*
X4347029Y-3507498D01*
X4351867Y-3517174D01*
X4351867Y-3531689D01*
X4347029Y-3541365D01*
X4342190Y-3546203D01*
X4332514Y-3551041D01*
X4293810Y-3551041D01*
X4414762Y-3497822D02*
X4434114Y-3497822D01*
X4443790Y-3502660D01*
X4453467Y-3512336D01*
X4458305Y-3531689D01*
X4458305Y-3565555D01*
X4453467Y-3584908D01*
X4443790Y-3594584D01*
X4434114Y-3599422D01*
X4414762Y-3599422D01*
X4405086Y-3594584D01*
X4395410Y-3584908D01*
X4390571Y-3565555D01*
X4390571Y-3531689D01*
X4395410Y-3512336D01*
X4405086Y-3502660D01*
X4414762Y-3497822D01*
X4497010Y-3594584D02*
X4511524Y-3599422D01*
X4535714Y-3599422D01*
X4545390Y-3594584D01*
X4550229Y-3589746D01*
X4555067Y-3580069D01*
X4555067Y-3570393D01*
X4550229Y-3560717D01*
X4545390Y-3555879D01*
X4535714Y-3551041D01*
X4516362Y-3546203D01*
X4506686Y-3541365D01*
X4501848Y-3536527D01*
X4497010Y-3526850D01*
X4497010Y-3517174D01*
X4501848Y-3507498D01*
X4506686Y-3502660D01*
X4516362Y-3497822D01*
X4540552Y-3497822D01*
X4555067Y-3502660D01*
X4598610Y-3599422D02*
X4598610Y-3497822D01*
X4632476Y-3497822D02*
X4690533Y-3497822D01*
X4661505Y-3599422D02*
X4661505Y-3497822D01*
X4724400Y-3599422D02*
X4724400Y-3497822D01*
X4792133Y-3497822D02*
X4811486Y-3497822D01*
X4821162Y-3502660D01*
X4830838Y-3512336D01*
X4835676Y-3531689D01*
X4835676Y-3565555D01*
X4830838Y-3584908D01*
X4821162Y-3594584D01*
X4811486Y-3599422D01*
X4792133Y-3599422D01*
X4782457Y-3594584D01*
X4772781Y-3584908D01*
X4767943Y-3565555D01*
X4767943Y-3531689D01*
X4772781Y-3512336D01*
X4782457Y-3502660D01*
X4792133Y-3497822D01*
X4879219Y-3599422D02*
X4879219Y-3497822D01*
X4937276Y-3599422D01*
X4937276Y-3497822D01*
D12*
X4102100Y-3784600D02*
X4102100Y-4038600D01*
X4737100Y-3784600D02*
X4102100Y-3784600D01*
D11*
X9739691Y-4338562D02*
X9739691Y-4236962D01*
X9778395Y-4236962D01*
X9788071Y-4241800D01*
X9792910Y-4246638D01*
X9797748Y-4256314D01*
X9797748Y-4270829D01*
X9792910Y-4280505D01*
X9788071Y-4285343D01*
X9778395Y-4290181D01*
X9739691Y-4290181D01*
X9841291Y-4338562D02*
X9841291Y-4236962D01*
X9865481Y-4236962D01*
X9879995Y-4241800D01*
X9889671Y-4251476D01*
X9894510Y-4261152D01*
X9899348Y-4280505D01*
X9899348Y-4295019D01*
X9894510Y-4314371D01*
X9889671Y-4324048D01*
X9879995Y-4333724D01*
X9865481Y-4338562D01*
X9841291Y-4338562D01*
X10245272Y-4338562D02*
X10245272Y-4236962D01*
X10283976Y-4236962D01*
X10293652Y-4241800D01*
X10298491Y-4246638D01*
X10303329Y-4256314D01*
X10303329Y-4270829D01*
X10298491Y-4280505D01*
X10293652Y-4285343D01*
X10283976Y-4290181D01*
X10245272Y-4290181D01*
X10346872Y-4236962D02*
X10346872Y-4319210D01*
X10351710Y-4328886D01*
X10356548Y-4333724D01*
X10366224Y-4338562D01*
X10385576Y-4338562D01*
X10395252Y-4333724D01*
X10400091Y-4328886D01*
X10404929Y-4319210D01*
X10404929Y-4236962D01*
X3728357Y-7795828D02*
X3728357Y-7718419D01*
X3767062Y-7757124D02*
X3689652Y-7757124D01*
X3665462Y-7621657D02*
X3665462Y-7670038D01*
X3713843Y-7674876D01*
X3709005Y-7670038D01*
X3704167Y-7660362D01*
X3704167Y-7636171D01*
X3709005Y-7626495D01*
X3713843Y-7621657D01*
X3723519Y-7616819D01*
X3747709Y-7616819D01*
X3757386Y-7621657D01*
X3762224Y-7626495D01*
X3767062Y-7636171D01*
X3767062Y-7660362D01*
X3762224Y-7670038D01*
X3757386Y-7674876D01*
X3665462Y-7587790D02*
X3767062Y-7553924D01*
X3665462Y-7520057D01*
X3670300Y-8211009D02*
X3665462Y-8220686D01*
X3665462Y-8235200D01*
X3670300Y-8249714D01*
X3679976Y-8259390D01*
X3689652Y-8264228D01*
X3709005Y-8269067D01*
X3723519Y-8269067D01*
X3742871Y-8264228D01*
X3752548Y-8259390D01*
X3762224Y-8249714D01*
X3767062Y-8235200D01*
X3767062Y-8225524D01*
X3762224Y-8211009D01*
X3757386Y-8206171D01*
X3723519Y-8206171D01*
X3723519Y-8225524D01*
X3767062Y-8162628D02*
X3665462Y-8162628D01*
X3767062Y-8104571D01*
X3665462Y-8104571D01*
X3767062Y-8056190D02*
X3665462Y-8056190D01*
X3665462Y-8032000D01*
X3670300Y-8017486D01*
X3679976Y-8007809D01*
X3689652Y-8002971D01*
X3709005Y-7998133D01*
X3723519Y-7998133D01*
X3742871Y-8002971D01*
X3752548Y-8007809D01*
X3762224Y-8017486D01*
X3767062Y-8032000D01*
X3767062Y-8056190D01*
X3767062Y-8502952D02*
X3767062Y-8561010D01*
X3767062Y-8531981D02*
X3665462Y-8531981D01*
X3679976Y-8541657D01*
X3689652Y-8551333D01*
X3694490Y-8561010D01*
X3665462Y-8440057D02*
X3665462Y-8430381D01*
X3670300Y-8420705D01*
X3675138Y-8415867D01*
X3684814Y-8411029D01*
X3704167Y-8406191D01*
X3728357Y-8406191D01*
X3747709Y-8411029D01*
X3757386Y-8415867D01*
X3762224Y-8420705D01*
X3767062Y-8430381D01*
X3767062Y-8440057D01*
X3762224Y-8449733D01*
X3757386Y-8454571D01*
X3747709Y-8459410D01*
X3728357Y-8464248D01*
X3704167Y-8464248D01*
X3684814Y-8459410D01*
X3675138Y-8454571D01*
X3670300Y-8449733D01*
X3665462Y-8440057D01*
X3728357Y-8964229D02*
X3728357Y-8886819D01*
X3767062Y-8925524D02*
X3689652Y-8925524D01*
X3665462Y-8790057D02*
X3665462Y-8838438D01*
X3713843Y-8843276D01*
X3709005Y-8838438D01*
X3704167Y-8828762D01*
X3704167Y-8804571D01*
X3709005Y-8794895D01*
X3713843Y-8790057D01*
X3723519Y-8785219D01*
X3747709Y-8785219D01*
X3757386Y-8790057D01*
X3762224Y-8794895D01*
X3767062Y-8804571D01*
X3767062Y-8828762D01*
X3762224Y-8838438D01*
X3757386Y-8843276D01*
X3665462Y-8756190D02*
X3767062Y-8722324D01*
X3665462Y-8688457D01*
X3767062Y-7334552D02*
X3767062Y-7392609D01*
X3767062Y-7363581D02*
X3665462Y-7363581D01*
X3679976Y-7373257D01*
X3689652Y-7382933D01*
X3694490Y-7392609D01*
X3767062Y-7237790D02*
X3767062Y-7295848D01*
X3767062Y-7266819D02*
X3665462Y-7266819D01*
X3679976Y-7276495D01*
X3689652Y-7286171D01*
X3694490Y-7295848D01*
X3670300Y-7042609D02*
X3665462Y-7052286D01*
X3665462Y-7066800D01*
X3670300Y-7081314D01*
X3679976Y-7090990D01*
X3689652Y-7095828D01*
X3709005Y-7100667D01*
X3723519Y-7100667D01*
X3742871Y-7095828D01*
X3752548Y-7090990D01*
X3762224Y-7081314D01*
X3767062Y-7066800D01*
X3767062Y-7057124D01*
X3762224Y-7042609D01*
X3757386Y-7037771D01*
X3723519Y-7037771D01*
X3723519Y-7057124D01*
X3767062Y-6994228D02*
X3665462Y-6994228D01*
X3767062Y-6936171D01*
X3665462Y-6936171D01*
X3767062Y-6887790D02*
X3665462Y-6887790D01*
X3665462Y-6863600D01*
X3670300Y-6849086D01*
X3679976Y-6839409D01*
X3689652Y-6834571D01*
X3709005Y-6829733D01*
X3723519Y-6829733D01*
X3742871Y-6834571D01*
X3752548Y-6839409D01*
X3762224Y-6849086D01*
X3767062Y-6863600D01*
X3767062Y-6887790D01*
X3670300Y-5874209D02*
X3665462Y-5883886D01*
X3665462Y-5898400D01*
X3670300Y-5912914D01*
X3679976Y-5922590D01*
X3689652Y-5927428D01*
X3709005Y-5932267D01*
X3723519Y-5932267D01*
X3742871Y-5927428D01*
X3752548Y-5922590D01*
X3762224Y-5912914D01*
X3767062Y-5898400D01*
X3767062Y-5888724D01*
X3762224Y-5874209D01*
X3757386Y-5869371D01*
X3723519Y-5869371D01*
X3723519Y-5888724D01*
X3767062Y-5825828D02*
X3665462Y-5825828D01*
X3767062Y-5767771D01*
X3665462Y-5767771D01*
X3767062Y-5719390D02*
X3665462Y-5719390D01*
X3665462Y-5695200D01*
X3670300Y-5680686D01*
X3679976Y-5671009D01*
X3689652Y-5666171D01*
X3709005Y-5661333D01*
X3723519Y-5661333D01*
X3742871Y-5666171D01*
X3752548Y-5671009D01*
X3762224Y-5680686D01*
X3767062Y-5695200D01*
X3767062Y-5719390D01*
X3767062Y-6166152D02*
X3767062Y-6224209D01*
X3767062Y-6195181D02*
X3665462Y-6195181D01*
X3679976Y-6204857D01*
X3689652Y-6214533D01*
X3694490Y-6224209D01*
X3675138Y-6127448D02*
X3670300Y-6122609D01*
X3665462Y-6112933D01*
X3665462Y-6088743D01*
X3670300Y-6079067D01*
X3675138Y-6074229D01*
X3684814Y-6069390D01*
X3694490Y-6069390D01*
X3709005Y-6074229D01*
X3767062Y-6132286D01*
X3767062Y-6069390D01*
X3728357Y-6627428D02*
X3728357Y-6550019D01*
X3767062Y-6588724D02*
X3689652Y-6588724D01*
X3665462Y-6453257D02*
X3665462Y-6501638D01*
X3713843Y-6506476D01*
X3709005Y-6501638D01*
X3704167Y-6491962D01*
X3704167Y-6467771D01*
X3709005Y-6458095D01*
X3713843Y-6453257D01*
X3723519Y-6448419D01*
X3747709Y-6448419D01*
X3757386Y-6453257D01*
X3762224Y-6458095D01*
X3767062Y-6467771D01*
X3767062Y-6491962D01*
X3762224Y-6501638D01*
X3757386Y-6506476D01*
X3665462Y-6419390D02*
X3767062Y-6385524D01*
X3665462Y-6351657D01*
X3728357Y-5459029D02*
X3728357Y-5381619D01*
X3767062Y-5420324D02*
X3689652Y-5420324D01*
X3665462Y-5284857D02*
X3665462Y-5333238D01*
X3713843Y-5338076D01*
X3709005Y-5333238D01*
X3704167Y-5323562D01*
X3704167Y-5299371D01*
X3709005Y-5289695D01*
X3713843Y-5284857D01*
X3723519Y-5280019D01*
X3747709Y-5280019D01*
X3757386Y-5284857D01*
X3762224Y-5289695D01*
X3767062Y-5299371D01*
X3767062Y-5323562D01*
X3762224Y-5333238D01*
X3757386Y-5338076D01*
X3665462Y-5250990D02*
X3767062Y-5217124D01*
X3665462Y-5183257D01*
X3767062Y-4997752D02*
X3767062Y-5055810D01*
X3767062Y-5026781D02*
X3665462Y-5026781D01*
X3679976Y-5036457D01*
X3689652Y-5046133D01*
X3694490Y-5055810D01*
X3665462Y-4963886D02*
X3665462Y-4900991D01*
X3704167Y-4934857D01*
X3704167Y-4920343D01*
X3709005Y-4910667D01*
X3713843Y-4905829D01*
X3723519Y-4900991D01*
X3747709Y-4900991D01*
X3757386Y-4905829D01*
X3762224Y-4910667D01*
X3767062Y-4920343D01*
X3767062Y-4949371D01*
X3762224Y-4959048D01*
X3757386Y-4963886D01*
X3670300Y-4705810D02*
X3665462Y-4715486D01*
X3665462Y-4730000D01*
X3670300Y-4744514D01*
X3679976Y-4754190D01*
X3689652Y-4759029D01*
X3709005Y-4763867D01*
X3723519Y-4763867D01*
X3742871Y-4759029D01*
X3752548Y-4754190D01*
X3762224Y-4744514D01*
X3767062Y-4730000D01*
X3767062Y-4720324D01*
X3762224Y-4705810D01*
X3757386Y-4700971D01*
X3723519Y-4700971D01*
X3723519Y-4720324D01*
X3767062Y-4657429D02*
X3665462Y-4657429D01*
X3767062Y-4599371D01*
X3665462Y-4599371D01*
X3767062Y-4550990D02*
X3665462Y-4550990D01*
X3665462Y-4526800D01*
X3670300Y-4512286D01*
X3679976Y-4502610D01*
X3689652Y-4497771D01*
X3709005Y-4492933D01*
X3723519Y-4492933D01*
X3742871Y-4497771D01*
X3752548Y-4502610D01*
X3762224Y-4512286D01*
X3767062Y-4526800D01*
X3767062Y-4550990D01*
X3670300Y-3537409D02*
X3665462Y-3547086D01*
X3665462Y-3561600D01*
X3670300Y-3576114D01*
X3679976Y-3585790D01*
X3689652Y-3590628D01*
X3709005Y-3595467D01*
X3723519Y-3595467D01*
X3742871Y-3590628D01*
X3752548Y-3585790D01*
X3762224Y-3576114D01*
X3767062Y-3561600D01*
X3767062Y-3551924D01*
X3762224Y-3537409D01*
X3757386Y-3532571D01*
X3723519Y-3532571D01*
X3723519Y-3551924D01*
X3767062Y-3489028D02*
X3665462Y-3489028D01*
X3767062Y-3430971D01*
X3665462Y-3430971D01*
X3767062Y-3382590D02*
X3665462Y-3382590D01*
X3665462Y-3358400D01*
X3670300Y-3343886D01*
X3679976Y-3334209D01*
X3689652Y-3329371D01*
X3709005Y-3324533D01*
X3723519Y-3324533D01*
X3742871Y-3329371D01*
X3752548Y-3334209D01*
X3762224Y-3343886D01*
X3767062Y-3358400D01*
X3767062Y-3382590D01*
X3767062Y-3829352D02*
X3767062Y-3887409D01*
X3767062Y-3858381D02*
X3665462Y-3858381D01*
X3679976Y-3868057D01*
X3689652Y-3877733D01*
X3694490Y-3887409D01*
X3665462Y-3737429D02*
X3665462Y-3785809D01*
X3713843Y-3790648D01*
X3709005Y-3785809D01*
X3704167Y-3776133D01*
X3704167Y-3751943D01*
X3709005Y-3742267D01*
X3713843Y-3737429D01*
X3723519Y-3732590D01*
X3747709Y-3732590D01*
X3757386Y-3737429D01*
X3762224Y-3742267D01*
X3767062Y-3751943D01*
X3767062Y-3776133D01*
X3762224Y-3785809D01*
X3757386Y-3790648D01*
X3728357Y-4290629D02*
X3728357Y-4213219D01*
X3767062Y-4251924D02*
X3689652Y-4251924D01*
X3665462Y-4116457D02*
X3665462Y-4164838D01*
X3713843Y-4169676D01*
X3709005Y-4164838D01*
X3704167Y-4155162D01*
X3704167Y-4130971D01*
X3709005Y-4121295D01*
X3713843Y-4116457D01*
X3723519Y-4111619D01*
X3747709Y-4111619D01*
X3757386Y-4116457D01*
X3762224Y-4121295D01*
X3767062Y-4130971D01*
X3767062Y-4155162D01*
X3762224Y-4164838D01*
X3757386Y-4169676D01*
X3665462Y-4082590D02*
X3767062Y-4048724D01*
X3665462Y-4014857D01*
X6000290Y-3606800D02*
X5990614Y-3601962D01*
X5976100Y-3601962D01*
X5961586Y-3606800D01*
X5951910Y-3616476D01*
X5947071Y-3626152D01*
X5942233Y-3645505D01*
X5942233Y-3660019D01*
X5947071Y-3679371D01*
X5951910Y-3689048D01*
X5961586Y-3698724D01*
X5976100Y-3703562D01*
X5985776Y-3703562D01*
X6000290Y-3698724D01*
X6005129Y-3693886D01*
X6005129Y-3660019D01*
X5985776Y-3660019D01*
X6048671Y-3703562D02*
X6048671Y-3601962D01*
X6106729Y-3703562D01*
X6106729Y-3601962D01*
X6155110Y-3703562D02*
X6155110Y-3601962D01*
X6179300Y-3601962D01*
X6193814Y-3606800D01*
X6203490Y-3616476D01*
X6208329Y-3626152D01*
X6213167Y-3645505D01*
X6213167Y-3660019D01*
X6208329Y-3679371D01*
X6203490Y-3689048D01*
X6193814Y-3698724D01*
X6179300Y-3703562D01*
X6155110Y-3703562D01*
X5674481Y-3601962D02*
X5684157Y-3601962D01*
X5693833Y-3606800D01*
X5698671Y-3611638D01*
X5703509Y-3621314D01*
X5708348Y-3640667D01*
X5708348Y-3664857D01*
X5703509Y-3684209D01*
X5698671Y-3693886D01*
X5693833Y-3698724D01*
X5684157Y-3703562D01*
X5674481Y-3703562D01*
X5664805Y-3698724D01*
X5659967Y-3693886D01*
X5655129Y-3684209D01*
X5650290Y-3664857D01*
X5650290Y-3640667D01*
X5655129Y-3621314D01*
X5659967Y-3611638D01*
X5664805Y-3606800D01*
X5674481Y-3601962D01*
X5805109Y-3703562D02*
X5747052Y-3703562D01*
X5776081Y-3703562D02*
X5776081Y-3601962D01*
X5766405Y-3616476D01*
X5756729Y-3626152D01*
X5747052Y-3630990D01*
X5247072Y-3664857D02*
X5324481Y-3664857D01*
X5285776Y-3703562D02*
X5285776Y-3626152D01*
X5421243Y-3601962D02*
X5372862Y-3601962D01*
X5368024Y-3650343D01*
X5372862Y-3645505D01*
X5382538Y-3640667D01*
X5406729Y-3640667D01*
X5416405Y-3645505D01*
X5421243Y-3650343D01*
X5426081Y-3660019D01*
X5426081Y-3684209D01*
X5421243Y-3693886D01*
X5416405Y-3698724D01*
X5406729Y-3703562D01*
X5382538Y-3703562D01*
X5372862Y-3698724D01*
X5368024Y-3693886D01*
X5455110Y-3601962D02*
X5488976Y-3703562D01*
X5522843Y-3601962D01*
X6415471Y-3664857D02*
X6492881Y-3664857D01*
X6454176Y-3703562D02*
X6454176Y-3626152D01*
X6589643Y-3601962D02*
X6541262Y-3601962D01*
X6536424Y-3650343D01*
X6541262Y-3645505D01*
X6550938Y-3640667D01*
X6575129Y-3640667D01*
X6584805Y-3645505D01*
X6589643Y-3650343D01*
X6594481Y-3660019D01*
X6594481Y-3684209D01*
X6589643Y-3693886D01*
X6584805Y-3698724D01*
X6575129Y-3703562D01*
X6550938Y-3703562D01*
X6541262Y-3698724D01*
X6536424Y-3693886D01*
X6623510Y-3601962D02*
X6657376Y-3703562D01*
X6691243Y-3601962D01*
X6876748Y-3703562D02*
X6818690Y-3703562D01*
X6847719Y-3703562D02*
X6847719Y-3601962D01*
X6838043Y-3616476D01*
X6828367Y-3626152D01*
X6818690Y-3630990D01*
X6963833Y-3635829D02*
X6963833Y-3703562D01*
X6939643Y-3597124D02*
X6915452Y-3669695D01*
X6978348Y-3669695D01*
X7168690Y-3606800D02*
X7159014Y-3601962D01*
X7144500Y-3601962D01*
X7129986Y-3606800D01*
X7120310Y-3616476D01*
X7115471Y-3626152D01*
X7110633Y-3645505D01*
X7110633Y-3660019D01*
X7115471Y-3679371D01*
X7120310Y-3689048D01*
X7129986Y-3698724D01*
X7144500Y-3703562D01*
X7154176Y-3703562D01*
X7168690Y-3698724D01*
X7173529Y-3693886D01*
X7173529Y-3660019D01*
X7154176Y-3660019D01*
X7217071Y-3703562D02*
X7217071Y-3601962D01*
X7275129Y-3703562D01*
X7275129Y-3601962D01*
X7323510Y-3703562D02*
X7323510Y-3601962D01*
X7347700Y-3601962D01*
X7362214Y-3606800D01*
X7371890Y-3616476D01*
X7376729Y-3626152D01*
X7381567Y-3645505D01*
X7381567Y-3660019D01*
X7376729Y-3679371D01*
X7371890Y-3689048D01*
X7362214Y-3698724D01*
X7347700Y-3703562D01*
X7323510Y-3703562D01*
X8337090Y-3606800D02*
X8327414Y-3601962D01*
X8312900Y-3601962D01*
X8298386Y-3606800D01*
X8288710Y-3616476D01*
X8283871Y-3626152D01*
X8279033Y-3645505D01*
X8279033Y-3660019D01*
X8283871Y-3679371D01*
X8288710Y-3689048D01*
X8298386Y-3698724D01*
X8312900Y-3703562D01*
X8322576Y-3703562D01*
X8337090Y-3698724D01*
X8341929Y-3693886D01*
X8341929Y-3660019D01*
X8322576Y-3660019D01*
X8385471Y-3703562D02*
X8385471Y-3601962D01*
X8443529Y-3703562D01*
X8443529Y-3601962D01*
X8491910Y-3703562D02*
X8491910Y-3601962D01*
X8516100Y-3601962D01*
X8530614Y-3606800D01*
X8540291Y-3616476D01*
X8545129Y-3626152D01*
X8549967Y-3645505D01*
X8549967Y-3660019D01*
X8545129Y-3679371D01*
X8540291Y-3689048D01*
X8530614Y-3698724D01*
X8516100Y-3703562D01*
X8491910Y-3703562D01*
X8045148Y-3703562D02*
X7987090Y-3703562D01*
X8016119Y-3703562D02*
X8016119Y-3601962D01*
X8006443Y-3616476D01*
X7996767Y-3626152D01*
X7987090Y-3630990D01*
X8132233Y-3601962D02*
X8112881Y-3601962D01*
X8103205Y-3606800D01*
X8098367Y-3611638D01*
X8088690Y-3626152D01*
X8083852Y-3645505D01*
X8083852Y-3684209D01*
X8088690Y-3693886D01*
X8093529Y-3698724D01*
X8103205Y-3703562D01*
X8122557Y-3703562D01*
X8132233Y-3698724D01*
X8137071Y-3693886D01*
X8141909Y-3684209D01*
X8141909Y-3660019D01*
X8137071Y-3650343D01*
X8132233Y-3645505D01*
X8122557Y-3640667D01*
X8103205Y-3640667D01*
X8093529Y-3645505D01*
X8088690Y-3650343D01*
X8083852Y-3660019D01*
X7583871Y-3664857D02*
X7661281Y-3664857D01*
X7622576Y-3703562D02*
X7622576Y-3626152D01*
X7758043Y-3601962D02*
X7709662Y-3601962D01*
X7704824Y-3650343D01*
X7709662Y-3645505D01*
X7719338Y-3640667D01*
X7743529Y-3640667D01*
X7753205Y-3645505D01*
X7758043Y-3650343D01*
X7762881Y-3660019D01*
X7762881Y-3684209D01*
X7758043Y-3693886D01*
X7753205Y-3698724D01*
X7743529Y-3703562D01*
X7719338Y-3703562D01*
X7709662Y-3698724D01*
X7704824Y-3693886D01*
X7791910Y-3601962D02*
X7825776Y-3703562D01*
X7859643Y-3601962D01*
X8752272Y-3664857D02*
X8829681Y-3664857D01*
X8790976Y-3703562D02*
X8790976Y-3626152D01*
X8926443Y-3601962D02*
X8878062Y-3601962D01*
X8873224Y-3650343D01*
X8878062Y-3645505D01*
X8887738Y-3640667D01*
X8911929Y-3640667D01*
X8921605Y-3645505D01*
X8926443Y-3650343D01*
X8931281Y-3660019D01*
X8931281Y-3684209D01*
X8926443Y-3693886D01*
X8921605Y-3698724D01*
X8911929Y-3703562D01*
X8887738Y-3703562D01*
X8878062Y-3698724D01*
X8873224Y-3693886D01*
X8960310Y-3601962D02*
X8994176Y-3703562D01*
X9028043Y-3601962D01*
X9213548Y-3703562D02*
X9155491Y-3703562D01*
X9184519Y-3703562D02*
X9184519Y-3601962D01*
X9174843Y-3616476D01*
X9165167Y-3626152D01*
X9155491Y-3630990D01*
X9247414Y-3601962D02*
X9315148Y-3601962D01*
X9271605Y-3703562D01*
X9505491Y-3606800D02*
X9495814Y-3601962D01*
X9481300Y-3601962D01*
X9466786Y-3606800D01*
X9457110Y-3616476D01*
X9452272Y-3626152D01*
X9447433Y-3645505D01*
X9447433Y-3660019D01*
X9452272Y-3679371D01*
X9457110Y-3689048D01*
X9466786Y-3698724D01*
X9481300Y-3703562D01*
X9490976Y-3703562D01*
X9505491Y-3698724D01*
X9510329Y-3693886D01*
X9510329Y-3660019D01*
X9490976Y-3660019D01*
X9553872Y-3703562D02*
X9553872Y-3601962D01*
X9611929Y-3703562D01*
X9611929Y-3601962D01*
X9660310Y-3703562D02*
X9660310Y-3601962D01*
X9684500Y-3601962D01*
X9699014Y-3606800D01*
X9708691Y-3616476D01*
X9713529Y-3626152D01*
X9718367Y-3645505D01*
X9718367Y-3660019D01*
X9713529Y-3679371D01*
X9708691Y-3689048D01*
X9699014Y-3698724D01*
X9684500Y-3703562D01*
X9660310Y-3703562D01*
X5324535Y-8554962D02*
X5334211Y-8554962D01*
X5343887Y-8559800D01*
X5348725Y-8564638D01*
X5353564Y-8574314D01*
X5358402Y-8593667D01*
X5358402Y-8617857D01*
X5353564Y-8637210D01*
X5348725Y-8646886D01*
X5343887Y-8651724D01*
X5334211Y-8656562D01*
X5324535Y-8656562D01*
X5314859Y-8651724D01*
X5310021Y-8646886D01*
X5305183Y-8637210D01*
X5300345Y-8617857D01*
X5300345Y-8593667D01*
X5305183Y-8574314D01*
X5310021Y-8564638D01*
X5314859Y-8559800D01*
X5324535Y-8554962D01*
X5416459Y-8598505D02*
X5406783Y-8593667D01*
X5401945Y-8588829D01*
X5397106Y-8579152D01*
X5397106Y-8574314D01*
X5401945Y-8564638D01*
X5406783Y-8559800D01*
X5416459Y-8554962D01*
X5435811Y-8554962D01*
X5445487Y-8559800D01*
X5450325Y-8564638D01*
X5455164Y-8574314D01*
X5455164Y-8579152D01*
X5450325Y-8588829D01*
X5445487Y-8593667D01*
X5435811Y-8598505D01*
X5416459Y-8598505D01*
X5406783Y-8603343D01*
X5401945Y-8608181D01*
X5397106Y-8617857D01*
X5397106Y-8637210D01*
X5401945Y-8646886D01*
X5406783Y-8651724D01*
X5416459Y-8656562D01*
X5435811Y-8656562D01*
X5445487Y-8651724D01*
X5450325Y-8646886D01*
X5455164Y-8637210D01*
X5455164Y-8617857D01*
X5450325Y-8608181D01*
X5445487Y-8603343D01*
X5435811Y-8598505D01*
X4974535Y-8554962D02*
X4984211Y-8554962D01*
X4993887Y-8559800D01*
X4998725Y-8564638D01*
X5003564Y-8574314D01*
X5008402Y-8593667D01*
X5008402Y-8617857D01*
X5003564Y-8637210D01*
X4998725Y-8646886D01*
X4993887Y-8651724D01*
X4984211Y-8656562D01*
X4974535Y-8656562D01*
X4964859Y-8651724D01*
X4960021Y-8646886D01*
X4955183Y-8637210D01*
X4950345Y-8617857D01*
X4950345Y-8593667D01*
X4955183Y-8574314D01*
X4960021Y-8564638D01*
X4964859Y-8559800D01*
X4974535Y-8554962D01*
X5056783Y-8656562D02*
X5076135Y-8656562D01*
X5085811Y-8651724D01*
X5090649Y-8646886D01*
X5100325Y-8632371D01*
X5105164Y-8613019D01*
X5105164Y-8574314D01*
X5100325Y-8564638D01*
X5095487Y-8559800D01*
X5085811Y-8554962D01*
X5066459Y-8554962D01*
X5056783Y-8559800D01*
X5051945Y-8564638D01*
X5047106Y-8574314D01*
X5047106Y-8598505D01*
X5051945Y-8608181D01*
X5056783Y-8613019D01*
X5066459Y-8617857D01*
X5085811Y-8617857D01*
X5095487Y-8613019D01*
X5100325Y-8608181D01*
X5105164Y-8598505D01*
X5597125Y-8617857D02*
X5674535Y-8617857D01*
X5635830Y-8656562D02*
X5635830Y-8579152D01*
X5771297Y-8554962D02*
X5722916Y-8554962D01*
X5718078Y-8603343D01*
X5722916Y-8598505D01*
X5732592Y-8593667D01*
X5756783Y-8593667D01*
X5766459Y-8598505D01*
X5771297Y-8603343D01*
X5776135Y-8613019D01*
X5776135Y-8637210D01*
X5771297Y-8646886D01*
X5766459Y-8651724D01*
X5756783Y-8656562D01*
X5732592Y-8656562D01*
X5722916Y-8651724D01*
X5718078Y-8646886D01*
X5805164Y-8554962D02*
X5839030Y-8656562D01*
X5872897Y-8554962D01*
X4600345Y-8559800D02*
X4590668Y-8554962D01*
X4576154Y-8554962D01*
X4561640Y-8559800D01*
X4551964Y-8569476D01*
X4547126Y-8579152D01*
X4542287Y-8598505D01*
X4542287Y-8613019D01*
X4547126Y-8632371D01*
X4551964Y-8642048D01*
X4561640Y-8651724D01*
X4576154Y-8656562D01*
X4585830Y-8656562D01*
X4600345Y-8651724D01*
X4605183Y-8646886D01*
X4605183Y-8613019D01*
X4585830Y-8613019D01*
X4648726Y-8656562D02*
X4648726Y-8554962D01*
X4706783Y-8656562D01*
X4706783Y-8554962D01*
X4755164Y-8656562D02*
X4755164Y-8554962D01*
X4779354Y-8554962D01*
X4793868Y-8559800D01*
X4803545Y-8569476D01*
X4808383Y-8579152D01*
X4813221Y-8598505D01*
X4813221Y-8613019D01*
X4808383Y-8632371D01*
X4803545Y-8642048D01*
X4793868Y-8651724D01*
X4779354Y-8656562D01*
X4755164Y-8656562D01*
X6118690Y-8559800D02*
X6109014Y-8554962D01*
X6094500Y-8554962D01*
X6079986Y-8559800D01*
X6070310Y-8569476D01*
X6065471Y-8579152D01*
X6060633Y-8598505D01*
X6060633Y-8613019D01*
X6065471Y-8632371D01*
X6070310Y-8642048D01*
X6079986Y-8651724D01*
X6094500Y-8656562D01*
X6104176Y-8656562D01*
X6118690Y-8651724D01*
X6123529Y-8646886D01*
X6123529Y-8613019D01*
X6104176Y-8613019D01*
X6167071Y-8656562D02*
X6167071Y-8554962D01*
X6225129Y-8656562D01*
X6225129Y-8554962D01*
X6273510Y-8656562D02*
X6273510Y-8554962D01*
X6297700Y-8554962D01*
X6312214Y-8559800D01*
X6321890Y-8569476D01*
X6326729Y-8579152D01*
X6331567Y-8598505D01*
X6331567Y-8613019D01*
X6326729Y-8632371D01*
X6321890Y-8642048D01*
X6312214Y-8651724D01*
X6297700Y-8656562D01*
X6273510Y-8656562D01*
X7115471Y-8617857D02*
X7192881Y-8617857D01*
X7154176Y-8656562D02*
X7154176Y-8579152D01*
X7289643Y-8554962D02*
X7241262Y-8554962D01*
X7236424Y-8603343D01*
X7241262Y-8598505D01*
X7250938Y-8593667D01*
X7275129Y-8593667D01*
X7284805Y-8598505D01*
X7289643Y-8603343D01*
X7294481Y-8613019D01*
X7294481Y-8637210D01*
X7289643Y-8646886D01*
X7284805Y-8651724D01*
X7275129Y-8656562D01*
X7250938Y-8656562D01*
X7241262Y-8651724D01*
X7236424Y-8646886D01*
X7323510Y-8554962D02*
X7357376Y-8656562D01*
X7391243Y-8554962D01*
X6492881Y-8554962D02*
X6502557Y-8554962D01*
X6512233Y-8559800D01*
X6517071Y-8564638D01*
X6521909Y-8574314D01*
X6526748Y-8593667D01*
X6526748Y-8617857D01*
X6521909Y-8637210D01*
X6517071Y-8646886D01*
X6512233Y-8651724D01*
X6502557Y-8656562D01*
X6492881Y-8656562D01*
X6483205Y-8651724D01*
X6478367Y-8646886D01*
X6473529Y-8637210D01*
X6468690Y-8617857D01*
X6468690Y-8593667D01*
X6473529Y-8574314D01*
X6478367Y-8564638D01*
X6483205Y-8559800D01*
X6492881Y-8554962D01*
X6560614Y-8554962D02*
X6628348Y-8554962D01*
X6584805Y-8656562D01*
X6842881Y-8554962D02*
X6852557Y-8554962D01*
X6862233Y-8559800D01*
X6867071Y-8564638D01*
X6871909Y-8574314D01*
X6876748Y-8593667D01*
X6876748Y-8617857D01*
X6871909Y-8637210D01*
X6867071Y-8646886D01*
X6862233Y-8651724D01*
X6852557Y-8656562D01*
X6842881Y-8656562D01*
X6833205Y-8651724D01*
X6828367Y-8646886D01*
X6823529Y-8637210D01*
X6818690Y-8617857D01*
X6818690Y-8593667D01*
X6823529Y-8574314D01*
X6828367Y-8564638D01*
X6833205Y-8559800D01*
X6842881Y-8554962D01*
X6963833Y-8554962D02*
X6944481Y-8554962D01*
X6934805Y-8559800D01*
X6929967Y-8564638D01*
X6920290Y-8579152D01*
X6915452Y-8598505D01*
X6915452Y-8637210D01*
X6920290Y-8646886D01*
X6925129Y-8651724D01*
X6934805Y-8656562D01*
X6954157Y-8656562D01*
X6963833Y-8651724D01*
X6968671Y-8646886D01*
X6973509Y-8637210D01*
X6973509Y-8613019D01*
X6968671Y-8603343D01*
X6963833Y-8598505D01*
X6954157Y-8593667D01*
X6934805Y-8593667D01*
X6925129Y-8598505D01*
X6920290Y-8603343D01*
X6915452Y-8613019D01*
X8361281Y-8554962D02*
X8370957Y-8554962D01*
X8380633Y-8559800D01*
X8385471Y-8564638D01*
X8390310Y-8574314D01*
X8395148Y-8593667D01*
X8395148Y-8617857D01*
X8390310Y-8637210D01*
X8385471Y-8646886D01*
X8380633Y-8651724D01*
X8370957Y-8656562D01*
X8361281Y-8656562D01*
X8351605Y-8651724D01*
X8346767Y-8646886D01*
X8341929Y-8637210D01*
X8337090Y-8617857D01*
X8337090Y-8593667D01*
X8341929Y-8574314D01*
X8346767Y-8564638D01*
X8351605Y-8559800D01*
X8361281Y-8554962D01*
X8482233Y-8588829D02*
X8482233Y-8656562D01*
X8458043Y-8550124D02*
X8433852Y-8622695D01*
X8496748Y-8622695D01*
X8011281Y-8554962D02*
X8020957Y-8554962D01*
X8030633Y-8559800D01*
X8035471Y-8564638D01*
X8040309Y-8574314D01*
X8045148Y-8593667D01*
X8045148Y-8617857D01*
X8040309Y-8637210D01*
X8035471Y-8646886D01*
X8030633Y-8651724D01*
X8020957Y-8656562D01*
X8011281Y-8656562D01*
X8001605Y-8651724D01*
X7996767Y-8646886D01*
X7991929Y-8637210D01*
X7987090Y-8617857D01*
X7987090Y-8593667D01*
X7991929Y-8574314D01*
X7996767Y-8564638D01*
X8001605Y-8559800D01*
X8011281Y-8554962D01*
X8137071Y-8554962D02*
X8088690Y-8554962D01*
X8083852Y-8603343D01*
X8088690Y-8598505D01*
X8098367Y-8593667D01*
X8122557Y-8593667D01*
X8132233Y-8598505D01*
X8137071Y-8603343D01*
X8141909Y-8613019D01*
X8141909Y-8637210D01*
X8137071Y-8646886D01*
X8132233Y-8651724D01*
X8122557Y-8656562D01*
X8098367Y-8656562D01*
X8088690Y-8651724D01*
X8083852Y-8646886D01*
X8633872Y-8617857D02*
X8711281Y-8617857D01*
X8672576Y-8656562D02*
X8672576Y-8579152D01*
X8808043Y-8554962D02*
X8759662Y-8554962D01*
X8754824Y-8603343D01*
X8759662Y-8598505D01*
X8769338Y-8593667D01*
X8793529Y-8593667D01*
X8803205Y-8598505D01*
X8808043Y-8603343D01*
X8812881Y-8613019D01*
X8812881Y-8637210D01*
X8808043Y-8646886D01*
X8803205Y-8651724D01*
X8793529Y-8656562D01*
X8769338Y-8656562D01*
X8759662Y-8651724D01*
X8754824Y-8646886D01*
X8841910Y-8554962D02*
X8875776Y-8656562D01*
X8909643Y-8554962D01*
X7637090Y-8559800D02*
X7627414Y-8554962D01*
X7612900Y-8554962D01*
X7598386Y-8559800D01*
X7588710Y-8569476D01*
X7583871Y-8579152D01*
X7579033Y-8598505D01*
X7579033Y-8613019D01*
X7583871Y-8632371D01*
X7588710Y-8642048D01*
X7598386Y-8651724D01*
X7612900Y-8656562D01*
X7622576Y-8656562D01*
X7637090Y-8651724D01*
X7641929Y-8646886D01*
X7641929Y-8613019D01*
X7622576Y-8613019D01*
X7685471Y-8656562D02*
X7685471Y-8554962D01*
X7743529Y-8656562D01*
X7743529Y-8554962D01*
X7791910Y-8656562D02*
X7791910Y-8554962D01*
X7816100Y-8554962D01*
X7830614Y-8559800D01*
X7840290Y-8569476D01*
X7845129Y-8579152D01*
X7849967Y-8598505D01*
X7849967Y-8613019D01*
X7845129Y-8632371D01*
X7840290Y-8642048D01*
X7830614Y-8651724D01*
X7816100Y-8656562D01*
X7791910Y-8656562D01*
X9155491Y-8559800D02*
X9145814Y-8554962D01*
X9131300Y-8554962D01*
X9116786Y-8559800D01*
X9107110Y-8569476D01*
X9102272Y-8579152D01*
X9097433Y-8598505D01*
X9097433Y-8613019D01*
X9102272Y-8632371D01*
X9107110Y-8642048D01*
X9116786Y-8651724D01*
X9131300Y-8656562D01*
X9140976Y-8656562D01*
X9155491Y-8651724D01*
X9160329Y-8646886D01*
X9160329Y-8613019D01*
X9140976Y-8613019D01*
X9203872Y-8656562D02*
X9203872Y-8554962D01*
X9261929Y-8656562D01*
X9261929Y-8554962D01*
X9310310Y-8656562D02*
X9310310Y-8554962D01*
X9334500Y-8554962D01*
X9349014Y-8559800D01*
X9358691Y-8569476D01*
X9363529Y-8579152D01*
X9368367Y-8598505D01*
X9368367Y-8613019D01*
X9363529Y-8632371D01*
X9358691Y-8642048D01*
X9349014Y-8651724D01*
X9334500Y-8656562D01*
X9310310Y-8656562D01*
X10025272Y-8617857D02*
X10102681Y-8617857D01*
X10063976Y-8656562D02*
X10063976Y-8579152D01*
X10199443Y-8554962D02*
X10151062Y-8554962D01*
X10146224Y-8603343D01*
X10151062Y-8598505D01*
X10160738Y-8593667D01*
X10184929Y-8593667D01*
X10194605Y-8598505D01*
X10199443Y-8603343D01*
X10204281Y-8613019D01*
X10204281Y-8637210D01*
X10199443Y-8646886D01*
X10194605Y-8651724D01*
X10184929Y-8656562D01*
X10160738Y-8656562D01*
X10151062Y-8651724D01*
X10146224Y-8646886D01*
X10233310Y-8554962D02*
X10267176Y-8656562D01*
X10301043Y-8554962D01*
X5866190Y-8085062D02*
X5866190Y-7983462D01*
X5904895Y-7983462D01*
X5914571Y-7988300D01*
X5919409Y-7993138D01*
X5924248Y-8002814D01*
X5924248Y-8017329D01*
X5919409Y-8027005D01*
X5914571Y-8031843D01*
X5904895Y-8036681D01*
X5866190Y-8036681D01*
X5967790Y-8085062D02*
X5967790Y-7983462D01*
X5991981Y-7983462D01*
X6006495Y-7988300D01*
X6016171Y-7997976D01*
X6021009Y-8007652D01*
X6025848Y-8027005D01*
X6025848Y-8041519D01*
X6021009Y-8060871D01*
X6016171Y-8070548D01*
X6006495Y-8080224D01*
X5991981Y-8085062D01*
X5967790Y-8085062D01*
X6371771Y-8085062D02*
X6371771Y-7983462D01*
X6410476Y-7983462D01*
X6420152Y-7988300D01*
X6424990Y-7993138D01*
X6429829Y-8002814D01*
X6429829Y-8017329D01*
X6424990Y-8027005D01*
X6420152Y-8031843D01*
X6410476Y-8036681D01*
X6371771Y-8036681D01*
X6473371Y-7983462D02*
X6473371Y-8065709D01*
X6478210Y-8075386D01*
X6483048Y-8080224D01*
X6492724Y-8085062D01*
X6512076Y-8085062D01*
X6521752Y-8080224D01*
X6526590Y-8075386D01*
X6531429Y-8065709D01*
X6531429Y-7983462D01*
X4339772Y-4275062D02*
X4339772Y-4173462D01*
X4378476Y-4173462D01*
X4388152Y-4178300D01*
X4392991Y-4183138D01*
X4397829Y-4192814D01*
X4397829Y-4207329D01*
X4392991Y-4217005D01*
X4388152Y-4221843D01*
X4378476Y-4226681D01*
X4339772Y-4226681D01*
X4441372Y-4173462D02*
X4441372Y-4255710D01*
X4446210Y-4265386D01*
X4451048Y-4270224D01*
X4460724Y-4275062D01*
X4480076Y-4275062D01*
X4489752Y-4270224D01*
X4494591Y-4265386D01*
X4499429Y-4255710D01*
X4499429Y-4173462D01*
X4342191Y-4783062D02*
X4342191Y-4681462D01*
X4380895Y-4681462D01*
X4390571Y-4686300D01*
X4395410Y-4691138D01*
X4400248Y-4700814D01*
X4400248Y-4715329D01*
X4395410Y-4725005D01*
X4390571Y-4729843D01*
X4380895Y-4734681D01*
X4342191Y-4734681D01*
X4443791Y-4783062D02*
X4443791Y-4681462D01*
X4467981Y-4681462D01*
X4482495Y-4686300D01*
X4492171Y-4695976D01*
X4497010Y-4705652D01*
X4501848Y-4725005D01*
X4501848Y-4739519D01*
X4497010Y-4758871D01*
X4492171Y-4768548D01*
X4482495Y-4778224D01*
X4467981Y-4783062D01*
X4443791Y-4783062D01*
X11016343Y-7892748D02*
X11021181Y-7878233D01*
X11026019Y-7873395D01*
X11035695Y-7868557D01*
X11050210Y-7868557D01*
X11059886Y-7873395D01*
X11064724Y-7878233D01*
X11069562Y-7887909D01*
X11069562Y-7926614D01*
X10967962Y-7926614D01*
X10967962Y-7892748D01*
X10972800Y-7883071D01*
X10977638Y-7878233D01*
X10987314Y-7873395D01*
X10996991Y-7873395D01*
X11006667Y-7878233D01*
X11011505Y-7883071D01*
X11016343Y-7892748D01*
X11016343Y-7926614D01*
X11016343Y-7791148D02*
X11021181Y-7776633D01*
X11026019Y-7771795D01*
X11035695Y-7766957D01*
X11050210Y-7766957D01*
X11059886Y-7771795D01*
X11064724Y-7776633D01*
X11069562Y-7786309D01*
X11069562Y-7825014D01*
X10967962Y-7825014D01*
X10967962Y-7791148D01*
X10972800Y-7781471D01*
X10977638Y-7776633D01*
X10987314Y-7771795D01*
X10996991Y-7771795D01*
X11006667Y-7776633D01*
X11011505Y-7781471D01*
X11016343Y-7791148D01*
X11016343Y-7825014D01*
X11016343Y-7689548D02*
X11021181Y-7675033D01*
X11026019Y-7670195D01*
X11035695Y-7665357D01*
X11050210Y-7665357D01*
X11059886Y-7670195D01*
X11064724Y-7675033D01*
X11069562Y-7684709D01*
X11069562Y-7723414D01*
X10967962Y-7723414D01*
X10967962Y-7689548D01*
X10972800Y-7679871D01*
X10977638Y-7675033D01*
X10987314Y-7670195D01*
X10996991Y-7670195D01*
X11006667Y-7675033D01*
X11011505Y-7679871D01*
X11016343Y-7689548D01*
X11016343Y-7723414D01*
X11059886Y-7486348D02*
X11064724Y-7491186D01*
X11069562Y-7505700D01*
X11069562Y-7515376D01*
X11064724Y-7529890D01*
X11055048Y-7539567D01*
X11045371Y-7544405D01*
X11026019Y-7549243D01*
X11011505Y-7549243D01*
X10992152Y-7544405D01*
X10982476Y-7539567D01*
X10972800Y-7529890D01*
X10967962Y-7515376D01*
X10967962Y-7505700D01*
X10972800Y-7491186D01*
X10977638Y-7486348D01*
X10967962Y-7423452D02*
X10967962Y-7404100D01*
X10972800Y-7394424D01*
X10982476Y-7384748D01*
X11001829Y-7379909D01*
X11035695Y-7379909D01*
X11055048Y-7384748D01*
X11064724Y-7394424D01*
X11069562Y-7404100D01*
X11069562Y-7423452D01*
X11064724Y-7433128D01*
X11055048Y-7442805D01*
X11035695Y-7447643D01*
X11001829Y-7447643D01*
X10982476Y-7442805D01*
X10972800Y-7433128D01*
X10967962Y-7423452D01*
X11069562Y-7336367D02*
X10967962Y-7336367D01*
X11069562Y-7278309D01*
X10967962Y-7278309D01*
X11069562Y-7229928D02*
X10967962Y-7229928D01*
X11069562Y-7171871D01*
X10967962Y-7171871D01*
X11016343Y-7123490D02*
X11016343Y-7089624D01*
X11069562Y-7075109D02*
X11069562Y-7123490D01*
X10967962Y-7123490D01*
X10967962Y-7075109D01*
X11059886Y-6973509D02*
X11064724Y-6978348D01*
X11069562Y-6992862D01*
X11069562Y-7002538D01*
X11064724Y-7017052D01*
X11055048Y-7026728D01*
X11045371Y-7031567D01*
X11026019Y-7036405D01*
X11011505Y-7036405D01*
X10992152Y-7031567D01*
X10982476Y-7026728D01*
X10972800Y-7017052D01*
X10967962Y-7002538D01*
X10967962Y-6992862D01*
X10972800Y-6978348D01*
X10977638Y-6973509D01*
X10967962Y-6944481D02*
X10967962Y-6886424D01*
X11069562Y-6915452D02*
X10967962Y-6915452D01*
X10967962Y-6833205D02*
X10967962Y-6813852D01*
X10972800Y-6804176D01*
X10982476Y-6794500D01*
X11001829Y-6789662D01*
X11035695Y-6789662D01*
X11055048Y-6794500D01*
X11064724Y-6804176D01*
X11069562Y-6813852D01*
X11069562Y-6833205D01*
X11064724Y-6842881D01*
X11055048Y-6852557D01*
X11035695Y-6857395D01*
X11001829Y-6857395D01*
X10982476Y-6852557D01*
X10972800Y-6842881D01*
X10967962Y-6833205D01*
X11069562Y-6688062D02*
X11021181Y-6721928D01*
X11069562Y-6746119D02*
X10967962Y-6746119D01*
X10967962Y-6707414D01*
X10972800Y-6697738D01*
X10977638Y-6692900D01*
X10987314Y-6688062D01*
X11001829Y-6688062D01*
X11011505Y-6692900D01*
X11016343Y-6697738D01*
X11021181Y-6707414D01*
X11021181Y-6746119D01*
X10967962Y-6576786D02*
X10967962Y-6513890D01*
X11006667Y-6547757D01*
X11006667Y-6533243D01*
X11011505Y-6523567D01*
X11016343Y-6518729D01*
X11026019Y-6513890D01*
X11050210Y-6513890D01*
X11059886Y-6518729D01*
X11064724Y-6523567D01*
X11069562Y-6533243D01*
X11069562Y-6562271D01*
X11064724Y-6571948D01*
X11059886Y-6576786D01*
X10967962Y-6484862D02*
X11069562Y-6450995D01*
X10967962Y-6417129D01*
X10967962Y-6392938D02*
X10967962Y-6330043D01*
X11006667Y-6363909D01*
X11006667Y-6349395D01*
X11011505Y-6339719D01*
X11016343Y-6334881D01*
X11026019Y-6330043D01*
X11050210Y-6330043D01*
X11059886Y-6334881D01*
X11064724Y-6339719D01*
X11069562Y-6349395D01*
X11069562Y-6378424D01*
X11064724Y-6388100D01*
X11059886Y-6392938D01*
X11069562Y-6160710D02*
X11069562Y-6209090D01*
X10967962Y-6209090D01*
X10967962Y-6107490D02*
X10967962Y-6088138D01*
X10972800Y-6078462D01*
X10982476Y-6068786D01*
X11001829Y-6063948D01*
X11035695Y-6063948D01*
X11055048Y-6068786D01*
X11064724Y-6078462D01*
X11069562Y-6088138D01*
X11069562Y-6107490D01*
X11064724Y-6117167D01*
X11055048Y-6126843D01*
X11035695Y-6131681D01*
X11001829Y-6131681D01*
X10982476Y-6126843D01*
X10972800Y-6117167D01*
X10967962Y-6107490D01*
X10972800Y-5967186D02*
X10967962Y-5976862D01*
X10967962Y-5991376D01*
X10972800Y-6005890D01*
X10982476Y-6015567D01*
X10992152Y-6020405D01*
X11011505Y-6025243D01*
X11026019Y-6025243D01*
X11045371Y-6020405D01*
X11055048Y-6015567D01*
X11064724Y-6005890D01*
X11069562Y-5991376D01*
X11069562Y-5981700D01*
X11064724Y-5967186D01*
X11059886Y-5962348D01*
X11026019Y-5962348D01*
X11026019Y-5981700D01*
X11069562Y-5918805D02*
X10967962Y-5918805D01*
X11059886Y-5812367D02*
X11064724Y-5817205D01*
X11069562Y-5831719D01*
X11069562Y-5841395D01*
X11064724Y-5855909D01*
X11055048Y-5865586D01*
X11045371Y-5870424D01*
X11026019Y-5875262D01*
X11011505Y-5875262D01*
X10992152Y-5870424D01*
X10982476Y-5865586D01*
X10972800Y-5855909D01*
X10967962Y-5841395D01*
X10967962Y-5831719D01*
X10972800Y-5817205D01*
X10977638Y-5812367D01*
X10967962Y-5672062D02*
X10967962Y-5652710D01*
X10972800Y-5643033D01*
X10982476Y-5633357D01*
X11001829Y-5628519D01*
X11035695Y-5628519D01*
X11055048Y-5633357D01*
X11064724Y-5643033D01*
X11069562Y-5652710D01*
X11069562Y-5672062D01*
X11064724Y-5681738D01*
X11055048Y-5691414D01*
X11035695Y-5696252D01*
X11001829Y-5696252D01*
X10982476Y-5691414D01*
X10972800Y-5681738D01*
X10967962Y-5672062D01*
X11069562Y-5584976D02*
X10967962Y-5584976D01*
X11069562Y-5526919D01*
X10967962Y-5526919D01*
X11069562Y-5430157D02*
X11069562Y-5478538D01*
X10967962Y-5478538D01*
X11021181Y-5376938D02*
X11069562Y-5376938D01*
X10967962Y-5410805D02*
X11021181Y-5376938D01*
X10967962Y-5343072D01*
D12*
X6714671Y-5674179D02*
X6732814Y-5680226D01*
X6738862Y-5686274D01*
X6744909Y-5698369D01*
X6744909Y-5716512D01*
X6738862Y-5728607D01*
X6732814Y-5734655D01*
X6720719Y-5740702D01*
X6672338Y-5740702D01*
X6672338Y-5613702D01*
X6714671Y-5613702D01*
X6726767Y-5619750D01*
X6732814Y-5625798D01*
X6738862Y-5637893D01*
X6738862Y-5649988D01*
X6732814Y-5662083D01*
X6726767Y-5668131D01*
X6714671Y-5674179D01*
X6672338Y-5674179D01*
X6841671Y-5674179D02*
X6859814Y-5680226D01*
X6865862Y-5686274D01*
X6871909Y-5698369D01*
X6871909Y-5716512D01*
X6865862Y-5728607D01*
X6859814Y-5734655D01*
X6847719Y-5740702D01*
X6799338Y-5740702D01*
X6799338Y-5613702D01*
X6841671Y-5613702D01*
X6853767Y-5619750D01*
X6859814Y-5625798D01*
X6865862Y-5637893D01*
X6865862Y-5649988D01*
X6859814Y-5662083D01*
X6853767Y-5668131D01*
X6841671Y-5674179D01*
X6799338Y-5674179D01*
X6968671Y-5674179D02*
X6986814Y-5680226D01*
X6992862Y-5686274D01*
X6998909Y-5698369D01*
X6998909Y-5716512D01*
X6992862Y-5728607D01*
X6986814Y-5734655D01*
X6974719Y-5740702D01*
X6926338Y-5740702D01*
X6926338Y-5613702D01*
X6968671Y-5613702D01*
X6980767Y-5619750D01*
X6986814Y-5625798D01*
X6992862Y-5637893D01*
X6992862Y-5649988D01*
X6986814Y-5662083D01*
X6980767Y-5668131D01*
X6968671Y-5674179D01*
X6926338Y-5674179D01*
X7222671Y-5728607D02*
X7216624Y-5734655D01*
X7198481Y-5740702D01*
X7186386Y-5740702D01*
X7168243Y-5734655D01*
X7156148Y-5722559D01*
X7150100Y-5710464D01*
X7144052Y-5686274D01*
X7144052Y-5668131D01*
X7150100Y-5643940D01*
X7156148Y-5631845D01*
X7168243Y-5619750D01*
X7186386Y-5613702D01*
X7198481Y-5613702D01*
X7216624Y-5619750D01*
X7222671Y-5625798D01*
X7277100Y-5740702D02*
X7277100Y-5613702D01*
X7349671Y-5740702D01*
X7349671Y-5613702D01*
X7482719Y-5728607D02*
X7476671Y-5734655D01*
X7458528Y-5740702D01*
X7446433Y-5740702D01*
X7428290Y-5734655D01*
X7416195Y-5722559D01*
X7410148Y-5710464D01*
X7404100Y-5686274D01*
X7404100Y-5668131D01*
X7410148Y-5643940D01*
X7416195Y-5631845D01*
X7428290Y-5619750D01*
X7446433Y-5613702D01*
X7458528Y-5613702D01*
X7476671Y-5619750D01*
X7482719Y-5625798D01*
X7633909Y-5740702D02*
X7633909Y-5613702D01*
X7682290Y-5613702D01*
X7694386Y-5619750D01*
X7700433Y-5625798D01*
X7706481Y-5637893D01*
X7706481Y-5656036D01*
X7700433Y-5668131D01*
X7694386Y-5674179D01*
X7682290Y-5680226D01*
X7633909Y-5680226D01*
X7785100Y-5613702D02*
X7809290Y-5613702D01*
X7821386Y-5619750D01*
X7833481Y-5631845D01*
X7839528Y-5656036D01*
X7839528Y-5698369D01*
X7833481Y-5722559D01*
X7821386Y-5734655D01*
X7809290Y-5740702D01*
X7785100Y-5740702D01*
X7773005Y-5734655D01*
X7760909Y-5722559D01*
X7754862Y-5698369D01*
X7754862Y-5656036D01*
X7760909Y-5631845D01*
X7773005Y-5619750D01*
X7785100Y-5613702D01*
X7966528Y-5740702D02*
X7924195Y-5680226D01*
X7893957Y-5740702D02*
X7893957Y-5613702D01*
X7942338Y-5613702D01*
X7954433Y-5619750D01*
X7960481Y-5625798D01*
X7966528Y-5637893D01*
X7966528Y-5656036D01*
X7960481Y-5668131D01*
X7954433Y-5674179D01*
X7942338Y-5680226D01*
X7893957Y-5680226D01*
X8002814Y-5613702D02*
X8075386Y-5613702D01*
X8039100Y-5740702D02*
X8039100Y-5613702D01*
X8281005Y-5740702D02*
X8208433Y-5740702D01*
X8244719Y-5740702D02*
X8244719Y-5613702D01*
X8232624Y-5631845D01*
X8220528Y-5643940D01*
X8208433Y-5649988D01*
X6732814Y-5829602D02*
X6672338Y-5829602D01*
X6666290Y-5890079D01*
X6672338Y-5884031D01*
X6684433Y-5877983D01*
X6714671Y-5877983D01*
X6726767Y-5884031D01*
X6732814Y-5890079D01*
X6738862Y-5902174D01*
X6738862Y-5932412D01*
X6732814Y-5944507D01*
X6726767Y-5950555D01*
X6714671Y-5956602D01*
X6684433Y-5956602D01*
X6672338Y-5950555D01*
X6666290Y-5944507D01*
X6950529Y-5956602D02*
X6890052Y-5956602D01*
X6890052Y-5829602D01*
X6992862Y-5956602D02*
X6992862Y-5829602D01*
X7053338Y-5956602D02*
X7053338Y-5829602D01*
X7125909Y-5956602D01*
X7125909Y-5829602D01*
X7186386Y-5890079D02*
X7228719Y-5890079D01*
X7246862Y-5956602D02*
X7186386Y-5956602D01*
X7186386Y-5829602D01*
X7246862Y-5829602D01*
X7398052Y-5956602D02*
X7398052Y-5829602D01*
X7458529Y-5956602D02*
X7458529Y-5829602D01*
X7531100Y-5956602D01*
X7531100Y-5829602D01*
X7591576Y-5956602D02*
X7591576Y-5829602D01*
X7639957Y-5829602D01*
X7652052Y-5835650D01*
X7658100Y-5841698D01*
X7664148Y-5853793D01*
X7664148Y-5871936D01*
X7658100Y-5884031D01*
X7652052Y-5890079D01*
X7639957Y-5896126D01*
X7591576Y-5896126D01*
X7718576Y-5829602D02*
X7718576Y-5932412D01*
X7724624Y-5944507D01*
X7730671Y-5950555D01*
X7742767Y-5956602D01*
X7766957Y-5956602D01*
X7779052Y-5950555D01*
X7785100Y-5944507D01*
X7791148Y-5932412D01*
X7791148Y-5829602D01*
X7833481Y-5829602D02*
X7906052Y-5829602D01*
X7869767Y-5956602D02*
X7869767Y-5829602D01*
X6738862Y-6172502D02*
X6666290Y-6172502D01*
X6702576Y-6172502D02*
X6702576Y-6045502D01*
X6690481Y-6063645D01*
X6678386Y-6075740D01*
X6666290Y-6081788D01*
X6787243Y-6057598D02*
X6793290Y-6051550D01*
X6805386Y-6045502D01*
X6835624Y-6045502D01*
X6847719Y-6051550D01*
X6853767Y-6057598D01*
X6859814Y-6069693D01*
X6859814Y-6081788D01*
X6853767Y-6099931D01*
X6781195Y-6172502D01*
X6859814Y-6172502D01*
X7071481Y-6172502D02*
X7011005Y-6172502D01*
X7011005Y-6045502D01*
X7113814Y-6172502D02*
X7113814Y-6045502D01*
X7174290Y-6172502D02*
X7174290Y-6045502D01*
X7246862Y-6172502D01*
X7246862Y-6045502D01*
X7307338Y-6105979D02*
X7349671Y-6105979D01*
X7367814Y-6172502D02*
X7307338Y-6172502D01*
X7307338Y-6045502D01*
X7367814Y-6045502D01*
X7543195Y-6045502D02*
X7567386Y-6045502D01*
X7579481Y-6051550D01*
X7591576Y-6063645D01*
X7597624Y-6087836D01*
X7597624Y-6130169D01*
X7591576Y-6154359D01*
X7579481Y-6166455D01*
X7567386Y-6172502D01*
X7543195Y-6172502D01*
X7531100Y-6166455D01*
X7519005Y-6154359D01*
X7512957Y-6130169D01*
X7512957Y-6087836D01*
X7519005Y-6063645D01*
X7531100Y-6051550D01*
X7543195Y-6045502D01*
X7652052Y-6045502D02*
X7652052Y-6148312D01*
X7658100Y-6160407D01*
X7664148Y-6166455D01*
X7676243Y-6172502D01*
X7700433Y-6172502D01*
X7712529Y-6166455D01*
X7718576Y-6160407D01*
X7724624Y-6148312D01*
X7724624Y-6045502D01*
X7766957Y-6045502D02*
X7839529Y-6045502D01*
X7803243Y-6172502D02*
X7803243Y-6045502D01*
X7881862Y-6172502D02*
X7881862Y-6045502D01*
X7930243Y-6045502D01*
X7942338Y-6051550D01*
X7948386Y-6057598D01*
X7954433Y-6069693D01*
X7954433Y-6087836D01*
X7948386Y-6099931D01*
X7942338Y-6105979D01*
X7930243Y-6112026D01*
X7881862Y-6112026D01*
X8008862Y-6045502D02*
X8008862Y-6148312D01*
X8014909Y-6160407D01*
X8020957Y-6166455D01*
X8033052Y-6172502D01*
X8057243Y-6172502D01*
X8069338Y-6166455D01*
X8075386Y-6160407D01*
X8081433Y-6148312D01*
X8081433Y-6045502D01*
X8123767Y-6045502D02*
X8196338Y-6045502D01*
X8160052Y-6172502D02*
X8160052Y-6045502D01*
X6672338Y-6388402D02*
X6672338Y-6261402D01*
X6732814Y-6388402D02*
X6732814Y-6261402D01*
X6805386Y-6388402D01*
X6805386Y-6261402D01*
X6847719Y-6261402D02*
X6920290Y-6261402D01*
X6884005Y-6388402D02*
X6884005Y-6261402D01*
X6962624Y-6321879D02*
X7004957Y-6321879D01*
X7023100Y-6388402D02*
X6962624Y-6388402D01*
X6962624Y-6261402D01*
X7023100Y-6261402D01*
X7150100Y-6388402D02*
X7107767Y-6327926D01*
X7077529Y-6388402D02*
X7077529Y-6261402D01*
X7125909Y-6261402D01*
X7138005Y-6267450D01*
X7144052Y-6273498D01*
X7150100Y-6285593D01*
X7150100Y-6303736D01*
X7144052Y-6315831D01*
X7138005Y-6321879D01*
X7125909Y-6327926D01*
X7077529Y-6327926D01*
X7246862Y-6321879D02*
X7204529Y-6321879D01*
X7204529Y-6388402D02*
X7204529Y-6261402D01*
X7265005Y-6261402D01*
X7307338Y-6352117D02*
X7367814Y-6352117D01*
X7295243Y-6388402D02*
X7337576Y-6261402D01*
X7379909Y-6388402D01*
X7494814Y-6376307D02*
X7488767Y-6382355D01*
X7470624Y-6388402D01*
X7458528Y-6388402D01*
X7440386Y-6382355D01*
X7428290Y-6370259D01*
X7422243Y-6358164D01*
X7416195Y-6333974D01*
X7416195Y-6315831D01*
X7422243Y-6291640D01*
X7428290Y-6279545D01*
X7440386Y-6267450D01*
X7458528Y-6261402D01*
X7470624Y-6261402D01*
X7488767Y-6267450D01*
X7494814Y-6273498D01*
X7549243Y-6321879D02*
X7591576Y-6321879D01*
X7609719Y-6388402D02*
X7549243Y-6388402D01*
X7549243Y-6261402D01*
X7609719Y-6261402D01*
X7833481Y-6388402D02*
X7791148Y-6327926D01*
X7760909Y-6388402D02*
X7760909Y-6261402D01*
X7809290Y-6261402D01*
X7821386Y-6267450D01*
X7827433Y-6273498D01*
X7833481Y-6285593D01*
X7833481Y-6303736D01*
X7827433Y-6315831D01*
X7821386Y-6321879D01*
X7809290Y-6327926D01*
X7760909Y-6327926D01*
X7887909Y-6321879D02*
X7930243Y-6321879D01*
X7948386Y-6388402D02*
X7887909Y-6388402D01*
X7887909Y-6261402D01*
X7948386Y-6261402D01*
X7984671Y-6261402D02*
X8027005Y-6388402D01*
X8069338Y-6261402D01*
X8232624Y-6261402D02*
X8244719Y-6261402D01*
X8256814Y-6267450D01*
X8262862Y-6273498D01*
X8268909Y-6285593D01*
X8274957Y-6309783D01*
X8274957Y-6340021D01*
X8268909Y-6364212D01*
X8262862Y-6376307D01*
X8256814Y-6382355D01*
X8244719Y-6388402D01*
X8232624Y-6388402D01*
X8220528Y-6382355D01*
X8214481Y-6376307D01*
X8208433Y-6364212D01*
X8202386Y-6340021D01*
X8202386Y-6309783D01*
X8208433Y-6285593D01*
X8214481Y-6273498D01*
X8220528Y-6267450D01*
X8232624Y-6261402D01*
X8329386Y-6376307D02*
X8335433Y-6382355D01*
X8329386Y-6388402D01*
X8323338Y-6382355D01*
X8329386Y-6376307D01*
X8329386Y-6388402D01*
X8444291Y-6303736D02*
X8444291Y-6388402D01*
X8414052Y-6255355D02*
X8383814Y-6346069D01*
X8462433Y-6346069D01*
D11*
X11988498Y-8497812D02*
X11930440Y-8497812D01*
X11959469Y-8497812D02*
X11959469Y-8396212D01*
X11949793Y-8410726D01*
X11940117Y-8420402D01*
X11930440Y-8425241D01*
X7557710Y-4236962D02*
X7577062Y-4236962D01*
X7586738Y-4241800D01*
X7596414Y-4251476D01*
X7601252Y-4270829D01*
X7601252Y-4304695D01*
X7596414Y-4324048D01*
X7586738Y-4333724D01*
X7577062Y-4338562D01*
X7557710Y-4338562D01*
X7548033Y-4333724D01*
X7538357Y-4324048D01*
X7533519Y-4304695D01*
X7533519Y-4270829D01*
X7538357Y-4251476D01*
X7548033Y-4241800D01*
X7557710Y-4236962D01*
X7644795Y-4236962D02*
X7644795Y-4319210D01*
X7649633Y-4328886D01*
X7654472Y-4333724D01*
X7664148Y-4338562D01*
X7683500Y-4338562D01*
X7693176Y-4333724D01*
X7698014Y-4328886D01*
X7702852Y-4319210D01*
X7702852Y-4236962D01*
X7736719Y-4236962D02*
X7794776Y-4236962D01*
X7765748Y-4338562D02*
X7765748Y-4236962D01*
X7828643Y-4338562D02*
X7828643Y-4236962D01*
X7867348Y-4236962D01*
X7877024Y-4241800D01*
X7881862Y-4246638D01*
X7886700Y-4256314D01*
X7886700Y-4270829D01*
X7881862Y-4280505D01*
X7877024Y-4285343D01*
X7867348Y-4290181D01*
X7828643Y-4290181D01*
X7930243Y-4236962D02*
X7930243Y-4319210D01*
X7935081Y-4328886D01*
X7939919Y-4333724D01*
X7949595Y-4338562D01*
X7968948Y-4338562D01*
X7978624Y-4333724D01*
X7983462Y-4328886D01*
X7988300Y-4319210D01*
X7988300Y-4236962D01*
X8022167Y-4236962D02*
X8080224Y-4236962D01*
X8051195Y-4338562D02*
X8051195Y-4236962D01*
X8239881Y-4236962D02*
X8191500Y-4236962D01*
X8186662Y-4285343D01*
X8191500Y-4280505D01*
X8201176Y-4275667D01*
X8225367Y-4275667D01*
X8235043Y-4280505D01*
X8239881Y-4285343D01*
X8244719Y-4295019D01*
X8244719Y-4319210D01*
X8239881Y-4328886D01*
X8235043Y-4333724D01*
X8225367Y-4338562D01*
X8201176Y-4338562D01*
X8191500Y-4333724D01*
X8186662Y-4328886D01*
X8273748Y-4236962D02*
X8307614Y-4338562D01*
X8341481Y-4236962D01*
X8501138Y-4338562D02*
X8452757Y-4338562D01*
X8452757Y-4236962D01*
X8554357Y-4236962D02*
X8573710Y-4236962D01*
X8583386Y-4241800D01*
X8593062Y-4251476D01*
X8597900Y-4270829D01*
X8597900Y-4304695D01*
X8593062Y-4324048D01*
X8583386Y-4333724D01*
X8573710Y-4338562D01*
X8554357Y-4338562D01*
X8544681Y-4333724D01*
X8535005Y-4324048D01*
X8530167Y-4304695D01*
X8530167Y-4270829D01*
X8535005Y-4251476D01*
X8544681Y-4241800D01*
X8554357Y-4236962D01*
X8694662Y-4241800D02*
X8684986Y-4236962D01*
X8670471Y-4236962D01*
X8655957Y-4241800D01*
X8646281Y-4251476D01*
X8641443Y-4261152D01*
X8636605Y-4280505D01*
X8636605Y-4295019D01*
X8641443Y-4314371D01*
X8646281Y-4324048D01*
X8655957Y-4333724D01*
X8670471Y-4338562D01*
X8680148Y-4338562D01*
X8694662Y-4333724D01*
X8699500Y-4328886D01*
X8699500Y-4295019D01*
X8680148Y-4295019D01*
X8743043Y-4338562D02*
X8743043Y-4236962D01*
X8849481Y-4328886D02*
X8844643Y-4333724D01*
X8830129Y-4338562D01*
X8820452Y-4338562D01*
X8805938Y-4333724D01*
X8796262Y-4324048D01*
X8791424Y-4314371D01*
X8786586Y-4295019D01*
X8786586Y-4280505D01*
X8791424Y-4261152D01*
X8796262Y-4251476D01*
X8805938Y-4241800D01*
X8820452Y-4236962D01*
X8830129Y-4236962D01*
X8844643Y-4241800D01*
X8849481Y-4246638D01*
X8965595Y-4333724D02*
X8980110Y-4338562D01*
X9004300Y-4338562D01*
X9013976Y-4333724D01*
X9018814Y-4328886D01*
X9023652Y-4319210D01*
X9023652Y-4309533D01*
X9018814Y-4299857D01*
X9013976Y-4295019D01*
X9004300Y-4290181D01*
X8984948Y-4285343D01*
X8975272Y-4280505D01*
X8970433Y-4275667D01*
X8965595Y-4265991D01*
X8965595Y-4256314D01*
X8970433Y-4246638D01*
X8975272Y-4241800D01*
X8984948Y-4236962D01*
X9009138Y-4236962D01*
X9023652Y-4241800D01*
X9062357Y-4309533D02*
X9110738Y-4309533D01*
X9052681Y-4338562D02*
X9086548Y-4236962D01*
X9120414Y-4338562D01*
X9188148Y-4285343D02*
X9154281Y-4285343D01*
X9154281Y-4338562D02*
X9154281Y-4236962D01*
X9202662Y-4236962D01*
X9241367Y-4285343D02*
X9275233Y-4285343D01*
X9289748Y-4338562D02*
X9241367Y-4338562D01*
X9241367Y-4236962D01*
X9289748Y-4236962D01*
X7066643Y-7983462D02*
X7085995Y-7983462D01*
X7095671Y-7988300D01*
X7105348Y-7997976D01*
X7110186Y-8017329D01*
X7110186Y-8051195D01*
X7105348Y-8070548D01*
X7095671Y-8080224D01*
X7085995Y-8085062D01*
X7066643Y-8085062D01*
X7056967Y-8080224D01*
X7047290Y-8070548D01*
X7042452Y-8051195D01*
X7042452Y-8017329D01*
X7047290Y-7997976D01*
X7056967Y-7988300D01*
X7066643Y-7983462D01*
X7153729Y-7983462D02*
X7153729Y-8065709D01*
X7158567Y-8075386D01*
X7163405Y-8080224D01*
X7173081Y-8085062D01*
X7192433Y-8085062D01*
X7202109Y-8080224D01*
X7206948Y-8075386D01*
X7211786Y-8065709D01*
X7211786Y-7983462D01*
X7245652Y-7983462D02*
X7303709Y-7983462D01*
X7274681Y-8085062D02*
X7274681Y-7983462D01*
X7337576Y-8085062D02*
X7337576Y-7983462D01*
X7376281Y-7983462D01*
X7385957Y-7988300D01*
X7390795Y-7993138D01*
X7395633Y-8002814D01*
X7395633Y-8017329D01*
X7390795Y-8027005D01*
X7385957Y-8031843D01*
X7376281Y-8036681D01*
X7337576Y-8036681D01*
X7439176Y-7983462D02*
X7439176Y-8065709D01*
X7444014Y-8075386D01*
X7448852Y-8080224D01*
X7458529Y-8085062D01*
X7477881Y-8085062D01*
X7487557Y-8080224D01*
X7492395Y-8075386D01*
X7497233Y-8065709D01*
X7497233Y-7983462D01*
X7531100Y-7983462D02*
X7589157Y-7983462D01*
X7560129Y-8085062D02*
X7560129Y-7983462D01*
X7748814Y-7983462D02*
X7700433Y-7983462D01*
X7695595Y-8031843D01*
X7700433Y-8027005D01*
X7710109Y-8022167D01*
X7734300Y-8022167D01*
X7743976Y-8027005D01*
X7748814Y-8031843D01*
X7753652Y-8041519D01*
X7753652Y-8065709D01*
X7748814Y-8075386D01*
X7743976Y-8080224D01*
X7734300Y-8085062D01*
X7710109Y-8085062D01*
X7700433Y-8080224D01*
X7695595Y-8075386D01*
X7782681Y-7983462D02*
X7816548Y-8085062D01*
X7850414Y-7983462D01*
X8010071Y-8085062D02*
X7961690Y-8085062D01*
X7961690Y-7983462D01*
X8063290Y-7983462D02*
X8082643Y-7983462D01*
X8092319Y-7988300D01*
X8101995Y-7997976D01*
X8106833Y-8017329D01*
X8106833Y-8051195D01*
X8101995Y-8070548D01*
X8092319Y-8080224D01*
X8082643Y-8085062D01*
X8063290Y-8085062D01*
X8053614Y-8080224D01*
X8043938Y-8070548D01*
X8039100Y-8051195D01*
X8039100Y-8017329D01*
X8043938Y-7997976D01*
X8053614Y-7988300D01*
X8063290Y-7983462D01*
X8203595Y-7988300D02*
X8193919Y-7983462D01*
X8179405Y-7983462D01*
X8164890Y-7988300D01*
X8155214Y-7997976D01*
X8150376Y-8007652D01*
X8145538Y-8027005D01*
X8145538Y-8041519D01*
X8150376Y-8060871D01*
X8155214Y-8070548D01*
X8164890Y-8080224D01*
X8179405Y-8085062D01*
X8189081Y-8085062D01*
X8203595Y-8080224D01*
X8208433Y-8075386D01*
X8208433Y-8041519D01*
X8189081Y-8041519D01*
X8251976Y-8085062D02*
X8251976Y-7983462D01*
X8358414Y-8075386D02*
X8353576Y-8080224D01*
X8339062Y-8085062D01*
X8329386Y-8085062D01*
X8314871Y-8080224D01*
X8305195Y-8070548D01*
X8300357Y-8060871D01*
X8295519Y-8041519D01*
X8295519Y-8027005D01*
X8300357Y-8007652D01*
X8305195Y-7997976D01*
X8314871Y-7988300D01*
X8329386Y-7983462D01*
X8339062Y-7983462D01*
X8353576Y-7988300D01*
X8358414Y-7993138D01*
X8474529Y-8080224D02*
X8489043Y-8085062D01*
X8513233Y-8085062D01*
X8522909Y-8080224D01*
X8527748Y-8075386D01*
X8532586Y-8065709D01*
X8532586Y-8056033D01*
X8527748Y-8046357D01*
X8522909Y-8041519D01*
X8513233Y-8036681D01*
X8493881Y-8031843D01*
X8484205Y-8027005D01*
X8479367Y-8022167D01*
X8474529Y-8012490D01*
X8474529Y-8002814D01*
X8479367Y-7993138D01*
X8484205Y-7988300D01*
X8493881Y-7983462D01*
X8518071Y-7983462D01*
X8532586Y-7988300D01*
X8571290Y-8056033D02*
X8619671Y-8056033D01*
X8561614Y-8085062D02*
X8595481Y-7983462D01*
X8629348Y-8085062D01*
X8697081Y-8031843D02*
X8663214Y-8031843D01*
X8663214Y-8085062D02*
X8663214Y-7983462D01*
X8711595Y-7983462D01*
X8750300Y-8031843D02*
X8784167Y-8031843D01*
X8798681Y-8085062D02*
X8750300Y-8085062D01*
X8750300Y-7983462D01*
X8798681Y-7983462D01*
X4402062Y-6880376D02*
X4300462Y-6880376D01*
X4402062Y-6831995D02*
X4300462Y-6831995D01*
X4402062Y-6773938D01*
X4300462Y-6773938D01*
X4402062Y-6725557D02*
X4300462Y-6725557D01*
X4300462Y-6686852D01*
X4305300Y-6677176D01*
X4310138Y-6672338D01*
X4319814Y-6667500D01*
X4334329Y-6667500D01*
X4344005Y-6672338D01*
X4348843Y-6677176D01*
X4353681Y-6686852D01*
X4353681Y-6725557D01*
X4300462Y-6623957D02*
X4382710Y-6623957D01*
X4392386Y-6619119D01*
X4397224Y-6614281D01*
X4402062Y-6604605D01*
X4402062Y-6585252D01*
X4397224Y-6575576D01*
X4392386Y-6570738D01*
X4382710Y-6565900D01*
X4300462Y-6565900D01*
X4300462Y-6532033D02*
X4300462Y-6473976D01*
X4402062Y-6503005D02*
X4300462Y-6503005D01*
X4300462Y-6314319D02*
X4300462Y-6362700D01*
X4348843Y-6367538D01*
X4344005Y-6362700D01*
X4339167Y-6353024D01*
X4339167Y-6328833D01*
X4344005Y-6319157D01*
X4348843Y-6314319D01*
X4358519Y-6309481D01*
X4382710Y-6309481D01*
X4392386Y-6314319D01*
X4397224Y-6319157D01*
X4402062Y-6328833D01*
X4402062Y-6353024D01*
X4397224Y-6362700D01*
X4392386Y-6367538D01*
X4300462Y-6280452D02*
X4402062Y-6246586D01*
X4300462Y-6212719D01*
X4402062Y-6053062D02*
X4402062Y-6101443D01*
X4300462Y-6101443D01*
X4300462Y-5999843D02*
X4300462Y-5980490D01*
X4305300Y-5970814D01*
X4314976Y-5961138D01*
X4334329Y-5956300D01*
X4368195Y-5956300D01*
X4387548Y-5961138D01*
X4397224Y-5970814D01*
X4402062Y-5980490D01*
X4402062Y-5999843D01*
X4397224Y-6009519D01*
X4387548Y-6019195D01*
X4368195Y-6024033D01*
X4334329Y-6024033D01*
X4314976Y-6019195D01*
X4305300Y-6009519D01*
X4300462Y-5999843D01*
X4305300Y-5859538D02*
X4300462Y-5869214D01*
X4300462Y-5883729D01*
X4305300Y-5898243D01*
X4314976Y-5907919D01*
X4324652Y-5912757D01*
X4344005Y-5917595D01*
X4358519Y-5917595D01*
X4377871Y-5912757D01*
X4387548Y-5907919D01*
X4397224Y-5898243D01*
X4402062Y-5883729D01*
X4402062Y-5874052D01*
X4397224Y-5859538D01*
X4392386Y-5854700D01*
X4358519Y-5854700D01*
X4358519Y-5874052D01*
X4402062Y-5811157D02*
X4300462Y-5811157D01*
X4392386Y-5704719D02*
X4397224Y-5709557D01*
X4402062Y-5724071D01*
X4402062Y-5733748D01*
X4397224Y-5748262D01*
X4387548Y-5757938D01*
X4377871Y-5762776D01*
X4358519Y-5767614D01*
X4344005Y-5767614D01*
X4324652Y-5762776D01*
X4314976Y-5757938D01*
X4305300Y-5748262D01*
X4300462Y-5733748D01*
X4300462Y-5724071D01*
X4305300Y-5709557D01*
X4310138Y-5704719D01*
X4397224Y-5588605D02*
X4402062Y-5574090D01*
X4402062Y-5549900D01*
X4397224Y-5540224D01*
X4392386Y-5535386D01*
X4382710Y-5530548D01*
X4373033Y-5530548D01*
X4363357Y-5535386D01*
X4358519Y-5540224D01*
X4353681Y-5549900D01*
X4348843Y-5569252D01*
X4344005Y-5578929D01*
X4339167Y-5583767D01*
X4329491Y-5588605D01*
X4319814Y-5588605D01*
X4310138Y-5583767D01*
X4305300Y-5578929D01*
X4300462Y-5569252D01*
X4300462Y-5545062D01*
X4305300Y-5530548D01*
X4373033Y-5491843D02*
X4373033Y-5443462D01*
X4402062Y-5501519D02*
X4300462Y-5467652D01*
X4402062Y-5433786D01*
X4348843Y-5366052D02*
X4348843Y-5399919D01*
X4402062Y-5399919D02*
X4300462Y-5399919D01*
X4300462Y-5351538D01*
X4348843Y-5312833D02*
X4348843Y-5278967D01*
X4402062Y-5264452D02*
X4402062Y-5312833D01*
X4300462Y-5312833D01*
X4300462Y-5264452D01*
X9529681Y-8554962D02*
X9539357Y-8554962D01*
X9549033Y-8559800D01*
X9553871Y-8564638D01*
X9558710Y-8574314D01*
X9563548Y-8593667D01*
X9563548Y-8617857D01*
X9558710Y-8637210D01*
X9553871Y-8646886D01*
X9549033Y-8651724D01*
X9539357Y-8656562D01*
X9529681Y-8656562D01*
X9520005Y-8651724D01*
X9515167Y-8646886D01*
X9510329Y-8637210D01*
X9505491Y-8617857D01*
X9505491Y-8593667D01*
X9510329Y-8574314D01*
X9515167Y-8564638D01*
X9520005Y-8559800D01*
X9529681Y-8554962D01*
X9597414Y-8554962D02*
X9660310Y-8554962D01*
X9626443Y-8593667D01*
X9640957Y-8593667D01*
X9650633Y-8598505D01*
X9655471Y-8603343D01*
X9660310Y-8613019D01*
X9660310Y-8637210D01*
X9655471Y-8646886D01*
X9650633Y-8651724D01*
X9640957Y-8656562D01*
X9611929Y-8656562D01*
X9602252Y-8651724D01*
X9597414Y-8646886D01*
X9879681Y-8554962D02*
X9889357Y-8554962D01*
X9899033Y-8559800D01*
X9903871Y-8564638D01*
X9908710Y-8574314D01*
X9913548Y-8593667D01*
X9913548Y-8617857D01*
X9908710Y-8637210D01*
X9903871Y-8646886D01*
X9899033Y-8651724D01*
X9889357Y-8656562D01*
X9879681Y-8656562D01*
X9870005Y-8651724D01*
X9865167Y-8646886D01*
X9860329Y-8637210D01*
X9855491Y-8617857D01*
X9855491Y-8593667D01*
X9860329Y-8574314D01*
X9865167Y-8564638D01*
X9870005Y-8559800D01*
X9879681Y-8554962D01*
X9952252Y-8564638D02*
X9957091Y-8559800D01*
X9966767Y-8554962D01*
X9990957Y-8554962D01*
X10000633Y-8559800D01*
X10005471Y-8564638D01*
X10010310Y-8574314D01*
X10010310Y-8583991D01*
X10005471Y-8598505D01*
X9947414Y-8656562D01*
X10010310Y-8656562D01*
X11089519Y-4465562D02*
X11089519Y-4363962D01*
X11128224Y-4363962D01*
X11137900Y-4368800D01*
X11142738Y-4373638D01*
X11147576Y-4383314D01*
X11147576Y-4397829D01*
X11142738Y-4407505D01*
X11137900Y-4412343D01*
X11128224Y-4417181D01*
X11089519Y-4417181D01*
X11181443Y-4363962D02*
X11205633Y-4465562D01*
X11224986Y-4392991D01*
X11244338Y-4465562D01*
X11268529Y-4363962D01*
X11365290Y-4465562D02*
X11331424Y-4417181D01*
X11307233Y-4465562D02*
X11307233Y-4363962D01*
X11345938Y-4363962D01*
X11355614Y-4368800D01*
X11360452Y-4373638D01*
X11365290Y-4383314D01*
X11365290Y-4397829D01*
X11360452Y-4407505D01*
X11355614Y-4412343D01*
X11345938Y-4417181D01*
X11307233Y-4417181D01*
X11486243Y-4465562D02*
X11486243Y-4363962D01*
X11534624Y-4465562D02*
X11534624Y-4363962D01*
X11592681Y-4465562D01*
X11592681Y-4363962D01*
X10889343Y-3889224D02*
X10903857Y-3894062D01*
X10928048Y-3894062D01*
X10937724Y-3889224D01*
X10942562Y-3884386D01*
X10947400Y-3874709D01*
X10947400Y-3865033D01*
X10942562Y-3855357D01*
X10937724Y-3850519D01*
X10928048Y-3845681D01*
X10908695Y-3840843D01*
X10899019Y-3836005D01*
X10894181Y-3831167D01*
X10889343Y-3821490D01*
X10889343Y-3811814D01*
X10894181Y-3802138D01*
X10899019Y-3797300D01*
X10908695Y-3792462D01*
X10932886Y-3792462D01*
X10947400Y-3797300D01*
X11010295Y-3845681D02*
X11010295Y-3894062D01*
X10976429Y-3792462D02*
X11010295Y-3845681D01*
X11044162Y-3792462D01*
X11073191Y-3889224D02*
X11087705Y-3894062D01*
X11111895Y-3894062D01*
X11121571Y-3889224D01*
X11126410Y-3884386D01*
X11131248Y-3874709D01*
X11131248Y-3865033D01*
X11126410Y-3855357D01*
X11121571Y-3850519D01*
X11111895Y-3845681D01*
X11092543Y-3840843D01*
X11082867Y-3836005D01*
X11078029Y-3831167D01*
X11073191Y-3821490D01*
X11073191Y-3811814D01*
X11078029Y-3802138D01*
X11082867Y-3797300D01*
X11092543Y-3792462D01*
X11116733Y-3792462D01*
X11131248Y-3797300D01*
X10869991Y-3538462D02*
X10903857Y-3640062D01*
X10937724Y-3538462D01*
X10971591Y-3640062D02*
X10971591Y-3538462D01*
X10995781Y-3538462D01*
X11010295Y-3543300D01*
X11019971Y-3552976D01*
X11024810Y-3562652D01*
X11029648Y-3582005D01*
X11029648Y-3596519D01*
X11024810Y-3615871D01*
X11019971Y-3625548D01*
X11010295Y-3635224D01*
X10995781Y-3640062D01*
X10971591Y-3640062D01*
X11073191Y-3640062D02*
X11073191Y-3538462D01*
X11097381Y-3538462D01*
X11111895Y-3543300D01*
X11121571Y-3552976D01*
X11126410Y-3562652D01*
X11131248Y-3582005D01*
X11131248Y-3596519D01*
X11126410Y-3615871D01*
X11121571Y-3625548D01*
X11111895Y-3635224D01*
X11097381Y-3640062D01*
X11073191Y-3640062D01*
D13*
X12052100Y-6872100D02*
X12192100Y-6872100D01*
X12052100Y-6412100D02*
X12052100Y-6872100D01*
X12192100Y-6412100D02*
X12052100Y-6412100D01*
D14*
X11252100Y-4592100D02*
X12192100Y-4592100D01*
X11252100Y-8692100D02*
X12192100Y-8692100D01*
X11252100Y-4592100D02*
X11252100Y-8692100D01*
X12192100Y-8692100D02*
X12192100Y-4592100D01*
D15*
X4409600Y-3122600D02*
X4409600Y-2922600D01*
X4419600Y-2922600D02*
X4419600Y-3122600D01*
X4429600Y-3122600D02*
X4429600Y-2922600D01*
X4399600Y-2922600D02*
X4419600Y-2912600D01*
X4419600Y-2912600D02*
X4439600Y-2922600D01*
D16*
X4429600Y-3162600D02*
G75*
G03X4429600Y-3162600I-10000J0D01*
G01*
D15*
X4399600Y-2922600D02*
X4409600Y-3122600D01*
X4409600Y-3122600D02*
X4429600Y-3122600D01*
X4429600Y-3122600D02*
X4439600Y-2922600D01*
X4439600Y-2922600D02*
X4399600Y-2922600D01*
D17*
G36*
X4669536Y-3208528D02*
X4669282Y-3213608D01*
X4668774Y-3218434D01*
X4667504Y-3223006D01*
X4665472Y-3226816D01*
X4664456Y-3228340D01*
X4663186Y-3229610D01*
X4661916Y-3230880D01*
X4660138Y-3231896D01*
X4658360Y-3232912D01*
X4654042Y-3234690D01*
X4630674Y-3234690D01*
X4630674Y-3202940D01*
X4630166Y-3202178D01*
X4629404Y-3200908D01*
X4628388Y-3199130D01*
X4626864Y-3196844D01*
X4626102Y-3195574D01*
X4625086Y-3194050D01*
X4624578Y-3193034D01*
X4623816Y-3191764D01*
X4623054Y-3190748D01*
X4622292Y-3189732D01*
X4621530Y-3188462D01*
X4620768Y-3187192D01*
X4619752Y-3185414D01*
X4618482Y-3183382D01*
X4617212Y-3181096D01*
X4615434Y-3178302D01*
X4613402Y-3175000D01*
X4611116Y-3171190D01*
X4608322Y-3166618D01*
X4605274Y-3161284D01*
X4601972Y-3155696D01*
X4598924Y-3150870D01*
X4596384Y-3146298D01*
X4593844Y-3142234D01*
X4591558Y-3138424D01*
X4589526Y-3134868D01*
X4587748Y-3132074D01*
X4586478Y-3130042D01*
X4585462Y-3128518D01*
X4584954Y-3127756D01*
X4584446Y-3126740D01*
X4583430Y-3124962D01*
X4582160Y-3122930D01*
X4580636Y-3120136D01*
X4578858Y-3117342D01*
X4578096Y-3115818D01*
X4575810Y-3112262D01*
X4573524Y-3108452D01*
X4570984Y-3104388D01*
X4568952Y-3100578D01*
X4566920Y-3097276D01*
X4566920Y-3097022D01*
X4564888Y-3093974D01*
X4563110Y-3090672D01*
X4561332Y-3087624D01*
X4559554Y-3085084D01*
X4558538Y-3083052D01*
X4557268Y-3081020D01*
X4555490Y-3078226D01*
X4553712Y-3075178D01*
X4551934Y-3071876D01*
X4549902Y-3068574D01*
X4549902Y-3068574D01*
X4547870Y-3065018D01*
X4545584Y-3061208D01*
X4543044Y-3056890D01*
X4540504Y-3052826D01*
X4538472Y-3049270D01*
X4536440Y-3045968D01*
X4534154Y-3041904D01*
X4531614Y-3037586D01*
X4529074Y-3033268D01*
X4526534Y-3029204D01*
X4525518Y-3027426D01*
X4523232Y-3023616D01*
X4520692Y-3019806D01*
X4518152Y-3015488D01*
X4515866Y-3011424D01*
X4513580Y-3007614D01*
X4512818Y-3006090D01*
X4511040Y-3003296D01*
X4509262Y-3000502D01*
X4507992Y-2998216D01*
X4506722Y-2996184D01*
X4505960Y-2994914D01*
X4505960Y-2994660D01*
X4505198Y-2993644D01*
X4504182Y-2991866D01*
X4502912Y-2989834D01*
X4501388Y-2987294D01*
X4500372Y-2985516D01*
X4498848Y-2982722D01*
X4497324Y-2980436D01*
X4496054Y-2978404D01*
X4495292Y-2976880D01*
X4494784Y-2976118D01*
X4494276Y-2975102D01*
X4493260Y-2973578D01*
X4491990Y-2971292D01*
X4490466Y-2968752D01*
X4488688Y-2965958D01*
X4487926Y-2964688D01*
X4485894Y-2961132D01*
X4483354Y-2957068D01*
X4480814Y-2952750D01*
X4478274Y-2948432D01*
X4476242Y-2944622D01*
X4475988Y-2944622D01*
X4474210Y-2941574D01*
X4472432Y-2938526D01*
X4470908Y-2935986D01*
X4469638Y-2933700D01*
X4468622Y-2932176D01*
X4468368Y-2931668D01*
X4467352Y-2930144D01*
X4466082Y-2927858D01*
X4464304Y-2924810D01*
X4462272Y-2921254D01*
X4459732Y-2917444D01*
X4457192Y-2912872D01*
X4454398Y-2908300D01*
X4451350Y-2903474D01*
X4448302Y-2898394D01*
X4445508Y-2893568D01*
X4442460Y-2888742D01*
X4439666Y-2883916D01*
X4436872Y-2879598D01*
X4434586Y-2875534D01*
X4432300Y-2871978D01*
X4430522Y-2868930D01*
X4430268Y-2868676D01*
X4428236Y-2865374D01*
X4426204Y-2862326D01*
X4424426Y-2859278D01*
X4422648Y-2856738D01*
X4420870Y-2854452D01*
X4419854Y-2852674D01*
X4419092Y-2851404D01*
X4418584Y-2850896D01*
X4418330Y-2851404D01*
X4417568Y-2852674D01*
X4416298Y-2854452D01*
X4414520Y-2857246D01*
X4412488Y-2860548D01*
X4410202Y-2864612D01*
X4407408Y-2869184D01*
X4404360Y-2874010D01*
X4401058Y-2879598D01*
X4397756Y-2885440D01*
X4393946Y-2891790D01*
X4390136Y-2898140D01*
X4386072Y-2904998D01*
X4384040Y-2908554D01*
X4383278Y-2909570D01*
X4382008Y-2911602D01*
X4380738Y-2913888D01*
X4378960Y-2916936D01*
X4377182Y-2919984D01*
X4375150Y-2923286D01*
X4366768Y-2937510D01*
X4358640Y-2951226D01*
X4350766Y-2964180D01*
X4343400Y-2976880D01*
X4336034Y-2989326D01*
X4328922Y-3001518D01*
X4326890Y-3005074D01*
X4324858Y-3008122D01*
X4323080Y-3011170D01*
X4321556Y-3013964D01*
X4320032Y-3016250D01*
X4319016Y-3018028D01*
X4318762Y-3018536D01*
X4318000Y-3019806D01*
X4316730Y-3022092D01*
X4315206Y-3024378D01*
X4313428Y-3027426D01*
X4311396Y-3030728D01*
X4310126Y-3033014D01*
X4308094Y-3036316D01*
X4306316Y-3039364D01*
X4304538Y-3042412D01*
X4303014Y-3044952D01*
X4301744Y-3046730D01*
X4301236Y-3047746D01*
X4300220Y-3049524D01*
X4298696Y-3051810D01*
X4297172Y-3054604D01*
X4295648Y-3057144D01*
X4295394Y-3057652D01*
X4293108Y-3061716D01*
X4290568Y-3065780D01*
X4288282Y-3069844D01*
X4285996Y-3073908D01*
X4283710Y-3077210D01*
X4282186Y-3080004D01*
X4281424Y-3081020D01*
X4280154Y-3083306D01*
X4278884Y-3085592D01*
X4277868Y-3087370D01*
X4277614Y-3087624D01*
X4277106Y-3088894D01*
X4275836Y-3090926D01*
X4274058Y-3093720D01*
X4272026Y-3097276D01*
X4269486Y-3101594D01*
X4266438Y-3106674D01*
X4263136Y-3112516D01*
X4259326Y-3118612D01*
X4255262Y-3125724D01*
X4250690Y-3133090D01*
X4250690Y-3133344D01*
X4248404Y-3137408D01*
X4245864Y-3141472D01*
X4243324Y-3145790D01*
X4241038Y-3149854D01*
X4238752Y-3153664D01*
X4237482Y-3155696D01*
X4235450Y-3158998D01*
X4233672Y-3162300D01*
X4231640Y-3165602D01*
X4230116Y-3168396D01*
X4228592Y-3170682D01*
X4228338Y-3170936D01*
X4227068Y-3173476D01*
X4225544Y-3175762D01*
X4224528Y-3177794D01*
X4223512Y-3179318D01*
X4221480Y-3182874D01*
X4219448Y-3186176D01*
X4217416Y-3189732D01*
X4215638Y-3193034D01*
X4213860Y-3195828D01*
X4212336Y-3198368D01*
X4211066Y-3200400D01*
X4210304Y-3201924D01*
X4209796Y-3202432D01*
X4209796Y-3202432D01*
X4209288Y-3203194D01*
X4209288Y-3203448D01*
X4209796Y-3203448D01*
X4211320Y-3203448D01*
X4213606Y-3203448D01*
X4216908Y-3203448D01*
X4221226Y-3203448D01*
X4226306Y-3203702D01*
X4231894Y-3203702D01*
X4238498Y-3203702D01*
X4245864Y-3203702D01*
X4253992Y-3203702D01*
X4262628Y-3203702D01*
X4272026Y-3203702D01*
X4281932Y-3203702D01*
X4292600Y-3203702D01*
X4303776Y-3203702D01*
X4315206Y-3203702D01*
X4327398Y-3203702D01*
X4339844Y-3203702D01*
X4352798Y-3203702D01*
X4366006Y-3203702D01*
X4379722Y-3203702D01*
X4393692Y-3203702D01*
X4408170Y-3203702D01*
X4420108Y-3203702D01*
X4437380Y-3203702D01*
X4453890Y-3203702D01*
X4469130Y-3203702D01*
X4483608Y-3203702D01*
X4497324Y-3203702D01*
X4510024Y-3203702D01*
X4521962Y-3203702D01*
X4533138Y-3203702D01*
X4543552Y-3203702D01*
X4553204Y-3203702D01*
X4562094Y-3203702D01*
X4570222Y-3203702D01*
X4577842Y-3203702D01*
X4584700Y-3203702D01*
X4590796Y-3203702D01*
X4596638Y-3203702D01*
X4601718Y-3203702D01*
X4606290Y-3203702D01*
X4610354Y-3203702D01*
X4613910Y-3203702D01*
X4617212Y-3203702D01*
X4620006Y-3203448D01*
X4622292Y-3203448D01*
X4624324Y-3203448D01*
X4625848Y-3203448D01*
X4627372Y-3203448D01*
X4628388Y-3203448D01*
X4629150Y-3203194D01*
X4629912Y-3203194D01*
X4630166Y-3203194D01*
X4630420Y-3203194D01*
X4630674Y-3202940D01*
X4630674Y-3202940D01*
X4630674Y-3234690D01*
X4420616Y-3234944D01*
X4187444Y-3235198D01*
X4183126Y-3233420D01*
X4178808Y-3231388D01*
X4175506Y-3228594D01*
X4172966Y-3225546D01*
X4171188Y-3221736D01*
X4170172Y-3217164D01*
X4169664Y-3212592D01*
X4169664Y-3211068D01*
X4169918Y-3210052D01*
X4169918Y-3209036D01*
X4170172Y-3207766D01*
X4170680Y-3206496D01*
X4171442Y-3204972D01*
X4172712Y-3202940D01*
X4173982Y-3200400D01*
X4176014Y-3197352D01*
X4177030Y-3195574D01*
X4178554Y-3192780D01*
X4180332Y-3189986D01*
X4181602Y-3187446D01*
X4182872Y-3185668D01*
X4183634Y-3184398D01*
X4184396Y-3182620D01*
X4185920Y-3180334D01*
X4187444Y-3177540D01*
X4189222Y-3174492D01*
X4191254Y-3170936D01*
X4193286Y-3167634D01*
X4195318Y-3164332D01*
X4195572Y-3163824D01*
X4196842Y-3161792D01*
X4198112Y-3159506D01*
X4199890Y-3156712D01*
X4201668Y-3153664D01*
X4203446Y-3150616D01*
X4205478Y-3147314D01*
X4207764Y-3143250D01*
X4210050Y-3139186D01*
X4212336Y-3135376D01*
X4213860Y-3132836D01*
X4215638Y-3129788D01*
X4217670Y-3126232D01*
X4219702Y-3122930D01*
X4221480Y-3119882D01*
X4222750Y-3117596D01*
X4224274Y-3115056D01*
X4226052Y-3112008D01*
X4228084Y-3108706D01*
X4230116Y-3105404D01*
X4231894Y-3102102D01*
X4233926Y-3099054D01*
X4235704Y-3095752D01*
X4237736Y-3092450D01*
X4239260Y-3089910D01*
X4240530Y-3087624D01*
X4240530Y-3087624D01*
X4241292Y-3086354D01*
X4242054Y-3085084D01*
X4243070Y-3083306D01*
X4244086Y-3081528D01*
X4245610Y-3079496D01*
X4247134Y-3076702D01*
X4248912Y-3073654D01*
X4250944Y-3070352D01*
X4253230Y-3066034D01*
X4256024Y-3061462D01*
X4259326Y-3056128D01*
X4262882Y-3050032D01*
X4266946Y-3042920D01*
X4267200Y-3042666D01*
X4269486Y-3038856D01*
X4271772Y-3035300D01*
X4273804Y-3031490D01*
X4275836Y-3028442D01*
X4277360Y-3025648D01*
X4278630Y-3023362D01*
X4279138Y-3022600D01*
X4280154Y-3021076D01*
X4281678Y-3018790D01*
X4283456Y-3015742D01*
X4285488Y-3012186D01*
X4287520Y-3008630D01*
X4289806Y-3004566D01*
X4291838Y-3001264D01*
X4296156Y-2994152D01*
X4299966Y-2987548D01*
X4303776Y-2981198D01*
X4307332Y-2975102D01*
X4310634Y-2969768D01*
X4313682Y-2964688D01*
X4316222Y-2960370D01*
X4318254Y-2957068D01*
X4319270Y-2955036D01*
X4320286Y-2953512D01*
X4321556Y-2950972D01*
X4323334Y-2948178D01*
X4325620Y-2944622D01*
X4327906Y-2940558D01*
X4330192Y-2936494D01*
X4332732Y-2932176D01*
X4334764Y-2929128D01*
X4337304Y-2924556D01*
X4340098Y-2919984D01*
X4342638Y-2915666D01*
X4345178Y-2911348D01*
X4347464Y-2907538D01*
X4349496Y-2904236D01*
X4351020Y-2901442D01*
X4351782Y-2900172D01*
X4353560Y-2897124D01*
X4355592Y-2893568D01*
X4357624Y-2890012D01*
X4359656Y-2886964D01*
X4360672Y-2885186D01*
X4362196Y-2882646D01*
X4363974Y-2879344D01*
X4366006Y-2876042D01*
X4368038Y-2872486D01*
X4369562Y-2869946D01*
X4373372Y-2863850D01*
X4376420Y-2858262D01*
X4379468Y-2853182D01*
X4382008Y-2848864D01*
X4384040Y-2845308D01*
X4385818Y-2842514D01*
X4386834Y-2840482D01*
X4387596Y-2839466D01*
X4388358Y-2838196D01*
X4389628Y-2836164D01*
X4390898Y-2833878D01*
X4392422Y-2831338D01*
X4392676Y-2830830D01*
X4394962Y-2826766D01*
X4396994Y-2823718D01*
X4398518Y-2821178D01*
X4400042Y-2819146D01*
X4401312Y-2817622D01*
X4402582Y-2816352D01*
X4404106Y-2815336D01*
X4405630Y-2814320D01*
X4407408Y-2813558D01*
X4409694Y-2812796D01*
X4409948Y-2812542D01*
X4412234Y-2811780D01*
X4413758Y-2811272D01*
X4415282Y-2811018D01*
X4416806Y-2811018D01*
X4419092Y-2811018D01*
X4423156Y-2811526D01*
X4426966Y-2812542D01*
X4430776Y-2814320D01*
X4434078Y-2816860D01*
X4437126Y-2820162D01*
X4440174Y-2824226D01*
X4443222Y-2829306D01*
X4444746Y-2832354D01*
X4445508Y-2833624D01*
X4446524Y-2835656D01*
X4448048Y-2838450D01*
X4449826Y-2841498D01*
X4452112Y-2845054D01*
X4454398Y-2849118D01*
X4456684Y-2853182D01*
X4459224Y-2857246D01*
X4461764Y-2861564D01*
X4464050Y-2865628D01*
X4466336Y-2869184D01*
X4467098Y-2870454D01*
X4468368Y-2872740D01*
X4469892Y-2875280D01*
X4471670Y-2878328D01*
X4473702Y-2881630D01*
X4475734Y-2884932D01*
X4475734Y-2885186D01*
X4478528Y-2889504D01*
X4481576Y-2894838D01*
X4485132Y-2900680D01*
X4488942Y-2907284D01*
X4493514Y-2914650D01*
X4498340Y-2922778D01*
X4503420Y-2931160D01*
X4508754Y-2940304D01*
X4514596Y-2949956D01*
X4520692Y-2960116D01*
X4527042Y-2970530D01*
X4533646Y-2981452D01*
X4540504Y-2992882D01*
X4547362Y-3004312D01*
X4554474Y-3015996D01*
X4561586Y-3027680D01*
X4563364Y-3030728D01*
X4566666Y-3036062D01*
X4569968Y-3041650D01*
X4573778Y-3047746D01*
X4577334Y-3053842D01*
X4581144Y-3060192D01*
X4584954Y-3066288D01*
X4588764Y-3072384D01*
X4592066Y-3078226D01*
X4595368Y-3083560D01*
X4598416Y-3088386D01*
X4600956Y-3092704D01*
X4602226Y-3095244D01*
X4606544Y-3102356D01*
X4610354Y-3108706D01*
X4613910Y-3114294D01*
X4617212Y-3119628D01*
X4620006Y-3124708D01*
X4623054Y-3129280D01*
X4625848Y-3133852D01*
X4628642Y-3138424D01*
X4631436Y-3143250D01*
X4634230Y-3147822D01*
X4639310Y-3155950D01*
X4643882Y-3163570D01*
X4647946Y-3170174D01*
X4651756Y-3176524D01*
X4654804Y-3181858D01*
X4657852Y-3186938D01*
X4660392Y-3191510D01*
X4662678Y-3195574D01*
X4664710Y-3199384D01*
X4666488Y-3202432D01*
X4669536Y-3208528D01*
X4669536Y-3208528D01*
X4669536Y-3208528D01*
G37*
X4669536Y-3208528D02*
X4669282Y-3213608D01*
X4668774Y-3218434D01*
X4667504Y-3223006D01*
X4665472Y-3226816D01*
X4664456Y-3228340D01*
X4663186Y-3229610D01*
X4661916Y-3230880D01*
X4660138Y-3231896D01*
X4658360Y-3232912D01*
X4654042Y-3234690D01*
X4630674Y-3234690D01*
X4630674Y-3202940D01*
X4630166Y-3202178D01*
X4629404Y-3200908D01*
X4628388Y-3199130D01*
X4626864Y-3196844D01*
X4626102Y-3195574D01*
X4625086Y-3194050D01*
X4624578Y-3193034D01*
X4623816Y-3191764D01*
X4623054Y-3190748D01*
X4622292Y-3189732D01*
X4621530Y-3188462D01*
X4620768Y-3187192D01*
X4619752Y-3185414D01*
X4618482Y-3183382D01*
X4617212Y-3181096D01*
X4615434Y-3178302D01*
X4613402Y-3175000D01*
X4611116Y-3171190D01*
X4608322Y-3166618D01*
X4605274Y-3161284D01*
X4601972Y-3155696D01*
X4598924Y-3150870D01*
X4596384Y-3146298D01*
X4593844Y-3142234D01*
X4591558Y-3138424D01*
X4589526Y-3134868D01*
X4587748Y-3132074D01*
X4586478Y-3130042D01*
X4585462Y-3128518D01*
X4584954Y-3127756D01*
X4584446Y-3126740D01*
X4583430Y-3124962D01*
X4582160Y-3122930D01*
X4580636Y-3120136D01*
X4578858Y-3117342D01*
X4578096Y-3115818D01*
X4575810Y-3112262D01*
X4573524Y-3108452D01*
X4570984Y-3104388D01*
X4568952Y-3100578D01*
X4566920Y-3097276D01*
X4566920Y-3097022D01*
X4564888Y-3093974D01*
X4563110Y-3090672D01*
X4561332Y-3087624D01*
X4559554Y-3085084D01*
X4558538Y-3083052D01*
X4557268Y-3081020D01*
X4555490Y-3078226D01*
X4553712Y-3075178D01*
X4551934Y-3071876D01*
X4549902Y-3068574D01*
X4549902Y-3068574D01*
X4547870Y-3065018D01*
X4545584Y-3061208D01*
X4543044Y-3056890D01*
X4540504Y-3052826D01*
X4538472Y-3049270D01*
X4536440Y-3045968D01*
X4534154Y-3041904D01*
X4531614Y-3037586D01*
X4529074Y-3033268D01*
X4526534Y-3029204D01*
X4525518Y-3027426D01*
X4523232Y-3023616D01*
X4520692Y-3019806D01*
X4518152Y-3015488D01*
X4515866Y-3011424D01*
X4513580Y-3007614D01*
X4512818Y-3006090D01*
X4511040Y-3003296D01*
X4509262Y-3000502D01*
X4507992Y-2998216D01*
X4506722Y-2996184D01*
X4505960Y-2994914D01*
X4505960Y-2994660D01*
X4505198Y-2993644D01*
X4504182Y-2991866D01*
X4502912Y-2989834D01*
X4501388Y-2987294D01*
X4500372Y-2985516D01*
X4498848Y-2982722D01*
X4497324Y-2980436D01*
X4496054Y-2978404D01*
X4495292Y-2976880D01*
X4494784Y-2976118D01*
X4494276Y-2975102D01*
X4493260Y-2973578D01*
X4491990Y-2971292D01*
X4490466Y-2968752D01*
X4488688Y-2965958D01*
X4487926Y-2964688D01*
X4485894Y-2961132D01*
X4483354Y-2957068D01*
X4480814Y-2952750D01*
X4478274Y-2948432D01*
X4476242Y-2944622D01*
X4475988Y-2944622D01*
X4474210Y-2941574D01*
X4472432Y-2938526D01*
X4470908Y-2935986D01*
X4469638Y-2933700D01*
X4468622Y-2932176D01*
X4468368Y-2931668D01*
X4467352Y-2930144D01*
X4466082Y-2927858D01*
X4464304Y-2924810D01*
X4462272Y-2921254D01*
X4459732Y-2917444D01*
X4457192Y-2912872D01*
X4454398Y-2908300D01*
X4451350Y-2903474D01*
X4448302Y-2898394D01*
X4445508Y-2893568D01*
X4442460Y-2888742D01*
X4439666Y-2883916D01*
X4436872Y-2879598D01*
X4434586Y-2875534D01*
X4432300Y-2871978D01*
X4430522Y-2868930D01*
X4430268Y-2868676D01*
X4428236Y-2865374D01*
X4426204Y-2862326D01*
X4424426Y-2859278D01*
X4422648Y-2856738D01*
X4420870Y-2854452D01*
X4419854Y-2852674D01*
X4419092Y-2851404D01*
X4418584Y-2850896D01*
X4418330Y-2851404D01*
X4417568Y-2852674D01*
X4416298Y-2854452D01*
X4414520Y-2857246D01*
X4412488Y-2860548D01*
X4410202Y-2864612D01*
X4407408Y-2869184D01*
X4404360Y-2874010D01*
X4401058Y-2879598D01*
X4397756Y-2885440D01*
X4393946Y-2891790D01*
X4390136Y-2898140D01*
X4386072Y-2904998D01*
X4384040Y-2908554D01*
X4383278Y-2909570D01*
X4382008Y-2911602D01*
X4380738Y-2913888D01*
X4378960Y-2916936D01*
X4377182Y-2919984D01*
X4375150Y-2923286D01*
X4366768Y-2937510D01*
X4358640Y-2951226D01*
X4350766Y-2964180D01*
X4343400Y-2976880D01*
X4336034Y-2989326D01*
X4328922Y-3001518D01*
X4326890Y-3005074D01*
X4324858Y-3008122D01*
X4323080Y-3011170D01*
X4321556Y-3013964D01*
X4320032Y-3016250D01*
X4319016Y-3018028D01*
X4318762Y-3018536D01*
X4318000Y-3019806D01*
X4316730Y-3022092D01*
X4315206Y-3024378D01*
X4313428Y-3027426D01*
X4311396Y-3030728D01*
X4310126Y-3033014D01*
X4308094Y-3036316D01*
X4306316Y-3039364D01*
X4304538Y-3042412D01*
X4303014Y-3044952D01*
X4301744Y-3046730D01*
X4301236Y-3047746D01*
X4300220Y-3049524D01*
X4298696Y-3051810D01*
X4297172Y-3054604D01*
X4295648Y-3057144D01*
X4295394Y-3057652D01*
X4293108Y-3061716D01*
X4290568Y-3065780D01*
X4288282Y-3069844D01*
X4285996Y-3073908D01*
X4283710Y-3077210D01*
X4282186Y-3080004D01*
X4281424Y-3081020D01*
X4280154Y-3083306D01*
X4278884Y-3085592D01*
X4277868Y-3087370D01*
X4277614Y-3087624D01*
X4277106Y-3088894D01*
X4275836Y-3090926D01*
X4274058Y-3093720D01*
X4272026Y-3097276D01*
X4269486Y-3101594D01*
X4266438Y-3106674D01*
X4263136Y-3112516D01*
X4259326Y-3118612D01*
X4255262Y-3125724D01*
X4250690Y-3133090D01*
X4250690Y-3133344D01*
X4248404Y-3137408D01*
X4245864Y-3141472D01*
X4243324Y-3145790D01*
X4241038Y-3149854D01*
X4238752Y-3153664D01*
X4237482Y-3155696D01*
X4235450Y-3158998D01*
X4233672Y-3162300D01*
X4231640Y-3165602D01*
X4230116Y-3168396D01*
X4228592Y-3170682D01*
X4228338Y-3170936D01*
X4227068Y-3173476D01*
X4225544Y-3175762D01*
X4224528Y-3177794D01*
X4223512Y-3179318D01*
X4221480Y-3182874D01*
X4219448Y-3186176D01*
X4217416Y-3189732D01*
X4215638Y-3193034D01*
X4213860Y-3195828D01*
X4212336Y-3198368D01*
X4211066Y-3200400D01*
X4210304Y-3201924D01*
X4209796Y-3202432D01*
X4209796Y-3202432D01*
X4209288Y-3203194D01*
X4209288Y-3203448D01*
X4209796Y-3203448D01*
X4211320Y-3203448D01*
X4213606Y-3203448D01*
X4216908Y-3203448D01*
X4221226Y-3203448D01*
X4226306Y-3203702D01*
X4231894Y-3203702D01*
X4238498Y-3203702D01*
X4245864Y-3203702D01*
X4253992Y-3203702D01*
X4262628Y-3203702D01*
X4272026Y-3203702D01*
X4281932Y-3203702D01*
X4292600Y-3203702D01*
X4303776Y-3203702D01*
X4315206Y-3203702D01*
X4327398Y-3203702D01*
X4339844Y-3203702D01*
X4352798Y-3203702D01*
X4366006Y-3203702D01*
X4379722Y-3203702D01*
X4393692Y-3203702D01*
X4408170Y-3203702D01*
X4420108Y-3203702D01*
X4437380Y-3203702D01*
X4453890Y-3203702D01*
X4469130Y-3203702D01*
X4483608Y-3203702D01*
X4497324Y-3203702D01*
X4510024Y-3203702D01*
X4521962Y-3203702D01*
X4533138Y-3203702D01*
X4543552Y-3203702D01*
X4553204Y-3203702D01*
X4562094Y-3203702D01*
X4570222Y-3203702D01*
X4577842Y-3203702D01*
X4584700Y-3203702D01*
X4590796Y-3203702D01*
X4596638Y-3203702D01*
X4601718Y-3203702D01*
X4606290Y-3203702D01*
X4610354Y-3203702D01*
X4613910Y-3203702D01*
X4617212Y-3203702D01*
X4620006Y-3203448D01*
X4622292Y-3203448D01*
X4624324Y-3203448D01*
X4625848Y-3203448D01*
X4627372Y-3203448D01*
X4628388Y-3203448D01*
X4629150Y-3203194D01*
X4629912Y-3203194D01*
X4630166Y-3203194D01*
X4630420Y-3203194D01*
X4630674Y-3202940D01*
X4630674Y-3202940D01*
X4630674Y-3234690D01*
X4420616Y-3234944D01*
X4187444Y-3235198D01*
X4183126Y-3233420D01*
X4178808Y-3231388D01*
X4175506Y-3228594D01*
X4172966Y-3225546D01*
X4171188Y-3221736D01*
X4170172Y-3217164D01*
X4169664Y-3212592D01*
X4169664Y-3211068D01*
X4169918Y-3210052D01*
X4169918Y-3209036D01*
X4170172Y-3207766D01*
X4170680Y-3206496D01*
X4171442Y-3204972D01*
X4172712Y-3202940D01*
X4173982Y-3200400D01*
X4176014Y-3197352D01*
X4177030Y-3195574D01*
X4178554Y-3192780D01*
X4180332Y-3189986D01*
X4181602Y-3187446D01*
X4182872Y-3185668D01*
X4183634Y-3184398D01*
X4184396Y-3182620D01*
X4185920Y-3180334D01*
X4187444Y-3177540D01*
X4189222Y-3174492D01*
X4191254Y-3170936D01*
X4193286Y-3167634D01*
X4195318Y-3164332D01*
X4195572Y-3163824D01*
X4196842Y-3161792D01*
X4198112Y-3159506D01*
X4199890Y-3156712D01*
X4201668Y-3153664D01*
X4203446Y-3150616D01*
X4205478Y-3147314D01*
X4207764Y-3143250D01*
X4210050Y-3139186D01*
X4212336Y-3135376D01*
X4213860Y-3132836D01*
X4215638Y-3129788D01*
X4217670Y-3126232D01*
X4219702Y-3122930D01*
X4221480Y-3119882D01*
X4222750Y-3117596D01*
X4224274Y-3115056D01*
X4226052Y-3112008D01*
X4228084Y-3108706D01*
X4230116Y-3105404D01*
X4231894Y-3102102D01*
X4233926Y-3099054D01*
X4235704Y-3095752D01*
X4237736Y-3092450D01*
X4239260Y-3089910D01*
X4240530Y-3087624D01*
X4240530Y-3087624D01*
X4241292Y-3086354D01*
X4242054Y-3085084D01*
X4243070Y-3083306D01*
X4244086Y-3081528D01*
X4245610Y-3079496D01*
X4247134Y-3076702D01*
X4248912Y-3073654D01*
X4250944Y-3070352D01*
X4253230Y-3066034D01*
X4256024Y-3061462D01*
X4259326Y-3056128D01*
X4262882Y-3050032D01*
X4266946Y-3042920D01*
X4267200Y-3042666D01*
X4269486Y-3038856D01*
X4271772Y-3035300D01*
X4273804Y-3031490D01*
X4275836Y-3028442D01*
X4277360Y-3025648D01*
X4278630Y-3023362D01*
X4279138Y-3022600D01*
X4280154Y-3021076D01*
X4281678Y-3018790D01*
X4283456Y-3015742D01*
X4285488Y-3012186D01*
X4287520Y-3008630D01*
X4289806Y-3004566D01*
X4291838Y-3001264D01*
X4296156Y-2994152D01*
X4299966Y-2987548D01*
X4303776Y-2981198D01*
X4307332Y-2975102D01*
X4310634Y-2969768D01*
X4313682Y-2964688D01*
X4316222Y-2960370D01*
X4318254Y-2957068D01*
X4319270Y-2955036D01*
X4320286Y-2953512D01*
X4321556Y-2950972D01*
X4323334Y-2948178D01*
X4325620Y-2944622D01*
X4327906Y-2940558D01*
X4330192Y-2936494D01*
X4332732Y-2932176D01*
X4334764Y-2929128D01*
X4337304Y-2924556D01*
X4340098Y-2919984D01*
X4342638Y-2915666D01*
X4345178Y-2911348D01*
X4347464Y-2907538D01*
X4349496Y-2904236D01*
X4351020Y-2901442D01*
X4351782Y-2900172D01*
X4353560Y-2897124D01*
X4355592Y-2893568D01*
X4357624Y-2890012D01*
X4359656Y-2886964D01*
X4360672Y-2885186D01*
X4362196Y-2882646D01*
X4363974Y-2879344D01*
X4366006Y-2876042D01*
X4368038Y-2872486D01*
X4369562Y-2869946D01*
X4373372Y-2863850D01*
X4376420Y-2858262D01*
X4379468Y-2853182D01*
X4382008Y-2848864D01*
X4384040Y-2845308D01*
X4385818Y-2842514D01*
X4386834Y-2840482D01*
X4387596Y-2839466D01*
X4388358Y-2838196D01*
X4389628Y-2836164D01*
X4390898Y-2833878D01*
X4392422Y-2831338D01*
X4392676Y-2830830D01*
X4394962Y-2826766D01*
X4396994Y-2823718D01*
X4398518Y-2821178D01*
X4400042Y-2819146D01*
X4401312Y-2817622D01*
X4402582Y-2816352D01*
X4404106Y-2815336D01*
X4405630Y-2814320D01*
X4407408Y-2813558D01*
X4409694Y-2812796D01*
X4409948Y-2812542D01*
X4412234Y-2811780D01*
X4413758Y-2811272D01*
X4415282Y-2811018D01*
X4416806Y-2811018D01*
X4419092Y-2811018D01*
X4423156Y-2811526D01*
X4426966Y-2812542D01*
X4430776Y-2814320D01*
X4434078Y-2816860D01*
X4437126Y-2820162D01*
X4440174Y-2824226D01*
X4443222Y-2829306D01*
X4444746Y-2832354D01*
X4445508Y-2833624D01*
X4446524Y-2835656D01*
X4448048Y-2838450D01*
X4449826Y-2841498D01*
X4452112Y-2845054D01*
X4454398Y-2849118D01*
X4456684Y-2853182D01*
X4459224Y-2857246D01*
X4461764Y-2861564D01*
X4464050Y-2865628D01*
X4466336Y-2869184D01*
X4467098Y-2870454D01*
X4468368Y-2872740D01*
X4469892Y-2875280D01*
X4471670Y-2878328D01*
X4473702Y-2881630D01*
X4475734Y-2884932D01*
X4475734Y-2885186D01*
X4478528Y-2889504D01*
X4481576Y-2894838D01*
X4485132Y-2900680D01*
X4488942Y-2907284D01*
X4493514Y-2914650D01*
X4498340Y-2922778D01*
X4503420Y-2931160D01*
X4508754Y-2940304D01*
X4514596Y-2949956D01*
X4520692Y-2960116D01*
X4527042Y-2970530D01*
X4533646Y-2981452D01*
X4540504Y-2992882D01*
X4547362Y-3004312D01*
X4554474Y-3015996D01*
X4561586Y-3027680D01*
X4563364Y-3030728D01*
X4566666Y-3036062D01*
X4569968Y-3041650D01*
X4573778Y-3047746D01*
X4577334Y-3053842D01*
X4581144Y-3060192D01*
X4584954Y-3066288D01*
X4588764Y-3072384D01*
X4592066Y-3078226D01*
X4595368Y-3083560D01*
X4598416Y-3088386D01*
X4600956Y-3092704D01*
X4602226Y-3095244D01*
X4606544Y-3102356D01*
X4610354Y-3108706D01*
X4613910Y-3114294D01*
X4617212Y-3119628D01*
X4620006Y-3124708D01*
X4623054Y-3129280D01*
X4625848Y-3133852D01*
X4628642Y-3138424D01*
X4631436Y-3143250D01*
X4634230Y-3147822D01*
X4639310Y-3155950D01*
X4643882Y-3163570D01*
X4647946Y-3170174D01*
X4651756Y-3176524D01*
X4654804Y-3181858D01*
X4657852Y-3186938D01*
X4660392Y-3191510D01*
X4662678Y-3195574D01*
X4664710Y-3199384D01*
X4666488Y-3202432D01*
X4669536Y-3208528D01*
X4669536Y-3208528D01*
D18*
X4870100Y-4610100D02*
X4870100Y-4096100D01*
X4870100Y-4096100D02*
X4604100Y-4096100D01*
X4604100Y-4096100D02*
X4604100Y-4610100D01*
X4604100Y-4610100D02*
X4870100Y-4610100D01*
X4870100Y-4737100D02*
X4870100Y-4870100D01*
X4870100Y-4870100D02*
X4737100Y-4870100D01*
X6070600Y-8426100D02*
X6584600Y-8426100D01*
X6584600Y-8426100D02*
X6584600Y-8160100D01*
X6584600Y-8160100D02*
X6070600Y-8160100D01*
X6070600Y-8160100D02*
X6070600Y-8426100D01*
X5943600Y-8426100D02*
X5810600Y-8426100D01*
X5810600Y-8426100D02*
X5810600Y-8293100D01*
X4235100Y-4610100D02*
X4235100Y-4096100D01*
X4235100Y-4096100D02*
X3969100Y-4096100D01*
X3969100Y-4096100D02*
X3969100Y-4610100D01*
X3969100Y-4610100D02*
X4235100Y-4610100D01*
X4235100Y-4737100D02*
X4235100Y-4870100D01*
X4235100Y-4870100D02*
X4102100Y-4870100D01*
X4242100Y-5101100D02*
X3962100Y-5101100D01*
X3962100Y-5101100D02*
X3962100Y-7421100D01*
X3962100Y-7421100D02*
X4242100Y-7421100D01*
X4242100Y-7421100D02*
X4242100Y-5101100D01*
X4242100Y-5372100D02*
X3962100Y-5372100D01*
X9940100Y-7179100D02*
X10202100Y-7179100D01*
X9940100Y-7891100D02*
X10202100Y-7891100D01*
X10202100Y-7891100D02*
X10202100Y-7179100D01*
X9940100Y-7891100D02*
X9940100Y-7179100D01*
X5216100Y-8187100D02*
X5216100Y-8399100D01*
X4504100Y-8187100D02*
X4504100Y-8399100D01*
X4504100Y-8399100D02*
X5216100Y-8399100D01*
X4504100Y-8187100D02*
X5216100Y-8187100D01*
X6392100Y-4440600D02*
X6392100Y-5152600D01*
X6130100Y-4440600D02*
X6130100Y-5152600D01*
X6392100Y-4440600D02*
X6130100Y-4440600D01*
X6392100Y-5152600D02*
X6130100Y-5152600D01*
X11208100Y-2953100D02*
X11341100Y-2953100D01*
X11208100Y-3086100D02*
X11208100Y-2953100D01*
X11474100Y-3213100D02*
X11208100Y-3213100D01*
X11474100Y-4235100D02*
X11474100Y-3213100D01*
X11208100Y-4235100D02*
X11474100Y-4235100D01*
X11208100Y-3213100D02*
X11208100Y-4235100D01*
X11906600Y-3461100D02*
X12039600Y-3461100D01*
X11906600Y-3594100D02*
X11906600Y-3461100D01*
X12172600Y-3721100D02*
X11906600Y-3721100D01*
X12172600Y-4235100D02*
X12172600Y-3721100D01*
X11906600Y-4235100D02*
X12172600Y-4235100D01*
X11906600Y-3721100D02*
X11906600Y-4235100D01*
X6020100Y-5355100D02*
X5740100Y-5355100D01*
X5740100Y-5355100D02*
X5740100Y-6405100D01*
X5740100Y-6405100D02*
X6020100Y-6405100D01*
X6020100Y-6405100D02*
X6020100Y-5355100D01*
X6020100Y-5626100D02*
X5740100Y-5626100D01*
X6879100Y-8153100D02*
X6879100Y-8433100D01*
X6879100Y-8433100D02*
X9199100Y-8433100D01*
X9199100Y-8433100D02*
X9199100Y-8153100D01*
X9199100Y-8153100D02*
X6879100Y-8153100D01*
X7150100Y-8153100D02*
X7150100Y-8433100D01*
X9453100Y-4178600D02*
X9453100Y-3898600D01*
X9453100Y-3898600D02*
X8149100Y-3898600D01*
X8149100Y-3898600D02*
X8149100Y-4178600D01*
X8149100Y-4178600D02*
X9453100Y-4178600D01*
X9182100Y-4178600D02*
X9182100Y-3898600D01*
X9944100Y-4171600D02*
X10458100Y-4171600D01*
X10458100Y-4171600D02*
X10458100Y-3905600D01*
X10458100Y-3905600D02*
X9944100Y-3905600D01*
X9944100Y-3905600D02*
X9944100Y-4171600D01*
X9817100Y-4171600D02*
X9684100Y-4171600D01*
X9684100Y-4171600D02*
X9684100Y-4038600D01*
X6630100Y-5027600D02*
X6630100Y-5164600D01*
X6630100Y-5164600D02*
X9194100Y-5164600D01*
X9194100Y-5164600D02*
X9194100Y-4690600D01*
X9194100Y-4690600D02*
X6630100Y-4690600D01*
X6630100Y-4690600D02*
X6630100Y-4827600D01*
X6630100Y-4827600D02*
G75*
G02X6630100Y-5027600I0J-100000D01*
G01*
X5091100Y-7924100D02*
X5228100Y-7924100D01*
X5228100Y-7924100D02*
X5228100Y-5360100D01*
X5228100Y-5360100D02*
X4754100Y-5360100D01*
X4754100Y-5360100D02*
X4754100Y-7924100D01*
X4754100Y-7924100D02*
X4891100Y-7924100D01*
X4891100Y-7924100D02*
G75*
G02X5091100Y-7924100I100000J0D01*
G01*
X9702100Y-7304100D02*
X9702100Y-7167100D01*
X9702100Y-7167100D02*
X7138100Y-7167100D01*
X7138100Y-7167100D02*
X7138100Y-7641100D01*
X7138100Y-7641100D02*
X9702100Y-7641100D01*
X9702100Y-7641100D02*
X9702100Y-7504100D01*
X9702100Y-7504100D02*
G75*
G02X9702100Y-7304100I0J100000D01*
G01*
X10130100Y-4886600D02*
X10130100Y-4714600D01*
X10130100Y-4714600D02*
X9758100Y-4714600D01*
X9758100Y-4714600D02*
X9758100Y-4886600D01*
X9758100Y-4886600D02*
X10130100Y-4886600D01*
X10237100Y-4800600D02*
X10130100Y-4800600D01*
X9651100Y-4800600D02*
X9758100Y-4800600D01*
D15*
X10084100Y-6781600D02*
X10094100Y-6774600D01*
X10066100Y-6781600D02*
X10084100Y-6781600D01*
X10056100Y-6774600D02*
X10066100Y-6781600D01*
X10051100Y-6760600D02*
X10056100Y-6774600D01*
X10051100Y-6702600D02*
X10051100Y-6760600D01*
X10057100Y-6687600D02*
X10051100Y-6702600D01*
X10067100Y-6680600D02*
X10057100Y-6687600D01*
X10084100Y-6680600D02*
X10067100Y-6680600D01*
X10094100Y-6689600D02*
X10084100Y-6680600D01*
X10099100Y-6702600D02*
X10094100Y-6689600D01*
X10099100Y-6729600D02*
X10099100Y-6702600D01*
X10051100Y-6729600D02*
X10099100Y-6729600D01*
X9994100Y-6681600D02*
X9994100Y-6781600D01*
X9999100Y-6695600D02*
X9994100Y-6712600D01*
X10003100Y-6689600D02*
X9999100Y-6695600D01*
X10013100Y-6681600D02*
X10003100Y-6689600D01*
X10024100Y-6681600D02*
X10013100Y-6681600D01*
X9789100Y-6680600D02*
X9808100Y-6781600D01*
X9808100Y-6781600D02*
X9827100Y-6709600D01*
X9827100Y-6709600D02*
X9846100Y-6781600D01*
X9846100Y-6781600D02*
X9866100Y-6680600D01*
X9751100Y-6773600D02*
X9742100Y-6781600D01*
X9742100Y-6781600D02*
X9723100Y-6781600D01*
X9723100Y-6781600D02*
X9716100Y-6776600D01*
X9716100Y-6776600D02*
X9709100Y-6768600D01*
X9709100Y-6768600D02*
X9703100Y-6752600D01*
X9703100Y-6752600D02*
X9703100Y-6710600D01*
X9703100Y-6710600D02*
X9708100Y-6695600D01*
X9708100Y-6695600D02*
X9715100Y-6686600D01*
X9715100Y-6686600D02*
X9723100Y-6681600D01*
X9723100Y-6681600D02*
X9741100Y-6681600D01*
X9741100Y-6681600D02*
X9751100Y-6689600D01*
X9751100Y-6631600D02*
X9751100Y-6781600D01*
X9676100Y-6681600D02*
X9665100Y-6681600D01*
X9665100Y-6681600D02*
X9655100Y-6689600D01*
X9655100Y-6689600D02*
X9651100Y-6695600D01*
X9651100Y-6695600D02*
X9646100Y-6712600D01*
X9646100Y-6681600D02*
X9646100Y-6781600D01*
X9947100Y-6702600D02*
X9947100Y-6781600D01*
X9941100Y-6687600D02*
X9947100Y-6702600D01*
X9932100Y-6680600D02*
X9941100Y-6687600D01*
X9914100Y-6680600D02*
X9932100Y-6680600D01*
X9903100Y-6688600D02*
X9914100Y-6680600D01*
X9899100Y-6758600D02*
X9903100Y-6772600D01*
X9899100Y-6745600D02*
X9899100Y-6758600D01*
X9904100Y-6731600D02*
X9899100Y-6745600D01*
X9914100Y-6723600D02*
X9904100Y-6731600D01*
X9938100Y-6723600D02*
X9914100Y-6723600D01*
X9947100Y-6716600D02*
X9938100Y-6723600D01*
X9937100Y-6781600D02*
X9947100Y-6773600D01*
X9914100Y-6781600D02*
X9937100Y-6781600D01*
X9903100Y-6772600D02*
X9914100Y-6781600D01*
X9555100Y-6772600D02*
X9566100Y-6781600D01*
X9566100Y-6781600D02*
X9589100Y-6781600D01*
X9589100Y-6781600D02*
X9599100Y-6773600D01*
X9599100Y-6716600D02*
X9590100Y-6723600D01*
X9590100Y-6723600D02*
X9566100Y-6723600D01*
X9566100Y-6723600D02*
X9556100Y-6731600D01*
X9556100Y-6731600D02*
X9551100Y-6745600D01*
X9551100Y-6745600D02*
X9551100Y-6758600D01*
X9551100Y-6758600D02*
X9555100Y-6772600D01*
X9555100Y-6688600D02*
X9566100Y-6680600D01*
X9566100Y-6680600D02*
X9584100Y-6680600D01*
X9584100Y-6680600D02*
X9593100Y-6687600D01*
X9593100Y-6687600D02*
X9599100Y-6702600D01*
X9599100Y-6702600D02*
X9599100Y-6781600D01*
X9465100Y-6781600D02*
X9465100Y-6631600D01*
X9471100Y-6687600D02*
X9465100Y-6694600D01*
X9479100Y-6681600D02*
X9471100Y-6687600D01*
X9493100Y-6681600D02*
X9479100Y-6681600D01*
X9503100Y-6688600D02*
X9493100Y-6681600D01*
X9508100Y-6703600D02*
X9503100Y-6688600D01*
X9508100Y-6781600D02*
X9508100Y-6703600D01*
X9342100Y-6781600D02*
X9342100Y-6703600D01*
X9342100Y-6703600D02*
X9337100Y-6688600D01*
X9337100Y-6688600D02*
X9327100Y-6681600D01*
X9327100Y-6681600D02*
X9313100Y-6681600D01*
X9313100Y-6681600D02*
X9305100Y-6687600D01*
X9305100Y-6687600D02*
X9299100Y-6694600D01*
X9299100Y-6681600D02*
X9299100Y-6781600D01*
X9208100Y-6729600D02*
X9256100Y-6729600D01*
X9256100Y-6729600D02*
X9256100Y-6702600D01*
X9256100Y-6702600D02*
X9251100Y-6689600D01*
X9251100Y-6689600D02*
X9241100Y-6680600D01*
X9241100Y-6680600D02*
X9224100Y-6680600D01*
X9224100Y-6680600D02*
X9214100Y-6687600D01*
X9214100Y-6687600D02*
X9208100Y-6702600D01*
X9208100Y-6702600D02*
X9208100Y-6760600D01*
X9208100Y-6760600D02*
X9213100Y-6774600D01*
X9213100Y-6774600D02*
X9223100Y-6781600D01*
X9223100Y-6781600D02*
X9241100Y-6781600D01*
X9241100Y-6781600D02*
X9251100Y-6774600D01*
X9122100Y-6680600D02*
X9122100Y-6831600D01*
X9133100Y-6680600D02*
X9151100Y-6680600D01*
X9133100Y-6780600D02*
X9152100Y-6780600D01*
X9133100Y-6680600D02*
X9125100Y-6686600D01*
X9160100Y-6687600D02*
X9151100Y-6680600D01*
X9165100Y-6694600D02*
X9160100Y-6687600D01*
X9170100Y-6710600D02*
X9165100Y-6694600D01*
X9170100Y-6751600D02*
X9170100Y-6710600D01*
X9165100Y-6765600D02*
X9170100Y-6751600D01*
X9161100Y-6772600D02*
X9165100Y-6765600D01*
X9151100Y-6780600D02*
X9161100Y-6772600D01*
X9123100Y-6773600D02*
X9133100Y-6780600D01*
X9027100Y-6710600D02*
X9027100Y-6751600D01*
X9027100Y-6751600D02*
X9032100Y-6765600D01*
X9032100Y-6765600D02*
X9037100Y-6774600D01*
X9037100Y-6774600D02*
X9047100Y-6781600D01*
X9047100Y-6781600D02*
X9061100Y-6781600D01*
X9061100Y-6781600D02*
X9071100Y-6773600D01*
X9071100Y-6773600D02*
X9075100Y-6766600D01*
X9075100Y-6766600D02*
X9080100Y-6752600D01*
X9080100Y-6752600D02*
X9080100Y-6711600D01*
X9080100Y-6711600D02*
X9075100Y-6695600D01*
X9075100Y-6695600D02*
X9070100Y-6688600D01*
X9070100Y-6688600D02*
X9061100Y-6681600D01*
X9061100Y-6681600D02*
X9046100Y-6681600D01*
X9046100Y-6681600D02*
X9038100Y-6687600D01*
X9038100Y-6687600D02*
X9032100Y-6695600D01*
X9032100Y-6695600D02*
X9027100Y-6710600D01*
D17*
G36*
X9199372Y-6609588D02*
X9205722Y-6606286D01*
X9219692Y-6597396D01*
X9239758Y-6584442D01*
X9263380Y-6568440D01*
X9287256Y-6552438D01*
X9306814Y-6539230D01*
X9320530Y-6530594D01*
X9326118Y-6527292D01*
X9329166Y-6528308D01*
X9340596Y-6533896D01*
X9356852Y-6542532D01*
X9366504Y-6547358D01*
X9381490Y-6553962D01*
X9388856Y-6555232D01*
X9390126Y-6553200D01*
X9395714Y-6541516D01*
X9404350Y-6521958D01*
X9415780Y-6495796D01*
X9428734Y-6465570D01*
X9442450Y-6432550D01*
X9456420Y-6399022D01*
X9469628Y-6367272D01*
X9481566Y-6338570D01*
X9490964Y-6315202D01*
X9497060Y-6298946D01*
X9499346Y-6291834D01*
X9498584Y-6290310D01*
X9491218Y-6283198D01*
X9478010Y-6273292D01*
X9449562Y-6250178D01*
X9421622Y-6215126D01*
X9404604Y-6175502D01*
X9398762Y-6131306D01*
X9403588Y-6090412D01*
X9419844Y-6051042D01*
X9447276Y-6015736D01*
X9480550Y-5989320D01*
X9519412Y-5972810D01*
X9563100Y-5967222D01*
X9605010Y-5972048D01*
X9645142Y-5987796D01*
X9680448Y-6014720D01*
X9695434Y-6031992D01*
X9716008Y-6067806D01*
X9727692Y-6106414D01*
X9728962Y-6116066D01*
X9727184Y-6158230D01*
X9714738Y-6198616D01*
X9692640Y-6234684D01*
X9661652Y-6264402D01*
X9657842Y-6267196D01*
X9643364Y-6277864D01*
X9633966Y-6285230D01*
X9626346Y-6291326D01*
X9679940Y-6420612D01*
X9688576Y-6441186D01*
X9703308Y-6476238D01*
X9716262Y-6506718D01*
X9726676Y-6531102D01*
X9733788Y-6547104D01*
X9736836Y-6553708D01*
X9737344Y-6553962D01*
X9741916Y-6554724D01*
X9751822Y-6551168D01*
X9769856Y-6542532D01*
X9781794Y-6536436D01*
X9795510Y-6529832D01*
X9801606Y-6527292D01*
X9806940Y-6530086D01*
X9820148Y-6538722D01*
X9839198Y-6551676D01*
X9862312Y-6567170D01*
X9884410Y-6582156D01*
X9904730Y-6595618D01*
X9919462Y-6605016D01*
X9926574Y-6608826D01*
X9927590Y-6608826D01*
X9933940Y-6605270D01*
X9945624Y-6595618D01*
X9963150Y-6578854D01*
X9988042Y-6554470D01*
X9991852Y-6550660D01*
X10012426Y-6529832D01*
X10028936Y-6512306D01*
X10040112Y-6499860D01*
X10044176Y-6494272D01*
X10044176Y-6494272D01*
X10040366Y-6487160D01*
X10031222Y-6472428D01*
X10017760Y-6452108D01*
X10001504Y-6427978D01*
X9958578Y-6366002D01*
X9982200Y-6307328D01*
X9989312Y-6289294D01*
X9998456Y-6267450D01*
X10005314Y-6251956D01*
X10008870Y-6245098D01*
X10015220Y-6242812D01*
X10031222Y-6239002D01*
X10054590Y-6234176D01*
X10082276Y-6229096D01*
X10108692Y-6224270D01*
X10132568Y-6219698D01*
X10149840Y-6216396D01*
X10157714Y-6214872D01*
X10159492Y-6213602D01*
X10161016Y-6209792D01*
X10162032Y-6201664D01*
X10162540Y-6187186D01*
X10163048Y-6164326D01*
X10163048Y-6131306D01*
X10163048Y-6127750D01*
X10162540Y-6096254D01*
X10162032Y-6071108D01*
X10161270Y-6054598D01*
X10160000Y-6047994D01*
X10160000Y-6047994D01*
X10152634Y-6046216D01*
X10135616Y-6042660D01*
X10111740Y-6037834D01*
X10083292Y-6032500D01*
X10081514Y-6032246D01*
X10053066Y-6026658D01*
X10029444Y-6021832D01*
X10012680Y-6018022D01*
X10005822Y-6015736D01*
X10004298Y-6013704D01*
X9998456Y-6002528D01*
X9990328Y-5985002D01*
X9980930Y-5963666D01*
X9971786Y-5941314D01*
X9963658Y-5921248D01*
X9958324Y-5906262D01*
X9956800Y-5899404D01*
X9956800Y-5899404D01*
X9961118Y-5892546D01*
X9970770Y-5877814D01*
X9984740Y-5857494D01*
X10001250Y-5833364D01*
X10002520Y-5831332D01*
X10018776Y-5807456D01*
X10031984Y-5787136D01*
X10040874Y-5772658D01*
X10044176Y-5766308D01*
X10044176Y-5765800D01*
X10038588Y-5758688D01*
X10026396Y-5744972D01*
X10008870Y-5726684D01*
X9988042Y-5705602D01*
X9981184Y-5698998D01*
X9958070Y-5676138D01*
X9941814Y-5661406D01*
X9931654Y-5653278D01*
X9926828Y-5651500D01*
X9926574Y-5651754D01*
X9919462Y-5656072D01*
X9904222Y-5665978D01*
X9883648Y-5679948D01*
X9859264Y-5696458D01*
X9857740Y-5697474D01*
X9833610Y-5713730D01*
X9813798Y-5727446D01*
X9799574Y-5736844D01*
X9793224Y-5740400D01*
X9792208Y-5740400D01*
X9782556Y-5737606D01*
X9765538Y-5731764D01*
X9744456Y-5723636D01*
X9722358Y-5714746D01*
X9702038Y-5706110D01*
X9687052Y-5699252D01*
X9679940Y-5695188D01*
X9679686Y-5694934D01*
X9677146Y-5686298D01*
X9673082Y-5668264D01*
X9667748Y-5643626D01*
X9662414Y-5614162D01*
X9661398Y-5609590D01*
X9656064Y-5580888D01*
X9651492Y-5557266D01*
X9647936Y-5541010D01*
X9646412Y-5534152D01*
X9642348Y-5533390D01*
X9628378Y-5532374D01*
X9607042Y-5531612D01*
X9581134Y-5531358D01*
X9553956Y-5531612D01*
X9527540Y-5532120D01*
X9504934Y-5532882D01*
X9488678Y-5534152D01*
X9481820Y-5535422D01*
X9481566Y-5535930D01*
X9479280Y-5544820D01*
X9475216Y-5562600D01*
X9470136Y-5587492D01*
X9464548Y-5616956D01*
X9463532Y-5622290D01*
X9458198Y-5650738D01*
X9453372Y-5674106D01*
X9449816Y-5690108D01*
X9448038Y-5696458D01*
X9445498Y-5697728D01*
X9433814Y-5703062D01*
X9414764Y-5710936D01*
X9390888Y-5720588D01*
X9336024Y-5742686D01*
X9268714Y-5696458D01*
X9262618Y-5692394D01*
X9238234Y-5675884D01*
X9218422Y-5662676D01*
X9204452Y-5653786D01*
X9198864Y-5650484D01*
X9198356Y-5650738D01*
X9191498Y-5656580D01*
X9178290Y-5669026D01*
X9160002Y-5686806D01*
X9138920Y-5707888D01*
X9123172Y-5723636D01*
X9104630Y-5742432D01*
X9092946Y-5755132D01*
X9086342Y-5763260D01*
X9084056Y-5768340D01*
X9084818Y-5771642D01*
X9089136Y-5778500D01*
X9099042Y-5793232D01*
X9112758Y-5813806D01*
X9129268Y-5837428D01*
X9142730Y-5857494D01*
X9157462Y-5880100D01*
X9166860Y-5896102D01*
X9170162Y-5903976D01*
X9169400Y-5907278D01*
X9164574Y-5920486D01*
X9156700Y-5940552D01*
X9146540Y-5964174D01*
X9123172Y-6017514D01*
X9088120Y-6024118D01*
X9067038Y-6028182D01*
X9037320Y-6034024D01*
X9008872Y-6039358D01*
X8964676Y-6047994D01*
X8963152Y-6210554D01*
X8970010Y-6213602D01*
X8976614Y-6215380D01*
X8992870Y-6218936D01*
X9016238Y-6223508D01*
X9043924Y-6228842D01*
X9067546Y-6233160D01*
X9091168Y-6237732D01*
X9108186Y-6241034D01*
X9115806Y-6242558D01*
X9117584Y-6245098D01*
X9123680Y-6256782D01*
X9132062Y-6274816D01*
X9141460Y-6296914D01*
X9150858Y-6319520D01*
X9159240Y-6340602D01*
X9165082Y-6356604D01*
X9167368Y-6364986D01*
X9164066Y-6371082D01*
X9155176Y-6385052D01*
X9141968Y-6404864D01*
X9125966Y-6428486D01*
X9109710Y-6452108D01*
X9096248Y-6472174D01*
X9086596Y-6486652D01*
X9082786Y-6493256D01*
X9084818Y-6497828D01*
X9094216Y-6509258D01*
X9111996Y-6527546D01*
X9138412Y-6553708D01*
X9142730Y-6558026D01*
X9163812Y-6578092D01*
X9181592Y-6594602D01*
X9193784Y-6605524D01*
X9199372Y-6609588D01*
X9199372Y-6609588D01*
G37*
X9199372Y-6609588D02*
X9205722Y-6606286D01*
X9219692Y-6597396D01*
X9239758Y-6584442D01*
X9263380Y-6568440D01*
X9287256Y-6552438D01*
X9306814Y-6539230D01*
X9320530Y-6530594D01*
X9326118Y-6527292D01*
X9329166Y-6528308D01*
X9340596Y-6533896D01*
X9356852Y-6542532D01*
X9366504Y-6547358D01*
X9381490Y-6553962D01*
X9388856Y-6555232D01*
X9390126Y-6553200D01*
X9395714Y-6541516D01*
X9404350Y-6521958D01*
X9415780Y-6495796D01*
X9428734Y-6465570D01*
X9442450Y-6432550D01*
X9456420Y-6399022D01*
X9469628Y-6367272D01*
X9481566Y-6338570D01*
X9490964Y-6315202D01*
X9497060Y-6298946D01*
X9499346Y-6291834D01*
X9498584Y-6290310D01*
X9491218Y-6283198D01*
X9478010Y-6273292D01*
X9449562Y-6250178D01*
X9421622Y-6215126D01*
X9404604Y-6175502D01*
X9398762Y-6131306D01*
X9403588Y-6090412D01*
X9419844Y-6051042D01*
X9447276Y-6015736D01*
X9480550Y-5989320D01*
X9519412Y-5972810D01*
X9563100Y-5967222D01*
X9605010Y-5972048D01*
X9645142Y-5987796D01*
X9680448Y-6014720D01*
X9695434Y-6031992D01*
X9716008Y-6067806D01*
X9727692Y-6106414D01*
X9728962Y-6116066D01*
X9727184Y-6158230D01*
X9714738Y-6198616D01*
X9692640Y-6234684D01*
X9661652Y-6264402D01*
X9657842Y-6267196D01*
X9643364Y-6277864D01*
X9633966Y-6285230D01*
X9626346Y-6291326D01*
X9679940Y-6420612D01*
X9688576Y-6441186D01*
X9703308Y-6476238D01*
X9716262Y-6506718D01*
X9726676Y-6531102D01*
X9733788Y-6547104D01*
X9736836Y-6553708D01*
X9737344Y-6553962D01*
X9741916Y-6554724D01*
X9751822Y-6551168D01*
X9769856Y-6542532D01*
X9781794Y-6536436D01*
X9795510Y-6529832D01*
X9801606Y-6527292D01*
X9806940Y-6530086D01*
X9820148Y-6538722D01*
X9839198Y-6551676D01*
X9862312Y-6567170D01*
X9884410Y-6582156D01*
X9904730Y-6595618D01*
X9919462Y-6605016D01*
X9926574Y-6608826D01*
X9927590Y-6608826D01*
X9933940Y-6605270D01*
X9945624Y-6595618D01*
X9963150Y-6578854D01*
X9988042Y-6554470D01*
X9991852Y-6550660D01*
X10012426Y-6529832D01*
X10028936Y-6512306D01*
X10040112Y-6499860D01*
X10044176Y-6494272D01*
X10044176Y-6494272D01*
X10040366Y-6487160D01*
X10031222Y-6472428D01*
X10017760Y-6452108D01*
X10001504Y-6427978D01*
X9958578Y-6366002D01*
X9982200Y-6307328D01*
X9989312Y-6289294D01*
X9998456Y-6267450D01*
X10005314Y-6251956D01*
X10008870Y-6245098D01*
X10015220Y-6242812D01*
X10031222Y-6239002D01*
X10054590Y-6234176D01*
X10082276Y-6229096D01*
X10108692Y-6224270D01*
X10132568Y-6219698D01*
X10149840Y-6216396D01*
X10157714Y-6214872D01*
X10159492Y-6213602D01*
X10161016Y-6209792D01*
X10162032Y-6201664D01*
X10162540Y-6187186D01*
X10163048Y-6164326D01*
X10163048Y-6131306D01*
X10163048Y-6127750D01*
X10162540Y-6096254D01*
X10162032Y-6071108D01*
X10161270Y-6054598D01*
X10160000Y-6047994D01*
X10160000Y-6047994D01*
X10152634Y-6046216D01*
X10135616Y-6042660D01*
X10111740Y-6037834D01*
X10083292Y-6032500D01*
X10081514Y-6032246D01*
X10053066Y-6026658D01*
X10029444Y-6021832D01*
X10012680Y-6018022D01*
X10005822Y-6015736D01*
X10004298Y-6013704D01*
X9998456Y-6002528D01*
X9990328Y-5985002D01*
X9980930Y-5963666D01*
X9971786Y-5941314D01*
X9963658Y-5921248D01*
X9958324Y-5906262D01*
X9956800Y-5899404D01*
X9956800Y-5899404D01*
X9961118Y-5892546D01*
X9970770Y-5877814D01*
X9984740Y-5857494D01*
X10001250Y-5833364D01*
X10002520Y-5831332D01*
X10018776Y-5807456D01*
X10031984Y-5787136D01*
X10040874Y-5772658D01*
X10044176Y-5766308D01*
X10044176Y-5765800D01*
X10038588Y-5758688D01*
X10026396Y-5744972D01*
X10008870Y-5726684D01*
X9988042Y-5705602D01*
X9981184Y-5698998D01*
X9958070Y-5676138D01*
X9941814Y-5661406D01*
X9931654Y-5653278D01*
X9926828Y-5651500D01*
X9926574Y-5651754D01*
X9919462Y-5656072D01*
X9904222Y-5665978D01*
X9883648Y-5679948D01*
X9859264Y-5696458D01*
X9857740Y-5697474D01*
X9833610Y-5713730D01*
X9813798Y-5727446D01*
X9799574Y-5736844D01*
X9793224Y-5740400D01*
X9792208Y-5740400D01*
X9782556Y-5737606D01*
X9765538Y-5731764D01*
X9744456Y-5723636D01*
X9722358Y-5714746D01*
X9702038Y-5706110D01*
X9687052Y-5699252D01*
X9679940Y-5695188D01*
X9679686Y-5694934D01*
X9677146Y-5686298D01*
X9673082Y-5668264D01*
X9667748Y-5643626D01*
X9662414Y-5614162D01*
X9661398Y-5609590D01*
X9656064Y-5580888D01*
X9651492Y-5557266D01*
X9647936Y-5541010D01*
X9646412Y-5534152D01*
X9642348Y-5533390D01*
X9628378Y-5532374D01*
X9607042Y-5531612D01*
X9581134Y-5531358D01*
X9553956Y-5531612D01*
X9527540Y-5532120D01*
X9504934Y-5532882D01*
X9488678Y-5534152D01*
X9481820Y-5535422D01*
X9481566Y-5535930D01*
X9479280Y-5544820D01*
X9475216Y-5562600D01*
X9470136Y-5587492D01*
X9464548Y-5616956D01*
X9463532Y-5622290D01*
X9458198Y-5650738D01*
X9453372Y-5674106D01*
X9449816Y-5690108D01*
X9448038Y-5696458D01*
X9445498Y-5697728D01*
X9433814Y-5703062D01*
X9414764Y-5710936D01*
X9390888Y-5720588D01*
X9336024Y-5742686D01*
X9268714Y-5696458D01*
X9262618Y-5692394D01*
X9238234Y-5675884D01*
X9218422Y-5662676D01*
X9204452Y-5653786D01*
X9198864Y-5650484D01*
X9198356Y-5650738D01*
X9191498Y-5656580D01*
X9178290Y-5669026D01*
X9160002Y-5686806D01*
X9138920Y-5707888D01*
X9123172Y-5723636D01*
X9104630Y-5742432D01*
X9092946Y-5755132D01*
X9086342Y-5763260D01*
X9084056Y-5768340D01*
X9084818Y-5771642D01*
X9089136Y-5778500D01*
X9099042Y-5793232D01*
X9112758Y-5813806D01*
X9129268Y-5837428D01*
X9142730Y-5857494D01*
X9157462Y-5880100D01*
X9166860Y-5896102D01*
X9170162Y-5903976D01*
X9169400Y-5907278D01*
X9164574Y-5920486D01*
X9156700Y-5940552D01*
X9146540Y-5964174D01*
X9123172Y-6017514D01*
X9088120Y-6024118D01*
X9067038Y-6028182D01*
X9037320Y-6034024D01*
X9008872Y-6039358D01*
X8964676Y-6047994D01*
X8963152Y-6210554D01*
X8970010Y-6213602D01*
X8976614Y-6215380D01*
X8992870Y-6218936D01*
X9016238Y-6223508D01*
X9043924Y-6228842D01*
X9067546Y-6233160D01*
X9091168Y-6237732D01*
X9108186Y-6241034D01*
X9115806Y-6242558D01*
X9117584Y-6245098D01*
X9123680Y-6256782D01*
X9132062Y-6274816D01*
X9141460Y-6296914D01*
X9150858Y-6319520D01*
X9159240Y-6340602D01*
X9165082Y-6356604D01*
X9167368Y-6364986D01*
X9164066Y-6371082D01*
X9155176Y-6385052D01*
X9141968Y-6404864D01*
X9125966Y-6428486D01*
X9109710Y-6452108D01*
X9096248Y-6472174D01*
X9086596Y-6486652D01*
X9082786Y-6493256D01*
X9084818Y-6497828D01*
X9094216Y-6509258D01*
X9111996Y-6527546D01*
X9138412Y-6553708D01*
X9142730Y-6558026D01*
X9163812Y-6578092D01*
X9181592Y-6594602D01*
X9193784Y-6605524D01*
X9199372Y-6609588D01*
D15*
X10742600Y-6652100D02*
X10542600Y-6652100D01*
X10542600Y-6642100D02*
X10742600Y-6642100D01*
X10742600Y-6632100D02*
X10542600Y-6632100D01*
X10542600Y-6662100D02*
X10532600Y-6642100D01*
X10532600Y-6642100D02*
X10542600Y-6622100D01*
D16*
X10792600Y-6642100D02*
G75*
G03X10792600Y-6642100I-10000J0D01*
G01*
D15*
X10542600Y-6662100D02*
X10742600Y-6652100D01*
X10742600Y-6652100D02*
X10742600Y-6632100D01*
X10742600Y-6632100D02*
X10542600Y-6622100D01*
X10542600Y-6622100D02*
X10542600Y-6662100D01*
D17*
G36*
X10828528Y-6392164D02*
X10833608Y-6392418D01*
X10838434Y-6392926D01*
X10843006Y-6394196D01*
X10846816Y-6396228D01*
X10848340Y-6397244D01*
X10849610Y-6398514D01*
X10850880Y-6399784D01*
X10851896Y-6401562D01*
X10852912Y-6403340D01*
X10854690Y-6407658D01*
X10854690Y-6431026D01*
X10822940Y-6431026D01*
X10822178Y-6431534D01*
X10820908Y-6432296D01*
X10819130Y-6433312D01*
X10816844Y-6434836D01*
X10815574Y-6435598D01*
X10814050Y-6436614D01*
X10813034Y-6437122D01*
X10811764Y-6437884D01*
X10810748Y-6438646D01*
X10809732Y-6439408D01*
X10808462Y-6440170D01*
X10807192Y-6440932D01*
X10805414Y-6441948D01*
X10803382Y-6443218D01*
X10801096Y-6444488D01*
X10798302Y-6446266D01*
X10795000Y-6448298D01*
X10791190Y-6450584D01*
X10786618Y-6453378D01*
X10781284Y-6456426D01*
X10775696Y-6459728D01*
X10770870Y-6462776D01*
X10766298Y-6465316D01*
X10762234Y-6467856D01*
X10758424Y-6470142D01*
X10754868Y-6472174D01*
X10752074Y-6473952D01*
X10750042Y-6475222D01*
X10748518Y-6476238D01*
X10747756Y-6476746D01*
X10746740Y-6477254D01*
X10744962Y-6478270D01*
X10742930Y-6479540D01*
X10740136Y-6481064D01*
X10737342Y-6482842D01*
X10735818Y-6483604D01*
X10732262Y-6485890D01*
X10728452Y-6488176D01*
X10724388Y-6490716D01*
X10720578Y-6492748D01*
X10717276Y-6494780D01*
X10717022Y-6494780D01*
X10713974Y-6496812D01*
X10710672Y-6498590D01*
X10707624Y-6500368D01*
X10705084Y-6502146D01*
X10703052Y-6503162D01*
X10701020Y-6504432D01*
X10698226Y-6506210D01*
X10695178Y-6507988D01*
X10691876Y-6509766D01*
X10688574Y-6511798D01*
X10688574Y-6511798D01*
X10685018Y-6513830D01*
X10681208Y-6516116D01*
X10676890Y-6518656D01*
X10672826Y-6521196D01*
X10669270Y-6523228D01*
X10665968Y-6525260D01*
X10661904Y-6527546D01*
X10657586Y-6530086D01*
X10653268Y-6532626D01*
X10649204Y-6535166D01*
X10647426Y-6536182D01*
X10643616Y-6538468D01*
X10639806Y-6541008D01*
X10635488Y-6543548D01*
X10631424Y-6545834D01*
X10627614Y-6548120D01*
X10626090Y-6548882D01*
X10623296Y-6550660D01*
X10620502Y-6552438D01*
X10618216Y-6553708D01*
X10616184Y-6554978D01*
X10614914Y-6555740D01*
X10614660Y-6555740D01*
X10613644Y-6556502D01*
X10611866Y-6557518D01*
X10609834Y-6558788D01*
X10607294Y-6560312D01*
X10605516Y-6561328D01*
X10602722Y-6562852D01*
X10600436Y-6564376D01*
X10598404Y-6565646D01*
X10596880Y-6566408D01*
X10596118Y-6566916D01*
X10595102Y-6567424D01*
X10593578Y-6568440D01*
X10591292Y-6569710D01*
X10588752Y-6571234D01*
X10585958Y-6573012D01*
X10584688Y-6573774D01*
X10581132Y-6575806D01*
X10577068Y-6578346D01*
X10572750Y-6580886D01*
X10568432Y-6583426D01*
X10564622Y-6585458D01*
X10564622Y-6585712D01*
X10561574Y-6587490D01*
X10558526Y-6589268D01*
X10555986Y-6590792D01*
X10553700Y-6592062D01*
X10552176Y-6593078D01*
X10551668Y-6593332D01*
X10550144Y-6594348D01*
X10547858Y-6595618D01*
X10544810Y-6597396D01*
X10541254Y-6599428D01*
X10537444Y-6601968D01*
X10532872Y-6604508D01*
X10528300Y-6607302D01*
X10523474Y-6610350D01*
X10518394Y-6613398D01*
X10513568Y-6616192D01*
X10508742Y-6619240D01*
X10503916Y-6622034D01*
X10499598Y-6624828D01*
X10495534Y-6627114D01*
X10491978Y-6629400D01*
X10488930Y-6631178D01*
X10488676Y-6631432D01*
X10485374Y-6633464D01*
X10482326Y-6635496D01*
X10479278Y-6637274D01*
X10476738Y-6639052D01*
X10474452Y-6640830D01*
X10472674Y-6641846D01*
X10471404Y-6642608D01*
X10470896Y-6643116D01*
X10471404Y-6643370D01*
X10472674Y-6644132D01*
X10474452Y-6645402D01*
X10477246Y-6647180D01*
X10480548Y-6649212D01*
X10484612Y-6651498D01*
X10489184Y-6654292D01*
X10494010Y-6657340D01*
X10499598Y-6660642D01*
X10505440Y-6663944D01*
X10511790Y-6667754D01*
X10518140Y-6671564D01*
X10524998Y-6675628D01*
X10528554Y-6677660D01*
X10529570Y-6678422D01*
X10531602Y-6679692D01*
X10533888Y-6680962D01*
X10536936Y-6682740D01*
X10539984Y-6684518D01*
X10543286Y-6686550D01*
X10557510Y-6694932D01*
X10571226Y-6703060D01*
X10584180Y-6710934D01*
X10596880Y-6718300D01*
X10609326Y-6725666D01*
X10621518Y-6732778D01*
X10625074Y-6734810D01*
X10628122Y-6736842D01*
X10631170Y-6738620D01*
X10633964Y-6740144D01*
X10636250Y-6741668D01*
X10638028Y-6742684D01*
X10638536Y-6742938D01*
X10639806Y-6743700D01*
X10642092Y-6744970D01*
X10644378Y-6746494D01*
X10647426Y-6748272D01*
X10650728Y-6750304D01*
X10653014Y-6751574D01*
X10656316Y-6753606D01*
X10659364Y-6755384D01*
X10662412Y-6757162D01*
X10664952Y-6758686D01*
X10666730Y-6759956D01*
X10667746Y-6760464D01*
X10669524Y-6761480D01*
X10671810Y-6763004D01*
X10674604Y-6764528D01*
X10677144Y-6766052D01*
X10677652Y-6766306D01*
X10681716Y-6768592D01*
X10685780Y-6771132D01*
X10689844Y-6773418D01*
X10693908Y-6775704D01*
X10697210Y-6777990D01*
X10700004Y-6779514D01*
X10701020Y-6780276D01*
X10703306Y-6781546D01*
X10705592Y-6782816D01*
X10707370Y-6783832D01*
X10707624Y-6784086D01*
X10708894Y-6784594D01*
X10710926Y-6785864D01*
X10713720Y-6787642D01*
X10717276Y-6789674D01*
X10721594Y-6792214D01*
X10726674Y-6795262D01*
X10732516Y-6798564D01*
X10738612Y-6802374D01*
X10745724Y-6806438D01*
X10753090Y-6811010D01*
X10753344Y-6811010D01*
X10757408Y-6813296D01*
X10761472Y-6815836D01*
X10765790Y-6818376D01*
X10769854Y-6820662D01*
X10773664Y-6822948D01*
X10775696Y-6824218D01*
X10778998Y-6826250D01*
X10782300Y-6828028D01*
X10785602Y-6830060D01*
X10788396Y-6831584D01*
X10790682Y-6833108D01*
X10790936Y-6833362D01*
X10793476Y-6834632D01*
X10795762Y-6836156D01*
X10797794Y-6837172D01*
X10799318Y-6838188D01*
X10802874Y-6840220D01*
X10806176Y-6842252D01*
X10809732Y-6844284D01*
X10813034Y-6846062D01*
X10815828Y-6847840D01*
X10818368Y-6849364D01*
X10820400Y-6850634D01*
X10821924Y-6851396D01*
X10822432Y-6851904D01*
X10822432Y-6851904D01*
X10823194Y-6852412D01*
X10823448Y-6852412D01*
X10823448Y-6851904D01*
X10823448Y-6850380D01*
X10823448Y-6848094D01*
X10823448Y-6844792D01*
X10823448Y-6840474D01*
X10823702Y-6835394D01*
X10823702Y-6829806D01*
X10823702Y-6823202D01*
X10823702Y-6815836D01*
X10823702Y-6807708D01*
X10823702Y-6799072D01*
X10823702Y-6789674D01*
X10823702Y-6779768D01*
X10823702Y-6769100D01*
X10823702Y-6757924D01*
X10823702Y-6746494D01*
X10823702Y-6734302D01*
X10823702Y-6721856D01*
X10823702Y-6708902D01*
X10823702Y-6695694D01*
X10823702Y-6681978D01*
X10823702Y-6668008D01*
X10823702Y-6653530D01*
X10823702Y-6641592D01*
X10823702Y-6624320D01*
X10823702Y-6607810D01*
X10823702Y-6592570D01*
X10823702Y-6578092D01*
X10823702Y-6564376D01*
X10823702Y-6551676D01*
X10823702Y-6539738D01*
X10823702Y-6528562D01*
X10823702Y-6518148D01*
X10823702Y-6508496D01*
X10823702Y-6499606D01*
X10823702Y-6491478D01*
X10823702Y-6483858D01*
X10823702Y-6477000D01*
X10823702Y-6470904D01*
X10823702Y-6465062D01*
X10823702Y-6459982D01*
X10823702Y-6455410D01*
X10823702Y-6451346D01*
X10823702Y-6447790D01*
X10823702Y-6444488D01*
X10823448Y-6441694D01*
X10823448Y-6439408D01*
X10823448Y-6437376D01*
X10823448Y-6435852D01*
X10823448Y-6434328D01*
X10823448Y-6433312D01*
X10823194Y-6432550D01*
X10823194Y-6431788D01*
X10823194Y-6431534D01*
X10823194Y-6431280D01*
X10822940Y-6431026D01*
X10822940Y-6431026D01*
X10854690Y-6431026D01*
X10854944Y-6641084D01*
X10855198Y-6874256D01*
X10853420Y-6878574D01*
X10851388Y-6882892D01*
X10848594Y-6886194D01*
X10845546Y-6888734D01*
X10841736Y-6890512D01*
X10837164Y-6891528D01*
X10832592Y-6892036D01*
X10831068Y-6892036D01*
X10830052Y-6891782D01*
X10829036Y-6891782D01*
X10827766Y-6891528D01*
X10826496Y-6891020D01*
X10824972Y-6890258D01*
X10822940Y-6888988D01*
X10820400Y-6887718D01*
X10817352Y-6885686D01*
X10815574Y-6884670D01*
X10812780Y-6883146D01*
X10809986Y-6881368D01*
X10807446Y-6880098D01*
X10805668Y-6878828D01*
X10804398Y-6878066D01*
X10802620Y-6877304D01*
X10800334Y-6875780D01*
X10797540Y-6874256D01*
X10794492Y-6872478D01*
X10790936Y-6870446D01*
X10787634Y-6868414D01*
X10784332Y-6866382D01*
X10783824Y-6866128D01*
X10781792Y-6864858D01*
X10779506Y-6863588D01*
X10776712Y-6861810D01*
X10773664Y-6860032D01*
X10770616Y-6858254D01*
X10767314Y-6856222D01*
X10763250Y-6853936D01*
X10759186Y-6851650D01*
X10755376Y-6849364D01*
X10752836Y-6847840D01*
X10749788Y-6846062D01*
X10746232Y-6844030D01*
X10742930Y-6841998D01*
X10739882Y-6840220D01*
X10737596Y-6838950D01*
X10735056Y-6837426D01*
X10732008Y-6835648D01*
X10728706Y-6833616D01*
X10725404Y-6831584D01*
X10722102Y-6829806D01*
X10719054Y-6827774D01*
X10715752Y-6825996D01*
X10712450Y-6823964D01*
X10709910Y-6822440D01*
X10707624Y-6821170D01*
X10707624Y-6821170D01*
X10706354Y-6820408D01*
X10705084Y-6819646D01*
X10703306Y-6818630D01*
X10701528Y-6817614D01*
X10699496Y-6816090D01*
X10696702Y-6814566D01*
X10693654Y-6812788D01*
X10690352Y-6810756D01*
X10686034Y-6808470D01*
X10681462Y-6805676D01*
X10676128Y-6802374D01*
X10670032Y-6798818D01*
X10662920Y-6794754D01*
X10662666Y-6794500D01*
X10658856Y-6792214D01*
X10655300Y-6789928D01*
X10651490Y-6787896D01*
X10648442Y-6785864D01*
X10645648Y-6784340D01*
X10643362Y-6783070D01*
X10642600Y-6782562D01*
X10641076Y-6781546D01*
X10638790Y-6780022D01*
X10635742Y-6778244D01*
X10632186Y-6776212D01*
X10628630Y-6774180D01*
X10624566Y-6771894D01*
X10621264Y-6769862D01*
X10614152Y-6765544D01*
X10607548Y-6761734D01*
X10601198Y-6757924D01*
X10595102Y-6754368D01*
X10589768Y-6751066D01*
X10584688Y-6748018D01*
X10580370Y-6745478D01*
X10577068Y-6743446D01*
X10575036Y-6742430D01*
X10573512Y-6741414D01*
X10570972Y-6740144D01*
X10568178Y-6738366D01*
X10564622Y-6736080D01*
X10560558Y-6733794D01*
X10556494Y-6731508D01*
X10552176Y-6728968D01*
X10549128Y-6726936D01*
X10544556Y-6724396D01*
X10539984Y-6721602D01*
X10535666Y-6719062D01*
X10531348Y-6716522D01*
X10527538Y-6714236D01*
X10524236Y-6712204D01*
X10521442Y-6710680D01*
X10520172Y-6709918D01*
X10517124Y-6708140D01*
X10513568Y-6706108D01*
X10510012Y-6704076D01*
X10506964Y-6702044D01*
X10505186Y-6701028D01*
X10502646Y-6699504D01*
X10499344Y-6697726D01*
X10496042Y-6695694D01*
X10492486Y-6693662D01*
X10489946Y-6692138D01*
X10483850Y-6688328D01*
X10478262Y-6685280D01*
X10473182Y-6682232D01*
X10468864Y-6679692D01*
X10465308Y-6677660D01*
X10462514Y-6675882D01*
X10460482Y-6674866D01*
X10459466Y-6674104D01*
X10458196Y-6673342D01*
X10456164Y-6672072D01*
X10453878Y-6670802D01*
X10451338Y-6669278D01*
X10450830Y-6669024D01*
X10446766Y-6666738D01*
X10443718Y-6664706D01*
X10441178Y-6663182D01*
X10439146Y-6661658D01*
X10437622Y-6660388D01*
X10436352Y-6659118D01*
X10435336Y-6657594D01*
X10434320Y-6656070D01*
X10433558Y-6654292D01*
X10432796Y-6652006D01*
X10432542Y-6651752D01*
X10431780Y-6649466D01*
X10431272Y-6647942D01*
X10431018Y-6646418D01*
X10431018Y-6644894D01*
X10431018Y-6642608D01*
X10431526Y-6638544D01*
X10432542Y-6634734D01*
X10434320Y-6630924D01*
X10436860Y-6627622D01*
X10440162Y-6624574D01*
X10444226Y-6621526D01*
X10449306Y-6618478D01*
X10452354Y-6616954D01*
X10453624Y-6616192D01*
X10455656Y-6615176D01*
X10458450Y-6613652D01*
X10461498Y-6611874D01*
X10465054Y-6609588D01*
X10469118Y-6607302D01*
X10473182Y-6605016D01*
X10477246Y-6602476D01*
X10481564Y-6599936D01*
X10485628Y-6597650D01*
X10489184Y-6595364D01*
X10490454Y-6594602D01*
X10492740Y-6593332D01*
X10495280Y-6591808D01*
X10498328Y-6590030D01*
X10501630Y-6587998D01*
X10504932Y-6585966D01*
X10505186Y-6585966D01*
X10509504Y-6583172D01*
X10514838Y-6580124D01*
X10520680Y-6576568D01*
X10527284Y-6572758D01*
X10534650Y-6568186D01*
X10542778Y-6563360D01*
X10551160Y-6558280D01*
X10560304Y-6552946D01*
X10569956Y-6547104D01*
X10580116Y-6541008D01*
X10590530Y-6534658D01*
X10601452Y-6528054D01*
X10612882Y-6521196D01*
X10624312Y-6514338D01*
X10635996Y-6507226D01*
X10647680Y-6500114D01*
X10650728Y-6498336D01*
X10656062Y-6495034D01*
X10661650Y-6491732D01*
X10667746Y-6487922D01*
X10673842Y-6484366D01*
X10680192Y-6480556D01*
X10686288Y-6476746D01*
X10692384Y-6472936D01*
X10698226Y-6469634D01*
X10703560Y-6466332D01*
X10708386Y-6463284D01*
X10712704Y-6460744D01*
X10715244Y-6459474D01*
X10722356Y-6455156D01*
X10728706Y-6451346D01*
X10734294Y-6447790D01*
X10739628Y-6444488D01*
X10744708Y-6441694D01*
X10749280Y-6438646D01*
X10753852Y-6435852D01*
X10758424Y-6433058D01*
X10763250Y-6430264D01*
X10767822Y-6427470D01*
X10775950Y-6422390D01*
X10783570Y-6417818D01*
X10790174Y-6413754D01*
X10796524Y-6409944D01*
X10801858Y-6406896D01*
X10806938Y-6403848D01*
X10811510Y-6401308D01*
X10815574Y-6399022D01*
X10819384Y-6396990D01*
X10822432Y-6395212D01*
X10828528Y-6392164D01*
X10828528Y-6392164D01*
X10828528Y-6392164D01*
G37*
X10828528Y-6392164D02*
X10833608Y-6392418D01*
X10838434Y-6392926D01*
X10843006Y-6394196D01*
X10846816Y-6396228D01*
X10848340Y-6397244D01*
X10849610Y-6398514D01*
X10850880Y-6399784D01*
X10851896Y-6401562D01*
X10852912Y-6403340D01*
X10854690Y-6407658D01*
X10854690Y-6431026D01*
X10822940Y-6431026D01*
X10822178Y-6431534D01*
X10820908Y-6432296D01*
X10819130Y-6433312D01*
X10816844Y-6434836D01*
X10815574Y-6435598D01*
X10814050Y-6436614D01*
X10813034Y-6437122D01*
X10811764Y-6437884D01*
X10810748Y-6438646D01*
X10809732Y-6439408D01*
X10808462Y-6440170D01*
X10807192Y-6440932D01*
X10805414Y-6441948D01*
X10803382Y-6443218D01*
X10801096Y-6444488D01*
X10798302Y-6446266D01*
X10795000Y-6448298D01*
X10791190Y-6450584D01*
X10786618Y-6453378D01*
X10781284Y-6456426D01*
X10775696Y-6459728D01*
X10770870Y-6462776D01*
X10766298Y-6465316D01*
X10762234Y-6467856D01*
X10758424Y-6470142D01*
X10754868Y-6472174D01*
X10752074Y-6473952D01*
X10750042Y-6475222D01*
X10748518Y-6476238D01*
X10747756Y-6476746D01*
X10746740Y-6477254D01*
X10744962Y-6478270D01*
X10742930Y-6479540D01*
X10740136Y-6481064D01*
X10737342Y-6482842D01*
X10735818Y-6483604D01*
X10732262Y-6485890D01*
X10728452Y-6488176D01*
X10724388Y-6490716D01*
X10720578Y-6492748D01*
X10717276Y-6494780D01*
X10717022Y-6494780D01*
X10713974Y-6496812D01*
X10710672Y-6498590D01*
X10707624Y-6500368D01*
X10705084Y-6502146D01*
X10703052Y-6503162D01*
X10701020Y-6504432D01*
X10698226Y-6506210D01*
X10695178Y-6507988D01*
X10691876Y-6509766D01*
X10688574Y-6511798D01*
X10688574Y-6511798D01*
X10685018Y-6513830D01*
X10681208Y-6516116D01*
X10676890Y-6518656D01*
X10672826Y-6521196D01*
X10669270Y-6523228D01*
X10665968Y-6525260D01*
X10661904Y-6527546D01*
X10657586Y-6530086D01*
X10653268Y-6532626D01*
X10649204Y-6535166D01*
X10647426Y-6536182D01*
X10643616Y-6538468D01*
X10639806Y-6541008D01*
X10635488Y-6543548D01*
X10631424Y-6545834D01*
X10627614Y-6548120D01*
X10626090Y-6548882D01*
X10623296Y-6550660D01*
X10620502Y-6552438D01*
X10618216Y-6553708D01*
X10616184Y-6554978D01*
X10614914Y-6555740D01*
X10614660Y-6555740D01*
X10613644Y-6556502D01*
X10611866Y-6557518D01*
X10609834Y-6558788D01*
X10607294Y-6560312D01*
X10605516Y-6561328D01*
X10602722Y-6562852D01*
X10600436Y-6564376D01*
X10598404Y-6565646D01*
X10596880Y-6566408D01*
X10596118Y-6566916D01*
X10595102Y-6567424D01*
X10593578Y-6568440D01*
X10591292Y-6569710D01*
X10588752Y-6571234D01*
X10585958Y-6573012D01*
X10584688Y-6573774D01*
X10581132Y-6575806D01*
X10577068Y-6578346D01*
X10572750Y-6580886D01*
X10568432Y-6583426D01*
X10564622Y-6585458D01*
X10564622Y-6585712D01*
X10561574Y-6587490D01*
X10558526Y-6589268D01*
X10555986Y-6590792D01*
X10553700Y-6592062D01*
X10552176Y-6593078D01*
X10551668Y-6593332D01*
X10550144Y-6594348D01*
X10547858Y-6595618D01*
X10544810Y-6597396D01*
X10541254Y-6599428D01*
X10537444Y-6601968D01*
X10532872Y-6604508D01*
X10528300Y-6607302D01*
X10523474Y-6610350D01*
X10518394Y-6613398D01*
X10513568Y-6616192D01*
X10508742Y-6619240D01*
X10503916Y-6622034D01*
X10499598Y-6624828D01*
X10495534Y-6627114D01*
X10491978Y-6629400D01*
X10488930Y-6631178D01*
X10488676Y-6631432D01*
X10485374Y-6633464D01*
X10482326Y-6635496D01*
X10479278Y-6637274D01*
X10476738Y-6639052D01*
X10474452Y-6640830D01*
X10472674Y-6641846D01*
X10471404Y-6642608D01*
X10470896Y-6643116D01*
X10471404Y-6643370D01*
X10472674Y-6644132D01*
X10474452Y-6645402D01*
X10477246Y-6647180D01*
X10480548Y-6649212D01*
X10484612Y-6651498D01*
X10489184Y-6654292D01*
X10494010Y-6657340D01*
X10499598Y-6660642D01*
X10505440Y-6663944D01*
X10511790Y-6667754D01*
X10518140Y-6671564D01*
X10524998Y-6675628D01*
X10528554Y-6677660D01*
X10529570Y-6678422D01*
X10531602Y-6679692D01*
X10533888Y-6680962D01*
X10536936Y-6682740D01*
X10539984Y-6684518D01*
X10543286Y-6686550D01*
X10557510Y-6694932D01*
X10571226Y-6703060D01*
X10584180Y-6710934D01*
X10596880Y-6718300D01*
X10609326Y-6725666D01*
X10621518Y-6732778D01*
X10625074Y-6734810D01*
X10628122Y-6736842D01*
X10631170Y-6738620D01*
X10633964Y-6740144D01*
X10636250Y-6741668D01*
X10638028Y-6742684D01*
X10638536Y-6742938D01*
X10639806Y-6743700D01*
X10642092Y-6744970D01*
X10644378Y-6746494D01*
X10647426Y-6748272D01*
X10650728Y-6750304D01*
X10653014Y-6751574D01*
X10656316Y-6753606D01*
X10659364Y-6755384D01*
X10662412Y-6757162D01*
X10664952Y-6758686D01*
X10666730Y-6759956D01*
X10667746Y-6760464D01*
X10669524Y-6761480D01*
X10671810Y-6763004D01*
X10674604Y-6764528D01*
X10677144Y-6766052D01*
X10677652Y-6766306D01*
X10681716Y-6768592D01*
X10685780Y-6771132D01*
X10689844Y-6773418D01*
X10693908Y-6775704D01*
X10697210Y-6777990D01*
X10700004Y-6779514D01*
X10701020Y-6780276D01*
X10703306Y-6781546D01*
X10705592Y-6782816D01*
X10707370Y-6783832D01*
X10707624Y-6784086D01*
X10708894Y-6784594D01*
X10710926Y-6785864D01*
X10713720Y-6787642D01*
X10717276Y-6789674D01*
X10721594Y-6792214D01*
X10726674Y-6795262D01*
X10732516Y-6798564D01*
X10738612Y-6802374D01*
X10745724Y-6806438D01*
X10753090Y-6811010D01*
X10753344Y-6811010D01*
X10757408Y-6813296D01*
X10761472Y-6815836D01*
X10765790Y-6818376D01*
X10769854Y-6820662D01*
X10773664Y-6822948D01*
X10775696Y-6824218D01*
X10778998Y-6826250D01*
X10782300Y-6828028D01*
X10785602Y-6830060D01*
X10788396Y-6831584D01*
X10790682Y-6833108D01*
X10790936Y-6833362D01*
X10793476Y-6834632D01*
X10795762Y-6836156D01*
X10797794Y-6837172D01*
X10799318Y-6838188D01*
X10802874Y-6840220D01*
X10806176Y-6842252D01*
X10809732Y-6844284D01*
X10813034Y-6846062D01*
X10815828Y-6847840D01*
X10818368Y-6849364D01*
X10820400Y-6850634D01*
X10821924Y-6851396D01*
X10822432Y-6851904D01*
X10822432Y-6851904D01*
X10823194Y-6852412D01*
X10823448Y-6852412D01*
X10823448Y-6851904D01*
X10823448Y-6850380D01*
X10823448Y-6848094D01*
X10823448Y-6844792D01*
X10823448Y-6840474D01*
X10823702Y-6835394D01*
X10823702Y-6829806D01*
X10823702Y-6823202D01*
X10823702Y-6815836D01*
X10823702Y-6807708D01*
X10823702Y-6799072D01*
X10823702Y-6789674D01*
X10823702Y-6779768D01*
X10823702Y-6769100D01*
X10823702Y-6757924D01*
X10823702Y-6746494D01*
X10823702Y-6734302D01*
X10823702Y-6721856D01*
X10823702Y-6708902D01*
X10823702Y-6695694D01*
X10823702Y-6681978D01*
X10823702Y-6668008D01*
X10823702Y-6653530D01*
X10823702Y-6641592D01*
X10823702Y-6624320D01*
X10823702Y-6607810D01*
X10823702Y-6592570D01*
X10823702Y-6578092D01*
X10823702Y-6564376D01*
X10823702Y-6551676D01*
X10823702Y-6539738D01*
X10823702Y-6528562D01*
X10823702Y-6518148D01*
X10823702Y-6508496D01*
X10823702Y-6499606D01*
X10823702Y-6491478D01*
X10823702Y-6483858D01*
X10823702Y-6477000D01*
X10823702Y-6470904D01*
X10823702Y-6465062D01*
X10823702Y-6459982D01*
X10823702Y-6455410D01*
X10823702Y-6451346D01*
X10823702Y-6447790D01*
X10823702Y-6444488D01*
X10823448Y-6441694D01*
X10823448Y-6439408D01*
X10823448Y-6437376D01*
X10823448Y-6435852D01*
X10823448Y-6434328D01*
X10823448Y-6433312D01*
X10823194Y-6432550D01*
X10823194Y-6431788D01*
X10823194Y-6431534D01*
X10823194Y-6431280D01*
X10822940Y-6431026D01*
X10822940Y-6431026D01*
X10854690Y-6431026D01*
X10854944Y-6641084D01*
X10855198Y-6874256D01*
X10853420Y-6878574D01*
X10851388Y-6882892D01*
X10848594Y-6886194D01*
X10845546Y-6888734D01*
X10841736Y-6890512D01*
X10837164Y-6891528D01*
X10832592Y-6892036D01*
X10831068Y-6892036D01*
X10830052Y-6891782D01*
X10829036Y-6891782D01*
X10827766Y-6891528D01*
X10826496Y-6891020D01*
X10824972Y-6890258D01*
X10822940Y-6888988D01*
X10820400Y-6887718D01*
X10817352Y-6885686D01*
X10815574Y-6884670D01*
X10812780Y-6883146D01*
X10809986Y-6881368D01*
X10807446Y-6880098D01*
X10805668Y-6878828D01*
X10804398Y-6878066D01*
X10802620Y-6877304D01*
X10800334Y-6875780D01*
X10797540Y-6874256D01*
X10794492Y-6872478D01*
X10790936Y-6870446D01*
X10787634Y-6868414D01*
X10784332Y-6866382D01*
X10783824Y-6866128D01*
X10781792Y-6864858D01*
X10779506Y-6863588D01*
X10776712Y-6861810D01*
X10773664Y-6860032D01*
X10770616Y-6858254D01*
X10767314Y-6856222D01*
X10763250Y-6853936D01*
X10759186Y-6851650D01*
X10755376Y-6849364D01*
X10752836Y-6847840D01*
X10749788Y-6846062D01*
X10746232Y-6844030D01*
X10742930Y-6841998D01*
X10739882Y-6840220D01*
X10737596Y-6838950D01*
X10735056Y-6837426D01*
X10732008Y-6835648D01*
X10728706Y-6833616D01*
X10725404Y-6831584D01*
X10722102Y-6829806D01*
X10719054Y-6827774D01*
X10715752Y-6825996D01*
X10712450Y-6823964D01*
X10709910Y-6822440D01*
X10707624Y-6821170D01*
X10707624Y-6821170D01*
X10706354Y-6820408D01*
X10705084Y-6819646D01*
X10703306Y-6818630D01*
X10701528Y-6817614D01*
X10699496Y-6816090D01*
X10696702Y-6814566D01*
X10693654Y-6812788D01*
X10690352Y-6810756D01*
X10686034Y-6808470D01*
X10681462Y-6805676D01*
X10676128Y-6802374D01*
X10670032Y-6798818D01*
X10662920Y-6794754D01*
X10662666Y-6794500D01*
X10658856Y-6792214D01*
X10655300Y-6789928D01*
X10651490Y-6787896D01*
X10648442Y-6785864D01*
X10645648Y-6784340D01*
X10643362Y-6783070D01*
X10642600Y-6782562D01*
X10641076Y-6781546D01*
X10638790Y-6780022D01*
X10635742Y-6778244D01*
X10632186Y-6776212D01*
X10628630Y-6774180D01*
X10624566Y-6771894D01*
X10621264Y-6769862D01*
X10614152Y-6765544D01*
X10607548Y-6761734D01*
X10601198Y-6757924D01*
X10595102Y-6754368D01*
X10589768Y-6751066D01*
X10584688Y-6748018D01*
X10580370Y-6745478D01*
X10577068Y-6743446D01*
X10575036Y-6742430D01*
X10573512Y-6741414D01*
X10570972Y-6740144D01*
X10568178Y-6738366D01*
X10564622Y-6736080D01*
X10560558Y-6733794D01*
X10556494Y-6731508D01*
X10552176Y-6728968D01*
X10549128Y-6726936D01*
X10544556Y-6724396D01*
X10539984Y-6721602D01*
X10535666Y-6719062D01*
X10531348Y-6716522D01*
X10527538Y-6714236D01*
X10524236Y-6712204D01*
X10521442Y-6710680D01*
X10520172Y-6709918D01*
X10517124Y-6708140D01*
X10513568Y-6706108D01*
X10510012Y-6704076D01*
X10506964Y-6702044D01*
X10505186Y-6701028D01*
X10502646Y-6699504D01*
X10499344Y-6697726D01*
X10496042Y-6695694D01*
X10492486Y-6693662D01*
X10489946Y-6692138D01*
X10483850Y-6688328D01*
X10478262Y-6685280D01*
X10473182Y-6682232D01*
X10468864Y-6679692D01*
X10465308Y-6677660D01*
X10462514Y-6675882D01*
X10460482Y-6674866D01*
X10459466Y-6674104D01*
X10458196Y-6673342D01*
X10456164Y-6672072D01*
X10453878Y-6670802D01*
X10451338Y-6669278D01*
X10450830Y-6669024D01*
X10446766Y-6666738D01*
X10443718Y-6664706D01*
X10441178Y-6663182D01*
X10439146Y-6661658D01*
X10437622Y-6660388D01*
X10436352Y-6659118D01*
X10435336Y-6657594D01*
X10434320Y-6656070D01*
X10433558Y-6654292D01*
X10432796Y-6652006D01*
X10432542Y-6651752D01*
X10431780Y-6649466D01*
X10431272Y-6647942D01*
X10431018Y-6646418D01*
X10431018Y-6644894D01*
X10431018Y-6642608D01*
X10431526Y-6638544D01*
X10432542Y-6634734D01*
X10434320Y-6630924D01*
X10436860Y-6627622D01*
X10440162Y-6624574D01*
X10444226Y-6621526D01*
X10449306Y-6618478D01*
X10452354Y-6616954D01*
X10453624Y-6616192D01*
X10455656Y-6615176D01*
X10458450Y-6613652D01*
X10461498Y-6611874D01*
X10465054Y-6609588D01*
X10469118Y-6607302D01*
X10473182Y-6605016D01*
X10477246Y-6602476D01*
X10481564Y-6599936D01*
X10485628Y-6597650D01*
X10489184Y-6595364D01*
X10490454Y-6594602D01*
X10492740Y-6593332D01*
X10495280Y-6591808D01*
X10498328Y-6590030D01*
X10501630Y-6587998D01*
X10504932Y-6585966D01*
X10505186Y-6585966D01*
X10509504Y-6583172D01*
X10514838Y-6580124D01*
X10520680Y-6576568D01*
X10527284Y-6572758D01*
X10534650Y-6568186D01*
X10542778Y-6563360D01*
X10551160Y-6558280D01*
X10560304Y-6552946D01*
X10569956Y-6547104D01*
X10580116Y-6541008D01*
X10590530Y-6534658D01*
X10601452Y-6528054D01*
X10612882Y-6521196D01*
X10624312Y-6514338D01*
X10635996Y-6507226D01*
X10647680Y-6500114D01*
X10650728Y-6498336D01*
X10656062Y-6495034D01*
X10661650Y-6491732D01*
X10667746Y-6487922D01*
X10673842Y-6484366D01*
X10680192Y-6480556D01*
X10686288Y-6476746D01*
X10692384Y-6472936D01*
X10698226Y-6469634D01*
X10703560Y-6466332D01*
X10708386Y-6463284D01*
X10712704Y-6460744D01*
X10715244Y-6459474D01*
X10722356Y-6455156D01*
X10728706Y-6451346D01*
X10734294Y-6447790D01*
X10739628Y-6444488D01*
X10744708Y-6441694D01*
X10749280Y-6438646D01*
X10753852Y-6435852D01*
X10758424Y-6433058D01*
X10763250Y-6430264D01*
X10767822Y-6427470D01*
X10775950Y-6422390D01*
X10783570Y-6417818D01*
X10790174Y-6413754D01*
X10796524Y-6409944D01*
X10801858Y-6406896D01*
X10806938Y-6403848D01*
X10811510Y-6401308D01*
X10815574Y-6399022D01*
X10819384Y-6396990D01*
X10822432Y-6395212D01*
X10828528Y-6392164D01*
X10828528Y-6392164D01*
D19*
X2835000Y-8303600D02*
X2795000Y-8303600D01*
X2835000Y-8663600D02*
X2795000Y-8663600D01*
X2945000Y-7953600D02*
X2945000Y-9013600D01*
X2835000Y-7953600D02*
X2835000Y-9013600D01*
X3555000Y-7953600D02*
X2795000Y-7953600D01*
X2795000Y-9013600D02*
X3555000Y-9013600D01*
X3555000Y-9013600D02*
X3555000Y-7953600D01*
X2835000Y-7135200D02*
X2795000Y-7135200D01*
X2835000Y-7495200D02*
X2795000Y-7495200D01*
X2945000Y-6785200D02*
X2945000Y-7845200D01*
X2835000Y-6785200D02*
X2835000Y-7845200D01*
X3555000Y-6785200D02*
X2795000Y-6785200D01*
X2795000Y-7845200D02*
X3555000Y-7845200D01*
X3555000Y-7845200D02*
X3555000Y-6785200D01*
X2835000Y-5966800D02*
X2795000Y-5966800D01*
X2835000Y-6326800D02*
X2795000Y-6326800D01*
X2945000Y-5616800D02*
X2945000Y-6676800D01*
X2835000Y-5616800D02*
X2835000Y-6676800D01*
X3555000Y-5616800D02*
X2795000Y-5616800D01*
X2795000Y-6676800D02*
X3555000Y-6676800D01*
X3555000Y-6676800D02*
X3555000Y-5616800D01*
X2835000Y-4798400D02*
X2795000Y-4798400D01*
X2835000Y-5158400D02*
X2795000Y-5158400D01*
X2945000Y-4448400D02*
X2945000Y-5508400D01*
X2835000Y-4448400D02*
X2835000Y-5508400D01*
X3555000Y-4448400D02*
X2795000Y-4448400D01*
X2795000Y-5508400D02*
X3555000Y-5508400D01*
X3555000Y-5508400D02*
X3555000Y-4448400D01*
X2835000Y-3630000D02*
X2795000Y-3630000D01*
X2835000Y-3990000D02*
X2795000Y-3990000D01*
X2945000Y-3280000D02*
X2945000Y-4340000D01*
X2835000Y-3280000D02*
X2835000Y-4340000D01*
X3555000Y-3280000D02*
X2795000Y-3280000D01*
X2795000Y-4340000D02*
X3555000Y-4340000D01*
X3555000Y-4340000D02*
X3555000Y-3280000D01*
X4852754Y-9458600D02*
X4852754Y-9498600D01*
X5202754Y-9458600D02*
X5202754Y-9498600D01*
X5552754Y-9458600D02*
X5552754Y-9498600D01*
X4502754Y-9348600D02*
X5902754Y-9348600D01*
X4502754Y-9458600D02*
X5902754Y-9458600D01*
X4502754Y-8738600D02*
X4502754Y-9498600D01*
X5902754Y-9498600D02*
X5902754Y-8738600D01*
X5902754Y-8738600D02*
X4502754Y-8738600D01*
X6371100Y-9458600D02*
X6371100Y-9498600D01*
X6721100Y-9458600D02*
X6721100Y-9498600D01*
X7071100Y-9458600D02*
X7071100Y-9498600D01*
X6021100Y-9348600D02*
X7421100Y-9348600D01*
X6021100Y-9458600D02*
X7421100Y-9458600D01*
X6021100Y-8738600D02*
X6021100Y-9498600D01*
X7421100Y-9498600D02*
X7421100Y-8738600D01*
X7421100Y-8738600D02*
X6021100Y-8738600D01*
X7889500Y-9458600D02*
X7889500Y-9498600D01*
X8239500Y-9458600D02*
X8239500Y-9498600D01*
X8589500Y-9458600D02*
X8589500Y-9498600D01*
X7539500Y-9348600D02*
X8939500Y-9348600D01*
X7539500Y-9458600D02*
X8939500Y-9458600D01*
X7539500Y-8738600D02*
X7539500Y-9498600D01*
X8939500Y-9498600D02*
X8939500Y-8738600D01*
X8939500Y-8738600D02*
X7539500Y-8738600D01*
X9407900Y-9458600D02*
X9407900Y-9498600D01*
X9757900Y-9458600D02*
X9757900Y-9498600D01*
X10107900Y-9458600D02*
X10107900Y-9498600D01*
X9057900Y-9348600D02*
X10457900Y-9348600D01*
X9057900Y-9458600D02*
X10457900Y-9458600D01*
X9057900Y-8738600D02*
X9057900Y-9498600D01*
X10457900Y-9498600D02*
X10457900Y-8738600D01*
X10457900Y-8738600D02*
X9057900Y-8738600D01*
X5907700Y-2835000D02*
X5907700Y-2795000D01*
X5547700Y-2835000D02*
X5547700Y-2795000D01*
X6257700Y-2945000D02*
X5197700Y-2945000D01*
X6257700Y-2835000D02*
X5197700Y-2835000D01*
X6257700Y-3555000D02*
X6257700Y-2795000D01*
X5197700Y-2795000D02*
X5197700Y-3555000D01*
X5197700Y-3555000D02*
X6257700Y-3555000D01*
X7076100Y-2835000D02*
X7076100Y-2795000D01*
X6716100Y-2835000D02*
X6716100Y-2795000D01*
X7426100Y-2945000D02*
X6366100Y-2945000D01*
X7426100Y-2835000D02*
X6366100Y-2835000D01*
X7426100Y-3555000D02*
X7426100Y-2795000D01*
X6366100Y-2795000D02*
X6366100Y-3555000D01*
X6366100Y-3555000D02*
X7426100Y-3555000D01*
X8244500Y-2835000D02*
X8244500Y-2795000D01*
X7884500Y-2835000D02*
X7884500Y-2795000D01*
X8594500Y-2945000D02*
X7534500Y-2945000D01*
X8594500Y-2835000D02*
X7534500Y-2835000D01*
X8594500Y-3555000D02*
X8594500Y-2795000D01*
X7534500Y-2795000D02*
X7534500Y-3555000D01*
X7534500Y-3555000D02*
X8594500Y-3555000D01*
X9412900Y-2835000D02*
X9412900Y-2795000D01*
X9052900Y-2835000D02*
X9052900Y-2795000D01*
X9762900Y-2945000D02*
X8702900Y-2945000D01*
X9762900Y-2835000D02*
X8702900Y-2835000D01*
X9762900Y-3555000D02*
X9762900Y-2795000D01*
X8702900Y-2795000D02*
X8702900Y-3555000D01*
X8702900Y-3555000D02*
X9762900Y-3555000D01*
D15*
X4147338Y-7727148D02*
X4099719Y-7760481D01*
X4147338Y-7784290D02*
X4047338Y-7784290D01*
X4047338Y-7746195D01*
X4052100Y-7736671D01*
X4056862Y-7731909D01*
X4066386Y-7727148D01*
X4080671Y-7727148D01*
X4090195Y-7731909D01*
X4094957Y-7736671D01*
X4099719Y-7746195D01*
X4099719Y-7784290D01*
X4147338Y-7684290D02*
X4047338Y-7684290D01*
X4147338Y-7627148D01*
X4047338Y-7627148D01*
X4047338Y-7589052D02*
X4047338Y-7527148D01*
X4085433Y-7560481D01*
X4085433Y-7546195D01*
X4090195Y-7536671D01*
X4094957Y-7531909D01*
X4104481Y-7527148D01*
X4128290Y-7527148D01*
X4137814Y-7531909D01*
X4142576Y-7536671D01*
X4147338Y-7546195D01*
X4147338Y-7574767D01*
X4142576Y-7584290D01*
X4137814Y-7589052D01*
X10106814Y-8055767D02*
X10111576Y-8060528D01*
X10116338Y-8074814D01*
X10116338Y-8084338D01*
X10111576Y-8098624D01*
X10102052Y-8108148D01*
X10092529Y-8112909D01*
X10073481Y-8117671D01*
X10059195Y-8117671D01*
X10040148Y-8112909D01*
X10030624Y-8108148D01*
X10021100Y-8098624D01*
X10016338Y-8084338D01*
X10016338Y-8074814D01*
X10021100Y-8060528D01*
X10025862Y-8055767D01*
X10116338Y-7960528D02*
X10116338Y-8017671D01*
X10116338Y-7989100D02*
X10016338Y-7989100D01*
X10030624Y-7998624D01*
X10040148Y-8008148D01*
X10044910Y-8017671D01*
X4339433Y-8328814D02*
X4334672Y-8333576D01*
X4320386Y-8338338D01*
X4310862Y-8338338D01*
X4296576Y-8333576D01*
X4287052Y-8324052D01*
X4282291Y-8314529D01*
X4277529Y-8295481D01*
X4277529Y-8281195D01*
X4282291Y-8262148D01*
X4287052Y-8252624D01*
X4296576Y-8243100D01*
X4310862Y-8238338D01*
X4320386Y-8238338D01*
X4334672Y-8243100D01*
X4339433Y-8247862D01*
X4377529Y-8247862D02*
X4382291Y-8243100D01*
X4391814Y-8238338D01*
X4415624Y-8238338D01*
X4425148Y-8243100D01*
X4429910Y-8247862D01*
X4434672Y-8257386D01*
X4434672Y-8266909D01*
X4429910Y-8281195D01*
X4372767Y-8338338D01*
X4434672Y-8338338D01*
X6296814Y-4309267D02*
X6301576Y-4314029D01*
X6306338Y-4328314D01*
X6306338Y-4337838D01*
X6301576Y-4352124D01*
X6292052Y-4361648D01*
X6282529Y-4366410D01*
X6263481Y-4371171D01*
X6249195Y-4371171D01*
X6230148Y-4366410D01*
X6220624Y-4361648D01*
X6211100Y-4352124D01*
X6206338Y-4337838D01*
X6206338Y-4328314D01*
X6211100Y-4314029D01*
X6215862Y-4309267D01*
X6206338Y-4275933D02*
X6206338Y-4214029D01*
X6244433Y-4247362D01*
X6244433Y-4233076D01*
X6249195Y-4223552D01*
X6253957Y-4218790D01*
X6263481Y-4214029D01*
X6287290Y-4214029D01*
X6296814Y-4218790D01*
X6301576Y-4223552D01*
X6306338Y-4233076D01*
X6306338Y-4261648D01*
X6301576Y-4271171D01*
X6296814Y-4275933D01*
X5925338Y-5187148D02*
X5877719Y-5220481D01*
X5925338Y-5244291D02*
X5825338Y-5244291D01*
X5825338Y-5206195D01*
X5830100Y-5196671D01*
X5834862Y-5191910D01*
X5844386Y-5187148D01*
X5858671Y-5187148D01*
X5868195Y-5191910D01*
X5872957Y-5196671D01*
X5877719Y-5206195D01*
X5877719Y-5244291D01*
X5925338Y-5144291D02*
X5825338Y-5144291D01*
X5925338Y-5087148D01*
X5825338Y-5087148D01*
X5834862Y-5044291D02*
X5830100Y-5039529D01*
X5825338Y-5030005D01*
X5825338Y-5006195D01*
X5830100Y-4996671D01*
X5834862Y-4991910D01*
X5844386Y-4987148D01*
X5853909Y-4987148D01*
X5868195Y-4991910D01*
X5925338Y-5049052D01*
X5925338Y-4987148D01*
X9367052Y-8338338D02*
X9333719Y-8290719D01*
X9309910Y-8338338D02*
X9309910Y-8238338D01*
X9348005Y-8238338D01*
X9357529Y-8243100D01*
X9362291Y-8247862D01*
X9367052Y-8257386D01*
X9367052Y-8271671D01*
X9362291Y-8281195D01*
X9357529Y-8285957D01*
X9348005Y-8290719D01*
X9309910Y-8290719D01*
X9409910Y-8338338D02*
X9409910Y-8238338D01*
X9467052Y-8338338D01*
X9467052Y-8238338D01*
X9567052Y-8338338D02*
X9509910Y-8338338D01*
X9538481Y-8338338D02*
X9538481Y-8238338D01*
X9528957Y-8252624D01*
X9519433Y-8262148D01*
X9509910Y-8266909D01*
X7843052Y-4083838D02*
X7809719Y-4036219D01*
X7785909Y-4083838D02*
X7785909Y-3983838D01*
X7824005Y-3983838D01*
X7833529Y-3988600D01*
X7838290Y-3993362D01*
X7843052Y-4002886D01*
X7843052Y-4017171D01*
X7838290Y-4026695D01*
X7833529Y-4031457D01*
X7824005Y-4036219D01*
X7785909Y-4036219D01*
X7885909Y-4083838D02*
X7885909Y-3983838D01*
X7943052Y-4083838D01*
X7943052Y-3983838D01*
X8033529Y-4017171D02*
X8033529Y-4083838D01*
X8009719Y-3979076D02*
X7985909Y-4050505D01*
X8047814Y-4050505D01*
X6475338Y-5003791D02*
X6556290Y-5003791D01*
X6565814Y-4999029D01*
X6570576Y-4994267D01*
X6575338Y-4984743D01*
X6575338Y-4965695D01*
X6570576Y-4956171D01*
X6565814Y-4951410D01*
X6556290Y-4946648D01*
X6475338Y-4946648D01*
X6475338Y-4908552D02*
X6475338Y-4846648D01*
X6513433Y-4879981D01*
X6513433Y-4865695D01*
X6518195Y-4856171D01*
X6522957Y-4851410D01*
X6532481Y-4846648D01*
X6556290Y-4846648D01*
X6565814Y-4851410D01*
X6570576Y-4856171D01*
X6575338Y-4865695D01*
X6575338Y-4894267D01*
X6570576Y-4903791D01*
X6565814Y-4908552D01*
X4914910Y-7969338D02*
X4914910Y-8050290D01*
X4919671Y-8059814D01*
X4924433Y-8064576D01*
X4933957Y-8069338D01*
X4953005Y-8069338D01*
X4962529Y-8064576D01*
X4967291Y-8059814D01*
X4972052Y-8050290D01*
X4972052Y-7969338D01*
X5014910Y-7978862D02*
X5019671Y-7974100D01*
X5029195Y-7969338D01*
X5053005Y-7969338D01*
X5062529Y-7974100D01*
X5067291Y-7978862D01*
X5072052Y-7988386D01*
X5072052Y-7997909D01*
X5067291Y-8012195D01*
X5010148Y-8069338D01*
X5072052Y-8069338D01*
X9747338Y-7480290D02*
X9828291Y-7480290D01*
X9837814Y-7475529D01*
X9842576Y-7470767D01*
X9847338Y-7461243D01*
X9847338Y-7442195D01*
X9842576Y-7432671D01*
X9837814Y-7427909D01*
X9828291Y-7423148D01*
X9747338Y-7423148D01*
X9847338Y-7323148D02*
X9847338Y-7380290D01*
X9847338Y-7351719D02*
X9747338Y-7351719D01*
X9761624Y-7361243D01*
X9771148Y-7370767D01*
X9775910Y-7380290D01*
X9927433Y-5031838D02*
X9894100Y-4984219D01*
X9870291Y-5031838D02*
X9870291Y-4931838D01*
X9908386Y-4931838D01*
X9917910Y-4936600D01*
X9922672Y-4941362D01*
X9927433Y-4950886D01*
X9927433Y-4965171D01*
X9922672Y-4974695D01*
X9917910Y-4979457D01*
X9908386Y-4984219D01*
X9870291Y-4984219D01*
X10022672Y-5031838D02*
X9965529Y-5031838D01*
X9994100Y-5031838D02*
X9994100Y-4931838D01*
X9984576Y-4946124D01*
X9975052Y-4955648D01*
X9965529Y-4960410D01*
M02*
