G04 #@! TF.FileFunction,Copper,L1,Top,Signal*
%FSLAX45Y45*%
G04 Gerber Fmt 4.5, Leading zero omitted, Abs format (unit mm)*
G04 Created by KiCad (PCBNEW 4.0.7-e2-6376~58~ubuntu16.04.1) date Wed Sep 20 11:28:03 2017*
%MOMM*%
%LPD*%
G01*
G04 APERTURE LIST*
%ADD10C,0.100000*%
%ADD11O,2.000000X1.500000*%
%ADD12R,2.000000X1.500000*%
%ADD13R,1.700000X1.700000*%
%ADD14O,1.700000X1.700000*%
%ADD15R,1.600000X1.600000*%
%ADD16O,1.600000X1.600000*%
%ADD17C,1.600000*%
%ADD18R,1.600000X2.400000*%
%ADD19O,1.600000X2.400000*%
%ADD20R,2.400000X1.600000*%
%ADD21O,2.400000X1.600000*%
%ADD22C,1.400000*%
%ADD23O,1.400000X1.400000*%
%ADD24C,2.400000*%
%ADD25R,2.400000X2.400000*%
%ADD26C,0.800000*%
%ADD27C,0.508000*%
%ADD28C,0.381000*%
%ADD29C,0.254000*%
G04 APERTURE END LIST*
D10*
D11*
X11570100Y-7658100D03*
X11874100Y-7658100D03*
X11570100Y-7912100D03*
X11874100Y-7912100D03*
X11570100Y-8166100D03*
D12*
X11874100Y-8166100D03*
D11*
X11874100Y-7404100D03*
X11570100Y-7404100D03*
X11570100Y-7150100D03*
X11874100Y-7150100D03*
X11874100Y-6896100D03*
X11570100Y-6896100D03*
X11570100Y-6642100D03*
X11874100Y-6642100D03*
X11874100Y-6388100D03*
X11570100Y-6388100D03*
X11570100Y-6134100D03*
X11874100Y-6134100D03*
X11874100Y-5880100D03*
X11570100Y-5880100D03*
X11570100Y-5626100D03*
X11874100Y-5626100D03*
X11874100Y-5372100D03*
X11570100Y-5372100D03*
X11570100Y-5118100D03*
X11874100Y-5118100D03*
D13*
X4737100Y-4737100D03*
D14*
X4737100Y-4483100D03*
X4737100Y-4229100D03*
D13*
X5943600Y-8293100D03*
D14*
X6197600Y-8293100D03*
X6451600Y-8293100D03*
D13*
X4102100Y-4737100D03*
D14*
X4102100Y-4483100D03*
X4102100Y-4229100D03*
D15*
X4102100Y-5245100D03*
D16*
X4102100Y-5499100D03*
X4102100Y-5753100D03*
X4102100Y-6007100D03*
X4102100Y-6261100D03*
X4102100Y-6515100D03*
X4102100Y-6769100D03*
X4102100Y-7023100D03*
X4102100Y-7277100D03*
D17*
X10071100Y-7285100D03*
X10071100Y-7785100D03*
X5110100Y-8293100D03*
X4610100Y-8293100D03*
X6261100Y-4546600D03*
X6261100Y-5046600D03*
D14*
X11341100Y-4102100D03*
X11341100Y-3848100D03*
X11341100Y-3594100D03*
X11341100Y-3340100D03*
D17*
X11341100Y-3086100D03*
D14*
X12039600Y-4102100D03*
X12039600Y-3848100D03*
D13*
X12039600Y-3594100D03*
D15*
X5880100Y-5499100D03*
D16*
X5880100Y-5753100D03*
X5880100Y-6007100D03*
X5880100Y-6261100D03*
D15*
X7023100Y-8293100D03*
D16*
X7277100Y-8293100D03*
X7531100Y-8293100D03*
X7785100Y-8293100D03*
X8039100Y-8293100D03*
X8293100Y-8293100D03*
X8547100Y-8293100D03*
X8801100Y-8293100D03*
X9055100Y-8293100D03*
D15*
X9309100Y-4038600D03*
D16*
X9055100Y-4038600D03*
X8801100Y-4038600D03*
X8547100Y-4038600D03*
X8293100Y-4038600D03*
D13*
X9817100Y-4038600D03*
D14*
X10071100Y-4038600D03*
X10325100Y-4038600D03*
D18*
X6769100Y-5308600D03*
D19*
X9055100Y-4546600D03*
X7023100Y-5308600D03*
X8801100Y-4546600D03*
X7277100Y-5308600D03*
X8547100Y-4546600D03*
X7531100Y-5308600D03*
X8293100Y-4546600D03*
X7785100Y-5308600D03*
X8039100Y-4546600D03*
X8039100Y-5308600D03*
X7785100Y-4546600D03*
X8293100Y-5308600D03*
X7531100Y-4546600D03*
X8547100Y-5308600D03*
X7277100Y-4546600D03*
X8801100Y-5308600D03*
X7023100Y-4546600D03*
X9055100Y-5308600D03*
X6769100Y-4546600D03*
D20*
X5372100Y-7785100D03*
D21*
X4610100Y-5499100D03*
X5372100Y-7531100D03*
X4610100Y-5753100D03*
X5372100Y-7277100D03*
X4610100Y-6007100D03*
X5372100Y-7023100D03*
X4610100Y-6261100D03*
X5372100Y-6769100D03*
X4610100Y-6515100D03*
X5372100Y-6515100D03*
X4610100Y-6769100D03*
X5372100Y-6261100D03*
X4610100Y-7023100D03*
X5372100Y-6007100D03*
X4610100Y-7277100D03*
X5372100Y-5753100D03*
X4610100Y-7531100D03*
X5372100Y-5499100D03*
X4610100Y-7785100D03*
D18*
X9563100Y-7023100D03*
D19*
X7277100Y-7785100D03*
X9309100Y-7023100D03*
X7531100Y-7785100D03*
X9055100Y-7023100D03*
X7785100Y-7785100D03*
X8801100Y-7023100D03*
X8039100Y-7785100D03*
X8547100Y-7023100D03*
X8293100Y-7785100D03*
X8293100Y-7023100D03*
X8547100Y-7785100D03*
X8039100Y-7023100D03*
X8801100Y-7785100D03*
X7785100Y-7023100D03*
X9055100Y-7785100D03*
X7531100Y-7023100D03*
X9309100Y-7785100D03*
X7277100Y-7023100D03*
X9563100Y-7785100D03*
D22*
X10325100Y-4800600D03*
D23*
X9563100Y-4800600D03*
D24*
X3245000Y-8483600D03*
D25*
X3245000Y-8833600D03*
D24*
X3245000Y-8133600D03*
X3245000Y-7315200D03*
D25*
X3245000Y-7665200D03*
D24*
X3245000Y-6965200D03*
X3245000Y-6146800D03*
D25*
X3245000Y-6496800D03*
D24*
X3245000Y-5796800D03*
X3245000Y-4978400D03*
D25*
X3245000Y-5328400D03*
D24*
X3245000Y-4628400D03*
X3245000Y-3810000D03*
D25*
X3245000Y-4160000D03*
D24*
X3245000Y-3460000D03*
X5377754Y-9048600D03*
D25*
X5727754Y-9048600D03*
D24*
X5027754Y-9048600D03*
X4677754Y-9048600D03*
X6896100Y-9048600D03*
D25*
X7246100Y-9048600D03*
D24*
X6546100Y-9048600D03*
X6196100Y-9048600D03*
X8414500Y-9048600D03*
D25*
X8764500Y-9048600D03*
D24*
X8064500Y-9048600D03*
X7714500Y-9048600D03*
X9932900Y-9048600D03*
D25*
X10282900Y-9048600D03*
D24*
X9582900Y-9048600D03*
X9232900Y-9048600D03*
X5727700Y-3245000D03*
D25*
X5377700Y-3245000D03*
D24*
X6077700Y-3245000D03*
X6896100Y-3245000D03*
D25*
X6546100Y-3245000D03*
D24*
X7246100Y-3245000D03*
X8064500Y-3245000D03*
D25*
X7714500Y-3245000D03*
D24*
X8414500Y-3245000D03*
X9232900Y-3245000D03*
D25*
X8882900Y-3245000D03*
D24*
X9582900Y-3245000D03*
D26*
X11182350Y-5911850D03*
X11055350Y-5911850D03*
D27*
X6769100Y-5308600D02*
X6388100Y-5308600D01*
X6261100Y-5181600D02*
X6261100Y-5046600D01*
X6388100Y-5308600D02*
X6261100Y-5181600D01*
X5372100Y-7785100D02*
X5372100Y-8166100D01*
X5372100Y-8166100D02*
X5245100Y-8293100D01*
X5245100Y-8293100D02*
X5110100Y-8293100D01*
X9563100Y-7023100D02*
X9944100Y-7023100D01*
X10071100Y-7150100D02*
X10071100Y-7285100D01*
X9944100Y-7023100D02*
X10071100Y-7150100D01*
D28*
X3245000Y-8483600D02*
X3530600Y-8483600D01*
X3784600Y-7277100D02*
X4102100Y-7277100D01*
X3657600Y-7404100D02*
X3784600Y-7277100D01*
X3657600Y-8356600D02*
X3657600Y-7404100D01*
X3530600Y-8483600D02*
X3657600Y-8356600D01*
X4610100Y-7277100D02*
X4102100Y-7277100D01*
X3245000Y-7315200D02*
X3492500Y-7315200D01*
X3784600Y-7023100D02*
X4102100Y-7023100D01*
X3492500Y-7315200D02*
X3784600Y-7023100D01*
X4610100Y-7023100D02*
X4102100Y-7023100D01*
X3245000Y-6146800D02*
X3454400Y-6146800D01*
X3721100Y-6769100D02*
X4102100Y-6769100D01*
X3594100Y-6642100D02*
X3721100Y-6769100D01*
X3594100Y-6286500D02*
X3594100Y-6642100D01*
X3454400Y-6146800D02*
X3594100Y-6286500D01*
X4102100Y-6769100D02*
X4610100Y-6769100D01*
X3245000Y-4978400D02*
X3517900Y-4978400D01*
X3784600Y-6515100D02*
X4102100Y-6515100D01*
X3657600Y-6388100D02*
X3784600Y-6515100D01*
X3657600Y-5118100D02*
X3657600Y-6388100D01*
X3517900Y-4978400D02*
X3657600Y-5118100D01*
X4610100Y-6515100D02*
X4102100Y-6515100D01*
X3245000Y-3810000D02*
X3556000Y-3810000D01*
X3848100Y-6261100D02*
X4102100Y-6261100D01*
X3721100Y-6134100D02*
X3848100Y-6261100D01*
X3721100Y-3975100D02*
X3721100Y-6134100D01*
X3556000Y-3810000D02*
X3721100Y-3975100D01*
X4610100Y-6261100D02*
X4102100Y-6261100D01*
X5727700Y-3245000D02*
X5727700Y-3695700D01*
X8293100Y-3848100D02*
X8293100Y-4038600D01*
X8166100Y-3721100D02*
X8293100Y-3848100D01*
X5753100Y-3721100D02*
X8166100Y-3721100D01*
X5727700Y-3695700D02*
X5753100Y-3721100D01*
X8293100Y-4546600D02*
X8293100Y-4038600D01*
X6896100Y-3245000D02*
X6896100Y-3530600D01*
X8547100Y-3784600D02*
X8547100Y-4038600D01*
X8420100Y-3657600D02*
X8547100Y-3784600D01*
X7023100Y-3657600D02*
X8420100Y-3657600D01*
X6896100Y-3530600D02*
X7023100Y-3657600D01*
X8547100Y-4546600D02*
X8547100Y-4038600D01*
X8064500Y-3245000D02*
X8064500Y-3429000D01*
X8801100Y-3721100D02*
X8801100Y-4038600D01*
X8674100Y-3594100D02*
X8801100Y-3721100D01*
X8229600Y-3594100D02*
X8674100Y-3594100D01*
X8064500Y-3429000D02*
X8229600Y-3594100D01*
X8801100Y-4546600D02*
X8801100Y-4038600D01*
X9055100Y-4038600D02*
X9055100Y-3784600D01*
X9232900Y-3606800D02*
X9232900Y-3245000D01*
X9055100Y-3784600D02*
X9232900Y-3606800D01*
X9055300Y-4038400D02*
X9055100Y-4038600D01*
X9055100Y-4038600D02*
X9055100Y-4546600D01*
D29*
X8991600Y-5689600D02*
X11214100Y-5689600D01*
X11785600Y-6261100D02*
X11468100Y-6261100D01*
X11468100Y-6261100D02*
X11341100Y-6134100D01*
X11341100Y-6134100D02*
X11341100Y-5816600D01*
X8801100Y-5308600D02*
X8801100Y-5499100D01*
X8991600Y-5689600D02*
X8801100Y-5499100D01*
X11341100Y-5816600D02*
X11214100Y-5689600D01*
X11785600Y-6261100D02*
X11912600Y-6134100D01*
X8801100Y-5753100D02*
X11150600Y-5753100D01*
X11404600Y-6388100D02*
X11277600Y-6261100D01*
X11277600Y-6261100D02*
X11277600Y-5880100D01*
X11277600Y-5880100D02*
X11150600Y-5753100D01*
X8801100Y-5753100D02*
X8547100Y-5499100D01*
X8547100Y-5308600D02*
X8547100Y-5499100D01*
X11404600Y-6388100D02*
X11658600Y-6388100D01*
X7213600Y-5943600D02*
X10960100Y-5943600D01*
X11785600Y-6515100D02*
X11214100Y-6515100D01*
X11214100Y-6515100D02*
X11087100Y-6388100D01*
X5372100Y-6515100D02*
X6578600Y-6515100D01*
X11087100Y-6388100D02*
X11087100Y-6070600D01*
X6642100Y-6515100D02*
X7213600Y-5943600D01*
X10960100Y-5943600D02*
X11087100Y-6070600D01*
X6578600Y-6515100D02*
X6642100Y-6515100D01*
X11785600Y-6515100D02*
X11912600Y-6388100D01*
X8547100Y-5816600D02*
X11087100Y-5816600D01*
X8547100Y-5816600D02*
X8293100Y-5562600D01*
X8293100Y-5308600D02*
X8293100Y-5562600D01*
X11087100Y-5816600D02*
X11182350Y-5911850D01*
X11182350Y-5911850D02*
X11182350Y-5911850D01*
X7277100Y-6007100D02*
X10896600Y-6007100D01*
X11785600Y-6769100D02*
X11150600Y-6769100D01*
X11150600Y-6769100D02*
X11023600Y-6642100D01*
X11023600Y-6134100D02*
X10896600Y-6007100D01*
X6515100Y-6769100D02*
X6451600Y-6769100D01*
X7277100Y-6007100D02*
X6515100Y-6769100D01*
X5372100Y-6769100D02*
X6451600Y-6769100D01*
X11023600Y-6134100D02*
X11023600Y-6642100D01*
X11785600Y-6769100D02*
X11912600Y-6642100D01*
X7340600Y-6070600D02*
X10833100Y-6070600D01*
X11087100Y-6896100D02*
X10960100Y-6769100D01*
X5372100Y-7023100D02*
X6324600Y-7023100D01*
X6388100Y-7023100D02*
X7340600Y-6070600D01*
X10833100Y-6070600D02*
X10960100Y-6197600D01*
X6324600Y-7023100D02*
X6388100Y-7023100D01*
X10960100Y-6769100D02*
X10960100Y-6197600D01*
X11087100Y-6896100D02*
X11658600Y-6896100D01*
X7404100Y-6134100D02*
X10769600Y-6134100D01*
X11785600Y-7023100D02*
X11023600Y-7023100D01*
X11023600Y-7023100D02*
X10896600Y-6896100D01*
X7404100Y-6134100D02*
X6261100Y-7277100D01*
X6261100Y-7277100D02*
X6197600Y-7277100D01*
X10896600Y-6261100D02*
X10769600Y-6134100D01*
X10896600Y-6896100D02*
X10896600Y-6261100D01*
X5372100Y-7277100D02*
X6197600Y-7277100D01*
X11785600Y-7023100D02*
X11912600Y-6896100D01*
X7467600Y-6197600D02*
X10706100Y-6197600D01*
X10960100Y-7150100D02*
X10833100Y-7023100D01*
X6070600Y-7531100D02*
X6134100Y-7531100D01*
X10706100Y-6197600D02*
X10833100Y-6324600D01*
X6134100Y-7531100D02*
X7467600Y-6197600D01*
X10833100Y-7023100D02*
X10833100Y-6324600D01*
X5372100Y-7531100D02*
X6070600Y-7531100D01*
X10960100Y-7150100D02*
X11658600Y-7150100D01*
X8102600Y-6261100D02*
X10642600Y-6261100D01*
X11785600Y-7277100D02*
X10896600Y-7277100D01*
X10896600Y-7277100D02*
X10769600Y-7150100D01*
X7531100Y-7023100D02*
X7531100Y-6832600D01*
X8102600Y-6261100D02*
X7531100Y-6832600D01*
X10769600Y-6388100D02*
X10642600Y-6261100D01*
X10769600Y-7150100D02*
X10769600Y-6388100D01*
X11785600Y-7277100D02*
X11912600Y-7150100D01*
X8293100Y-6324600D02*
X10579100Y-6324600D01*
X10833100Y-7404100D02*
X10706100Y-7277100D01*
X7785100Y-7023100D02*
X7785100Y-6832600D01*
X8293100Y-6324600D02*
X7785100Y-6832600D01*
X10706100Y-6451600D02*
X10579100Y-6324600D01*
X10706100Y-7277100D02*
X10706100Y-6451600D01*
X10833100Y-7404100D02*
X11658600Y-7404100D01*
X8483600Y-6388100D02*
X10515600Y-6388100D01*
X11785600Y-7531100D02*
X10769600Y-7531100D01*
X10769600Y-7531100D02*
X10642600Y-7404100D01*
X8039100Y-7023100D02*
X8039100Y-6832600D01*
X8483600Y-6388100D02*
X8039100Y-6832600D01*
X10642600Y-6515100D02*
X10515600Y-6388100D01*
X10642600Y-7404100D02*
X10642600Y-6515100D01*
X11785600Y-7531100D02*
X11912600Y-7404100D01*
X8674100Y-6451600D02*
X10452100Y-6451600D01*
X10452100Y-6451600D02*
X10579100Y-6578600D01*
X8293100Y-6832600D02*
X8674100Y-6451600D01*
X8293100Y-7023100D02*
X8293100Y-6832600D01*
X10579100Y-7531100D02*
X10706100Y-7658100D01*
X10579100Y-6578600D02*
X10579100Y-7531100D01*
X10706100Y-7658100D02*
X11658600Y-7658100D01*
X8864600Y-6515100D02*
X10388600Y-6515100D01*
X11785600Y-7785100D02*
X10642600Y-7785100D01*
X10515600Y-7658100D02*
X10515600Y-6642100D01*
X10515600Y-6642100D02*
X10388600Y-6515100D01*
X8864600Y-6515100D02*
X8547100Y-6832600D01*
X8547100Y-7023100D02*
X8547100Y-6832600D01*
X10642600Y-7785100D02*
X10515600Y-7658100D01*
X11785600Y-7785100D02*
X11912600Y-7658100D01*
X9055100Y-6578600D02*
X10325100Y-6578600D01*
X10452100Y-6705600D02*
X10325100Y-6578600D01*
X10452100Y-7785100D02*
X10452100Y-6705600D01*
X8801100Y-6832600D02*
X8801100Y-7023100D01*
X9055100Y-6578600D02*
X8801100Y-6832600D01*
X11658600Y-7912100D02*
X10579100Y-7912100D01*
X10579100Y-7912100D02*
X10452100Y-7785100D01*
X10452100Y-7785100D02*
X10452100Y-7785100D01*
X9245600Y-6642100D02*
X10261600Y-6642100D01*
X10515600Y-8039100D02*
X10388600Y-7912100D01*
X10388600Y-7912100D02*
X10388600Y-7848600D01*
X10388600Y-6769100D02*
X10261600Y-6642100D01*
X10388600Y-6769100D02*
X10388600Y-7340600D01*
X10388600Y-7848600D02*
X10388600Y-7340600D01*
X9055100Y-6832600D02*
X9055100Y-7023100D01*
X9245600Y-6642100D02*
X9055100Y-6832600D01*
X11912600Y-7912100D02*
X11785600Y-8039100D01*
X11785600Y-8039100D02*
X10515600Y-8039100D01*
X10515600Y-8039100D02*
X10515600Y-8039100D01*
X9436100Y-6705600D02*
X10198100Y-6705600D01*
X10325100Y-6832600D02*
X10325100Y-7404100D01*
X10325100Y-7912100D02*
X10325100Y-7404100D01*
X9436100Y-6705600D02*
X9309100Y-6832600D01*
X9309100Y-7023100D02*
X9309100Y-6832600D01*
X10325100Y-6832600D02*
X10198100Y-6705600D01*
X10325100Y-8039100D02*
X10325100Y-7912100D01*
X10325100Y-8039100D02*
X10452100Y-8166100D01*
X11658600Y-8166100D02*
X10452100Y-8166100D01*
X10452100Y-8166100D02*
X10452100Y-8166100D01*
X8229600Y-5880100D02*
X11023600Y-5880100D01*
X8039100Y-5689600D02*
X8229600Y-5880100D01*
X8039100Y-5308600D02*
X8039100Y-5689600D01*
X11023600Y-5880100D02*
X11055350Y-5911850D01*
D27*
X11341100Y-3594100D02*
X12039600Y-3594100D01*
X11341100Y-3848100D02*
X11531600Y-3848100D01*
X11785600Y-4102100D02*
X12039600Y-4102100D01*
X11531600Y-3848100D02*
X11785600Y-4102100D01*
D29*
X11595100Y-5118100D02*
X9436100Y-5118100D01*
X9436100Y-5118100D02*
X9309100Y-4991100D01*
X9309100Y-4991100D02*
X9309100Y-4832350D01*
X9309100Y-4832350D02*
X9340850Y-4800600D01*
X9309100Y-4832350D02*
X9277350Y-4800600D01*
X9309100Y-4832350D02*
X9309100Y-4800600D01*
X9563100Y-4800600D02*
X9340850Y-4800600D01*
X9340850Y-4800600D02*
X9309100Y-4800600D01*
X9309100Y-4800600D02*
X9277350Y-4800600D01*
X9277350Y-4800600D02*
X7023100Y-4800600D01*
X4864100Y-5499100D02*
X4864100Y-4927600D01*
X4991100Y-4800600D02*
X5562600Y-4800600D01*
X4864100Y-4927600D02*
X4991100Y-4800600D01*
X5054600Y-7658100D02*
X4991100Y-7658100D01*
X4991100Y-7658100D02*
X4864100Y-7531100D01*
X5022850Y-7658100D02*
X5054600Y-7658100D01*
X5054600Y-7658100D02*
X5118100Y-7658100D01*
X9309100Y-7594600D02*
X9245600Y-7531100D01*
X6261100Y-7531100D02*
X6134100Y-7658100D01*
X6134100Y-7658100D02*
X5118100Y-7658100D01*
X9309100Y-7721600D02*
X9309100Y-7594600D01*
X9245600Y-7531100D02*
X6261100Y-7531100D01*
X7054850Y-4800600D02*
X7023100Y-4768850D01*
X7023100Y-4768850D02*
X6991350Y-4800600D01*
X7023100Y-4800600D02*
X6991350Y-4800600D01*
X6991350Y-4800600D02*
X5562600Y-4800600D01*
X4864100Y-5499100D02*
X4864100Y-7499350D01*
X7023100Y-4800600D02*
X7054850Y-4800600D01*
X7023100Y-4546600D02*
X7023100Y-4800600D01*
X4864100Y-7499350D02*
X4832350Y-7531100D01*
X4864100Y-7531100D02*
X4864100Y-7499350D01*
X4864100Y-7531100D02*
X4832350Y-7531100D01*
X4832350Y-7531100D02*
X4610100Y-7531100D01*
D28*
X5880100Y-5753100D02*
X5372100Y-5753100D01*
X5880100Y-6007100D02*
X5372100Y-6007100D01*
X5880100Y-6261100D02*
X5372100Y-6261100D01*
D27*
X7023100Y-8293100D02*
X7023100Y-8166100D01*
X6197600Y-8166100D02*
X6197600Y-8293100D01*
X6324600Y-8039100D02*
X6197600Y-8166100D01*
X6896100Y-8039100D02*
X6324600Y-8039100D01*
X7023100Y-8166100D02*
X6896100Y-8039100D01*
X4102100Y-5245100D02*
X3975100Y-5245100D01*
X3975100Y-4483100D02*
X4102100Y-4483100D01*
X3848100Y-4610100D02*
X3975100Y-4483100D01*
X3848100Y-5118100D02*
X3848100Y-4610100D01*
X3975100Y-5245100D02*
X3848100Y-5118100D01*
X10071100Y-4038600D02*
X10071100Y-3848100D01*
X9309100Y-3848100D02*
X9309100Y-4038600D01*
X9436100Y-3721100D02*
X9309100Y-3848100D01*
X9944100Y-3721100D02*
X9436100Y-3721100D01*
X10071100Y-3848100D02*
X9944100Y-3721100D01*
D28*
X4610100Y-5499100D02*
X4102100Y-5499100D01*
X4610100Y-5753100D02*
X4102100Y-5753100D01*
X4610100Y-6007100D02*
X4102100Y-6007100D01*
X9932900Y-8864600D02*
X9932900Y-8789900D01*
X9055100Y-8547100D02*
X9055100Y-8293100D01*
X9182100Y-8674100D02*
X9055100Y-8547100D01*
X9817100Y-8674100D02*
X9182100Y-8674100D01*
X9932900Y-8789900D02*
X9817100Y-8674100D01*
X9932900Y-9048600D02*
X9932900Y-8864600D01*
D27*
X9055100Y-7721600D02*
X9055100Y-8293100D01*
D28*
X9582900Y-8864600D02*
X9582900Y-8820900D01*
X8801100Y-8610600D02*
X8801100Y-8293100D01*
X8928100Y-8737600D02*
X8801100Y-8610600D01*
X9499600Y-8737600D02*
X8928100Y-8737600D01*
X9582900Y-8820900D02*
X9499600Y-8737600D01*
X9582900Y-9048600D02*
X9582900Y-8864600D01*
X8801100Y-7785100D02*
X8801100Y-8293100D01*
X8414500Y-9048600D02*
X8414500Y-8743200D01*
X8547100Y-8610600D02*
X8547100Y-8293100D01*
X8414500Y-8743200D02*
X8547100Y-8610600D01*
D27*
X8547100Y-7785100D02*
X8547100Y-8293100D01*
X8547100Y-8293100D02*
X8544300Y-8295900D01*
D28*
X8064500Y-9048600D02*
X8064500Y-8839200D01*
X8293100Y-8610600D02*
X8293100Y-8293100D01*
X8064500Y-8839200D02*
X8293100Y-8610600D01*
D27*
X8293100Y-7785100D02*
X8293100Y-8293100D01*
D28*
X6896100Y-9048600D02*
X6896100Y-8864600D01*
X8039100Y-8610600D02*
X8039100Y-8293100D01*
X7912100Y-8737600D02*
X8039100Y-8610600D01*
X7023100Y-8737600D02*
X7912100Y-8737600D01*
X6896100Y-8864600D02*
X7023100Y-8737600D01*
D27*
X8039100Y-7785100D02*
X8039100Y-8293100D01*
D28*
X6546100Y-9048600D02*
X6546100Y-8770100D01*
X7785100Y-8547100D02*
X7785100Y-8293100D01*
X7658100Y-8674100D02*
X7785100Y-8547100D01*
X6642100Y-8674100D02*
X7658100Y-8674100D01*
X6546100Y-8770100D02*
X6642100Y-8674100D01*
D27*
X7785100Y-7785100D02*
X7785100Y-8293100D01*
X7531100Y-7785100D02*
X7531100Y-8293100D01*
X7277100Y-7785100D02*
X7277100Y-8293100D01*
D29*
G36*
X12355830Y-9688830D02*
X2604770Y-9688830D01*
X2604770Y-9416862D01*
X2697461Y-9416862D01*
X2731416Y-9499037D01*
X2794232Y-9561964D01*
X2876348Y-9596061D01*
X2965262Y-9596139D01*
X3047437Y-9562185D01*
X3110364Y-9499368D01*
X3144461Y-9417252D01*
X3144461Y-9416862D01*
X11816061Y-9416862D01*
X11850015Y-9499037D01*
X11912832Y-9561964D01*
X11994948Y-9596061D01*
X12083862Y-9596139D01*
X12166037Y-9562185D01*
X12228964Y-9499368D01*
X12263061Y-9417252D01*
X12263139Y-9328338D01*
X12229184Y-9246163D01*
X12166368Y-9183236D01*
X12084252Y-9149139D01*
X11995338Y-9149061D01*
X11913163Y-9183016D01*
X11850236Y-9245832D01*
X11816139Y-9327948D01*
X11816061Y-9416862D01*
X3144461Y-9416862D01*
X3144539Y-9328338D01*
X3110584Y-9246163D01*
X3047768Y-9183236D01*
X2965652Y-9149139D01*
X2876738Y-9149061D01*
X2794563Y-9183016D01*
X2731636Y-9245832D01*
X2697539Y-9327948D01*
X2697461Y-9416862D01*
X2604770Y-9416862D01*
X2604770Y-9084940D01*
X4494222Y-9084940D01*
X4522100Y-9152409D01*
X4573674Y-9204073D01*
X4641094Y-9232068D01*
X4714094Y-9232132D01*
X4781563Y-9204255D01*
X4833227Y-9152680D01*
X4852768Y-9105622D01*
X4872100Y-9152409D01*
X4923674Y-9204073D01*
X4991094Y-9232068D01*
X5064094Y-9232132D01*
X5131563Y-9204255D01*
X5183227Y-9152680D01*
X5202768Y-9105622D01*
X5222100Y-9152409D01*
X5273674Y-9204073D01*
X5341094Y-9232068D01*
X5414094Y-9232132D01*
X5481563Y-9204255D01*
X5533227Y-9152680D01*
X5544254Y-9126124D01*
X5544254Y-9181231D01*
X5553921Y-9204570D01*
X5571784Y-9222433D01*
X5595123Y-9232100D01*
X5699179Y-9232100D01*
X5715054Y-9216225D01*
X5715054Y-9061300D01*
X5740454Y-9061300D01*
X5740454Y-9216225D01*
X5756329Y-9232100D01*
X5860385Y-9232100D01*
X5883724Y-9222433D01*
X5901587Y-9204570D01*
X5911254Y-9181231D01*
X5911254Y-9077175D01*
X5895379Y-9061300D01*
X5740454Y-9061300D01*
X5715054Y-9061300D01*
X5713054Y-9061300D01*
X5713054Y-9035900D01*
X5715054Y-9035900D01*
X5715054Y-8880975D01*
X5740454Y-8880975D01*
X5740454Y-9035900D01*
X5895379Y-9035900D01*
X5911254Y-9020025D01*
X5911254Y-8915969D01*
X5901587Y-8892630D01*
X5883724Y-8874767D01*
X5860385Y-8865100D01*
X5756329Y-8865100D01*
X5740454Y-8880975D01*
X5715054Y-8880975D01*
X5699179Y-8865100D01*
X5595123Y-8865100D01*
X5571784Y-8874767D01*
X5553921Y-8892630D01*
X5544254Y-8915969D01*
X5544254Y-8971040D01*
X5533409Y-8944791D01*
X5481834Y-8893127D01*
X5414415Y-8865132D01*
X5341414Y-8865068D01*
X5273945Y-8892946D01*
X5222281Y-8944520D01*
X5202741Y-8991579D01*
X5183409Y-8944791D01*
X5131834Y-8893127D01*
X5064415Y-8865132D01*
X4991414Y-8865068D01*
X4923945Y-8892946D01*
X4872281Y-8944520D01*
X4852741Y-8991579D01*
X4833409Y-8944791D01*
X4781834Y-8893127D01*
X4714415Y-8865132D01*
X4641414Y-8865068D01*
X4573945Y-8892946D01*
X4522281Y-8944520D01*
X4494286Y-9011940D01*
X4494222Y-9084940D01*
X2604770Y-9084940D01*
X2604770Y-8862175D01*
X3061500Y-8862175D01*
X3061500Y-8966231D01*
X3071167Y-8989570D01*
X3089030Y-9007433D01*
X3112369Y-9017100D01*
X3216425Y-9017100D01*
X3232300Y-9001225D01*
X3232300Y-8846300D01*
X3257700Y-8846300D01*
X3257700Y-9001225D01*
X3273575Y-9017100D01*
X3377631Y-9017100D01*
X3400970Y-9007433D01*
X3418833Y-8989570D01*
X3428500Y-8966231D01*
X3428500Y-8862175D01*
X3412625Y-8846300D01*
X3257700Y-8846300D01*
X3232300Y-8846300D01*
X3077375Y-8846300D01*
X3061500Y-8862175D01*
X2604770Y-8862175D01*
X2604770Y-7693775D01*
X3061500Y-7693775D01*
X3061500Y-7797831D01*
X3071167Y-7821170D01*
X3089030Y-7839033D01*
X3112369Y-7848700D01*
X3216425Y-7848700D01*
X3232300Y-7832825D01*
X3232300Y-7677900D01*
X3257700Y-7677900D01*
X3257700Y-7832825D01*
X3273575Y-7848700D01*
X3377631Y-7848700D01*
X3400970Y-7839033D01*
X3418833Y-7821170D01*
X3428500Y-7797831D01*
X3428500Y-7693775D01*
X3412625Y-7677900D01*
X3257700Y-7677900D01*
X3232300Y-7677900D01*
X3077375Y-7677900D01*
X3061500Y-7693775D01*
X2604770Y-7693775D01*
X2604770Y-6525375D01*
X3061500Y-6525375D01*
X3061500Y-6629431D01*
X3071167Y-6652770D01*
X3089030Y-6670633D01*
X3112369Y-6680300D01*
X3216425Y-6680300D01*
X3232300Y-6664425D01*
X3232300Y-6509500D01*
X3257700Y-6509500D01*
X3257700Y-6664425D01*
X3273575Y-6680300D01*
X3377631Y-6680300D01*
X3400970Y-6670633D01*
X3418833Y-6652770D01*
X3428500Y-6629431D01*
X3428500Y-6525375D01*
X3412625Y-6509500D01*
X3257700Y-6509500D01*
X3232300Y-6509500D01*
X3077375Y-6509500D01*
X3061500Y-6525375D01*
X2604770Y-6525375D01*
X2604770Y-5356975D01*
X3061500Y-5356975D01*
X3061500Y-5461031D01*
X3071167Y-5484370D01*
X3089030Y-5502233D01*
X3112369Y-5511900D01*
X3216425Y-5511900D01*
X3232300Y-5496025D01*
X3232300Y-5341100D01*
X3257700Y-5341100D01*
X3257700Y-5496025D01*
X3273575Y-5511900D01*
X3377631Y-5511900D01*
X3400970Y-5502233D01*
X3418833Y-5484370D01*
X3428500Y-5461031D01*
X3428500Y-5356975D01*
X3412625Y-5341100D01*
X3257700Y-5341100D01*
X3232300Y-5341100D01*
X3077375Y-5341100D01*
X3061500Y-5356975D01*
X2604770Y-5356975D01*
X2604770Y-4188575D01*
X3061500Y-4188575D01*
X3061500Y-4292631D01*
X3071167Y-4315970D01*
X3089030Y-4333833D01*
X3112369Y-4343500D01*
X3216425Y-4343500D01*
X3232300Y-4327625D01*
X3232300Y-4172700D01*
X3257700Y-4172700D01*
X3257700Y-4327625D01*
X3273575Y-4343500D01*
X3377631Y-4343500D01*
X3400970Y-4333833D01*
X3418833Y-4315970D01*
X3428500Y-4292631D01*
X3428500Y-4188575D01*
X3412625Y-4172700D01*
X3257700Y-4172700D01*
X3232300Y-4172700D01*
X3077375Y-4172700D01*
X3061500Y-4188575D01*
X2604770Y-4188575D01*
X2604770Y-3496340D01*
X3061468Y-3496340D01*
X3089345Y-3563809D01*
X3140920Y-3615473D01*
X3187978Y-3635013D01*
X3141191Y-3654345D01*
X3089527Y-3705920D01*
X3061532Y-3773339D01*
X3061468Y-3846340D01*
X3089345Y-3913809D01*
X3140920Y-3965473D01*
X3167476Y-3976500D01*
X3112369Y-3976500D01*
X3089030Y-3986167D01*
X3071167Y-4004030D01*
X3061500Y-4027369D01*
X3061500Y-4131425D01*
X3077375Y-4147300D01*
X3232300Y-4147300D01*
X3232300Y-4145300D01*
X3257700Y-4145300D01*
X3257700Y-4147300D01*
X3412625Y-4147300D01*
X3428500Y-4131425D01*
X3428500Y-4027369D01*
X3418833Y-4004030D01*
X3400970Y-3986167D01*
X3377631Y-3976500D01*
X3322560Y-3976500D01*
X3348809Y-3965654D01*
X3400473Y-3914080D01*
X3409413Y-3892550D01*
X3521807Y-3892550D01*
X3638550Y-4009293D01*
X3638550Y-4982307D01*
X3576272Y-4920028D01*
X3549491Y-4902134D01*
X3517900Y-4895850D01*
X3409438Y-4895850D01*
X3400654Y-4874591D01*
X3349080Y-4822927D01*
X3302021Y-4803387D01*
X3348809Y-4784055D01*
X3400473Y-4732480D01*
X3428468Y-4665061D01*
X3428532Y-4592060D01*
X3400654Y-4524591D01*
X3349080Y-4472927D01*
X3281660Y-4444932D01*
X3208660Y-4444868D01*
X3141191Y-4472746D01*
X3089527Y-4524320D01*
X3061532Y-4591740D01*
X3061468Y-4664740D01*
X3089345Y-4732209D01*
X3140920Y-4783873D01*
X3187978Y-4803414D01*
X3141191Y-4822746D01*
X3089527Y-4874320D01*
X3061532Y-4941740D01*
X3061468Y-5014740D01*
X3089345Y-5082209D01*
X3140920Y-5133873D01*
X3167476Y-5144900D01*
X3112369Y-5144900D01*
X3089030Y-5154567D01*
X3071167Y-5172430D01*
X3061500Y-5195769D01*
X3061500Y-5299825D01*
X3077375Y-5315700D01*
X3232300Y-5315700D01*
X3232300Y-5313700D01*
X3257700Y-5313700D01*
X3257700Y-5315700D01*
X3412625Y-5315700D01*
X3428500Y-5299825D01*
X3428500Y-5195769D01*
X3418833Y-5172430D01*
X3400970Y-5154567D01*
X3377631Y-5144900D01*
X3322560Y-5144900D01*
X3348809Y-5134055D01*
X3400473Y-5082480D01*
X3409413Y-5060950D01*
X3483707Y-5060950D01*
X3575050Y-5152293D01*
X3575050Y-6150707D01*
X3512772Y-6088428D01*
X3485991Y-6070534D01*
X3454400Y-6064250D01*
X3409438Y-6064250D01*
X3400654Y-6042991D01*
X3349080Y-5991327D01*
X3302021Y-5971786D01*
X3348809Y-5952454D01*
X3400473Y-5900880D01*
X3428468Y-5833460D01*
X3428532Y-5760460D01*
X3400654Y-5692991D01*
X3349080Y-5641327D01*
X3281660Y-5613332D01*
X3208660Y-5613268D01*
X3141191Y-5641145D01*
X3089527Y-5692720D01*
X3061532Y-5760139D01*
X3061468Y-5833140D01*
X3089345Y-5900609D01*
X3140920Y-5952273D01*
X3187978Y-5971813D01*
X3141191Y-5991145D01*
X3089527Y-6042720D01*
X3061532Y-6110139D01*
X3061468Y-6183140D01*
X3089345Y-6250609D01*
X3140920Y-6302273D01*
X3167476Y-6313300D01*
X3112369Y-6313300D01*
X3089030Y-6322967D01*
X3071167Y-6340830D01*
X3061500Y-6364169D01*
X3061500Y-6468225D01*
X3077375Y-6484100D01*
X3232300Y-6484100D01*
X3232300Y-6482100D01*
X3257700Y-6482100D01*
X3257700Y-6484100D01*
X3412625Y-6484100D01*
X3428500Y-6468225D01*
X3428500Y-6364169D01*
X3418833Y-6340830D01*
X3400970Y-6322967D01*
X3377631Y-6313300D01*
X3322560Y-6313300D01*
X3348809Y-6302454D01*
X3400473Y-6250880D01*
X3409413Y-6229350D01*
X3420207Y-6229350D01*
X3511550Y-6320693D01*
X3511550Y-6642100D01*
X3517834Y-6673691D01*
X3535728Y-6700472D01*
X3662728Y-6827471D01*
X3662728Y-6827472D01*
X3670403Y-6832600D01*
X3689509Y-6845366D01*
X3721100Y-6851650D01*
X3986110Y-6851650D01*
X4000630Y-6873381D01*
X4034631Y-6896100D01*
X4000630Y-6918819D01*
X3986110Y-6940550D01*
X3784600Y-6940550D01*
X3784600Y-6940550D01*
X3753009Y-6946834D01*
X3726228Y-6964728D01*
X3458307Y-7232650D01*
X3409438Y-7232650D01*
X3400654Y-7211391D01*
X3349080Y-7159727D01*
X3302021Y-7140186D01*
X3348809Y-7120854D01*
X3400473Y-7069280D01*
X3428468Y-7001860D01*
X3428532Y-6928860D01*
X3400654Y-6861391D01*
X3349080Y-6809727D01*
X3281660Y-6781732D01*
X3208660Y-6781668D01*
X3141191Y-6809545D01*
X3089527Y-6861120D01*
X3061532Y-6928539D01*
X3061468Y-7001540D01*
X3089345Y-7069009D01*
X3140920Y-7120673D01*
X3187978Y-7140213D01*
X3141191Y-7159545D01*
X3089527Y-7211120D01*
X3061532Y-7278539D01*
X3061468Y-7351540D01*
X3089345Y-7419009D01*
X3140920Y-7470673D01*
X3167476Y-7481700D01*
X3112369Y-7481700D01*
X3089030Y-7491367D01*
X3071167Y-7509230D01*
X3061500Y-7532569D01*
X3061500Y-7636625D01*
X3077375Y-7652500D01*
X3232300Y-7652500D01*
X3232300Y-7650500D01*
X3257700Y-7650500D01*
X3257700Y-7652500D01*
X3412625Y-7652500D01*
X3428500Y-7636625D01*
X3428500Y-7532569D01*
X3418833Y-7509230D01*
X3400970Y-7491367D01*
X3377631Y-7481700D01*
X3322560Y-7481700D01*
X3348809Y-7470854D01*
X3400473Y-7419280D01*
X3409413Y-7397750D01*
X3492500Y-7397750D01*
X3524091Y-7391466D01*
X3550872Y-7373572D01*
X3818793Y-7105650D01*
X3986110Y-7105650D01*
X4000630Y-7127381D01*
X4034631Y-7150100D01*
X4000630Y-7172819D01*
X3986110Y-7194550D01*
X3784600Y-7194550D01*
X3753009Y-7200834D01*
X3742518Y-7207844D01*
X3726228Y-7218728D01*
X3726228Y-7218729D01*
X3599228Y-7345728D01*
X3581334Y-7372509D01*
X3581334Y-7372509D01*
X3575050Y-7404100D01*
X3575050Y-8322407D01*
X3496407Y-8401050D01*
X3409438Y-8401050D01*
X3400654Y-8379791D01*
X3349080Y-8328127D01*
X3302021Y-8308586D01*
X3348809Y-8289254D01*
X3400473Y-8237680D01*
X3428468Y-8170260D01*
X3428532Y-8097260D01*
X3400654Y-8029791D01*
X3349080Y-7978127D01*
X3281660Y-7950132D01*
X3208660Y-7950068D01*
X3141191Y-7977945D01*
X3089527Y-8029520D01*
X3061532Y-8096939D01*
X3061468Y-8169940D01*
X3089345Y-8237409D01*
X3140920Y-8289073D01*
X3187978Y-8308613D01*
X3141191Y-8327945D01*
X3089527Y-8379520D01*
X3061532Y-8446940D01*
X3061468Y-8519940D01*
X3089345Y-8587409D01*
X3140920Y-8639073D01*
X3167476Y-8650100D01*
X3112369Y-8650100D01*
X3089030Y-8659767D01*
X3071167Y-8677630D01*
X3061500Y-8700969D01*
X3061500Y-8805025D01*
X3077375Y-8820900D01*
X3232300Y-8820900D01*
X3232300Y-8818900D01*
X3257700Y-8818900D01*
X3257700Y-8820900D01*
X3412625Y-8820900D01*
X3428500Y-8805025D01*
X3428500Y-8700969D01*
X3418833Y-8677630D01*
X3400970Y-8659767D01*
X3377631Y-8650100D01*
X3322560Y-8650100D01*
X3348809Y-8639255D01*
X3400473Y-8587680D01*
X3409413Y-8566150D01*
X3530600Y-8566150D01*
X3562191Y-8559866D01*
X3588972Y-8541972D01*
X3715971Y-8414972D01*
X3715972Y-8414972D01*
X3729604Y-8394570D01*
X3733866Y-8388191D01*
X3740150Y-8356600D01*
X3740150Y-7438293D01*
X3818793Y-7359650D01*
X3986110Y-7359650D01*
X4000630Y-7381381D01*
X4047185Y-7412488D01*
X4102100Y-7423411D01*
X4157015Y-7412488D01*
X4203570Y-7381381D01*
X4218090Y-7359650D01*
X4452393Y-7359650D01*
X4465035Y-7378570D01*
X4503244Y-7404100D01*
X4465035Y-7429630D01*
X4433928Y-7476185D01*
X4423005Y-7531100D01*
X4433928Y-7586015D01*
X4465035Y-7632570D01*
X4503244Y-7658100D01*
X4465035Y-7683630D01*
X4433928Y-7730185D01*
X4423005Y-7785100D01*
X4433928Y-7840015D01*
X4465035Y-7886570D01*
X4511590Y-7917677D01*
X4566505Y-7928600D01*
X4653695Y-7928600D01*
X4708610Y-7917677D01*
X4755165Y-7886570D01*
X4786272Y-7840015D01*
X4797195Y-7785100D01*
X4786272Y-7730185D01*
X4755165Y-7683630D01*
X4716956Y-7658100D01*
X4755165Y-7632570D01*
X4772050Y-7607300D01*
X4832537Y-7607300D01*
X4937218Y-7711981D01*
X4959289Y-7726728D01*
X4961940Y-7728500D01*
X4991100Y-7734300D01*
X5187356Y-7734300D01*
X5187356Y-7865100D01*
X5192284Y-7889876D01*
X5206319Y-7910881D01*
X5227324Y-7924916D01*
X5252100Y-7929844D01*
X5283200Y-7929844D01*
X5283200Y-8122739D01*
X5254080Y-8093620D01*
X5249960Y-8090867D01*
X5245100Y-8089900D01*
X4483100Y-8089900D01*
X4478240Y-8090867D01*
X4474120Y-8093620D01*
X4410620Y-8157120D01*
X4407867Y-8161240D01*
X4406900Y-8166100D01*
X4406900Y-8420100D01*
X4407867Y-8424960D01*
X4410620Y-8429080D01*
X4474120Y-8492580D01*
X4478240Y-8495333D01*
X4483100Y-8496300D01*
X5245100Y-8496300D01*
X5249960Y-8495333D01*
X5254080Y-8492580D01*
X5317580Y-8429080D01*
X5320333Y-8424960D01*
X5321300Y-8420100D01*
X5321300Y-8342624D01*
X5434962Y-8228962D01*
X5454233Y-8200121D01*
X5461000Y-8166100D01*
X5461000Y-7929844D01*
X5492100Y-7929844D01*
X5516877Y-7924916D01*
X5537881Y-7910881D01*
X5551916Y-7889876D01*
X5556844Y-7865100D01*
X5556844Y-7734300D01*
X6134100Y-7734300D01*
X6163260Y-7728500D01*
X6187981Y-7711981D01*
X6292663Y-7607300D01*
X7230371Y-7607300D01*
X7222185Y-7608928D01*
X7175630Y-7640035D01*
X7144523Y-7686590D01*
X7133600Y-7741505D01*
X7133600Y-7828695D01*
X7144523Y-7883610D01*
X7175630Y-7930165D01*
X7188200Y-7938564D01*
X7188200Y-8181353D01*
X7172819Y-8191630D01*
X7165694Y-8202293D01*
X7162916Y-8188323D01*
X7148881Y-8167319D01*
X7127876Y-8153284D01*
X7108692Y-8149468D01*
X7105233Y-8132079D01*
X7085962Y-8103238D01*
X6958962Y-7976238D01*
X6943612Y-7965982D01*
X6930121Y-7956967D01*
X6896100Y-7950200D01*
X6324600Y-7950200D01*
X6290579Y-7956967D01*
X6277088Y-7965982D01*
X6261738Y-7976238D01*
X6134738Y-8103238D01*
X6115467Y-8132079D01*
X6108700Y-8166100D01*
X6108700Y-8174424D01*
X6092595Y-8185185D01*
X6089660Y-8189578D01*
X6088416Y-8183323D01*
X6074381Y-8162319D01*
X6053376Y-8148284D01*
X6028600Y-8143356D01*
X5858600Y-8143356D01*
X5833823Y-8148284D01*
X5812819Y-8162319D01*
X5798784Y-8183323D01*
X5793856Y-8208100D01*
X5793856Y-8378100D01*
X5798784Y-8402877D01*
X5812819Y-8423881D01*
X5833823Y-8437916D01*
X5858600Y-8442844D01*
X6028600Y-8442844D01*
X6053376Y-8437916D01*
X6074381Y-8423881D01*
X6088416Y-8402877D01*
X6089660Y-8396622D01*
X6092595Y-8401015D01*
X6140771Y-8433205D01*
X6197600Y-8444509D01*
X6254428Y-8433205D01*
X6302605Y-8401015D01*
X6325370Y-8366945D01*
X6332082Y-8381236D01*
X6374908Y-8420265D01*
X6415911Y-8437248D01*
X6438900Y-8425116D01*
X6438900Y-8305800D01*
X6464300Y-8305800D01*
X6464300Y-8425116D01*
X6487289Y-8437248D01*
X6528292Y-8420265D01*
X6571118Y-8381236D01*
X6595749Y-8328789D01*
X6583682Y-8305800D01*
X6464300Y-8305800D01*
X6438900Y-8305800D01*
X6436900Y-8305800D01*
X6436900Y-8280400D01*
X6438900Y-8280400D01*
X6438900Y-8161084D01*
X6464300Y-8161084D01*
X6464300Y-8280400D01*
X6583682Y-8280400D01*
X6595749Y-8257411D01*
X6571118Y-8204964D01*
X6528292Y-8165935D01*
X6487289Y-8148952D01*
X6464300Y-8161084D01*
X6438900Y-8161084D01*
X6415911Y-8148952D01*
X6374908Y-8165935D01*
X6332082Y-8204964D01*
X6325370Y-8219255D01*
X6303259Y-8186164D01*
X6361424Y-8128000D01*
X6859276Y-8128000D01*
X6898084Y-8166808D01*
X6897319Y-8167319D01*
X6883284Y-8188323D01*
X6878356Y-8213100D01*
X6878356Y-8373100D01*
X6883284Y-8397877D01*
X6897319Y-8418881D01*
X6918323Y-8432916D01*
X6943100Y-8437844D01*
X7103100Y-8437844D01*
X7127876Y-8432916D01*
X7148881Y-8418881D01*
X7162916Y-8397877D01*
X7165694Y-8383907D01*
X7172819Y-8394570D01*
X7219374Y-8425677D01*
X7274289Y-8436600D01*
X7279911Y-8436600D01*
X7334826Y-8425677D01*
X7381381Y-8394570D01*
X7404100Y-8360569D01*
X7426819Y-8394570D01*
X7473374Y-8425677D01*
X7528289Y-8436600D01*
X7533911Y-8436600D01*
X7588826Y-8425677D01*
X7635381Y-8394570D01*
X7658100Y-8360569D01*
X7680819Y-8394570D01*
X7702550Y-8409090D01*
X7702550Y-8512907D01*
X7623907Y-8591550D01*
X6642100Y-8591550D01*
X6610509Y-8597834D01*
X6583728Y-8615728D01*
X6487728Y-8711728D01*
X6469834Y-8738509D01*
X6465895Y-8758309D01*
X6463550Y-8770100D01*
X6463550Y-8884162D01*
X6442291Y-8892946D01*
X6390627Y-8944520D01*
X6371086Y-8991579D01*
X6351754Y-8944791D01*
X6300180Y-8893127D01*
X6232760Y-8865132D01*
X6159760Y-8865068D01*
X6092291Y-8892946D01*
X6040627Y-8944520D01*
X6012632Y-9011940D01*
X6012568Y-9084940D01*
X6040445Y-9152409D01*
X6092020Y-9204073D01*
X6159439Y-9232068D01*
X6232440Y-9232132D01*
X6299909Y-9204255D01*
X6351573Y-9152680D01*
X6371113Y-9105622D01*
X6390445Y-9152409D01*
X6442020Y-9204073D01*
X6509439Y-9232068D01*
X6582440Y-9232132D01*
X6649909Y-9204255D01*
X6701573Y-9152680D01*
X6721113Y-9105622D01*
X6740445Y-9152409D01*
X6792020Y-9204073D01*
X6859439Y-9232068D01*
X6932440Y-9232132D01*
X6999909Y-9204255D01*
X7051573Y-9152680D01*
X7062600Y-9126124D01*
X7062600Y-9181231D01*
X7072267Y-9204570D01*
X7090130Y-9222433D01*
X7113469Y-9232100D01*
X7217525Y-9232100D01*
X7233400Y-9216225D01*
X7233400Y-9061300D01*
X7258800Y-9061300D01*
X7258800Y-9216225D01*
X7274675Y-9232100D01*
X7378731Y-9232100D01*
X7402070Y-9222433D01*
X7419933Y-9204570D01*
X7429600Y-9181231D01*
X7429600Y-9077175D01*
X7413725Y-9061300D01*
X7258800Y-9061300D01*
X7233400Y-9061300D01*
X7231400Y-9061300D01*
X7231400Y-9035900D01*
X7233400Y-9035900D01*
X7233400Y-8880975D01*
X7258800Y-8880975D01*
X7258800Y-9035900D01*
X7413725Y-9035900D01*
X7429600Y-9020025D01*
X7429600Y-8915969D01*
X7419933Y-8892630D01*
X7402070Y-8874767D01*
X7378731Y-8865100D01*
X7274675Y-8865100D01*
X7258800Y-8880975D01*
X7233400Y-8880975D01*
X7217525Y-8865100D01*
X7113469Y-8865100D01*
X7090130Y-8874767D01*
X7072267Y-8892630D01*
X7062600Y-8915969D01*
X7062600Y-8971040D01*
X7051754Y-8944791D01*
X7000180Y-8893127D01*
X6988971Y-8888473D01*
X7057293Y-8820150D01*
X7912100Y-8820150D01*
X7943691Y-8813866D01*
X7970472Y-8795972D01*
X8097471Y-8668972D01*
X8097472Y-8668972D01*
X8108199Y-8652918D01*
X8115366Y-8642191D01*
X8121650Y-8610600D01*
X8121650Y-8409090D01*
X8143381Y-8394570D01*
X8166100Y-8360569D01*
X8188819Y-8394570D01*
X8210550Y-8409090D01*
X8210550Y-8576407D01*
X8006128Y-8780828D01*
X7988234Y-8807609D01*
X7984084Y-8828472D01*
X7981950Y-8839200D01*
X7981950Y-8884162D01*
X7960691Y-8892946D01*
X7909027Y-8944520D01*
X7889486Y-8991579D01*
X7870154Y-8944791D01*
X7818580Y-8893127D01*
X7751160Y-8865132D01*
X7678160Y-8865068D01*
X7610691Y-8892946D01*
X7559027Y-8944520D01*
X7531032Y-9011940D01*
X7530968Y-9084940D01*
X7558845Y-9152409D01*
X7610420Y-9204073D01*
X7677839Y-9232068D01*
X7750840Y-9232132D01*
X7818309Y-9204255D01*
X7869973Y-9152680D01*
X7889513Y-9105622D01*
X7908845Y-9152409D01*
X7960420Y-9204073D01*
X8027839Y-9232068D01*
X8100840Y-9232132D01*
X8168309Y-9204255D01*
X8219973Y-9152680D01*
X8239513Y-9105622D01*
X8258845Y-9152409D01*
X8310420Y-9204073D01*
X8377839Y-9232068D01*
X8450840Y-9232132D01*
X8518309Y-9204255D01*
X8569973Y-9152680D01*
X8581000Y-9126124D01*
X8581000Y-9181231D01*
X8590667Y-9204570D01*
X8608530Y-9222433D01*
X8631869Y-9232100D01*
X8735925Y-9232100D01*
X8751800Y-9216225D01*
X8751800Y-9061300D01*
X8777200Y-9061300D01*
X8777200Y-9216225D01*
X8793075Y-9232100D01*
X8897131Y-9232100D01*
X8920470Y-9222433D01*
X8938333Y-9204570D01*
X8948000Y-9181231D01*
X8948000Y-9077175D01*
X8932125Y-9061300D01*
X8777200Y-9061300D01*
X8751800Y-9061300D01*
X8749800Y-9061300D01*
X8749800Y-9035900D01*
X8751800Y-9035900D01*
X8751800Y-8880975D01*
X8777200Y-8880975D01*
X8777200Y-9035900D01*
X8932125Y-9035900D01*
X8948000Y-9020025D01*
X8948000Y-8915969D01*
X8938333Y-8892630D01*
X8920470Y-8874767D01*
X8897131Y-8865100D01*
X8793075Y-8865100D01*
X8777200Y-8880975D01*
X8751800Y-8880975D01*
X8735925Y-8865100D01*
X8631869Y-8865100D01*
X8608530Y-8874767D01*
X8590667Y-8892630D01*
X8581000Y-8915969D01*
X8581000Y-8971040D01*
X8570155Y-8944791D01*
X8518580Y-8893127D01*
X8497050Y-8884187D01*
X8497050Y-8777393D01*
X8605472Y-8668972D01*
X8623366Y-8642191D01*
X8629650Y-8610600D01*
X8629650Y-8409090D01*
X8651381Y-8394570D01*
X8674100Y-8360569D01*
X8696819Y-8394570D01*
X8718550Y-8409090D01*
X8718550Y-8610600D01*
X8724834Y-8642191D01*
X8742728Y-8668972D01*
X8869728Y-8795971D01*
X8869728Y-8795972D01*
X8885078Y-8806228D01*
X8896509Y-8813866D01*
X8928100Y-8820150D01*
X9465407Y-8820150D01*
X9500350Y-8855093D01*
X9500350Y-8884162D01*
X9479091Y-8892946D01*
X9427427Y-8944520D01*
X9407887Y-8991579D01*
X9388555Y-8944791D01*
X9336980Y-8893127D01*
X9269561Y-8865132D01*
X9196560Y-8865068D01*
X9129091Y-8892946D01*
X9077427Y-8944520D01*
X9049432Y-9011940D01*
X9049368Y-9084940D01*
X9077246Y-9152409D01*
X9128820Y-9204073D01*
X9196240Y-9232068D01*
X9269240Y-9232132D01*
X9336709Y-9204255D01*
X9388373Y-9152680D01*
X9407914Y-9105622D01*
X9427246Y-9152409D01*
X9478820Y-9204073D01*
X9546240Y-9232068D01*
X9619240Y-9232132D01*
X9686709Y-9204255D01*
X9738373Y-9152680D01*
X9757914Y-9105622D01*
X9777246Y-9152409D01*
X9828820Y-9204073D01*
X9896240Y-9232068D01*
X9969240Y-9232132D01*
X10036709Y-9204255D01*
X10088373Y-9152680D01*
X10099400Y-9126124D01*
X10099400Y-9181231D01*
X10109067Y-9204570D01*
X10126930Y-9222433D01*
X10150269Y-9232100D01*
X10254325Y-9232100D01*
X10270200Y-9216225D01*
X10270200Y-9061300D01*
X10295600Y-9061300D01*
X10295600Y-9216225D01*
X10311475Y-9232100D01*
X10415531Y-9232100D01*
X10438870Y-9222433D01*
X10456733Y-9204570D01*
X10466400Y-9181231D01*
X10466400Y-9077175D01*
X10450525Y-9061300D01*
X10295600Y-9061300D01*
X10270200Y-9061300D01*
X10268200Y-9061300D01*
X10268200Y-9035900D01*
X10270200Y-9035900D01*
X10270200Y-8880975D01*
X10295600Y-8880975D01*
X10295600Y-9035900D01*
X10450525Y-9035900D01*
X10466400Y-9020025D01*
X10466400Y-8915969D01*
X10456733Y-8892630D01*
X10438870Y-8874767D01*
X10415531Y-8865100D01*
X10311475Y-8865100D01*
X10295600Y-8880975D01*
X10270200Y-8880975D01*
X10254325Y-8865100D01*
X10150269Y-8865100D01*
X10126930Y-8874767D01*
X10109067Y-8892630D01*
X10099400Y-8915969D01*
X10099400Y-8971040D01*
X10088555Y-8944791D01*
X10036980Y-8893127D01*
X10015450Y-8884187D01*
X10015450Y-8789900D01*
X10015138Y-8788334D01*
X10009166Y-8758309D01*
X10000028Y-8744634D01*
X9991272Y-8731528D01*
X9991271Y-8731528D01*
X9875472Y-8615728D01*
X9848691Y-8597834D01*
X9817100Y-8591550D01*
X9216293Y-8591550D01*
X9137650Y-8512907D01*
X9137650Y-8409090D01*
X9159381Y-8394570D01*
X9190488Y-8348015D01*
X9201411Y-8293100D01*
X9190488Y-8238185D01*
X9159381Y-8191630D01*
X9144000Y-8181353D01*
X9144000Y-7938564D01*
X9156570Y-7930165D01*
X9182100Y-7891956D01*
X9207630Y-7930165D01*
X9254185Y-7961272D01*
X9309100Y-7972195D01*
X9364015Y-7961272D01*
X9410570Y-7930165D01*
X9435851Y-7892329D01*
X9470610Y-7935550D01*
X9519918Y-7962537D01*
X9528196Y-7964290D01*
X9550400Y-7952091D01*
X9550400Y-7797800D01*
X9575800Y-7797800D01*
X9575800Y-7952091D01*
X9598004Y-7964290D01*
X9606282Y-7962537D01*
X9655590Y-7935550D01*
X9690817Y-7891748D01*
X9706600Y-7837800D01*
X9706600Y-7797800D01*
X9575800Y-7797800D01*
X9550400Y-7797800D01*
X9548400Y-7797800D01*
X9548400Y-7772400D01*
X9550400Y-7772400D01*
X9550400Y-7618108D01*
X9575800Y-7618108D01*
X9575800Y-7772400D01*
X9706600Y-7772400D01*
X9706600Y-7732400D01*
X9690817Y-7678452D01*
X9655590Y-7634650D01*
X9606282Y-7607663D01*
X9598004Y-7605910D01*
X9575800Y-7618108D01*
X9550400Y-7618108D01*
X9528196Y-7605910D01*
X9519918Y-7607663D01*
X9470610Y-7634650D01*
X9435851Y-7677871D01*
X9410570Y-7640035D01*
X9385300Y-7623150D01*
X9385300Y-7594600D01*
X9379500Y-7565439D01*
X9372883Y-7555538D01*
X9362982Y-7540718D01*
X9299482Y-7477218D01*
X9288962Y-7470189D01*
X9274761Y-7460700D01*
X9245600Y-7454900D01*
X6318063Y-7454900D01*
X7499163Y-6273800D01*
X7982137Y-6273800D01*
X7477219Y-6778718D01*
X7477218Y-6778718D01*
X7460700Y-6803439D01*
X7454900Y-6832600D01*
X7454900Y-6861150D01*
X7429630Y-6878035D01*
X7404100Y-6916244D01*
X7378570Y-6878035D01*
X7332015Y-6846928D01*
X7277100Y-6836005D01*
X7222185Y-6846928D01*
X7175630Y-6878035D01*
X7144523Y-6924590D01*
X7133600Y-6979505D01*
X7133600Y-7066695D01*
X7144523Y-7121610D01*
X7175630Y-7168165D01*
X7222185Y-7199272D01*
X7277100Y-7210195D01*
X7332015Y-7199272D01*
X7378570Y-7168165D01*
X7404100Y-7129956D01*
X7429630Y-7168165D01*
X7476185Y-7199272D01*
X7531100Y-7210195D01*
X7586015Y-7199272D01*
X7632570Y-7168165D01*
X7658100Y-7129956D01*
X7683630Y-7168165D01*
X7730185Y-7199272D01*
X7785100Y-7210195D01*
X7840015Y-7199272D01*
X7886570Y-7168165D01*
X7912100Y-7129956D01*
X7937630Y-7168165D01*
X7984185Y-7199272D01*
X8039100Y-7210195D01*
X8094015Y-7199272D01*
X8140570Y-7168165D01*
X8166100Y-7129956D01*
X8191630Y-7168165D01*
X8238185Y-7199272D01*
X8293100Y-7210195D01*
X8348015Y-7199272D01*
X8394570Y-7168165D01*
X8420100Y-7129956D01*
X8445630Y-7168165D01*
X8492185Y-7199272D01*
X8547100Y-7210195D01*
X8602015Y-7199272D01*
X8648570Y-7168165D01*
X8674100Y-7129956D01*
X8699630Y-7168165D01*
X8746185Y-7199272D01*
X8801100Y-7210195D01*
X8856015Y-7199272D01*
X8902570Y-7168165D01*
X8928100Y-7129956D01*
X8953630Y-7168165D01*
X9000185Y-7199272D01*
X9055100Y-7210195D01*
X9110015Y-7199272D01*
X9156570Y-7168165D01*
X9182100Y-7129956D01*
X9207630Y-7168165D01*
X9254185Y-7199272D01*
X9309100Y-7210195D01*
X9364015Y-7199272D01*
X9410570Y-7168165D01*
X9420412Y-7153435D01*
X9423284Y-7167876D01*
X9437319Y-7188881D01*
X9458324Y-7202916D01*
X9483100Y-7207844D01*
X9643100Y-7207844D01*
X9667877Y-7202916D01*
X9688881Y-7188881D01*
X9702916Y-7167876D01*
X9707844Y-7143100D01*
X9707844Y-7112000D01*
X9900739Y-7112000D01*
X9871620Y-7141120D01*
X9868867Y-7145240D01*
X9867900Y-7150100D01*
X9867900Y-7912100D01*
X9868867Y-7916960D01*
X9871620Y-7921080D01*
X9935120Y-7984580D01*
X9939240Y-7987333D01*
X9944100Y-7988300D01*
X10198100Y-7988300D01*
X10202960Y-7987333D01*
X10207080Y-7984580D01*
X10248900Y-7942761D01*
X10248900Y-8039100D01*
X10254700Y-8068260D01*
X10260674Y-8077200D01*
X10271219Y-8092981D01*
X10398218Y-8219981D01*
X10420289Y-8234728D01*
X10422940Y-8236500D01*
X10452100Y-8242300D01*
X11429440Y-8242300D01*
X11443962Y-8264034D01*
X11488895Y-8294057D01*
X11541897Y-8304600D01*
X11598303Y-8304600D01*
X11651305Y-8294057D01*
X11696237Y-8264034D01*
X11709862Y-8243644D01*
X11714284Y-8265876D01*
X11728319Y-8286881D01*
X11749323Y-8300916D01*
X11774100Y-8305844D01*
X11974100Y-8305844D01*
X11998876Y-8300916D01*
X12019881Y-8286881D01*
X12033916Y-8265876D01*
X12038844Y-8241100D01*
X12038844Y-8091100D01*
X12033916Y-8066323D01*
X12019881Y-8045319D01*
X11998876Y-8031284D01*
X11975418Y-8026618D01*
X12000237Y-8010034D01*
X12030260Y-7965102D01*
X12040803Y-7912100D01*
X12030260Y-7859098D01*
X12000237Y-7814166D01*
X11956738Y-7785100D01*
X12000237Y-7756034D01*
X12030260Y-7711102D01*
X12040803Y-7658100D01*
X12030260Y-7605098D01*
X12000237Y-7560166D01*
X11956738Y-7531100D01*
X12000237Y-7502034D01*
X12030260Y-7457102D01*
X12040803Y-7404100D01*
X12030260Y-7351098D01*
X12000237Y-7306166D01*
X11956738Y-7277100D01*
X12000237Y-7248034D01*
X12030260Y-7203102D01*
X12040803Y-7150100D01*
X12030260Y-7097098D01*
X12000237Y-7052166D01*
X11956738Y-7023100D01*
X12000237Y-6994034D01*
X12030260Y-6949102D01*
X12040803Y-6896100D01*
X12030260Y-6843098D01*
X12000237Y-6798166D01*
X11956738Y-6769100D01*
X12000237Y-6740034D01*
X12030260Y-6695102D01*
X12040803Y-6642100D01*
X12030260Y-6589098D01*
X12000237Y-6544166D01*
X11956738Y-6515100D01*
X12000237Y-6486034D01*
X12030260Y-6441102D01*
X12040803Y-6388100D01*
X12030260Y-6335098D01*
X12000237Y-6290166D01*
X11956738Y-6261100D01*
X12000237Y-6232034D01*
X12030260Y-6187102D01*
X12040803Y-6134100D01*
X12030260Y-6081098D01*
X12000237Y-6036166D01*
X11956738Y-6007100D01*
X12000237Y-5978034D01*
X12030260Y-5933102D01*
X12040803Y-5880100D01*
X12030260Y-5827098D01*
X12000237Y-5782166D01*
X11956738Y-5753100D01*
X12000237Y-5724034D01*
X12030260Y-5679102D01*
X12040803Y-5626100D01*
X12030260Y-5573098D01*
X12000237Y-5528166D01*
X11956738Y-5499100D01*
X12000237Y-5470034D01*
X12030260Y-5425102D01*
X12040803Y-5372100D01*
X12030260Y-5319098D01*
X12000237Y-5274166D01*
X11956738Y-5245100D01*
X12000237Y-5216034D01*
X12030260Y-5171102D01*
X12040803Y-5118100D01*
X12030260Y-5065098D01*
X12000237Y-5020166D01*
X11955305Y-4990143D01*
X11902303Y-4979600D01*
X11845897Y-4979600D01*
X11792895Y-4990143D01*
X11747962Y-5020166D01*
X11722100Y-5058872D01*
X11696237Y-5020166D01*
X11651305Y-4990143D01*
X11598303Y-4979600D01*
X11541897Y-4979600D01*
X11488895Y-4990143D01*
X11443962Y-5020166D01*
X11429440Y-5041900D01*
X9467663Y-5041900D01*
X9385300Y-4959537D01*
X9385300Y-4876800D01*
X9453926Y-4876800D01*
X9466086Y-4894999D01*
X9509396Y-4923938D01*
X9560485Y-4934100D01*
X9565715Y-4934100D01*
X9616804Y-4923938D01*
X9660114Y-4894999D01*
X9689053Y-4851688D01*
X9693956Y-4827038D01*
X10191577Y-4827038D01*
X10211858Y-4876123D01*
X10249380Y-4913710D01*
X10298429Y-4934077D01*
X10351538Y-4934123D01*
X10400623Y-4913842D01*
X10438210Y-4876320D01*
X10458577Y-4827271D01*
X10458623Y-4774162D01*
X10438342Y-4725077D01*
X10400820Y-4687490D01*
X10351771Y-4667123D01*
X10298662Y-4667077D01*
X10249577Y-4687358D01*
X10211990Y-4724880D01*
X10191623Y-4773929D01*
X10191577Y-4827038D01*
X9693956Y-4827038D01*
X9699215Y-4800600D01*
X9689053Y-4749512D01*
X9660114Y-4706201D01*
X9616804Y-4677262D01*
X9565715Y-4667100D01*
X9560485Y-4667100D01*
X9509396Y-4677262D01*
X9466086Y-4706201D01*
X9453926Y-4724400D01*
X9101829Y-4724400D01*
X9110015Y-4722772D01*
X9156570Y-4691665D01*
X9187677Y-4645110D01*
X9198600Y-4590195D01*
X9198600Y-4503005D01*
X9187677Y-4448090D01*
X9156570Y-4401535D01*
X9137650Y-4388893D01*
X9137650Y-4154590D01*
X9159381Y-4140070D01*
X9166506Y-4129407D01*
X9169284Y-4143376D01*
X9183319Y-4164381D01*
X9204324Y-4178416D01*
X9229100Y-4183344D01*
X9389100Y-4183344D01*
X9413877Y-4178416D01*
X9434881Y-4164381D01*
X9448916Y-4143376D01*
X9453844Y-4118600D01*
X9453844Y-3958600D01*
X9448916Y-3933823D01*
X9434881Y-3912819D01*
X9413877Y-3898784D01*
X9398000Y-3895626D01*
X9398000Y-3884924D01*
X9472924Y-3810000D01*
X9907276Y-3810000D01*
X9982200Y-3884924D01*
X9982200Y-3919924D01*
X9966095Y-3930685D01*
X9963160Y-3935078D01*
X9961916Y-3928823D01*
X9947881Y-3907819D01*
X9926877Y-3893784D01*
X9902100Y-3888856D01*
X9732100Y-3888856D01*
X9707324Y-3893784D01*
X9686319Y-3907819D01*
X9672284Y-3928823D01*
X9667356Y-3953600D01*
X9667356Y-4123600D01*
X9672284Y-4148376D01*
X9686319Y-4169381D01*
X9707324Y-4183416D01*
X9732100Y-4188344D01*
X9902100Y-4188344D01*
X9926877Y-4183416D01*
X9947881Y-4169381D01*
X9961916Y-4148376D01*
X9963160Y-4142122D01*
X9966095Y-4146515D01*
X10014272Y-4178705D01*
X10071100Y-4190009D01*
X10127929Y-4178705D01*
X10176105Y-4146515D01*
X10198870Y-4112445D01*
X10205582Y-4126736D01*
X10248408Y-4165764D01*
X10289411Y-4182748D01*
X10312400Y-4170615D01*
X10312400Y-4051300D01*
X10337800Y-4051300D01*
X10337800Y-4170615D01*
X10360789Y-4182748D01*
X10401792Y-4165764D01*
X10444618Y-4126736D01*
X10469249Y-4074289D01*
X10457182Y-4051300D01*
X10337800Y-4051300D01*
X10312400Y-4051300D01*
X10310400Y-4051300D01*
X10310400Y-4025900D01*
X10312400Y-4025900D01*
X10312400Y-3906584D01*
X10337800Y-3906584D01*
X10337800Y-4025900D01*
X10457182Y-4025900D01*
X10469249Y-4002911D01*
X10444618Y-3950464D01*
X10401792Y-3911435D01*
X10360789Y-3894452D01*
X10337800Y-3906584D01*
X10312400Y-3906584D01*
X10289411Y-3894452D01*
X10248408Y-3911435D01*
X10205582Y-3950464D01*
X10198870Y-3964755D01*
X10176105Y-3930685D01*
X10160000Y-3919924D01*
X10160000Y-3848100D01*
X10153233Y-3814079D01*
X10133962Y-3785238D01*
X10006962Y-3658238D01*
X9998332Y-3652472D01*
X9978121Y-3638967D01*
X9944100Y-3632200D01*
X9436100Y-3632200D01*
X9402079Y-3638967D01*
X9381868Y-3652472D01*
X9373238Y-3658238D01*
X9246238Y-3785238D01*
X9226967Y-3814079D01*
X9220200Y-3848100D01*
X9220200Y-3895626D01*
X9204324Y-3898784D01*
X9183319Y-3912819D01*
X9169284Y-3933823D01*
X9166506Y-3947793D01*
X9159381Y-3937130D01*
X9137650Y-3922610D01*
X9137650Y-3818793D01*
X9291271Y-3665172D01*
X9291272Y-3665172D01*
X9309166Y-3638390D01*
X9311538Y-3626468D01*
X9315450Y-3606800D01*
X9315450Y-3606799D01*
X9315450Y-3409438D01*
X9336709Y-3400654D01*
X9388373Y-3349080D01*
X9407914Y-3302021D01*
X9427246Y-3348809D01*
X9478820Y-3400473D01*
X9546240Y-3428468D01*
X9619240Y-3428532D01*
X9686709Y-3400654D01*
X9738373Y-3349080D01*
X9742102Y-3340100D01*
X11189691Y-3340100D01*
X11200995Y-3396928D01*
X11233185Y-3445105D01*
X11266103Y-3467100D01*
X11233185Y-3489095D01*
X11200995Y-3537271D01*
X11189691Y-3594100D01*
X11200995Y-3650928D01*
X11233185Y-3699105D01*
X11266103Y-3721100D01*
X11233185Y-3743095D01*
X11200995Y-3791271D01*
X11189691Y-3848100D01*
X11200995Y-3904928D01*
X11233185Y-3953105D01*
X11266103Y-3975100D01*
X11233185Y-3997095D01*
X11200995Y-4045271D01*
X11189691Y-4102100D01*
X11200995Y-4158928D01*
X11233185Y-4207105D01*
X11281362Y-4239296D01*
X11338191Y-4250600D01*
X11344009Y-4250600D01*
X11400838Y-4239296D01*
X11449015Y-4207105D01*
X11481205Y-4158928D01*
X11492509Y-4102100D01*
X11481205Y-4045271D01*
X11449015Y-3997095D01*
X11416097Y-3975100D01*
X11449015Y-3953105D01*
X11459776Y-3937000D01*
X11494776Y-3937000D01*
X11722738Y-4164962D01*
X11751579Y-4184233D01*
X11785600Y-4191000D01*
X11920924Y-4191000D01*
X11931685Y-4207105D01*
X11979862Y-4239296D01*
X12036691Y-4250600D01*
X12042509Y-4250600D01*
X12099338Y-4239296D01*
X12147515Y-4207105D01*
X12179705Y-4158928D01*
X12191009Y-4102100D01*
X12179705Y-4045271D01*
X12147515Y-3997095D01*
X12113445Y-3974330D01*
X12127736Y-3967618D01*
X12166764Y-3924792D01*
X12183748Y-3883789D01*
X12171615Y-3860800D01*
X12052300Y-3860800D01*
X12052300Y-3862800D01*
X12026900Y-3862800D01*
X12026900Y-3860800D01*
X11907584Y-3860800D01*
X11895452Y-3883789D01*
X11912435Y-3924792D01*
X11951464Y-3967618D01*
X11965755Y-3974330D01*
X11931685Y-3997095D01*
X11920924Y-4013200D01*
X11822424Y-4013200D01*
X11594462Y-3785238D01*
X11584003Y-3778250D01*
X11565621Y-3765967D01*
X11531600Y-3759200D01*
X11459776Y-3759200D01*
X11449015Y-3743095D01*
X11416097Y-3721100D01*
X11449015Y-3699105D01*
X11459776Y-3683000D01*
X11890632Y-3683000D01*
X11894784Y-3703876D01*
X11908819Y-3724881D01*
X11929823Y-3738916D01*
X11940171Y-3740974D01*
X11912435Y-3771408D01*
X11895452Y-3812411D01*
X11907584Y-3835400D01*
X12026900Y-3835400D01*
X12026900Y-3833400D01*
X12052300Y-3833400D01*
X12052300Y-3835400D01*
X12171615Y-3835400D01*
X12183748Y-3812411D01*
X12166764Y-3771408D01*
X12139029Y-3740974D01*
X12149376Y-3738916D01*
X12170381Y-3724881D01*
X12184416Y-3703876D01*
X12189344Y-3679100D01*
X12189344Y-3509100D01*
X12184416Y-3484323D01*
X12170381Y-3463319D01*
X12149376Y-3449284D01*
X12124600Y-3444356D01*
X11954600Y-3444356D01*
X11929823Y-3449284D01*
X11908819Y-3463319D01*
X11894784Y-3484323D01*
X11890632Y-3505200D01*
X11459776Y-3505200D01*
X11449015Y-3489095D01*
X11416097Y-3467100D01*
X11449015Y-3445105D01*
X11481205Y-3396928D01*
X11492509Y-3340100D01*
X11481205Y-3283271D01*
X11449015Y-3235095D01*
X11413581Y-3211419D01*
X11422280Y-3207824D01*
X11462682Y-3167492D01*
X11484575Y-3114769D01*
X11484625Y-3057681D01*
X11462824Y-3004920D01*
X11423235Y-2965262D01*
X11816061Y-2965262D01*
X11850015Y-3047437D01*
X11912832Y-3110364D01*
X11994948Y-3144461D01*
X12083862Y-3144539D01*
X12166037Y-3110584D01*
X12228964Y-3047768D01*
X12263061Y-2965652D01*
X12263139Y-2876738D01*
X12229184Y-2794563D01*
X12166368Y-2731636D01*
X12084252Y-2697539D01*
X11995338Y-2697461D01*
X11913163Y-2731416D01*
X11850236Y-2794232D01*
X11816139Y-2876348D01*
X11816061Y-2965262D01*
X11423235Y-2965262D01*
X11422492Y-2964518D01*
X11369769Y-2942625D01*
X11312681Y-2942575D01*
X11259920Y-2964376D01*
X11219518Y-3004708D01*
X11197625Y-3057431D01*
X11197575Y-3114519D01*
X11219376Y-3167280D01*
X11259708Y-3207682D01*
X11268652Y-3211396D01*
X11233185Y-3235095D01*
X11200995Y-3283271D01*
X11189691Y-3340100D01*
X9742102Y-3340100D01*
X9766368Y-3281660D01*
X9766432Y-3208660D01*
X9738555Y-3141191D01*
X9686980Y-3089527D01*
X9619561Y-3061532D01*
X9546560Y-3061468D01*
X9479091Y-3089345D01*
X9427427Y-3140920D01*
X9407887Y-3187978D01*
X9388555Y-3141191D01*
X9336980Y-3089527D01*
X9269561Y-3061532D01*
X9196560Y-3061468D01*
X9129091Y-3089345D01*
X9077427Y-3140920D01*
X9066400Y-3167476D01*
X9066400Y-3112369D01*
X9056733Y-3089030D01*
X9038870Y-3071167D01*
X9015531Y-3061500D01*
X8911475Y-3061500D01*
X8895600Y-3077375D01*
X8895600Y-3232300D01*
X8897600Y-3232300D01*
X8897600Y-3257700D01*
X8895600Y-3257700D01*
X8895600Y-3412625D01*
X8911475Y-3428500D01*
X9015531Y-3428500D01*
X9038870Y-3418833D01*
X9056733Y-3400970D01*
X9066400Y-3377631D01*
X9066400Y-3322560D01*
X9077246Y-3348809D01*
X9128820Y-3400473D01*
X9150350Y-3409413D01*
X9150350Y-3572607D01*
X8996728Y-3726228D01*
X8978834Y-3753009D01*
X8976256Y-3765967D01*
X8972550Y-3784600D01*
X8972550Y-3922610D01*
X8950819Y-3937130D01*
X8928100Y-3971131D01*
X8905381Y-3937130D01*
X8883650Y-3922610D01*
X8883650Y-3721100D01*
X8880224Y-3703876D01*
X8877366Y-3689509D01*
X8864575Y-3670366D01*
X8859472Y-3662728D01*
X8859471Y-3662728D01*
X8732472Y-3535728D01*
X8705691Y-3517834D01*
X8674100Y-3511550D01*
X8263793Y-3511550D01*
X8157404Y-3405160D01*
X8168309Y-3400654D01*
X8219973Y-3349080D01*
X8239513Y-3302021D01*
X8258845Y-3348809D01*
X8310420Y-3400473D01*
X8377839Y-3428468D01*
X8450840Y-3428532D01*
X8518309Y-3400654D01*
X8569973Y-3349080D01*
X8597968Y-3281660D01*
X8597975Y-3273575D01*
X8699400Y-3273575D01*
X8699400Y-3377631D01*
X8709067Y-3400970D01*
X8726930Y-3418833D01*
X8750269Y-3428500D01*
X8854325Y-3428500D01*
X8870200Y-3412625D01*
X8870200Y-3257700D01*
X8715275Y-3257700D01*
X8699400Y-3273575D01*
X8597975Y-3273575D01*
X8598032Y-3208660D01*
X8570155Y-3141191D01*
X8541382Y-3112369D01*
X8699400Y-3112369D01*
X8699400Y-3216425D01*
X8715275Y-3232300D01*
X8870200Y-3232300D01*
X8870200Y-3077375D01*
X8854325Y-3061500D01*
X8750269Y-3061500D01*
X8726930Y-3071167D01*
X8709067Y-3089030D01*
X8699400Y-3112369D01*
X8541382Y-3112369D01*
X8518580Y-3089527D01*
X8451161Y-3061532D01*
X8378160Y-3061468D01*
X8310691Y-3089345D01*
X8259027Y-3140920D01*
X8239486Y-3187978D01*
X8220154Y-3141191D01*
X8168580Y-3089527D01*
X8101160Y-3061532D01*
X8028160Y-3061468D01*
X7960691Y-3089345D01*
X7909027Y-3140920D01*
X7898000Y-3167476D01*
X7898000Y-3112369D01*
X7888333Y-3089030D01*
X7870470Y-3071167D01*
X7847131Y-3061500D01*
X7743075Y-3061500D01*
X7727200Y-3077375D01*
X7727200Y-3232300D01*
X7729200Y-3232300D01*
X7729200Y-3257700D01*
X7727200Y-3257700D01*
X7727200Y-3412625D01*
X7743075Y-3428500D01*
X7847131Y-3428500D01*
X7870470Y-3418833D01*
X7888333Y-3400970D01*
X7898000Y-3377631D01*
X7898000Y-3322560D01*
X7908845Y-3348809D01*
X7960420Y-3400473D01*
X7981950Y-3409413D01*
X7981950Y-3429000D01*
X7988234Y-3460591D01*
X8006128Y-3487372D01*
X8093807Y-3575050D01*
X7057293Y-3575050D01*
X6978650Y-3496407D01*
X6978650Y-3409438D01*
X6999909Y-3400654D01*
X7051573Y-3349080D01*
X7071113Y-3302021D01*
X7090445Y-3348809D01*
X7142020Y-3400473D01*
X7209439Y-3428468D01*
X7282440Y-3428532D01*
X7349909Y-3400654D01*
X7401573Y-3349080D01*
X7429568Y-3281660D01*
X7429575Y-3273575D01*
X7531000Y-3273575D01*
X7531000Y-3377631D01*
X7540667Y-3400970D01*
X7558530Y-3418833D01*
X7581869Y-3428500D01*
X7685925Y-3428500D01*
X7701800Y-3412625D01*
X7701800Y-3257700D01*
X7546875Y-3257700D01*
X7531000Y-3273575D01*
X7429575Y-3273575D01*
X7429632Y-3208660D01*
X7401754Y-3141191D01*
X7372982Y-3112369D01*
X7531000Y-3112369D01*
X7531000Y-3216425D01*
X7546875Y-3232300D01*
X7701800Y-3232300D01*
X7701800Y-3077375D01*
X7685925Y-3061500D01*
X7581869Y-3061500D01*
X7558530Y-3071167D01*
X7540667Y-3089030D01*
X7531000Y-3112369D01*
X7372982Y-3112369D01*
X7350180Y-3089527D01*
X7282760Y-3061532D01*
X7209760Y-3061468D01*
X7142291Y-3089345D01*
X7090627Y-3140920D01*
X7071086Y-3187978D01*
X7051754Y-3141191D01*
X7000180Y-3089527D01*
X6932760Y-3061532D01*
X6859760Y-3061468D01*
X6792291Y-3089345D01*
X6740627Y-3140920D01*
X6729600Y-3167476D01*
X6729600Y-3112369D01*
X6719933Y-3089030D01*
X6702070Y-3071167D01*
X6678731Y-3061500D01*
X6574675Y-3061500D01*
X6558800Y-3077375D01*
X6558800Y-3232300D01*
X6560800Y-3232300D01*
X6560800Y-3257700D01*
X6558800Y-3257700D01*
X6558800Y-3412625D01*
X6574675Y-3428500D01*
X6678731Y-3428500D01*
X6702070Y-3418833D01*
X6719933Y-3400970D01*
X6729600Y-3377631D01*
X6729600Y-3322560D01*
X6740445Y-3348809D01*
X6792020Y-3400473D01*
X6813550Y-3409413D01*
X6813550Y-3530600D01*
X6819834Y-3562191D01*
X6837728Y-3588972D01*
X6887307Y-3638550D01*
X5810250Y-3638550D01*
X5810250Y-3409438D01*
X5831509Y-3400654D01*
X5883173Y-3349080D01*
X5902713Y-3302021D01*
X5922045Y-3348809D01*
X5973620Y-3400473D01*
X6041039Y-3428468D01*
X6114040Y-3428532D01*
X6181509Y-3400654D01*
X6233173Y-3349080D01*
X6261168Y-3281660D01*
X6261175Y-3273575D01*
X6362600Y-3273575D01*
X6362600Y-3377631D01*
X6372267Y-3400970D01*
X6390130Y-3418833D01*
X6413469Y-3428500D01*
X6517525Y-3428500D01*
X6533400Y-3412625D01*
X6533400Y-3257700D01*
X6378475Y-3257700D01*
X6362600Y-3273575D01*
X6261175Y-3273575D01*
X6261232Y-3208660D01*
X6233354Y-3141191D01*
X6204582Y-3112369D01*
X6362600Y-3112369D01*
X6362600Y-3216425D01*
X6378475Y-3232300D01*
X6533400Y-3232300D01*
X6533400Y-3077375D01*
X6517525Y-3061500D01*
X6413469Y-3061500D01*
X6390130Y-3071167D01*
X6372267Y-3089030D01*
X6362600Y-3112369D01*
X6204582Y-3112369D01*
X6181780Y-3089527D01*
X6114360Y-3061532D01*
X6041360Y-3061468D01*
X5973891Y-3089345D01*
X5922227Y-3140920D01*
X5902686Y-3187978D01*
X5883354Y-3141191D01*
X5831780Y-3089527D01*
X5764360Y-3061532D01*
X5691360Y-3061468D01*
X5623891Y-3089345D01*
X5572227Y-3140920D01*
X5561200Y-3167476D01*
X5561200Y-3112369D01*
X5551533Y-3089030D01*
X5533670Y-3071167D01*
X5510331Y-3061500D01*
X5406275Y-3061500D01*
X5390400Y-3077375D01*
X5390400Y-3232300D01*
X5392400Y-3232300D01*
X5392400Y-3257700D01*
X5390400Y-3257700D01*
X5390400Y-3412625D01*
X5406275Y-3428500D01*
X5510331Y-3428500D01*
X5533670Y-3418833D01*
X5551533Y-3400970D01*
X5561200Y-3377631D01*
X5561200Y-3322560D01*
X5572046Y-3348809D01*
X5623620Y-3400473D01*
X5645150Y-3409413D01*
X5645150Y-3695700D01*
X5651434Y-3727291D01*
X5669328Y-3754072D01*
X5694728Y-3779471D01*
X5694728Y-3779472D01*
X5710078Y-3789728D01*
X5721509Y-3797366D01*
X5753100Y-3803650D01*
X8131907Y-3803650D01*
X8210550Y-3882293D01*
X8210550Y-3922610D01*
X8188819Y-3937130D01*
X8157712Y-3983685D01*
X8146789Y-4038600D01*
X8157712Y-4093515D01*
X8188819Y-4140070D01*
X8210550Y-4154590D01*
X8210550Y-4388893D01*
X8191630Y-4401535D01*
X8166100Y-4439744D01*
X8140570Y-4401535D01*
X8094015Y-4370428D01*
X8039100Y-4359505D01*
X7984185Y-4370428D01*
X7937630Y-4401535D01*
X7912100Y-4439744D01*
X7886570Y-4401535D01*
X7840015Y-4370428D01*
X7785100Y-4359505D01*
X7730185Y-4370428D01*
X7683630Y-4401535D01*
X7658100Y-4439744D01*
X7632570Y-4401535D01*
X7586015Y-4370428D01*
X7531100Y-4359505D01*
X7476185Y-4370428D01*
X7429630Y-4401535D01*
X7404100Y-4439744D01*
X7378570Y-4401535D01*
X7332015Y-4370428D01*
X7277100Y-4359505D01*
X7222185Y-4370428D01*
X7175630Y-4401535D01*
X7150100Y-4439744D01*
X7124570Y-4401535D01*
X7078015Y-4370428D01*
X7023100Y-4359505D01*
X6968185Y-4370428D01*
X6921630Y-4401535D01*
X6896349Y-4439371D01*
X6861590Y-4396150D01*
X6812282Y-4369163D01*
X6804004Y-4367410D01*
X6781800Y-4379609D01*
X6781800Y-4533900D01*
X6783800Y-4533900D01*
X6783800Y-4559300D01*
X6781800Y-4559300D01*
X6781800Y-4561300D01*
X6756400Y-4561300D01*
X6756400Y-4559300D01*
X6625600Y-4559300D01*
X6625600Y-4599300D01*
X6641383Y-4653248D01*
X6676610Y-4697050D01*
X6725918Y-4724037D01*
X6727633Y-4724400D01*
X6464300Y-4724400D01*
X6464300Y-4493900D01*
X6625600Y-4493900D01*
X6625600Y-4533900D01*
X6756400Y-4533900D01*
X6756400Y-4379609D01*
X6734196Y-4367410D01*
X6725918Y-4369163D01*
X6676610Y-4396150D01*
X6641383Y-4439952D01*
X6625600Y-4493900D01*
X6464300Y-4493900D01*
X6464300Y-4419600D01*
X6463333Y-4414740D01*
X6460580Y-4410620D01*
X6397080Y-4347120D01*
X6392960Y-4344367D01*
X6388100Y-4343400D01*
X6134100Y-4343400D01*
X6129240Y-4344367D01*
X6125120Y-4347120D01*
X6061620Y-4410620D01*
X6058867Y-4414740D01*
X6057900Y-4419600D01*
X6057900Y-4724400D01*
X4991100Y-4724400D01*
X4961940Y-4730200D01*
X4937218Y-4746719D01*
X4886844Y-4797093D01*
X4886844Y-4652100D01*
X4881916Y-4627324D01*
X4867881Y-4606319D01*
X4846877Y-4592284D01*
X4840622Y-4591040D01*
X4845015Y-4588105D01*
X4877205Y-4539929D01*
X4888509Y-4483100D01*
X4877205Y-4426272D01*
X4845015Y-4378095D01*
X4812097Y-4356100D01*
X4845015Y-4334105D01*
X4877205Y-4285929D01*
X4888509Y-4229100D01*
X4877205Y-4172271D01*
X4845015Y-4124095D01*
X4796838Y-4091904D01*
X4740009Y-4080600D01*
X4734191Y-4080600D01*
X4677362Y-4091904D01*
X4629185Y-4124095D01*
X4596995Y-4172271D01*
X4585691Y-4229100D01*
X4596995Y-4285929D01*
X4629185Y-4334105D01*
X4662103Y-4356100D01*
X4629185Y-4378095D01*
X4596995Y-4426272D01*
X4585691Y-4483100D01*
X4596995Y-4539929D01*
X4629185Y-4588105D01*
X4633578Y-4591040D01*
X4627324Y-4592284D01*
X4606319Y-4606319D01*
X4592284Y-4627324D01*
X4587356Y-4652100D01*
X4587356Y-4822100D01*
X4592284Y-4846877D01*
X4606319Y-4867881D01*
X4627324Y-4881916D01*
X4652100Y-4886844D01*
X4801448Y-4886844D01*
X4793700Y-4898440D01*
X4787900Y-4927600D01*
X4787900Y-5452371D01*
X4786272Y-5444185D01*
X4755165Y-5397630D01*
X4708610Y-5366523D01*
X4653695Y-5355600D01*
X4566505Y-5355600D01*
X4511590Y-5366523D01*
X4465035Y-5397630D01*
X4452393Y-5416550D01*
X4218090Y-5416550D01*
X4203570Y-5394819D01*
X4192907Y-5387694D01*
X4206877Y-5384916D01*
X4227881Y-5370881D01*
X4241916Y-5349877D01*
X4246844Y-5325100D01*
X4246844Y-5165100D01*
X4241916Y-5140324D01*
X4227881Y-5119319D01*
X4206877Y-5105284D01*
X4182100Y-5100356D01*
X4022100Y-5100356D01*
X3997323Y-5105284D01*
X3976319Y-5119319D01*
X3975808Y-5120084D01*
X3937000Y-5081276D01*
X3937000Y-4646924D01*
X3958662Y-4625262D01*
X3957284Y-4627324D01*
X3952356Y-4652100D01*
X3952356Y-4822100D01*
X3957284Y-4846877D01*
X3971319Y-4867881D01*
X3992323Y-4881916D01*
X4017100Y-4886844D01*
X4187100Y-4886844D01*
X4211877Y-4881916D01*
X4232881Y-4867881D01*
X4246916Y-4846877D01*
X4251844Y-4822100D01*
X4251844Y-4652100D01*
X4246916Y-4627324D01*
X4232881Y-4606319D01*
X4211877Y-4592284D01*
X4205622Y-4591040D01*
X4210015Y-4588105D01*
X4242205Y-4539929D01*
X4253509Y-4483100D01*
X4242205Y-4426272D01*
X4210015Y-4378095D01*
X4175945Y-4355330D01*
X4190236Y-4348618D01*
X4229265Y-4305792D01*
X4246248Y-4264789D01*
X4234116Y-4241800D01*
X4114800Y-4241800D01*
X4114800Y-4243800D01*
X4089400Y-4243800D01*
X4089400Y-4241800D01*
X3970084Y-4241800D01*
X3957952Y-4264789D01*
X3974935Y-4305792D01*
X4013964Y-4348618D01*
X4028255Y-4355330D01*
X3994185Y-4378095D01*
X3983424Y-4394200D01*
X3975100Y-4394200D01*
X3941079Y-4400967D01*
X3935609Y-4404622D01*
X3912238Y-4420238D01*
X3803650Y-4528826D01*
X3803650Y-4193411D01*
X3957952Y-4193411D01*
X3970084Y-4216400D01*
X4089400Y-4216400D01*
X4089400Y-4097018D01*
X4114800Y-4097018D01*
X4114800Y-4216400D01*
X4234116Y-4216400D01*
X4246248Y-4193411D01*
X4229265Y-4152408D01*
X4190236Y-4109582D01*
X4137789Y-4084951D01*
X4114800Y-4097018D01*
X4089400Y-4097018D01*
X4066411Y-4084951D01*
X4013964Y-4109582D01*
X3974935Y-4152408D01*
X3957952Y-4193411D01*
X3803650Y-4193411D01*
X3803650Y-3975100D01*
X3803650Y-3975100D01*
X3797366Y-3943509D01*
X3790894Y-3933823D01*
X3779472Y-3916728D01*
X3779471Y-3916728D01*
X3614372Y-3751628D01*
X3587591Y-3733734D01*
X3556000Y-3727450D01*
X3409438Y-3727450D01*
X3400654Y-3706191D01*
X3349080Y-3654527D01*
X3302021Y-3634986D01*
X3348809Y-3615654D01*
X3400473Y-3564080D01*
X3428468Y-3496660D01*
X3428532Y-3423660D01*
X3400654Y-3356191D01*
X3349080Y-3304527D01*
X3281660Y-3276532D01*
X3208660Y-3276468D01*
X3141191Y-3304345D01*
X3089527Y-3355920D01*
X3061532Y-3423339D01*
X3061468Y-3496340D01*
X2604770Y-3496340D01*
X2604770Y-3273575D01*
X5194200Y-3273575D01*
X5194200Y-3377631D01*
X5203867Y-3400970D01*
X5221730Y-3418833D01*
X5245069Y-3428500D01*
X5349125Y-3428500D01*
X5365000Y-3412625D01*
X5365000Y-3257700D01*
X5210075Y-3257700D01*
X5194200Y-3273575D01*
X2604770Y-3273575D01*
X2604770Y-2965262D01*
X2697461Y-2965262D01*
X2731416Y-3047437D01*
X2794232Y-3110364D01*
X2876348Y-3144461D01*
X2965262Y-3144539D01*
X3043118Y-3112369D01*
X5194200Y-3112369D01*
X5194200Y-3216425D01*
X5210075Y-3232300D01*
X5365000Y-3232300D01*
X5365000Y-3077375D01*
X5349125Y-3061500D01*
X5245069Y-3061500D01*
X5221730Y-3071167D01*
X5203867Y-3089030D01*
X5194200Y-3112369D01*
X3043118Y-3112369D01*
X3047437Y-3110584D01*
X3110364Y-3047768D01*
X3144461Y-2965652D01*
X3144539Y-2876738D01*
X3110584Y-2794563D01*
X3047768Y-2731636D01*
X2965652Y-2697539D01*
X2876738Y-2697461D01*
X2794563Y-2731416D01*
X2731636Y-2794232D01*
X2697539Y-2876348D01*
X2697461Y-2965262D01*
X2604770Y-2965262D01*
X2604770Y-2604770D01*
X12355830Y-2604770D01*
X12355830Y-9688830D01*
X12355830Y-9688830D01*
G37*
X12355830Y-9688830D02*
X2604770Y-9688830D01*
X2604770Y-9416862D01*
X2697461Y-9416862D01*
X2731416Y-9499037D01*
X2794232Y-9561964D01*
X2876348Y-9596061D01*
X2965262Y-9596139D01*
X3047437Y-9562185D01*
X3110364Y-9499368D01*
X3144461Y-9417252D01*
X3144461Y-9416862D01*
X11816061Y-9416862D01*
X11850015Y-9499037D01*
X11912832Y-9561964D01*
X11994948Y-9596061D01*
X12083862Y-9596139D01*
X12166037Y-9562185D01*
X12228964Y-9499368D01*
X12263061Y-9417252D01*
X12263139Y-9328338D01*
X12229184Y-9246163D01*
X12166368Y-9183236D01*
X12084252Y-9149139D01*
X11995338Y-9149061D01*
X11913163Y-9183016D01*
X11850236Y-9245832D01*
X11816139Y-9327948D01*
X11816061Y-9416862D01*
X3144461Y-9416862D01*
X3144539Y-9328338D01*
X3110584Y-9246163D01*
X3047768Y-9183236D01*
X2965652Y-9149139D01*
X2876738Y-9149061D01*
X2794563Y-9183016D01*
X2731636Y-9245832D01*
X2697539Y-9327948D01*
X2697461Y-9416862D01*
X2604770Y-9416862D01*
X2604770Y-9084940D01*
X4494222Y-9084940D01*
X4522100Y-9152409D01*
X4573674Y-9204073D01*
X4641094Y-9232068D01*
X4714094Y-9232132D01*
X4781563Y-9204255D01*
X4833227Y-9152680D01*
X4852768Y-9105622D01*
X4872100Y-9152409D01*
X4923674Y-9204073D01*
X4991094Y-9232068D01*
X5064094Y-9232132D01*
X5131563Y-9204255D01*
X5183227Y-9152680D01*
X5202768Y-9105622D01*
X5222100Y-9152409D01*
X5273674Y-9204073D01*
X5341094Y-9232068D01*
X5414094Y-9232132D01*
X5481563Y-9204255D01*
X5533227Y-9152680D01*
X5544254Y-9126124D01*
X5544254Y-9181231D01*
X5553921Y-9204570D01*
X5571784Y-9222433D01*
X5595123Y-9232100D01*
X5699179Y-9232100D01*
X5715054Y-9216225D01*
X5715054Y-9061300D01*
X5740454Y-9061300D01*
X5740454Y-9216225D01*
X5756329Y-9232100D01*
X5860385Y-9232100D01*
X5883724Y-9222433D01*
X5901587Y-9204570D01*
X5911254Y-9181231D01*
X5911254Y-9077175D01*
X5895379Y-9061300D01*
X5740454Y-9061300D01*
X5715054Y-9061300D01*
X5713054Y-9061300D01*
X5713054Y-9035900D01*
X5715054Y-9035900D01*
X5715054Y-8880975D01*
X5740454Y-8880975D01*
X5740454Y-9035900D01*
X5895379Y-9035900D01*
X5911254Y-9020025D01*
X5911254Y-8915969D01*
X5901587Y-8892630D01*
X5883724Y-8874767D01*
X5860385Y-8865100D01*
X5756329Y-8865100D01*
X5740454Y-8880975D01*
X5715054Y-8880975D01*
X5699179Y-8865100D01*
X5595123Y-8865100D01*
X5571784Y-8874767D01*
X5553921Y-8892630D01*
X5544254Y-8915969D01*
X5544254Y-8971040D01*
X5533409Y-8944791D01*
X5481834Y-8893127D01*
X5414415Y-8865132D01*
X5341414Y-8865068D01*
X5273945Y-8892946D01*
X5222281Y-8944520D01*
X5202741Y-8991579D01*
X5183409Y-8944791D01*
X5131834Y-8893127D01*
X5064415Y-8865132D01*
X4991414Y-8865068D01*
X4923945Y-8892946D01*
X4872281Y-8944520D01*
X4852741Y-8991579D01*
X4833409Y-8944791D01*
X4781834Y-8893127D01*
X4714415Y-8865132D01*
X4641414Y-8865068D01*
X4573945Y-8892946D01*
X4522281Y-8944520D01*
X4494286Y-9011940D01*
X4494222Y-9084940D01*
X2604770Y-9084940D01*
X2604770Y-8862175D01*
X3061500Y-8862175D01*
X3061500Y-8966231D01*
X3071167Y-8989570D01*
X3089030Y-9007433D01*
X3112369Y-9017100D01*
X3216425Y-9017100D01*
X3232300Y-9001225D01*
X3232300Y-8846300D01*
X3257700Y-8846300D01*
X3257700Y-9001225D01*
X3273575Y-9017100D01*
X3377631Y-9017100D01*
X3400970Y-9007433D01*
X3418833Y-8989570D01*
X3428500Y-8966231D01*
X3428500Y-8862175D01*
X3412625Y-8846300D01*
X3257700Y-8846300D01*
X3232300Y-8846300D01*
X3077375Y-8846300D01*
X3061500Y-8862175D01*
X2604770Y-8862175D01*
X2604770Y-7693775D01*
X3061500Y-7693775D01*
X3061500Y-7797831D01*
X3071167Y-7821170D01*
X3089030Y-7839033D01*
X3112369Y-7848700D01*
X3216425Y-7848700D01*
X3232300Y-7832825D01*
X3232300Y-7677900D01*
X3257700Y-7677900D01*
X3257700Y-7832825D01*
X3273575Y-7848700D01*
X3377631Y-7848700D01*
X3400970Y-7839033D01*
X3418833Y-7821170D01*
X3428500Y-7797831D01*
X3428500Y-7693775D01*
X3412625Y-7677900D01*
X3257700Y-7677900D01*
X3232300Y-7677900D01*
X3077375Y-7677900D01*
X3061500Y-7693775D01*
X2604770Y-7693775D01*
X2604770Y-6525375D01*
X3061500Y-6525375D01*
X3061500Y-6629431D01*
X3071167Y-6652770D01*
X3089030Y-6670633D01*
X3112369Y-6680300D01*
X3216425Y-6680300D01*
X3232300Y-6664425D01*
X3232300Y-6509500D01*
X3257700Y-6509500D01*
X3257700Y-6664425D01*
X3273575Y-6680300D01*
X3377631Y-6680300D01*
X3400970Y-6670633D01*
X3418833Y-6652770D01*
X3428500Y-6629431D01*
X3428500Y-6525375D01*
X3412625Y-6509500D01*
X3257700Y-6509500D01*
X3232300Y-6509500D01*
X3077375Y-6509500D01*
X3061500Y-6525375D01*
X2604770Y-6525375D01*
X2604770Y-5356975D01*
X3061500Y-5356975D01*
X3061500Y-5461031D01*
X3071167Y-5484370D01*
X3089030Y-5502233D01*
X3112369Y-5511900D01*
X3216425Y-5511900D01*
X3232300Y-5496025D01*
X3232300Y-5341100D01*
X3257700Y-5341100D01*
X3257700Y-5496025D01*
X3273575Y-5511900D01*
X3377631Y-5511900D01*
X3400970Y-5502233D01*
X3418833Y-5484370D01*
X3428500Y-5461031D01*
X3428500Y-5356975D01*
X3412625Y-5341100D01*
X3257700Y-5341100D01*
X3232300Y-5341100D01*
X3077375Y-5341100D01*
X3061500Y-5356975D01*
X2604770Y-5356975D01*
X2604770Y-4188575D01*
X3061500Y-4188575D01*
X3061500Y-4292631D01*
X3071167Y-4315970D01*
X3089030Y-4333833D01*
X3112369Y-4343500D01*
X3216425Y-4343500D01*
X3232300Y-4327625D01*
X3232300Y-4172700D01*
X3257700Y-4172700D01*
X3257700Y-4327625D01*
X3273575Y-4343500D01*
X3377631Y-4343500D01*
X3400970Y-4333833D01*
X3418833Y-4315970D01*
X3428500Y-4292631D01*
X3428500Y-4188575D01*
X3412625Y-4172700D01*
X3257700Y-4172700D01*
X3232300Y-4172700D01*
X3077375Y-4172700D01*
X3061500Y-4188575D01*
X2604770Y-4188575D01*
X2604770Y-3496340D01*
X3061468Y-3496340D01*
X3089345Y-3563809D01*
X3140920Y-3615473D01*
X3187978Y-3635013D01*
X3141191Y-3654345D01*
X3089527Y-3705920D01*
X3061532Y-3773339D01*
X3061468Y-3846340D01*
X3089345Y-3913809D01*
X3140920Y-3965473D01*
X3167476Y-3976500D01*
X3112369Y-3976500D01*
X3089030Y-3986167D01*
X3071167Y-4004030D01*
X3061500Y-4027369D01*
X3061500Y-4131425D01*
X3077375Y-4147300D01*
X3232300Y-4147300D01*
X3232300Y-4145300D01*
X3257700Y-4145300D01*
X3257700Y-4147300D01*
X3412625Y-4147300D01*
X3428500Y-4131425D01*
X3428500Y-4027369D01*
X3418833Y-4004030D01*
X3400970Y-3986167D01*
X3377631Y-3976500D01*
X3322560Y-3976500D01*
X3348809Y-3965654D01*
X3400473Y-3914080D01*
X3409413Y-3892550D01*
X3521807Y-3892550D01*
X3638550Y-4009293D01*
X3638550Y-4982307D01*
X3576272Y-4920028D01*
X3549491Y-4902134D01*
X3517900Y-4895850D01*
X3409438Y-4895850D01*
X3400654Y-4874591D01*
X3349080Y-4822927D01*
X3302021Y-4803387D01*
X3348809Y-4784055D01*
X3400473Y-4732480D01*
X3428468Y-4665061D01*
X3428532Y-4592060D01*
X3400654Y-4524591D01*
X3349080Y-4472927D01*
X3281660Y-4444932D01*
X3208660Y-4444868D01*
X3141191Y-4472746D01*
X3089527Y-4524320D01*
X3061532Y-4591740D01*
X3061468Y-4664740D01*
X3089345Y-4732209D01*
X3140920Y-4783873D01*
X3187978Y-4803414D01*
X3141191Y-4822746D01*
X3089527Y-4874320D01*
X3061532Y-4941740D01*
X3061468Y-5014740D01*
X3089345Y-5082209D01*
X3140920Y-5133873D01*
X3167476Y-5144900D01*
X3112369Y-5144900D01*
X3089030Y-5154567D01*
X3071167Y-5172430D01*
X3061500Y-5195769D01*
X3061500Y-5299825D01*
X3077375Y-5315700D01*
X3232300Y-5315700D01*
X3232300Y-5313700D01*
X3257700Y-5313700D01*
X3257700Y-5315700D01*
X3412625Y-5315700D01*
X3428500Y-5299825D01*
X3428500Y-5195769D01*
X3418833Y-5172430D01*
X3400970Y-5154567D01*
X3377631Y-5144900D01*
X3322560Y-5144900D01*
X3348809Y-5134055D01*
X3400473Y-5082480D01*
X3409413Y-5060950D01*
X3483707Y-5060950D01*
X3575050Y-5152293D01*
X3575050Y-6150707D01*
X3512772Y-6088428D01*
X3485991Y-6070534D01*
X3454400Y-6064250D01*
X3409438Y-6064250D01*
X3400654Y-6042991D01*
X3349080Y-5991327D01*
X3302021Y-5971786D01*
X3348809Y-5952454D01*
X3400473Y-5900880D01*
X3428468Y-5833460D01*
X3428532Y-5760460D01*
X3400654Y-5692991D01*
X3349080Y-5641327D01*
X3281660Y-5613332D01*
X3208660Y-5613268D01*
X3141191Y-5641145D01*
X3089527Y-5692720D01*
X3061532Y-5760139D01*
X3061468Y-5833140D01*
X3089345Y-5900609D01*
X3140920Y-5952273D01*
X3187978Y-5971813D01*
X3141191Y-5991145D01*
X3089527Y-6042720D01*
X3061532Y-6110139D01*
X3061468Y-6183140D01*
X3089345Y-6250609D01*
X3140920Y-6302273D01*
X3167476Y-6313300D01*
X3112369Y-6313300D01*
X3089030Y-6322967D01*
X3071167Y-6340830D01*
X3061500Y-6364169D01*
X3061500Y-6468225D01*
X3077375Y-6484100D01*
X3232300Y-6484100D01*
X3232300Y-6482100D01*
X3257700Y-6482100D01*
X3257700Y-6484100D01*
X3412625Y-6484100D01*
X3428500Y-6468225D01*
X3428500Y-6364169D01*
X3418833Y-6340830D01*
X3400970Y-6322967D01*
X3377631Y-6313300D01*
X3322560Y-6313300D01*
X3348809Y-6302454D01*
X3400473Y-6250880D01*
X3409413Y-6229350D01*
X3420207Y-6229350D01*
X3511550Y-6320693D01*
X3511550Y-6642100D01*
X3517834Y-6673691D01*
X3535728Y-6700472D01*
X3662728Y-6827471D01*
X3662728Y-6827472D01*
X3670403Y-6832600D01*
X3689509Y-6845366D01*
X3721100Y-6851650D01*
X3986110Y-6851650D01*
X4000630Y-6873381D01*
X4034631Y-6896100D01*
X4000630Y-6918819D01*
X3986110Y-6940550D01*
X3784600Y-6940550D01*
X3784600Y-6940550D01*
X3753009Y-6946834D01*
X3726228Y-6964728D01*
X3458307Y-7232650D01*
X3409438Y-7232650D01*
X3400654Y-7211391D01*
X3349080Y-7159727D01*
X3302021Y-7140186D01*
X3348809Y-7120854D01*
X3400473Y-7069280D01*
X3428468Y-7001860D01*
X3428532Y-6928860D01*
X3400654Y-6861391D01*
X3349080Y-6809727D01*
X3281660Y-6781732D01*
X3208660Y-6781668D01*
X3141191Y-6809545D01*
X3089527Y-6861120D01*
X3061532Y-6928539D01*
X3061468Y-7001540D01*
X3089345Y-7069009D01*
X3140920Y-7120673D01*
X3187978Y-7140213D01*
X3141191Y-7159545D01*
X3089527Y-7211120D01*
X3061532Y-7278539D01*
X3061468Y-7351540D01*
X3089345Y-7419009D01*
X3140920Y-7470673D01*
X3167476Y-7481700D01*
X3112369Y-7481700D01*
X3089030Y-7491367D01*
X3071167Y-7509230D01*
X3061500Y-7532569D01*
X3061500Y-7636625D01*
X3077375Y-7652500D01*
X3232300Y-7652500D01*
X3232300Y-7650500D01*
X3257700Y-7650500D01*
X3257700Y-7652500D01*
X3412625Y-7652500D01*
X3428500Y-7636625D01*
X3428500Y-7532569D01*
X3418833Y-7509230D01*
X3400970Y-7491367D01*
X3377631Y-7481700D01*
X3322560Y-7481700D01*
X3348809Y-7470854D01*
X3400473Y-7419280D01*
X3409413Y-7397750D01*
X3492500Y-7397750D01*
X3524091Y-7391466D01*
X3550872Y-7373572D01*
X3818793Y-7105650D01*
X3986110Y-7105650D01*
X4000630Y-7127381D01*
X4034631Y-7150100D01*
X4000630Y-7172819D01*
X3986110Y-7194550D01*
X3784600Y-7194550D01*
X3753009Y-7200834D01*
X3742518Y-7207844D01*
X3726228Y-7218728D01*
X3726228Y-7218729D01*
X3599228Y-7345728D01*
X3581334Y-7372509D01*
X3581334Y-7372509D01*
X3575050Y-7404100D01*
X3575050Y-8322407D01*
X3496407Y-8401050D01*
X3409438Y-8401050D01*
X3400654Y-8379791D01*
X3349080Y-8328127D01*
X3302021Y-8308586D01*
X3348809Y-8289254D01*
X3400473Y-8237680D01*
X3428468Y-8170260D01*
X3428532Y-8097260D01*
X3400654Y-8029791D01*
X3349080Y-7978127D01*
X3281660Y-7950132D01*
X3208660Y-7950068D01*
X3141191Y-7977945D01*
X3089527Y-8029520D01*
X3061532Y-8096939D01*
X3061468Y-8169940D01*
X3089345Y-8237409D01*
X3140920Y-8289073D01*
X3187978Y-8308613D01*
X3141191Y-8327945D01*
X3089527Y-8379520D01*
X3061532Y-8446940D01*
X3061468Y-8519940D01*
X3089345Y-8587409D01*
X3140920Y-8639073D01*
X3167476Y-8650100D01*
X3112369Y-8650100D01*
X3089030Y-8659767D01*
X3071167Y-8677630D01*
X3061500Y-8700969D01*
X3061500Y-8805025D01*
X3077375Y-8820900D01*
X3232300Y-8820900D01*
X3232300Y-8818900D01*
X3257700Y-8818900D01*
X3257700Y-8820900D01*
X3412625Y-8820900D01*
X3428500Y-8805025D01*
X3428500Y-8700969D01*
X3418833Y-8677630D01*
X3400970Y-8659767D01*
X3377631Y-8650100D01*
X3322560Y-8650100D01*
X3348809Y-8639255D01*
X3400473Y-8587680D01*
X3409413Y-8566150D01*
X3530600Y-8566150D01*
X3562191Y-8559866D01*
X3588972Y-8541972D01*
X3715971Y-8414972D01*
X3715972Y-8414972D01*
X3729604Y-8394570D01*
X3733866Y-8388191D01*
X3740150Y-8356600D01*
X3740150Y-7438293D01*
X3818793Y-7359650D01*
X3986110Y-7359650D01*
X4000630Y-7381381D01*
X4047185Y-7412488D01*
X4102100Y-7423411D01*
X4157015Y-7412488D01*
X4203570Y-7381381D01*
X4218090Y-7359650D01*
X4452393Y-7359650D01*
X4465035Y-7378570D01*
X4503244Y-7404100D01*
X4465035Y-7429630D01*
X4433928Y-7476185D01*
X4423005Y-7531100D01*
X4433928Y-7586015D01*
X4465035Y-7632570D01*
X4503244Y-7658100D01*
X4465035Y-7683630D01*
X4433928Y-7730185D01*
X4423005Y-7785100D01*
X4433928Y-7840015D01*
X4465035Y-7886570D01*
X4511590Y-7917677D01*
X4566505Y-7928600D01*
X4653695Y-7928600D01*
X4708610Y-7917677D01*
X4755165Y-7886570D01*
X4786272Y-7840015D01*
X4797195Y-7785100D01*
X4786272Y-7730185D01*
X4755165Y-7683630D01*
X4716956Y-7658100D01*
X4755165Y-7632570D01*
X4772050Y-7607300D01*
X4832537Y-7607300D01*
X4937218Y-7711981D01*
X4959289Y-7726728D01*
X4961940Y-7728500D01*
X4991100Y-7734300D01*
X5187356Y-7734300D01*
X5187356Y-7865100D01*
X5192284Y-7889876D01*
X5206319Y-7910881D01*
X5227324Y-7924916D01*
X5252100Y-7929844D01*
X5283200Y-7929844D01*
X5283200Y-8122739D01*
X5254080Y-8093620D01*
X5249960Y-8090867D01*
X5245100Y-8089900D01*
X4483100Y-8089900D01*
X4478240Y-8090867D01*
X4474120Y-8093620D01*
X4410620Y-8157120D01*
X4407867Y-8161240D01*
X4406900Y-8166100D01*
X4406900Y-8420100D01*
X4407867Y-8424960D01*
X4410620Y-8429080D01*
X4474120Y-8492580D01*
X4478240Y-8495333D01*
X4483100Y-8496300D01*
X5245100Y-8496300D01*
X5249960Y-8495333D01*
X5254080Y-8492580D01*
X5317580Y-8429080D01*
X5320333Y-8424960D01*
X5321300Y-8420100D01*
X5321300Y-8342624D01*
X5434962Y-8228962D01*
X5454233Y-8200121D01*
X5461000Y-8166100D01*
X5461000Y-7929844D01*
X5492100Y-7929844D01*
X5516877Y-7924916D01*
X5537881Y-7910881D01*
X5551916Y-7889876D01*
X5556844Y-7865100D01*
X5556844Y-7734300D01*
X6134100Y-7734300D01*
X6163260Y-7728500D01*
X6187981Y-7711981D01*
X6292663Y-7607300D01*
X7230371Y-7607300D01*
X7222185Y-7608928D01*
X7175630Y-7640035D01*
X7144523Y-7686590D01*
X7133600Y-7741505D01*
X7133600Y-7828695D01*
X7144523Y-7883610D01*
X7175630Y-7930165D01*
X7188200Y-7938564D01*
X7188200Y-8181353D01*
X7172819Y-8191630D01*
X7165694Y-8202293D01*
X7162916Y-8188323D01*
X7148881Y-8167319D01*
X7127876Y-8153284D01*
X7108692Y-8149468D01*
X7105233Y-8132079D01*
X7085962Y-8103238D01*
X6958962Y-7976238D01*
X6943612Y-7965982D01*
X6930121Y-7956967D01*
X6896100Y-7950200D01*
X6324600Y-7950200D01*
X6290579Y-7956967D01*
X6277088Y-7965982D01*
X6261738Y-7976238D01*
X6134738Y-8103238D01*
X6115467Y-8132079D01*
X6108700Y-8166100D01*
X6108700Y-8174424D01*
X6092595Y-8185185D01*
X6089660Y-8189578D01*
X6088416Y-8183323D01*
X6074381Y-8162319D01*
X6053376Y-8148284D01*
X6028600Y-8143356D01*
X5858600Y-8143356D01*
X5833823Y-8148284D01*
X5812819Y-8162319D01*
X5798784Y-8183323D01*
X5793856Y-8208100D01*
X5793856Y-8378100D01*
X5798784Y-8402877D01*
X5812819Y-8423881D01*
X5833823Y-8437916D01*
X5858600Y-8442844D01*
X6028600Y-8442844D01*
X6053376Y-8437916D01*
X6074381Y-8423881D01*
X6088416Y-8402877D01*
X6089660Y-8396622D01*
X6092595Y-8401015D01*
X6140771Y-8433205D01*
X6197600Y-8444509D01*
X6254428Y-8433205D01*
X6302605Y-8401015D01*
X6325370Y-8366945D01*
X6332082Y-8381236D01*
X6374908Y-8420265D01*
X6415911Y-8437248D01*
X6438900Y-8425116D01*
X6438900Y-8305800D01*
X6464300Y-8305800D01*
X6464300Y-8425116D01*
X6487289Y-8437248D01*
X6528292Y-8420265D01*
X6571118Y-8381236D01*
X6595749Y-8328789D01*
X6583682Y-8305800D01*
X6464300Y-8305800D01*
X6438900Y-8305800D01*
X6436900Y-8305800D01*
X6436900Y-8280400D01*
X6438900Y-8280400D01*
X6438900Y-8161084D01*
X6464300Y-8161084D01*
X6464300Y-8280400D01*
X6583682Y-8280400D01*
X6595749Y-8257411D01*
X6571118Y-8204964D01*
X6528292Y-8165935D01*
X6487289Y-8148952D01*
X6464300Y-8161084D01*
X6438900Y-8161084D01*
X6415911Y-8148952D01*
X6374908Y-8165935D01*
X6332082Y-8204964D01*
X6325370Y-8219255D01*
X6303259Y-8186164D01*
X6361424Y-8128000D01*
X6859276Y-8128000D01*
X6898084Y-8166808D01*
X6897319Y-8167319D01*
X6883284Y-8188323D01*
X6878356Y-8213100D01*
X6878356Y-8373100D01*
X6883284Y-8397877D01*
X6897319Y-8418881D01*
X6918323Y-8432916D01*
X6943100Y-8437844D01*
X7103100Y-8437844D01*
X7127876Y-8432916D01*
X7148881Y-8418881D01*
X7162916Y-8397877D01*
X7165694Y-8383907D01*
X7172819Y-8394570D01*
X7219374Y-8425677D01*
X7274289Y-8436600D01*
X7279911Y-8436600D01*
X7334826Y-8425677D01*
X7381381Y-8394570D01*
X7404100Y-8360569D01*
X7426819Y-8394570D01*
X7473374Y-8425677D01*
X7528289Y-8436600D01*
X7533911Y-8436600D01*
X7588826Y-8425677D01*
X7635381Y-8394570D01*
X7658100Y-8360569D01*
X7680819Y-8394570D01*
X7702550Y-8409090D01*
X7702550Y-8512907D01*
X7623907Y-8591550D01*
X6642100Y-8591550D01*
X6610509Y-8597834D01*
X6583728Y-8615728D01*
X6487728Y-8711728D01*
X6469834Y-8738509D01*
X6465895Y-8758309D01*
X6463550Y-8770100D01*
X6463550Y-8884162D01*
X6442291Y-8892946D01*
X6390627Y-8944520D01*
X6371086Y-8991579D01*
X6351754Y-8944791D01*
X6300180Y-8893127D01*
X6232760Y-8865132D01*
X6159760Y-8865068D01*
X6092291Y-8892946D01*
X6040627Y-8944520D01*
X6012632Y-9011940D01*
X6012568Y-9084940D01*
X6040445Y-9152409D01*
X6092020Y-9204073D01*
X6159439Y-9232068D01*
X6232440Y-9232132D01*
X6299909Y-9204255D01*
X6351573Y-9152680D01*
X6371113Y-9105622D01*
X6390445Y-9152409D01*
X6442020Y-9204073D01*
X6509439Y-9232068D01*
X6582440Y-9232132D01*
X6649909Y-9204255D01*
X6701573Y-9152680D01*
X6721113Y-9105622D01*
X6740445Y-9152409D01*
X6792020Y-9204073D01*
X6859439Y-9232068D01*
X6932440Y-9232132D01*
X6999909Y-9204255D01*
X7051573Y-9152680D01*
X7062600Y-9126124D01*
X7062600Y-9181231D01*
X7072267Y-9204570D01*
X7090130Y-9222433D01*
X7113469Y-9232100D01*
X7217525Y-9232100D01*
X7233400Y-9216225D01*
X7233400Y-9061300D01*
X7258800Y-9061300D01*
X7258800Y-9216225D01*
X7274675Y-9232100D01*
X7378731Y-9232100D01*
X7402070Y-9222433D01*
X7419933Y-9204570D01*
X7429600Y-9181231D01*
X7429600Y-9077175D01*
X7413725Y-9061300D01*
X7258800Y-9061300D01*
X7233400Y-9061300D01*
X7231400Y-9061300D01*
X7231400Y-9035900D01*
X7233400Y-9035900D01*
X7233400Y-8880975D01*
X7258800Y-8880975D01*
X7258800Y-9035900D01*
X7413725Y-9035900D01*
X7429600Y-9020025D01*
X7429600Y-8915969D01*
X7419933Y-8892630D01*
X7402070Y-8874767D01*
X7378731Y-8865100D01*
X7274675Y-8865100D01*
X7258800Y-8880975D01*
X7233400Y-8880975D01*
X7217525Y-8865100D01*
X7113469Y-8865100D01*
X7090130Y-8874767D01*
X7072267Y-8892630D01*
X7062600Y-8915969D01*
X7062600Y-8971040D01*
X7051754Y-8944791D01*
X7000180Y-8893127D01*
X6988971Y-8888473D01*
X7057293Y-8820150D01*
X7912100Y-8820150D01*
X7943691Y-8813866D01*
X7970472Y-8795972D01*
X8097471Y-8668972D01*
X8097472Y-8668972D01*
X8108199Y-8652918D01*
X8115366Y-8642191D01*
X8121650Y-8610600D01*
X8121650Y-8409090D01*
X8143381Y-8394570D01*
X8166100Y-8360569D01*
X8188819Y-8394570D01*
X8210550Y-8409090D01*
X8210550Y-8576407D01*
X8006128Y-8780828D01*
X7988234Y-8807609D01*
X7984084Y-8828472D01*
X7981950Y-8839200D01*
X7981950Y-8884162D01*
X7960691Y-8892946D01*
X7909027Y-8944520D01*
X7889486Y-8991579D01*
X7870154Y-8944791D01*
X7818580Y-8893127D01*
X7751160Y-8865132D01*
X7678160Y-8865068D01*
X7610691Y-8892946D01*
X7559027Y-8944520D01*
X7531032Y-9011940D01*
X7530968Y-9084940D01*
X7558845Y-9152409D01*
X7610420Y-9204073D01*
X7677839Y-9232068D01*
X7750840Y-9232132D01*
X7818309Y-9204255D01*
X7869973Y-9152680D01*
X7889513Y-9105622D01*
X7908845Y-9152409D01*
X7960420Y-9204073D01*
X8027839Y-9232068D01*
X8100840Y-9232132D01*
X8168309Y-9204255D01*
X8219973Y-9152680D01*
X8239513Y-9105622D01*
X8258845Y-9152409D01*
X8310420Y-9204073D01*
X8377839Y-9232068D01*
X8450840Y-9232132D01*
X8518309Y-9204255D01*
X8569973Y-9152680D01*
X8581000Y-9126124D01*
X8581000Y-9181231D01*
X8590667Y-9204570D01*
X8608530Y-9222433D01*
X8631869Y-9232100D01*
X8735925Y-9232100D01*
X8751800Y-9216225D01*
X8751800Y-9061300D01*
X8777200Y-9061300D01*
X8777200Y-9216225D01*
X8793075Y-9232100D01*
X8897131Y-9232100D01*
X8920470Y-9222433D01*
X8938333Y-9204570D01*
X8948000Y-9181231D01*
X8948000Y-9077175D01*
X8932125Y-9061300D01*
X8777200Y-9061300D01*
X8751800Y-9061300D01*
X8749800Y-9061300D01*
X8749800Y-9035900D01*
X8751800Y-9035900D01*
X8751800Y-8880975D01*
X8777200Y-8880975D01*
X8777200Y-9035900D01*
X8932125Y-9035900D01*
X8948000Y-9020025D01*
X8948000Y-8915969D01*
X8938333Y-8892630D01*
X8920470Y-8874767D01*
X8897131Y-8865100D01*
X8793075Y-8865100D01*
X8777200Y-8880975D01*
X8751800Y-8880975D01*
X8735925Y-8865100D01*
X8631869Y-8865100D01*
X8608530Y-8874767D01*
X8590667Y-8892630D01*
X8581000Y-8915969D01*
X8581000Y-8971040D01*
X8570155Y-8944791D01*
X8518580Y-8893127D01*
X8497050Y-8884187D01*
X8497050Y-8777393D01*
X8605472Y-8668972D01*
X8623366Y-8642191D01*
X8629650Y-8610600D01*
X8629650Y-8409090D01*
X8651381Y-8394570D01*
X8674100Y-8360569D01*
X8696819Y-8394570D01*
X8718550Y-8409090D01*
X8718550Y-8610600D01*
X8724834Y-8642191D01*
X8742728Y-8668972D01*
X8869728Y-8795971D01*
X8869728Y-8795972D01*
X8885078Y-8806228D01*
X8896509Y-8813866D01*
X8928100Y-8820150D01*
X9465407Y-8820150D01*
X9500350Y-8855093D01*
X9500350Y-8884162D01*
X9479091Y-8892946D01*
X9427427Y-8944520D01*
X9407887Y-8991579D01*
X9388555Y-8944791D01*
X9336980Y-8893127D01*
X9269561Y-8865132D01*
X9196560Y-8865068D01*
X9129091Y-8892946D01*
X9077427Y-8944520D01*
X9049432Y-9011940D01*
X9049368Y-9084940D01*
X9077246Y-9152409D01*
X9128820Y-9204073D01*
X9196240Y-9232068D01*
X9269240Y-9232132D01*
X9336709Y-9204255D01*
X9388373Y-9152680D01*
X9407914Y-9105622D01*
X9427246Y-9152409D01*
X9478820Y-9204073D01*
X9546240Y-9232068D01*
X9619240Y-9232132D01*
X9686709Y-9204255D01*
X9738373Y-9152680D01*
X9757914Y-9105622D01*
X9777246Y-9152409D01*
X9828820Y-9204073D01*
X9896240Y-9232068D01*
X9969240Y-9232132D01*
X10036709Y-9204255D01*
X10088373Y-9152680D01*
X10099400Y-9126124D01*
X10099400Y-9181231D01*
X10109067Y-9204570D01*
X10126930Y-9222433D01*
X10150269Y-9232100D01*
X10254325Y-9232100D01*
X10270200Y-9216225D01*
X10270200Y-9061300D01*
X10295600Y-9061300D01*
X10295600Y-9216225D01*
X10311475Y-9232100D01*
X10415531Y-9232100D01*
X10438870Y-9222433D01*
X10456733Y-9204570D01*
X10466400Y-9181231D01*
X10466400Y-9077175D01*
X10450525Y-9061300D01*
X10295600Y-9061300D01*
X10270200Y-9061300D01*
X10268200Y-9061300D01*
X10268200Y-9035900D01*
X10270200Y-9035900D01*
X10270200Y-8880975D01*
X10295600Y-8880975D01*
X10295600Y-9035900D01*
X10450525Y-9035900D01*
X10466400Y-9020025D01*
X10466400Y-8915969D01*
X10456733Y-8892630D01*
X10438870Y-8874767D01*
X10415531Y-8865100D01*
X10311475Y-8865100D01*
X10295600Y-8880975D01*
X10270200Y-8880975D01*
X10254325Y-8865100D01*
X10150269Y-8865100D01*
X10126930Y-8874767D01*
X10109067Y-8892630D01*
X10099400Y-8915969D01*
X10099400Y-8971040D01*
X10088555Y-8944791D01*
X10036980Y-8893127D01*
X10015450Y-8884187D01*
X10015450Y-8789900D01*
X10015138Y-8788334D01*
X10009166Y-8758309D01*
X10000028Y-8744634D01*
X9991272Y-8731528D01*
X9991271Y-8731528D01*
X9875472Y-8615728D01*
X9848691Y-8597834D01*
X9817100Y-8591550D01*
X9216293Y-8591550D01*
X9137650Y-8512907D01*
X9137650Y-8409090D01*
X9159381Y-8394570D01*
X9190488Y-8348015D01*
X9201411Y-8293100D01*
X9190488Y-8238185D01*
X9159381Y-8191630D01*
X9144000Y-8181353D01*
X9144000Y-7938564D01*
X9156570Y-7930165D01*
X9182100Y-7891956D01*
X9207630Y-7930165D01*
X9254185Y-7961272D01*
X9309100Y-7972195D01*
X9364015Y-7961272D01*
X9410570Y-7930165D01*
X9435851Y-7892329D01*
X9470610Y-7935550D01*
X9519918Y-7962537D01*
X9528196Y-7964290D01*
X9550400Y-7952091D01*
X9550400Y-7797800D01*
X9575800Y-7797800D01*
X9575800Y-7952091D01*
X9598004Y-7964290D01*
X9606282Y-7962537D01*
X9655590Y-7935550D01*
X9690817Y-7891748D01*
X9706600Y-7837800D01*
X9706600Y-7797800D01*
X9575800Y-7797800D01*
X9550400Y-7797800D01*
X9548400Y-7797800D01*
X9548400Y-7772400D01*
X9550400Y-7772400D01*
X9550400Y-7618108D01*
X9575800Y-7618108D01*
X9575800Y-7772400D01*
X9706600Y-7772400D01*
X9706600Y-7732400D01*
X9690817Y-7678452D01*
X9655590Y-7634650D01*
X9606282Y-7607663D01*
X9598004Y-7605910D01*
X9575800Y-7618108D01*
X9550400Y-7618108D01*
X9528196Y-7605910D01*
X9519918Y-7607663D01*
X9470610Y-7634650D01*
X9435851Y-7677871D01*
X9410570Y-7640035D01*
X9385300Y-7623150D01*
X9385300Y-7594600D01*
X9379500Y-7565439D01*
X9372883Y-7555538D01*
X9362982Y-7540718D01*
X9299482Y-7477218D01*
X9288962Y-7470189D01*
X9274761Y-7460700D01*
X9245600Y-7454900D01*
X6318063Y-7454900D01*
X7499163Y-6273800D01*
X7982137Y-6273800D01*
X7477219Y-6778718D01*
X7477218Y-6778718D01*
X7460700Y-6803439D01*
X7454900Y-6832600D01*
X7454900Y-6861150D01*
X7429630Y-6878035D01*
X7404100Y-6916244D01*
X7378570Y-6878035D01*
X7332015Y-6846928D01*
X7277100Y-6836005D01*
X7222185Y-6846928D01*
X7175630Y-6878035D01*
X7144523Y-6924590D01*
X7133600Y-6979505D01*
X7133600Y-7066695D01*
X7144523Y-7121610D01*
X7175630Y-7168165D01*
X7222185Y-7199272D01*
X7277100Y-7210195D01*
X7332015Y-7199272D01*
X7378570Y-7168165D01*
X7404100Y-7129956D01*
X7429630Y-7168165D01*
X7476185Y-7199272D01*
X7531100Y-7210195D01*
X7586015Y-7199272D01*
X7632570Y-7168165D01*
X7658100Y-7129956D01*
X7683630Y-7168165D01*
X7730185Y-7199272D01*
X7785100Y-7210195D01*
X7840015Y-7199272D01*
X7886570Y-7168165D01*
X7912100Y-7129956D01*
X7937630Y-7168165D01*
X7984185Y-7199272D01*
X8039100Y-7210195D01*
X8094015Y-7199272D01*
X8140570Y-7168165D01*
X8166100Y-7129956D01*
X8191630Y-7168165D01*
X8238185Y-7199272D01*
X8293100Y-7210195D01*
X8348015Y-7199272D01*
X8394570Y-7168165D01*
X8420100Y-7129956D01*
X8445630Y-7168165D01*
X8492185Y-7199272D01*
X8547100Y-7210195D01*
X8602015Y-7199272D01*
X8648570Y-7168165D01*
X8674100Y-7129956D01*
X8699630Y-7168165D01*
X8746185Y-7199272D01*
X8801100Y-7210195D01*
X8856015Y-7199272D01*
X8902570Y-7168165D01*
X8928100Y-7129956D01*
X8953630Y-7168165D01*
X9000185Y-7199272D01*
X9055100Y-7210195D01*
X9110015Y-7199272D01*
X9156570Y-7168165D01*
X9182100Y-7129956D01*
X9207630Y-7168165D01*
X9254185Y-7199272D01*
X9309100Y-7210195D01*
X9364015Y-7199272D01*
X9410570Y-7168165D01*
X9420412Y-7153435D01*
X9423284Y-7167876D01*
X9437319Y-7188881D01*
X9458324Y-7202916D01*
X9483100Y-7207844D01*
X9643100Y-7207844D01*
X9667877Y-7202916D01*
X9688881Y-7188881D01*
X9702916Y-7167876D01*
X9707844Y-7143100D01*
X9707844Y-7112000D01*
X9900739Y-7112000D01*
X9871620Y-7141120D01*
X9868867Y-7145240D01*
X9867900Y-7150100D01*
X9867900Y-7912100D01*
X9868867Y-7916960D01*
X9871620Y-7921080D01*
X9935120Y-7984580D01*
X9939240Y-7987333D01*
X9944100Y-7988300D01*
X10198100Y-7988300D01*
X10202960Y-7987333D01*
X10207080Y-7984580D01*
X10248900Y-7942761D01*
X10248900Y-8039100D01*
X10254700Y-8068260D01*
X10260674Y-8077200D01*
X10271219Y-8092981D01*
X10398218Y-8219981D01*
X10420289Y-8234728D01*
X10422940Y-8236500D01*
X10452100Y-8242300D01*
X11429440Y-8242300D01*
X11443962Y-8264034D01*
X11488895Y-8294057D01*
X11541897Y-8304600D01*
X11598303Y-8304600D01*
X11651305Y-8294057D01*
X11696237Y-8264034D01*
X11709862Y-8243644D01*
X11714284Y-8265876D01*
X11728319Y-8286881D01*
X11749323Y-8300916D01*
X11774100Y-8305844D01*
X11974100Y-8305844D01*
X11998876Y-8300916D01*
X12019881Y-8286881D01*
X12033916Y-8265876D01*
X12038844Y-8241100D01*
X12038844Y-8091100D01*
X12033916Y-8066323D01*
X12019881Y-8045319D01*
X11998876Y-8031284D01*
X11975418Y-8026618D01*
X12000237Y-8010034D01*
X12030260Y-7965102D01*
X12040803Y-7912100D01*
X12030260Y-7859098D01*
X12000237Y-7814166D01*
X11956738Y-7785100D01*
X12000237Y-7756034D01*
X12030260Y-7711102D01*
X12040803Y-7658100D01*
X12030260Y-7605098D01*
X12000237Y-7560166D01*
X11956738Y-7531100D01*
X12000237Y-7502034D01*
X12030260Y-7457102D01*
X12040803Y-7404100D01*
X12030260Y-7351098D01*
X12000237Y-7306166D01*
X11956738Y-7277100D01*
X12000237Y-7248034D01*
X12030260Y-7203102D01*
X12040803Y-7150100D01*
X12030260Y-7097098D01*
X12000237Y-7052166D01*
X11956738Y-7023100D01*
X12000237Y-6994034D01*
X12030260Y-6949102D01*
X12040803Y-6896100D01*
X12030260Y-6843098D01*
X12000237Y-6798166D01*
X11956738Y-6769100D01*
X12000237Y-6740034D01*
X12030260Y-6695102D01*
X12040803Y-6642100D01*
X12030260Y-6589098D01*
X12000237Y-6544166D01*
X11956738Y-6515100D01*
X12000237Y-6486034D01*
X12030260Y-6441102D01*
X12040803Y-6388100D01*
X12030260Y-6335098D01*
X12000237Y-6290166D01*
X11956738Y-6261100D01*
X12000237Y-6232034D01*
X12030260Y-6187102D01*
X12040803Y-6134100D01*
X12030260Y-6081098D01*
X12000237Y-6036166D01*
X11956738Y-6007100D01*
X12000237Y-5978034D01*
X12030260Y-5933102D01*
X12040803Y-5880100D01*
X12030260Y-5827098D01*
X12000237Y-5782166D01*
X11956738Y-5753100D01*
X12000237Y-5724034D01*
X12030260Y-5679102D01*
X12040803Y-5626100D01*
X12030260Y-5573098D01*
X12000237Y-5528166D01*
X11956738Y-5499100D01*
X12000237Y-5470034D01*
X12030260Y-5425102D01*
X12040803Y-5372100D01*
X12030260Y-5319098D01*
X12000237Y-5274166D01*
X11956738Y-5245100D01*
X12000237Y-5216034D01*
X12030260Y-5171102D01*
X12040803Y-5118100D01*
X12030260Y-5065098D01*
X12000237Y-5020166D01*
X11955305Y-4990143D01*
X11902303Y-4979600D01*
X11845897Y-4979600D01*
X11792895Y-4990143D01*
X11747962Y-5020166D01*
X11722100Y-5058872D01*
X11696237Y-5020166D01*
X11651305Y-4990143D01*
X11598303Y-4979600D01*
X11541897Y-4979600D01*
X11488895Y-4990143D01*
X11443962Y-5020166D01*
X11429440Y-5041900D01*
X9467663Y-5041900D01*
X9385300Y-4959537D01*
X9385300Y-4876800D01*
X9453926Y-4876800D01*
X9466086Y-4894999D01*
X9509396Y-4923938D01*
X9560485Y-4934100D01*
X9565715Y-4934100D01*
X9616804Y-4923938D01*
X9660114Y-4894999D01*
X9689053Y-4851688D01*
X9693956Y-4827038D01*
X10191577Y-4827038D01*
X10211858Y-4876123D01*
X10249380Y-4913710D01*
X10298429Y-4934077D01*
X10351538Y-4934123D01*
X10400623Y-4913842D01*
X10438210Y-4876320D01*
X10458577Y-4827271D01*
X10458623Y-4774162D01*
X10438342Y-4725077D01*
X10400820Y-4687490D01*
X10351771Y-4667123D01*
X10298662Y-4667077D01*
X10249577Y-4687358D01*
X10211990Y-4724880D01*
X10191623Y-4773929D01*
X10191577Y-4827038D01*
X9693956Y-4827038D01*
X9699215Y-4800600D01*
X9689053Y-4749512D01*
X9660114Y-4706201D01*
X9616804Y-4677262D01*
X9565715Y-4667100D01*
X9560485Y-4667100D01*
X9509396Y-4677262D01*
X9466086Y-4706201D01*
X9453926Y-4724400D01*
X9101829Y-4724400D01*
X9110015Y-4722772D01*
X9156570Y-4691665D01*
X9187677Y-4645110D01*
X9198600Y-4590195D01*
X9198600Y-4503005D01*
X9187677Y-4448090D01*
X9156570Y-4401535D01*
X9137650Y-4388893D01*
X9137650Y-4154590D01*
X9159381Y-4140070D01*
X9166506Y-4129407D01*
X9169284Y-4143376D01*
X9183319Y-4164381D01*
X9204324Y-4178416D01*
X9229100Y-4183344D01*
X9389100Y-4183344D01*
X9413877Y-4178416D01*
X9434881Y-4164381D01*
X9448916Y-4143376D01*
X9453844Y-4118600D01*
X9453844Y-3958600D01*
X9448916Y-3933823D01*
X9434881Y-3912819D01*
X9413877Y-3898784D01*
X9398000Y-3895626D01*
X9398000Y-3884924D01*
X9472924Y-3810000D01*
X9907276Y-3810000D01*
X9982200Y-3884924D01*
X9982200Y-3919924D01*
X9966095Y-3930685D01*
X9963160Y-3935078D01*
X9961916Y-3928823D01*
X9947881Y-3907819D01*
X9926877Y-3893784D01*
X9902100Y-3888856D01*
X9732100Y-3888856D01*
X9707324Y-3893784D01*
X9686319Y-3907819D01*
X9672284Y-3928823D01*
X9667356Y-3953600D01*
X9667356Y-4123600D01*
X9672284Y-4148376D01*
X9686319Y-4169381D01*
X9707324Y-4183416D01*
X9732100Y-4188344D01*
X9902100Y-4188344D01*
X9926877Y-4183416D01*
X9947881Y-4169381D01*
X9961916Y-4148376D01*
X9963160Y-4142122D01*
X9966095Y-4146515D01*
X10014272Y-4178705D01*
X10071100Y-4190009D01*
X10127929Y-4178705D01*
X10176105Y-4146515D01*
X10198870Y-4112445D01*
X10205582Y-4126736D01*
X10248408Y-4165764D01*
X10289411Y-4182748D01*
X10312400Y-4170615D01*
X10312400Y-4051300D01*
X10337800Y-4051300D01*
X10337800Y-4170615D01*
X10360789Y-4182748D01*
X10401792Y-4165764D01*
X10444618Y-4126736D01*
X10469249Y-4074289D01*
X10457182Y-4051300D01*
X10337800Y-4051300D01*
X10312400Y-4051300D01*
X10310400Y-4051300D01*
X10310400Y-4025900D01*
X10312400Y-4025900D01*
X10312400Y-3906584D01*
X10337800Y-3906584D01*
X10337800Y-4025900D01*
X10457182Y-4025900D01*
X10469249Y-4002911D01*
X10444618Y-3950464D01*
X10401792Y-3911435D01*
X10360789Y-3894452D01*
X10337800Y-3906584D01*
X10312400Y-3906584D01*
X10289411Y-3894452D01*
X10248408Y-3911435D01*
X10205582Y-3950464D01*
X10198870Y-3964755D01*
X10176105Y-3930685D01*
X10160000Y-3919924D01*
X10160000Y-3848100D01*
X10153233Y-3814079D01*
X10133962Y-3785238D01*
X10006962Y-3658238D01*
X9998332Y-3652472D01*
X9978121Y-3638967D01*
X9944100Y-3632200D01*
X9436100Y-3632200D01*
X9402079Y-3638967D01*
X9381868Y-3652472D01*
X9373238Y-3658238D01*
X9246238Y-3785238D01*
X9226967Y-3814079D01*
X9220200Y-3848100D01*
X9220200Y-3895626D01*
X9204324Y-3898784D01*
X9183319Y-3912819D01*
X9169284Y-3933823D01*
X9166506Y-3947793D01*
X9159381Y-3937130D01*
X9137650Y-3922610D01*
X9137650Y-3818793D01*
X9291271Y-3665172D01*
X9291272Y-3665172D01*
X9309166Y-3638390D01*
X9311538Y-3626468D01*
X9315450Y-3606800D01*
X9315450Y-3606799D01*
X9315450Y-3409438D01*
X9336709Y-3400654D01*
X9388373Y-3349080D01*
X9407914Y-3302021D01*
X9427246Y-3348809D01*
X9478820Y-3400473D01*
X9546240Y-3428468D01*
X9619240Y-3428532D01*
X9686709Y-3400654D01*
X9738373Y-3349080D01*
X9742102Y-3340100D01*
X11189691Y-3340100D01*
X11200995Y-3396928D01*
X11233185Y-3445105D01*
X11266103Y-3467100D01*
X11233185Y-3489095D01*
X11200995Y-3537271D01*
X11189691Y-3594100D01*
X11200995Y-3650928D01*
X11233185Y-3699105D01*
X11266103Y-3721100D01*
X11233185Y-3743095D01*
X11200995Y-3791271D01*
X11189691Y-3848100D01*
X11200995Y-3904928D01*
X11233185Y-3953105D01*
X11266103Y-3975100D01*
X11233185Y-3997095D01*
X11200995Y-4045271D01*
X11189691Y-4102100D01*
X11200995Y-4158928D01*
X11233185Y-4207105D01*
X11281362Y-4239296D01*
X11338191Y-4250600D01*
X11344009Y-4250600D01*
X11400838Y-4239296D01*
X11449015Y-4207105D01*
X11481205Y-4158928D01*
X11492509Y-4102100D01*
X11481205Y-4045271D01*
X11449015Y-3997095D01*
X11416097Y-3975100D01*
X11449015Y-3953105D01*
X11459776Y-3937000D01*
X11494776Y-3937000D01*
X11722738Y-4164962D01*
X11751579Y-4184233D01*
X11785600Y-4191000D01*
X11920924Y-4191000D01*
X11931685Y-4207105D01*
X11979862Y-4239296D01*
X12036691Y-4250600D01*
X12042509Y-4250600D01*
X12099338Y-4239296D01*
X12147515Y-4207105D01*
X12179705Y-4158928D01*
X12191009Y-4102100D01*
X12179705Y-4045271D01*
X12147515Y-3997095D01*
X12113445Y-3974330D01*
X12127736Y-3967618D01*
X12166764Y-3924792D01*
X12183748Y-3883789D01*
X12171615Y-3860800D01*
X12052300Y-3860800D01*
X12052300Y-3862800D01*
X12026900Y-3862800D01*
X12026900Y-3860800D01*
X11907584Y-3860800D01*
X11895452Y-3883789D01*
X11912435Y-3924792D01*
X11951464Y-3967618D01*
X11965755Y-3974330D01*
X11931685Y-3997095D01*
X11920924Y-4013200D01*
X11822424Y-4013200D01*
X11594462Y-3785238D01*
X11584003Y-3778250D01*
X11565621Y-3765967D01*
X11531600Y-3759200D01*
X11459776Y-3759200D01*
X11449015Y-3743095D01*
X11416097Y-3721100D01*
X11449015Y-3699105D01*
X11459776Y-3683000D01*
X11890632Y-3683000D01*
X11894784Y-3703876D01*
X11908819Y-3724881D01*
X11929823Y-3738916D01*
X11940171Y-3740974D01*
X11912435Y-3771408D01*
X11895452Y-3812411D01*
X11907584Y-3835400D01*
X12026900Y-3835400D01*
X12026900Y-3833400D01*
X12052300Y-3833400D01*
X12052300Y-3835400D01*
X12171615Y-3835400D01*
X12183748Y-3812411D01*
X12166764Y-3771408D01*
X12139029Y-3740974D01*
X12149376Y-3738916D01*
X12170381Y-3724881D01*
X12184416Y-3703876D01*
X12189344Y-3679100D01*
X12189344Y-3509100D01*
X12184416Y-3484323D01*
X12170381Y-3463319D01*
X12149376Y-3449284D01*
X12124600Y-3444356D01*
X11954600Y-3444356D01*
X11929823Y-3449284D01*
X11908819Y-3463319D01*
X11894784Y-3484323D01*
X11890632Y-3505200D01*
X11459776Y-3505200D01*
X11449015Y-3489095D01*
X11416097Y-3467100D01*
X11449015Y-3445105D01*
X11481205Y-3396928D01*
X11492509Y-3340100D01*
X11481205Y-3283271D01*
X11449015Y-3235095D01*
X11413581Y-3211419D01*
X11422280Y-3207824D01*
X11462682Y-3167492D01*
X11484575Y-3114769D01*
X11484625Y-3057681D01*
X11462824Y-3004920D01*
X11423235Y-2965262D01*
X11816061Y-2965262D01*
X11850015Y-3047437D01*
X11912832Y-3110364D01*
X11994948Y-3144461D01*
X12083862Y-3144539D01*
X12166037Y-3110584D01*
X12228964Y-3047768D01*
X12263061Y-2965652D01*
X12263139Y-2876738D01*
X12229184Y-2794563D01*
X12166368Y-2731636D01*
X12084252Y-2697539D01*
X11995338Y-2697461D01*
X11913163Y-2731416D01*
X11850236Y-2794232D01*
X11816139Y-2876348D01*
X11816061Y-2965262D01*
X11423235Y-2965262D01*
X11422492Y-2964518D01*
X11369769Y-2942625D01*
X11312681Y-2942575D01*
X11259920Y-2964376D01*
X11219518Y-3004708D01*
X11197625Y-3057431D01*
X11197575Y-3114519D01*
X11219376Y-3167280D01*
X11259708Y-3207682D01*
X11268652Y-3211396D01*
X11233185Y-3235095D01*
X11200995Y-3283271D01*
X11189691Y-3340100D01*
X9742102Y-3340100D01*
X9766368Y-3281660D01*
X9766432Y-3208660D01*
X9738555Y-3141191D01*
X9686980Y-3089527D01*
X9619561Y-3061532D01*
X9546560Y-3061468D01*
X9479091Y-3089345D01*
X9427427Y-3140920D01*
X9407887Y-3187978D01*
X9388555Y-3141191D01*
X9336980Y-3089527D01*
X9269561Y-3061532D01*
X9196560Y-3061468D01*
X9129091Y-3089345D01*
X9077427Y-3140920D01*
X9066400Y-3167476D01*
X9066400Y-3112369D01*
X9056733Y-3089030D01*
X9038870Y-3071167D01*
X9015531Y-3061500D01*
X8911475Y-3061500D01*
X8895600Y-3077375D01*
X8895600Y-3232300D01*
X8897600Y-3232300D01*
X8897600Y-3257700D01*
X8895600Y-3257700D01*
X8895600Y-3412625D01*
X8911475Y-3428500D01*
X9015531Y-3428500D01*
X9038870Y-3418833D01*
X9056733Y-3400970D01*
X9066400Y-3377631D01*
X9066400Y-3322560D01*
X9077246Y-3348809D01*
X9128820Y-3400473D01*
X9150350Y-3409413D01*
X9150350Y-3572607D01*
X8996728Y-3726228D01*
X8978834Y-3753009D01*
X8976256Y-3765967D01*
X8972550Y-3784600D01*
X8972550Y-3922610D01*
X8950819Y-3937130D01*
X8928100Y-3971131D01*
X8905381Y-3937130D01*
X8883650Y-3922610D01*
X8883650Y-3721100D01*
X8880224Y-3703876D01*
X8877366Y-3689509D01*
X8864575Y-3670366D01*
X8859472Y-3662728D01*
X8859471Y-3662728D01*
X8732472Y-3535728D01*
X8705691Y-3517834D01*
X8674100Y-3511550D01*
X8263793Y-3511550D01*
X8157404Y-3405160D01*
X8168309Y-3400654D01*
X8219973Y-3349080D01*
X8239513Y-3302021D01*
X8258845Y-3348809D01*
X8310420Y-3400473D01*
X8377839Y-3428468D01*
X8450840Y-3428532D01*
X8518309Y-3400654D01*
X8569973Y-3349080D01*
X8597968Y-3281660D01*
X8597975Y-3273575D01*
X8699400Y-3273575D01*
X8699400Y-3377631D01*
X8709067Y-3400970D01*
X8726930Y-3418833D01*
X8750269Y-3428500D01*
X8854325Y-3428500D01*
X8870200Y-3412625D01*
X8870200Y-3257700D01*
X8715275Y-3257700D01*
X8699400Y-3273575D01*
X8597975Y-3273575D01*
X8598032Y-3208660D01*
X8570155Y-3141191D01*
X8541382Y-3112369D01*
X8699400Y-3112369D01*
X8699400Y-3216425D01*
X8715275Y-3232300D01*
X8870200Y-3232300D01*
X8870200Y-3077375D01*
X8854325Y-3061500D01*
X8750269Y-3061500D01*
X8726930Y-3071167D01*
X8709067Y-3089030D01*
X8699400Y-3112369D01*
X8541382Y-3112369D01*
X8518580Y-3089527D01*
X8451161Y-3061532D01*
X8378160Y-3061468D01*
X8310691Y-3089345D01*
X8259027Y-3140920D01*
X8239486Y-3187978D01*
X8220154Y-3141191D01*
X8168580Y-3089527D01*
X8101160Y-3061532D01*
X8028160Y-3061468D01*
X7960691Y-3089345D01*
X7909027Y-3140920D01*
X7898000Y-3167476D01*
X7898000Y-3112369D01*
X7888333Y-3089030D01*
X7870470Y-3071167D01*
X7847131Y-3061500D01*
X7743075Y-3061500D01*
X7727200Y-3077375D01*
X7727200Y-3232300D01*
X7729200Y-3232300D01*
X7729200Y-3257700D01*
X7727200Y-3257700D01*
X7727200Y-3412625D01*
X7743075Y-3428500D01*
X7847131Y-3428500D01*
X7870470Y-3418833D01*
X7888333Y-3400970D01*
X7898000Y-3377631D01*
X7898000Y-3322560D01*
X7908845Y-3348809D01*
X7960420Y-3400473D01*
X7981950Y-3409413D01*
X7981950Y-3429000D01*
X7988234Y-3460591D01*
X8006128Y-3487372D01*
X8093807Y-3575050D01*
X7057293Y-3575050D01*
X6978650Y-3496407D01*
X6978650Y-3409438D01*
X6999909Y-3400654D01*
X7051573Y-3349080D01*
X7071113Y-3302021D01*
X7090445Y-3348809D01*
X7142020Y-3400473D01*
X7209439Y-3428468D01*
X7282440Y-3428532D01*
X7349909Y-3400654D01*
X7401573Y-3349080D01*
X7429568Y-3281660D01*
X7429575Y-3273575D01*
X7531000Y-3273575D01*
X7531000Y-3377631D01*
X7540667Y-3400970D01*
X7558530Y-3418833D01*
X7581869Y-3428500D01*
X7685925Y-3428500D01*
X7701800Y-3412625D01*
X7701800Y-3257700D01*
X7546875Y-3257700D01*
X7531000Y-3273575D01*
X7429575Y-3273575D01*
X7429632Y-3208660D01*
X7401754Y-3141191D01*
X7372982Y-3112369D01*
X7531000Y-3112369D01*
X7531000Y-3216425D01*
X7546875Y-3232300D01*
X7701800Y-3232300D01*
X7701800Y-3077375D01*
X7685925Y-3061500D01*
X7581869Y-3061500D01*
X7558530Y-3071167D01*
X7540667Y-3089030D01*
X7531000Y-3112369D01*
X7372982Y-3112369D01*
X7350180Y-3089527D01*
X7282760Y-3061532D01*
X7209760Y-3061468D01*
X7142291Y-3089345D01*
X7090627Y-3140920D01*
X7071086Y-3187978D01*
X7051754Y-3141191D01*
X7000180Y-3089527D01*
X6932760Y-3061532D01*
X6859760Y-3061468D01*
X6792291Y-3089345D01*
X6740627Y-3140920D01*
X6729600Y-3167476D01*
X6729600Y-3112369D01*
X6719933Y-3089030D01*
X6702070Y-3071167D01*
X6678731Y-3061500D01*
X6574675Y-3061500D01*
X6558800Y-3077375D01*
X6558800Y-3232300D01*
X6560800Y-3232300D01*
X6560800Y-3257700D01*
X6558800Y-3257700D01*
X6558800Y-3412625D01*
X6574675Y-3428500D01*
X6678731Y-3428500D01*
X6702070Y-3418833D01*
X6719933Y-3400970D01*
X6729600Y-3377631D01*
X6729600Y-3322560D01*
X6740445Y-3348809D01*
X6792020Y-3400473D01*
X6813550Y-3409413D01*
X6813550Y-3530600D01*
X6819834Y-3562191D01*
X6837728Y-3588972D01*
X6887307Y-3638550D01*
X5810250Y-3638550D01*
X5810250Y-3409438D01*
X5831509Y-3400654D01*
X5883173Y-3349080D01*
X5902713Y-3302021D01*
X5922045Y-3348809D01*
X5973620Y-3400473D01*
X6041039Y-3428468D01*
X6114040Y-3428532D01*
X6181509Y-3400654D01*
X6233173Y-3349080D01*
X6261168Y-3281660D01*
X6261175Y-3273575D01*
X6362600Y-3273575D01*
X6362600Y-3377631D01*
X6372267Y-3400970D01*
X6390130Y-3418833D01*
X6413469Y-3428500D01*
X6517525Y-3428500D01*
X6533400Y-3412625D01*
X6533400Y-3257700D01*
X6378475Y-3257700D01*
X6362600Y-3273575D01*
X6261175Y-3273575D01*
X6261232Y-3208660D01*
X6233354Y-3141191D01*
X6204582Y-3112369D01*
X6362600Y-3112369D01*
X6362600Y-3216425D01*
X6378475Y-3232300D01*
X6533400Y-3232300D01*
X6533400Y-3077375D01*
X6517525Y-3061500D01*
X6413469Y-3061500D01*
X6390130Y-3071167D01*
X6372267Y-3089030D01*
X6362600Y-3112369D01*
X6204582Y-3112369D01*
X6181780Y-3089527D01*
X6114360Y-3061532D01*
X6041360Y-3061468D01*
X5973891Y-3089345D01*
X5922227Y-3140920D01*
X5902686Y-3187978D01*
X5883354Y-3141191D01*
X5831780Y-3089527D01*
X5764360Y-3061532D01*
X5691360Y-3061468D01*
X5623891Y-3089345D01*
X5572227Y-3140920D01*
X5561200Y-3167476D01*
X5561200Y-3112369D01*
X5551533Y-3089030D01*
X5533670Y-3071167D01*
X5510331Y-3061500D01*
X5406275Y-3061500D01*
X5390400Y-3077375D01*
X5390400Y-3232300D01*
X5392400Y-3232300D01*
X5392400Y-3257700D01*
X5390400Y-3257700D01*
X5390400Y-3412625D01*
X5406275Y-3428500D01*
X5510331Y-3428500D01*
X5533670Y-3418833D01*
X5551533Y-3400970D01*
X5561200Y-3377631D01*
X5561200Y-3322560D01*
X5572046Y-3348809D01*
X5623620Y-3400473D01*
X5645150Y-3409413D01*
X5645150Y-3695700D01*
X5651434Y-3727291D01*
X5669328Y-3754072D01*
X5694728Y-3779471D01*
X5694728Y-3779472D01*
X5710078Y-3789728D01*
X5721509Y-3797366D01*
X5753100Y-3803650D01*
X8131907Y-3803650D01*
X8210550Y-3882293D01*
X8210550Y-3922610D01*
X8188819Y-3937130D01*
X8157712Y-3983685D01*
X8146789Y-4038600D01*
X8157712Y-4093515D01*
X8188819Y-4140070D01*
X8210550Y-4154590D01*
X8210550Y-4388893D01*
X8191630Y-4401535D01*
X8166100Y-4439744D01*
X8140570Y-4401535D01*
X8094015Y-4370428D01*
X8039100Y-4359505D01*
X7984185Y-4370428D01*
X7937630Y-4401535D01*
X7912100Y-4439744D01*
X7886570Y-4401535D01*
X7840015Y-4370428D01*
X7785100Y-4359505D01*
X7730185Y-4370428D01*
X7683630Y-4401535D01*
X7658100Y-4439744D01*
X7632570Y-4401535D01*
X7586015Y-4370428D01*
X7531100Y-4359505D01*
X7476185Y-4370428D01*
X7429630Y-4401535D01*
X7404100Y-4439744D01*
X7378570Y-4401535D01*
X7332015Y-4370428D01*
X7277100Y-4359505D01*
X7222185Y-4370428D01*
X7175630Y-4401535D01*
X7150100Y-4439744D01*
X7124570Y-4401535D01*
X7078015Y-4370428D01*
X7023100Y-4359505D01*
X6968185Y-4370428D01*
X6921630Y-4401535D01*
X6896349Y-4439371D01*
X6861590Y-4396150D01*
X6812282Y-4369163D01*
X6804004Y-4367410D01*
X6781800Y-4379609D01*
X6781800Y-4533900D01*
X6783800Y-4533900D01*
X6783800Y-4559300D01*
X6781800Y-4559300D01*
X6781800Y-4561300D01*
X6756400Y-4561300D01*
X6756400Y-4559300D01*
X6625600Y-4559300D01*
X6625600Y-4599300D01*
X6641383Y-4653248D01*
X6676610Y-4697050D01*
X6725918Y-4724037D01*
X6727633Y-4724400D01*
X6464300Y-4724400D01*
X6464300Y-4493900D01*
X6625600Y-4493900D01*
X6625600Y-4533900D01*
X6756400Y-4533900D01*
X6756400Y-4379609D01*
X6734196Y-4367410D01*
X6725918Y-4369163D01*
X6676610Y-4396150D01*
X6641383Y-4439952D01*
X6625600Y-4493900D01*
X6464300Y-4493900D01*
X6464300Y-4419600D01*
X6463333Y-4414740D01*
X6460580Y-4410620D01*
X6397080Y-4347120D01*
X6392960Y-4344367D01*
X6388100Y-4343400D01*
X6134100Y-4343400D01*
X6129240Y-4344367D01*
X6125120Y-4347120D01*
X6061620Y-4410620D01*
X6058867Y-4414740D01*
X6057900Y-4419600D01*
X6057900Y-4724400D01*
X4991100Y-4724400D01*
X4961940Y-4730200D01*
X4937218Y-4746719D01*
X4886844Y-4797093D01*
X4886844Y-4652100D01*
X4881916Y-4627324D01*
X4867881Y-4606319D01*
X4846877Y-4592284D01*
X4840622Y-4591040D01*
X4845015Y-4588105D01*
X4877205Y-4539929D01*
X4888509Y-4483100D01*
X4877205Y-4426272D01*
X4845015Y-4378095D01*
X4812097Y-4356100D01*
X4845015Y-4334105D01*
X4877205Y-4285929D01*
X4888509Y-4229100D01*
X4877205Y-4172271D01*
X4845015Y-4124095D01*
X4796838Y-4091904D01*
X4740009Y-4080600D01*
X4734191Y-4080600D01*
X4677362Y-4091904D01*
X4629185Y-4124095D01*
X4596995Y-4172271D01*
X4585691Y-4229100D01*
X4596995Y-4285929D01*
X4629185Y-4334105D01*
X4662103Y-4356100D01*
X4629185Y-4378095D01*
X4596995Y-4426272D01*
X4585691Y-4483100D01*
X4596995Y-4539929D01*
X4629185Y-4588105D01*
X4633578Y-4591040D01*
X4627324Y-4592284D01*
X4606319Y-4606319D01*
X4592284Y-4627324D01*
X4587356Y-4652100D01*
X4587356Y-4822100D01*
X4592284Y-4846877D01*
X4606319Y-4867881D01*
X4627324Y-4881916D01*
X4652100Y-4886844D01*
X4801448Y-4886844D01*
X4793700Y-4898440D01*
X4787900Y-4927600D01*
X4787900Y-5452371D01*
X4786272Y-5444185D01*
X4755165Y-5397630D01*
X4708610Y-5366523D01*
X4653695Y-5355600D01*
X4566505Y-5355600D01*
X4511590Y-5366523D01*
X4465035Y-5397630D01*
X4452393Y-5416550D01*
X4218090Y-5416550D01*
X4203570Y-5394819D01*
X4192907Y-5387694D01*
X4206877Y-5384916D01*
X4227881Y-5370881D01*
X4241916Y-5349877D01*
X4246844Y-5325100D01*
X4246844Y-5165100D01*
X4241916Y-5140324D01*
X4227881Y-5119319D01*
X4206877Y-5105284D01*
X4182100Y-5100356D01*
X4022100Y-5100356D01*
X3997323Y-5105284D01*
X3976319Y-5119319D01*
X3975808Y-5120084D01*
X3937000Y-5081276D01*
X3937000Y-4646924D01*
X3958662Y-4625262D01*
X3957284Y-4627324D01*
X3952356Y-4652100D01*
X3952356Y-4822100D01*
X3957284Y-4846877D01*
X3971319Y-4867881D01*
X3992323Y-4881916D01*
X4017100Y-4886844D01*
X4187100Y-4886844D01*
X4211877Y-4881916D01*
X4232881Y-4867881D01*
X4246916Y-4846877D01*
X4251844Y-4822100D01*
X4251844Y-4652100D01*
X4246916Y-4627324D01*
X4232881Y-4606319D01*
X4211877Y-4592284D01*
X4205622Y-4591040D01*
X4210015Y-4588105D01*
X4242205Y-4539929D01*
X4253509Y-4483100D01*
X4242205Y-4426272D01*
X4210015Y-4378095D01*
X4175945Y-4355330D01*
X4190236Y-4348618D01*
X4229265Y-4305792D01*
X4246248Y-4264789D01*
X4234116Y-4241800D01*
X4114800Y-4241800D01*
X4114800Y-4243800D01*
X4089400Y-4243800D01*
X4089400Y-4241800D01*
X3970084Y-4241800D01*
X3957952Y-4264789D01*
X3974935Y-4305792D01*
X4013964Y-4348618D01*
X4028255Y-4355330D01*
X3994185Y-4378095D01*
X3983424Y-4394200D01*
X3975100Y-4394200D01*
X3941079Y-4400967D01*
X3935609Y-4404622D01*
X3912238Y-4420238D01*
X3803650Y-4528826D01*
X3803650Y-4193411D01*
X3957952Y-4193411D01*
X3970084Y-4216400D01*
X4089400Y-4216400D01*
X4089400Y-4097018D01*
X4114800Y-4097018D01*
X4114800Y-4216400D01*
X4234116Y-4216400D01*
X4246248Y-4193411D01*
X4229265Y-4152408D01*
X4190236Y-4109582D01*
X4137789Y-4084951D01*
X4114800Y-4097018D01*
X4089400Y-4097018D01*
X4066411Y-4084951D01*
X4013964Y-4109582D01*
X3974935Y-4152408D01*
X3957952Y-4193411D01*
X3803650Y-4193411D01*
X3803650Y-3975100D01*
X3803650Y-3975100D01*
X3797366Y-3943509D01*
X3790894Y-3933823D01*
X3779472Y-3916728D01*
X3779471Y-3916728D01*
X3614372Y-3751628D01*
X3587591Y-3733734D01*
X3556000Y-3727450D01*
X3409438Y-3727450D01*
X3400654Y-3706191D01*
X3349080Y-3654527D01*
X3302021Y-3634986D01*
X3348809Y-3615654D01*
X3400473Y-3564080D01*
X3428468Y-3496660D01*
X3428532Y-3423660D01*
X3400654Y-3356191D01*
X3349080Y-3304527D01*
X3281660Y-3276532D01*
X3208660Y-3276468D01*
X3141191Y-3304345D01*
X3089527Y-3355920D01*
X3061532Y-3423339D01*
X3061468Y-3496340D01*
X2604770Y-3496340D01*
X2604770Y-3273575D01*
X5194200Y-3273575D01*
X5194200Y-3377631D01*
X5203867Y-3400970D01*
X5221730Y-3418833D01*
X5245069Y-3428500D01*
X5349125Y-3428500D01*
X5365000Y-3412625D01*
X5365000Y-3257700D01*
X5210075Y-3257700D01*
X5194200Y-3273575D01*
X2604770Y-3273575D01*
X2604770Y-2965262D01*
X2697461Y-2965262D01*
X2731416Y-3047437D01*
X2794232Y-3110364D01*
X2876348Y-3144461D01*
X2965262Y-3144539D01*
X3043118Y-3112369D01*
X5194200Y-3112369D01*
X5194200Y-3216425D01*
X5210075Y-3232300D01*
X5365000Y-3232300D01*
X5365000Y-3077375D01*
X5349125Y-3061500D01*
X5245069Y-3061500D01*
X5221730Y-3071167D01*
X5203867Y-3089030D01*
X5194200Y-3112369D01*
X3043118Y-3112369D01*
X3047437Y-3110584D01*
X3110364Y-3047768D01*
X3144461Y-2965652D01*
X3144539Y-2876738D01*
X3110584Y-2794563D01*
X3047768Y-2731636D01*
X2965652Y-2697539D01*
X2876738Y-2697461D01*
X2794563Y-2731416D01*
X2731636Y-2794232D01*
X2697539Y-2876348D01*
X2697461Y-2965262D01*
X2604770Y-2965262D01*
X2604770Y-2604770D01*
X12355830Y-2604770D01*
X12355830Y-9688830D01*
M02*
