M48
;DRILL file {KiCad no-vcs-found-ecdfa40~58~ubuntu16.04.1} date Tue Apr 25 16:02:10 2017
;FORMAT={2:4/ absolute / inch / suppress leading zeros}
FMAT,2
INCH,TZ
T1C0.016
T2C0.028
T3C0.031
T4C0.039
T5C0.047
%
G90
G05
M72
T1
X43525Y-23275
X44025Y-23275
T2
X37650Y-18900
X40650Y-18900
T3
X16150Y-20650
X16150Y-21650
X16150Y-22650
X16150Y-23650
X16150Y-24650
X16150Y-25650
X16150Y-26650
X16150Y-27650
X16150Y-28650
X18150Y-21650
X18150Y-22650
X18150Y-23650
X18150Y-24650
X18150Y-25650
X18150Y-26650
X18150Y-27650
X18150Y-28650
X18150Y-29650
X18150Y-30650
X18150Y-32650
X20119Y-32650
X21150Y-21650
X21150Y-22650
X21150Y-23650
X21150Y-24650
X21150Y-25650
X21150Y-26650
X21150Y-27650
X21150Y-28650
X21150Y-29650
X21150Y-30650
X23150Y-21650
X23150Y-22650
X23150Y-23650
X23150Y-24650
X24650Y-17900
X24650Y-19869
X26650Y-17900
X26650Y-20900
X27650Y-17900
X27650Y-20900
X27650Y-32650
X28650Y-17900
X28650Y-20900
X28650Y-27650
X28650Y-30650
X28650Y-32650
X29650Y-17900
X29650Y-20900
X29650Y-27650
X29650Y-30650
X29650Y-32650
X30650Y-17900
X30650Y-20900
X30650Y-27650
X30650Y-30650
X30650Y-32650
X31650Y-17900
X31650Y-20900
X31650Y-27650
X31650Y-30650
X31650Y-32650
X32650Y-15900
X32650Y-17900
X32650Y-20900
X32650Y-27650
X32650Y-30650
X32650Y-32650
X33650Y-15900
X33650Y-17900
X33650Y-20900
X33650Y-27650
X33650Y-30650
X33650Y-32650
X34650Y-15900
X34650Y-17900
X34650Y-20900
X34650Y-27650
X34650Y-30650
X34650Y-32650
X35650Y-15900
X35650Y-17900
X35650Y-20900
X35650Y-27650
X35650Y-30650
X35650Y-32650
X36650Y-15900
X36650Y-27650
X36650Y-30650
X37650Y-27650
X37650Y-30650
X39650Y-28681
X39650Y-30650
X44650Y-12150
T4
X16150Y-16650
X16150Y-17650
X16150Y-18650
X18650Y-16650
X18650Y-17650
X18650Y-18650
X23400Y-32650
X24400Y-32650
X25400Y-32650
X38650Y-15900
X39650Y-15900
X40650Y-15900
X44650Y-13150
X44650Y-14150
X44650Y-15150
X44650Y-16150
X45650Y-20150
X45650Y-21150
X45650Y-22150
X45650Y-23150
X45650Y-24150
X45650Y-25150
X45650Y-26150
X45650Y-27150
X45650Y-28150
X45650Y-29150
X45650Y-30150
X45650Y-31150
X45650Y-32150
X46650Y-20150
X46650Y-21150
X46650Y-22150
X46650Y-23150
X46650Y-24150
X46650Y-25150
X46650Y-26150
X46650Y-27150
X46650Y-28150
X46650Y-29150
X46650Y-30150
X46650Y-31150
X46650Y-32150
X47400Y-14150
X47400Y-15150
X47400Y-16150
T5
X12776Y-13622
X12776Y-15000
X12776Y-16378
X12776Y-18222
X12776Y-19600
X12776Y-20978
X12776Y-22822
X12776Y-24200
X12776Y-25578
X12776Y-27422
X12776Y-28800
X12776Y-30178
X12776Y-32022
X12776Y-33400
X12776Y-34778
X18416Y-35624
X19794Y-35624
X21172Y-12776
X21172Y-35624
X22550Y-12776
X22550Y-35624
X23928Y-12776
X24394Y-35624
X25772Y-12776
X25772Y-35624
X27150Y-12776
X27150Y-35624
X28528Y-12776
X28528Y-35624
X30372Y-12776
X30372Y-35624
X31750Y-12776
X31750Y-35624
X33128Y-12776
X33128Y-35624
X34506Y-35624
X34972Y-12776
X36350Y-12776
X36350Y-35624
X37728Y-12776
X37728Y-35624
X39106Y-35624
X40484Y-35624
T0
M30
