G04 #@! TF.FileFunction,Soldermask,Top*
%FSLAX45Y45*%
G04 Gerber Fmt 4.5, Leading zero omitted, Abs format (unit mm)*
G04 Created by KiCad (PCBNEW 4.0.7-e2-6376~58~ubuntu16.04.1) date Wed Sep 20 11:28:03 2017*
%MOMM*%
%LPD*%
G01*
G04 APERTURE LIST*
%ADD10C,0.100000*%
%ADD11O,2.400000X1.900000*%
%ADD12R,2.400000X1.900000*%
%ADD13R,2.100000X2.100000*%
%ADD14O,2.100000X2.100000*%
%ADD15R,2.000000X2.000000*%
%ADD16O,2.000000X2.000000*%
%ADD17C,3.600000*%
%ADD18C,2.000000*%
%ADD19R,2.000000X2.800000*%
%ADD20O,2.000000X2.800000*%
%ADD21R,2.800000X2.000000*%
%ADD22O,2.800000X2.000000*%
%ADD23C,1.800000*%
%ADD24O,1.800000X1.800000*%
%ADD25C,2.800000*%
%ADD26R,2.800000X2.800000*%
G04 APERTURE END LIST*
D10*
D11*
X11570100Y-7658100D03*
X11874100Y-7658100D03*
X11570100Y-7912100D03*
X11874100Y-7912100D03*
X11570100Y-8166100D03*
D12*
X11874100Y-8166100D03*
D11*
X11874100Y-7404100D03*
X11570100Y-7404100D03*
X11570100Y-7150100D03*
X11874100Y-7150100D03*
X11874100Y-6896100D03*
X11570100Y-6896100D03*
X11570100Y-6642100D03*
X11874100Y-6642100D03*
X11874100Y-6388100D03*
X11570100Y-6388100D03*
X11570100Y-6134100D03*
X11874100Y-6134100D03*
X11874100Y-5880100D03*
X11570100Y-5880100D03*
X11570100Y-5626100D03*
X11874100Y-5626100D03*
X11874100Y-5372100D03*
X11570100Y-5372100D03*
X11570100Y-5118100D03*
X11874100Y-5118100D03*
D13*
X4737100Y-4737100D03*
D14*
X4737100Y-4483100D03*
X4737100Y-4229100D03*
D13*
X5943600Y-8293100D03*
D14*
X6197600Y-8293100D03*
X6451600Y-8293100D03*
D13*
X4102100Y-4737100D03*
D14*
X4102100Y-4483100D03*
X4102100Y-4229100D03*
D15*
X4102100Y-5245100D03*
D16*
X4102100Y-5499100D03*
X4102100Y-5753100D03*
X4102100Y-6007100D03*
X4102100Y-6261100D03*
X4102100Y-6515100D03*
X4102100Y-6769100D03*
X4102100Y-7023100D03*
X4102100Y-7277100D03*
D17*
X2921000Y-2921000D03*
X2921000Y-9372600D03*
X12039600Y-9372600D03*
D18*
X10071100Y-7285100D03*
X10071100Y-7785100D03*
X5110100Y-8293100D03*
X4610100Y-8293100D03*
X6261100Y-4546600D03*
X6261100Y-5046600D03*
D14*
X11341100Y-4102100D03*
X11341100Y-3848100D03*
X11341100Y-3594100D03*
X11341100Y-3340100D03*
D18*
X11341100Y-3086100D03*
D14*
X12039600Y-4102100D03*
X12039600Y-3848100D03*
D13*
X12039600Y-3594100D03*
D17*
X12039600Y-2921000D03*
D15*
X5880100Y-5499100D03*
D16*
X5880100Y-5753100D03*
X5880100Y-6007100D03*
X5880100Y-6261100D03*
D15*
X7023100Y-8293100D03*
D16*
X7277100Y-8293100D03*
X7531100Y-8293100D03*
X7785100Y-8293100D03*
X8039100Y-8293100D03*
X8293100Y-8293100D03*
X8547100Y-8293100D03*
X8801100Y-8293100D03*
X9055100Y-8293100D03*
D15*
X9309100Y-4038600D03*
D16*
X9055100Y-4038600D03*
X8801100Y-4038600D03*
X8547100Y-4038600D03*
X8293100Y-4038600D03*
D13*
X9817100Y-4038600D03*
D14*
X10071100Y-4038600D03*
X10325100Y-4038600D03*
D19*
X6769100Y-5308600D03*
D20*
X9055100Y-4546600D03*
X7023100Y-5308600D03*
X8801100Y-4546600D03*
X7277100Y-5308600D03*
X8547100Y-4546600D03*
X7531100Y-5308600D03*
X8293100Y-4546600D03*
X7785100Y-5308600D03*
X8039100Y-4546600D03*
X8039100Y-5308600D03*
X7785100Y-4546600D03*
X8293100Y-5308600D03*
X7531100Y-4546600D03*
X8547100Y-5308600D03*
X7277100Y-4546600D03*
X8801100Y-5308600D03*
X7023100Y-4546600D03*
X9055100Y-5308600D03*
X6769100Y-4546600D03*
D21*
X5372100Y-7785100D03*
D22*
X4610100Y-5499100D03*
X5372100Y-7531100D03*
X4610100Y-5753100D03*
X5372100Y-7277100D03*
X4610100Y-6007100D03*
X5372100Y-7023100D03*
X4610100Y-6261100D03*
X5372100Y-6769100D03*
X4610100Y-6515100D03*
X5372100Y-6515100D03*
X4610100Y-6769100D03*
X5372100Y-6261100D03*
X4610100Y-7023100D03*
X5372100Y-6007100D03*
X4610100Y-7277100D03*
X5372100Y-5753100D03*
X4610100Y-7531100D03*
X5372100Y-5499100D03*
X4610100Y-7785100D03*
D19*
X9563100Y-7023100D03*
D20*
X7277100Y-7785100D03*
X9309100Y-7023100D03*
X7531100Y-7785100D03*
X9055100Y-7023100D03*
X7785100Y-7785100D03*
X8801100Y-7023100D03*
X8039100Y-7785100D03*
X8547100Y-7023100D03*
X8293100Y-7785100D03*
X8293100Y-7023100D03*
X8547100Y-7785100D03*
X8039100Y-7023100D03*
X8801100Y-7785100D03*
X7785100Y-7023100D03*
X9055100Y-7785100D03*
X7531100Y-7023100D03*
X9309100Y-7785100D03*
X7277100Y-7023100D03*
X9563100Y-7785100D03*
D23*
X10325100Y-4800600D03*
D24*
X9563100Y-4800600D03*
D25*
X3245000Y-8483600D03*
D26*
X3245000Y-8833600D03*
D25*
X3245000Y-8133600D03*
X3245000Y-7315200D03*
D26*
X3245000Y-7665200D03*
D25*
X3245000Y-6965200D03*
X3245000Y-6146800D03*
D26*
X3245000Y-6496800D03*
D25*
X3245000Y-5796800D03*
X3245000Y-4978400D03*
D26*
X3245000Y-5328400D03*
D25*
X3245000Y-4628400D03*
X3245000Y-3810000D03*
D26*
X3245000Y-4160000D03*
D25*
X3245000Y-3460000D03*
X5377754Y-9048600D03*
D26*
X5727754Y-9048600D03*
D25*
X5027754Y-9048600D03*
X4677754Y-9048600D03*
X6896100Y-9048600D03*
D26*
X7246100Y-9048600D03*
D25*
X6546100Y-9048600D03*
X6196100Y-9048600D03*
X8414500Y-9048600D03*
D26*
X8764500Y-9048600D03*
D25*
X8064500Y-9048600D03*
X7714500Y-9048600D03*
X9932900Y-9048600D03*
D26*
X10282900Y-9048600D03*
D25*
X9582900Y-9048600D03*
X9232900Y-9048600D03*
X5727700Y-3245000D03*
D26*
X5377700Y-3245000D03*
D25*
X6077700Y-3245000D03*
X6896100Y-3245000D03*
D26*
X6546100Y-3245000D03*
D25*
X7246100Y-3245000D03*
X8064500Y-3245000D03*
D26*
X7714500Y-3245000D03*
D25*
X8414500Y-3245000D03*
X9232900Y-3245000D03*
D26*
X8882900Y-3245000D03*
D25*
X9582900Y-3245000D03*
M02*
